<?xml version="1.0" encoding="utf-8" standalone="no"?>
<!DOCTYPE svg PUBLIC "-//W3C//DTD SVG 1.1//EN"
  "http://www.w3.org/Graphics/SVG/1.1/DTD/svg11.dtd">
<svg xmlns:xlink="http://www.w3.org/1999/xlink" width="864pt" height="460.8pt" viewBox="0 0 864 460.8" xmlns="http://www.w3.org/2000/svg" version="1.1">
 <metadata>
  <rdf:RDF xmlns:dc="http://purl.org/dc/elements/1.1/" xmlns:cc="http://creativecommons.org/ns#" xmlns:rdf="http://www.w3.org/1999/02/22-rdf-syntax-ns#">
   <cc:Work>
    <dc:type rdf:resource="http://purl.org/dc/dcmitype/StillImage"/>
    <dc:date>2026-09-19T09:06:50.198174</dc:date>
    <dc:format>image/svg+xml</dc:format>
    <dc:creator>
     <cc:Agent>
      <dc:title>Matplotlib v3.10.9, https://matplotlib.org/</dc:title>
     </cc:Agent>
    </dc:creator>
   </cc:Work>
  </rdf:RDF>
 </metadata>
 <defs>
  <style type="text/css">*{stroke-linejoin: round; stroke-linecap: butt}</style>
 </defs>
 <g id="figure_1">
  <g id="patch_1">
   <path d="M 0 460.8 
L 864 460.8 
L 864 0 
L 0 0 
z
" style="fill: #ffffff"/>
  </g>
  <g id="axes_1">
   <g id="patch_2">
    <path d="M 36.74 277.885116 
L 815.2 277.885116 
L 815.2 25.62 
L 36.74 25.62 
z
" style="fill: #ffffff"/>
   </g>
   <g id="patch_3">
    <path d="M 72.124545 277.885116 
L 488.413316 277.885116 
L 488.413316 25.62 
L 72.124545 25.62 
z
" clip-path="url(#p60bb23f7ab)" style="fill: #e8f0fb"/>
   </g>
   <g id="patch_4">
    <path d="M 488.413316 277.885116 
L 696.557701 277.885116 
L 696.557701 25.62 
L 488.413316 25.62 
z
" clip-path="url(#p60bb23f7ab)" style="fill: #fff4e0"/>
   </g>
   <g id="patch_5">
    <path d="M 696.557701 277.885116 
L 738.186578 277.885116 
L 738.186578 25.62 
L 696.557701 25.62 
z
" clip-path="url(#p60bb23f7ab)" style="fill: #fde4e4"/>
   </g>
   <g id="patch_6">
    <path d="M 738.186578 277.885116 
L 779.815455 277.885116 
L 779.815455 25.62 
L 738.186578 25.62 
z
" clip-path="url(#p60bb23f7ab)" style="fill: #f9c9c9"/>
   </g>
   <g id="matplotlib.axis_1">
    <g id="xtick_1">
     <g id="line2d_1">
      <defs>
       <path id="m3ededddb2b" d="M 0 0 
L 0 3.5 
" style="stroke: #000000; stroke-width: 0.8"/>
      </defs>
      <g>
       <use xlink:href="#m3ededddb2b" x="92.938984" y="277.885116" style="stroke: #000000; stroke-width: 0.8"/>
      </g>
     </g>
    </g>
    <g id="xtick_2">
     <g id="line2d_2">
      <g>
       <use xlink:href="#m3ededddb2b" x="134.567861" y="277.885116" style="stroke: #000000; stroke-width: 0.8"/>
      </g>
     </g>
    </g>
    <g id="xtick_3">
     <g id="line2d_3">
      <g>
       <use xlink:href="#m3ededddb2b" x="176.196738" y="277.885116" style="stroke: #000000; stroke-width: 0.8"/>
      </g>
     </g>
    </g>
    <g id="xtick_4">
     <g id="line2d_4">
      <g>
       <use xlink:href="#m3ededddb2b" x="217.825615" y="277.885116" style="stroke: #000000; stroke-width: 0.8"/>
      </g>
     </g>
    </g>
    <g id="xtick_5">
     <g id="line2d_5">
      <g>
       <use xlink:href="#m3ededddb2b" x="259.454492" y="277.885116" style="stroke: #000000; stroke-width: 0.8"/>
      </g>
     </g>
    </g>
    <g id="xtick_6">
     <g id="line2d_6">
      <g>
       <use xlink:href="#m3ededddb2b" x="301.083369" y="277.885116" style="stroke: #000000; stroke-width: 0.8"/>
      </g>
     </g>
    </g>
    <g id="xtick_7">
     <g id="line2d_7">
      <g>
       <use xlink:href="#m3ededddb2b" x="342.712246" y="277.885116" style="stroke: #000000; stroke-width: 0.8"/>
      </g>
     </g>
    </g>
    <g id="xtick_8">
     <g id="line2d_8">
      <g>
       <use xlink:href="#m3ededddb2b" x="384.341123" y="277.885116" style="stroke: #000000; stroke-width: 0.8"/>
      </g>
     </g>
    </g>
    <g id="xtick_9">
     <g id="line2d_9">
      <g>
       <use xlink:href="#m3ededddb2b" x="425.97" y="277.885116" style="stroke: #000000; stroke-width: 0.8"/>
      </g>
     </g>
    </g>
    <g id="xtick_10">
     <g id="line2d_10">
      <g>
       <use xlink:href="#m3ededddb2b" x="467.598877" y="277.885116" style="stroke: #000000; stroke-width: 0.8"/>
      </g>
     </g>
    </g>
    <g id="xtick_11">
     <g id="line2d_11">
      <g>
       <use xlink:href="#m3ededddb2b" x="509.227754" y="277.885116" style="stroke: #000000; stroke-width: 0.8"/>
      </g>
     </g>
    </g>
    <g id="xtick_12">
     <g id="line2d_12">
      <g>
       <use xlink:href="#m3ededddb2b" x="550.856631" y="277.885116" style="stroke: #000000; stroke-width: 0.8"/>
      </g>
     </g>
    </g>
    <g id="xtick_13">
     <g id="line2d_13">
      <g>
       <use xlink:href="#m3ededddb2b" x="592.485508" y="277.885116" style="stroke: #000000; stroke-width: 0.8"/>
      </g>
     </g>
    </g>
    <g id="xtick_14">
     <g id="line2d_14">
      <g>
       <use xlink:href="#m3ededddb2b" x="634.114385" y="277.885116" style="stroke: #000000; stroke-width: 0.8"/>
      </g>
     </g>
    </g>
    <g id="xtick_15">
     <g id="line2d_15">
      <g>
       <use xlink:href="#m3ededddb2b" x="675.743262" y="277.885116" style="stroke: #000000; stroke-width: 0.8"/>
      </g>
     </g>
    </g>
    <g id="xtick_16">
     <g id="line2d_16">
      <g>
       <use xlink:href="#m3ededddb2b" x="717.372139" y="277.885116" style="stroke: #000000; stroke-width: 0.8"/>
      </g>
     </g>
    </g>
    <g id="xtick_17">
     <g id="line2d_17">
      <g>
       <use xlink:href="#m3ededddb2b" x="759.001016" y="277.885116" style="stroke: #000000; stroke-width: 0.8"/>
      </g>
     </g>
    </g>
   </g>
   <g id="matplotlib.axis_2">
    <g id="ytick_1">
     <g id="line2d_18">
      <defs>
       <path id="m641888c54d" d="M 0 0 
L -3.5 0 
" style="stroke: #000000; stroke-width: 0.8"/>
      </defs>
      <g>
       <use xlink:href="#m641888c54d" x="36.74" y="277.885116" style="stroke: #000000; stroke-width: 0.8"/>
      </g>
     </g>
     <g id="text_1">
      <!-- 3 -->
      <g transform="translate(23.695625 281.494374) scale(0.095 -0.095)">
       <defs>
        <path id="DejaVuSans-33" d="M 2597 2516 
Q 3050 2419 3304 2112 
Q 3559 1806 3559 1356 
Q 3559 666 3084 287 
Q 2609 -91 1734 -91 
Q 1441 -91 1130 -33 
Q 819 25 488 141 
L 488 750 
Q 750 597 1062 519 
Q 1375 441 1716 441 
Q 2309 441 2620 675 
Q 2931 909 2931 1356 
Q 2931 1769 2642 2001 
Q 2353 2234 1838 2234 
L 1294 2234 
L 1294 2753 
L 1863 2753 
Q 2328 2753 2575 2939 
Q 2822 3125 2822 3475 
Q 2822 3834 2567 4026 
Q 2313 4219 1838 4219 
Q 1578 4219 1281 4162 
Q 984 4106 628 3988 
L 628 4550 
Q 988 4650 1302 4700 
Q 1616 4750 1894 4750 
Q 2613 4750 3031 4423 
Q 3450 4097 3450 3541 
Q 3450 3153 3228 2886 
Q 3006 2619 2597 2516 
z
" transform="scale(0.015625)"/>
       </defs>
       <use xlink:href="#DejaVuSans-33"/>
      </g>
     </g>
    </g>
    <g id="ytick_2">
     <g id="line2d_19">
      <g>
       <use xlink:href="#m641888c54d" x="36.74" y="237.197194" style="stroke: #000000; stroke-width: 0.8"/>
      </g>
     </g>
     <g id="text_2">
      <!-- 4 -->
      <g transform="translate(23.695625 240.806452) scale(0.095 -0.095)">
       <defs>
        <path id="DejaVuSans-34" d="M 2419 4116 
L 825 1625 
L 2419 1625 
L 2419 4116 
z
M 2253 4666 
L 3047 4666 
L 3047 1625 
L 3713 1625 
L 3713 1100 
L 3047 1100 
L 3047 0 
L 2419 0 
L 2419 1100 
L 313 1100 
L 313 1709 
L 2253 4666 
z
" transform="scale(0.015625)"/>
       </defs>
       <use xlink:href="#DejaVuSans-34"/>
      </g>
     </g>
    </g>
    <g id="ytick_3">
     <g id="line2d_20">
      <g>
       <use xlink:href="#m641888c54d" x="36.74" y="196.509272" style="stroke: #000000; stroke-width: 0.8"/>
      </g>
     </g>
     <g id="text_3">
      <!-- 5 -->
      <g transform="translate(23.695625 200.11853) scale(0.095 -0.095)">
       <defs>
        <path id="DejaVuSans-35" d="M 691 4666 
L 3169 4666 
L 3169 4134 
L 1269 4134 
L 1269 2991 
Q 1406 3038 1543 3061 
Q 1681 3084 1819 3084 
Q 2600 3084 3056 2656 
Q 3513 2228 3513 1497 
Q 3513 744 3044 326 
Q 2575 -91 1722 -91 
Q 1428 -91 1123 -41 
Q 819 9 494 109 
L 494 744 
Q 775 591 1075 516 
Q 1375 441 1709 441 
Q 2250 441 2565 725 
Q 2881 1009 2881 1497 
Q 2881 1984 2565 2268 
Q 2250 2553 1709 2553 
Q 1456 2553 1204 2497 
Q 953 2441 691 2322 
L 691 4666 
z
" transform="scale(0.015625)"/>
       </defs>
       <use xlink:href="#DejaVuSans-35"/>
      </g>
     </g>
    </g>
    <g id="ytick_4">
     <g id="line2d_21">
      <g>
       <use xlink:href="#m641888c54d" x="36.74" y="155.82135" style="stroke: #000000; stroke-width: 0.8"/>
      </g>
     </g>
     <g id="text_4">
      <!-- 6 -->
      <g transform="translate(23.695625 159.430608) scale(0.095 -0.095)">
       <defs>
        <path id="DejaVuSans-36" d="M 2113 2584 
Q 1688 2584 1439 2293 
Q 1191 2003 1191 1497 
Q 1191 994 1439 701 
Q 1688 409 2113 409 
Q 2538 409 2786 701 
Q 3034 994 3034 1497 
Q 3034 2003 2786 2293 
Q 2538 2584 2113 2584 
z
M 3366 4563 
L 3366 3988 
Q 3128 4100 2886 4159 
Q 2644 4219 2406 4219 
Q 1781 4219 1451 3797 
Q 1122 3375 1075 2522 
Q 1259 2794 1537 2939 
Q 1816 3084 2150 3084 
Q 2853 3084 3261 2657 
Q 3669 2231 3669 1497 
Q 3669 778 3244 343 
Q 2819 -91 2113 -91 
Q 1303 -91 875 529 
Q 447 1150 447 2328 
Q 447 3434 972 4092 
Q 1497 4750 2381 4750 
Q 2619 4750 2861 4703 
Q 3103 4656 3366 4563 
z
" transform="scale(0.015625)"/>
       </defs>
       <use xlink:href="#DejaVuSans-36"/>
      </g>
     </g>
    </g>
    <g id="ytick_5">
     <g id="line2d_22">
      <g>
       <use xlink:href="#m641888c54d" x="36.74" y="115.133428" style="stroke: #000000; stroke-width: 0.8"/>
      </g>
     </g>
     <g id="text_5">
      <!-- 7 -->
      <g transform="translate(23.695625 118.742686) scale(0.095 -0.095)">
       <defs>
        <path id="DejaVuSans-37" d="M 525 4666 
L 3525 4666 
L 3525 4397 
L 1831 0 
L 1172 0 
L 2766 4134 
L 525 4134 
L 525 4666 
z
" transform="scale(0.015625)"/>
       </defs>
       <use xlink:href="#DejaVuSans-37"/>
      </g>
     </g>
    </g>
    <g id="ytick_6">
     <g id="line2d_23">
      <g>
       <use xlink:href="#m641888c54d" x="36.74" y="74.445506" style="stroke: #000000; stroke-width: 0.8"/>
      </g>
     </g>
     <g id="text_6">
      <!-- 8 -->
      <g transform="translate(23.695625 78.054764) scale(0.095 -0.095)">
       <defs>
        <path id="DejaVuSans-38" d="M 2034 2216 
Q 1584 2216 1326 1975 
Q 1069 1734 1069 1313 
Q 1069 891 1326 650 
Q 1584 409 2034 409 
Q 2484 409 2743 651 
Q 3003 894 3003 1313 
Q 3003 1734 2745 1975 
Q 2488 2216 2034 2216 
z
M 1403 2484 
Q 997 2584 770 2862 
Q 544 3141 544 3541 
Q 544 4100 942 4425 
Q 1341 4750 2034 4750 
Q 2731 4750 3128 4425 
Q 3525 4100 3525 3541 
Q 3525 3141 3298 2862 
Q 3072 2584 2669 2484 
Q 3125 2378 3379 2068 
Q 3634 1759 3634 1313 
Q 3634 634 3220 271 
Q 2806 -91 2034 -91 
Q 1263 -91 848 271 
Q 434 634 434 1313 
Q 434 1759 690 2068 
Q 947 2378 1403 2484 
z
M 1172 3481 
Q 1172 3119 1398 2916 
Q 1625 2713 2034 2713 
Q 2441 2713 2670 2916 
Q 2900 3119 2900 3481 
Q 2900 3844 2670 4047 
Q 2441 4250 2034 4250 
Q 1625 4250 1398 4047 
Q 1172 3844 1172 3481 
z
" transform="scale(0.015625)"/>
       </defs>
       <use xlink:href="#DejaVuSans-38"/>
      </g>
     </g>
    </g>
    <g id="ytick_7">
     <g id="line2d_24">
      <g>
       <use xlink:href="#m641888c54d" x="36.74" y="33.757584" style="stroke: #000000; stroke-width: 0.8"/>
      </g>
     </g>
     <g id="text_7">
      <!-- 9 -->
      <g transform="translate(23.695625 37.366842) scale(0.095 -0.095)">
       <defs>
        <path id="DejaVuSans-39" d="M 703 97 
L 703 672 
Q 941 559 1184 500 
Q 1428 441 1663 441 
Q 2288 441 2617 861 
Q 2947 1281 2994 2138 
Q 2813 1869 2534 1725 
Q 2256 1581 1919 1581 
Q 1219 1581 811 2004 
Q 403 2428 403 3163 
Q 403 3881 828 4315 
Q 1253 4750 1959 4750 
Q 2769 4750 3195 4129 
Q 3622 3509 3622 2328 
Q 3622 1225 3098 567 
Q 2575 -91 1691 -91 
Q 1453 -91 1209 -44 
Q 966 3 703 97 
z
M 1959 2075 
Q 2384 2075 2632 2365 
Q 2881 2656 2881 3163 
Q 2881 3666 2632 3958 
Q 2384 4250 1959 4250 
Q 1534 4250 1286 3958 
Q 1038 3666 1038 3163 
Q 1038 2656 1286 2365 
Q 1534 2075 1959 2075 
z
" transform="scale(0.015625)"/>
       </defs>
       <use xlink:href="#DejaVuSans-39"/>
      </g>
     </g>
    </g>
    <g id="text_8">
     <!-- Física mean, ordinary sitting -->
     <g transform="translate(17.719922 219.290136) rotate(-90) scale(0.095 -0.095)">
      <defs>
       <path id="DejaVuSans-46" d="M 628 4666 
L 3309 4666 
L 3309 4134 
L 1259 4134 
L 1259 2759 
L 3109 2759 
L 3109 2228 
L 1259 2228 
L 1259 0 
L 628 0 
L 628 4666 
z
" transform="scale(0.015625)"/>
       <path id="DejaVuSans-ed" d="M 1322 5119 
L 1944 5119 
L 926 3944 
L 447 3944 
L 1322 5119 
z
M 603 3500 
L 1178 3500 
L 1178 0 
L 603 0 
L 603 3500 
z
M 891 3584 
L 891 3584 
z
" transform="scale(0.015625)"/>
       <path id="DejaVuSans-73" d="M 2834 3397 
L 2834 2853 
Q 2591 2978 2328 3040 
Q 2066 3103 1784 3103 
Q 1356 3103 1142 2972 
Q 928 2841 928 2578 
Q 928 2378 1081 2264 
Q 1234 2150 1697 2047 
L 1894 2003 
Q 2506 1872 2764 1633 
Q 3022 1394 3022 966 
Q 3022 478 2636 193 
Q 2250 -91 1575 -91 
Q 1294 -91 989 -36 
Q 684 19 347 128 
L 347 722 
Q 666 556 975 473 
Q 1284 391 1588 391 
Q 1994 391 2212 530 
Q 2431 669 2431 922 
Q 2431 1156 2273 1281 
Q 2116 1406 1581 1522 
L 1381 1569 
Q 847 1681 609 1914 
Q 372 2147 372 2553 
Q 372 3047 722 3315 
Q 1072 3584 1716 3584 
Q 2034 3584 2315 3537 
Q 2597 3491 2834 3397 
z
" transform="scale(0.015625)"/>
       <path id="DejaVuSans-69" d="M 603 3500 
L 1178 3500 
L 1178 0 
L 603 0 
L 603 3500 
z
M 603 4863 
L 1178 4863 
L 1178 4134 
L 603 4134 
L 603 4863 
z
" transform="scale(0.015625)"/>
       <path id="DejaVuSans-63" d="M 3122 3366 
L 3122 2828 
Q 2878 2963 2633 3030 
Q 2388 3097 2138 3097 
Q 1578 3097 1268 2742 
Q 959 2388 959 1747 
Q 959 1106 1268 751 
Q 1578 397 2138 397 
Q 2388 397 2633 464 
Q 2878 531 3122 666 
L 3122 134 
Q 2881 22 2623 -34 
Q 2366 -91 2075 -91 
Q 1284 -91 818 406 
Q 353 903 353 1747 
Q 353 2603 823 3093 
Q 1294 3584 2113 3584 
Q 2378 3584 2631 3529 
Q 2884 3475 3122 3366 
z
" transform="scale(0.015625)"/>
       <path id="DejaVuSans-61" d="M 2194 1759 
Q 1497 1759 1228 1600 
Q 959 1441 959 1056 
Q 959 750 1161 570 
Q 1363 391 1709 391 
Q 2188 391 2477 730 
Q 2766 1069 2766 1631 
L 2766 1759 
L 2194 1759 
z
M 3341 1997 
L 3341 0 
L 2766 0 
L 2766 531 
Q 2569 213 2275 61 
Q 1981 -91 1556 -91 
Q 1019 -91 701 211 
Q 384 513 384 1019 
Q 384 1609 779 1909 
Q 1175 2209 1959 2209 
L 2766 2209 
L 2766 2266 
Q 2766 2663 2505 2880 
Q 2244 3097 1772 3097 
Q 1472 3097 1187 3025 
Q 903 2953 641 2809 
L 641 3341 
Q 956 3463 1253 3523 
Q 1550 3584 1831 3584 
Q 2591 3584 2966 3190 
Q 3341 2797 3341 1997 
z
" transform="scale(0.015625)"/>
       <path id="DejaVuSans-20" transform="scale(0.015625)"/>
       <path id="DejaVuSans-6d" d="M 3328 2828 
Q 3544 3216 3844 3400 
Q 4144 3584 4550 3584 
Q 5097 3584 5394 3201 
Q 5691 2819 5691 2113 
L 5691 0 
L 5113 0 
L 5113 2094 
Q 5113 2597 4934 2840 
Q 4756 3084 4391 3084 
Q 3944 3084 3684 2787 
Q 3425 2491 3425 1978 
L 3425 0 
L 2847 0 
L 2847 2094 
Q 2847 2600 2669 2842 
Q 2491 3084 2119 3084 
Q 1678 3084 1418 2786 
Q 1159 2488 1159 1978 
L 1159 0 
L 581 0 
L 581 3500 
L 1159 3500 
L 1159 2956 
Q 1356 3278 1631 3431 
Q 1906 3584 2284 3584 
Q 2666 3584 2933 3390 
Q 3200 3197 3328 2828 
z
" transform="scale(0.015625)"/>
       <path id="DejaVuSans-65" d="M 3597 1894 
L 3597 1613 
L 953 1613 
Q 991 1019 1311 708 
Q 1631 397 2203 397 
Q 2534 397 2845 478 
Q 3156 559 3463 722 
L 3463 178 
Q 3153 47 2828 -22 
Q 2503 -91 2169 -91 
Q 1331 -91 842 396 
Q 353 884 353 1716 
Q 353 2575 817 3079 
Q 1281 3584 2069 3584 
Q 2775 3584 3186 3129 
Q 3597 2675 3597 1894 
z
M 3022 2063 
Q 3016 2534 2758 2815 
Q 2500 3097 2075 3097 
Q 1594 3097 1305 2825 
Q 1016 2553 972 2059 
L 3022 2063 
z
" transform="scale(0.015625)"/>
       <path id="DejaVuSans-6e" d="M 3513 2113 
L 3513 0 
L 2938 0 
L 2938 2094 
Q 2938 2591 2744 2837 
Q 2550 3084 2163 3084 
Q 1697 3084 1428 2787 
Q 1159 2491 1159 1978 
L 1159 0 
L 581 0 
L 581 3500 
L 1159 3500 
L 1159 2956 
Q 1366 3272 1645 3428 
Q 1925 3584 2291 3584 
Q 2894 3584 3203 3211 
Q 3513 2838 3513 2113 
z
" transform="scale(0.015625)"/>
       <path id="DejaVuSans-2c" d="M 750 794 
L 1409 794 
L 1409 256 
L 897 -744 
L 494 -744 
L 750 256 
L 750 794 
z
" transform="scale(0.015625)"/>
       <path id="DejaVuSans-6f" d="M 1959 3097 
Q 1497 3097 1228 2736 
Q 959 2375 959 1747 
Q 959 1119 1226 758 
Q 1494 397 1959 397 
Q 2419 397 2687 759 
Q 2956 1122 2956 1747 
Q 2956 2369 2687 2733 
Q 2419 3097 1959 3097 
z
M 1959 3584 
Q 2709 3584 3137 3096 
Q 3566 2609 3566 1747 
Q 3566 888 3137 398 
Q 2709 -91 1959 -91 
Q 1206 -91 779 398 
Q 353 888 353 1747 
Q 353 2609 779 3096 
Q 1206 3584 1959 3584 
z
" transform="scale(0.015625)"/>
       <path id="DejaVuSans-72" d="M 2631 2963 
Q 2534 3019 2420 3045 
Q 2306 3072 2169 3072 
Q 1681 3072 1420 2755 
Q 1159 2438 1159 1844 
L 1159 0 
L 581 0 
L 581 3500 
L 1159 3500 
L 1159 2956 
Q 1341 3275 1631 3429 
Q 1922 3584 2338 3584 
Q 2397 3584 2469 3576 
Q 2541 3569 2628 3553 
L 2631 2963 
z
" transform="scale(0.015625)"/>
       <path id="DejaVuSans-64" d="M 2906 2969 
L 2906 4863 
L 3481 4863 
L 3481 0 
L 2906 0 
L 2906 525 
Q 2725 213 2448 61 
Q 2172 -91 1784 -91 
Q 1150 -91 751 415 
Q 353 922 353 1747 
Q 353 2572 751 3078 
Q 1150 3584 1784 3584 
Q 2172 3584 2448 3432 
Q 2725 3281 2906 2969 
z
M 947 1747 
Q 947 1113 1208 752 
Q 1469 391 1925 391 
Q 2381 391 2643 752 
Q 2906 1113 2906 1747 
Q 2906 2381 2643 2742 
Q 2381 3103 1925 3103 
Q 1469 3103 1208 2742 
Q 947 2381 947 1747 
z
" transform="scale(0.015625)"/>
       <path id="DejaVuSans-79" d="M 2059 -325 
Q 1816 -950 1584 -1140 
Q 1353 -1331 966 -1331 
L 506 -1331 
L 506 -850 
L 844 -850 
Q 1081 -850 1212 -737 
Q 1344 -625 1503 -206 
L 1606 56 
L 191 3500 
L 800 3500 
L 1894 763 
L 2988 3500 
L 3597 3500 
L 2059 -325 
z
" transform="scale(0.015625)"/>
       <path id="DejaVuSans-74" d="M 1172 4494 
L 1172 3500 
L 2356 3500 
L 2356 3053 
L 1172 3053 
L 1172 1153 
Q 1172 725 1289 603 
Q 1406 481 1766 481 
L 2356 481 
L 2356 0 
L 1766 0 
Q 1100 0 847 248 
Q 594 497 594 1153 
L 594 3053 
L 172 3053 
L 172 3500 
L 594 3500 
L 594 4494 
L 1172 4494 
z
" transform="scale(0.015625)"/>
       <path id="DejaVuSans-67" d="M 2906 1791 
Q 2906 2416 2648 2759 
Q 2391 3103 1925 3103 
Q 1463 3103 1205 2759 
Q 947 2416 947 1791 
Q 947 1169 1205 825 
Q 1463 481 1925 481 
Q 2391 481 2648 825 
Q 2906 1169 2906 1791 
z
M 3481 434 
Q 3481 -459 3084 -895 
Q 2688 -1331 1869 -1331 
Q 1566 -1331 1297 -1286 
Q 1028 -1241 775 -1147 
L 775 -588 
Q 1028 -725 1275 -790 
Q 1522 -856 1778 -856 
Q 2344 -856 2625 -561 
Q 2906 -266 2906 331 
L 2906 616 
Q 2728 306 2450 153 
Q 2172 0 1784 0 
Q 1141 0 747 490 
Q 353 981 353 1791 
Q 353 2603 747 3093 
Q 1141 3584 1784 3584 
Q 2172 3584 2450 3431 
Q 2728 3278 2906 2969 
L 2906 3500 
L 3481 3500 
L 3481 434 
z
" transform="scale(0.015625)"/>
      </defs>
      <use xlink:href="#DejaVuSans-46"/>
      <use xlink:href="#DejaVuSans-ed" transform="translate(57.519531 0)"/>
      <use xlink:href="#DejaVuSans-73" transform="translate(85.302734 0)"/>
      <use xlink:href="#DejaVuSans-69" transform="translate(137.402344 0)"/>
      <use xlink:href="#DejaVuSans-63" transform="translate(165.185547 0)"/>
      <use xlink:href="#DejaVuSans-61" transform="translate(220.166016 0)"/>
      <use xlink:href="#DejaVuSans-20" transform="translate(281.445312 0)"/>
      <use xlink:href="#DejaVuSans-6d" transform="translate(313.232422 0)"/>
      <use xlink:href="#DejaVuSans-65" transform="translate(410.644531 0)"/>
      <use xlink:href="#DejaVuSans-61" transform="translate(472.167969 0)"/>
      <use xlink:href="#DejaVuSans-6e" transform="translate(533.447266 0)"/>
      <use xlink:href="#DejaVuSans-2c" transform="translate(596.826172 0)"/>
      <use xlink:href="#DejaVuSans-20" transform="translate(628.613281 0)"/>
      <use xlink:href="#DejaVuSans-6f" transform="translate(660.400391 0)"/>
      <use xlink:href="#DejaVuSans-72" transform="translate(721.582031 0)"/>
      <use xlink:href="#DejaVuSans-64" transform="translate(760.945312 0)"/>
      <use xlink:href="#DejaVuSans-69" transform="translate(824.421875 0)"/>
      <use xlink:href="#DejaVuSans-6e" transform="translate(852.205078 0)"/>
      <use xlink:href="#DejaVuSans-61" transform="translate(915.583984 0)"/>
      <use xlink:href="#DejaVuSans-72" transform="translate(976.863281 0)"/>
      <use xlink:href="#DejaVuSans-79" transform="translate(1017.976562 0)"/>
      <use xlink:href="#DejaVuSans-20" transform="translate(1077.15625 0)"/>
      <use xlink:href="#DejaVuSans-73" transform="translate(1108.943359 0)"/>
      <use xlink:href="#DejaVuSans-69" transform="translate(1161.042969 0)"/>
      <use xlink:href="#DejaVuSans-74" transform="translate(1188.826172 0)"/>
      <use xlink:href="#DejaVuSans-74" transform="translate(1228.035156 0)"/>
      <use xlink:href="#DejaVuSans-69" transform="translate(1267.244141 0)"/>
      <use xlink:href="#DejaVuSans-6e" transform="translate(1295.027344 0)"/>
      <use xlink:href="#DejaVuSans-67" transform="translate(1358.40625 0)"/>
     </g>
    </g>
   </g>
   <g id="line2d_25">
    <path d="M 92.938984 218.887629 
L 134.567861 219.294509 
L 176.196738 135.884269 
L 217.825615 149.311283 
L 259.454492 168.841485 
L 301.083369 178.199707 
L 342.712246 149.311283 
L 384.341123 159.890143 
L 425.97 149.311283 
L 467.598877 160.297022 
L 509.227754 137.511785 
L 550.856631 87.058762 
L 592.485508 153.380075 
L 634.114385 143.614974 
L 675.743262 152.159437 
L 717.372139 177.385949 
L 759.001016 237.604074 
" clip-path="url(#p60bb23f7ab)" style="fill: none; stroke: #2a78d6; stroke-width: 2; stroke-linecap: square"/>
    <defs>
     <path id="m7c851fb387" d="M 0 2 
C 0.530406 2 1.03916 1.789267 1.414214 1.414214 
C 1.789267 1.03916 2 0.530406 2 0 
C 2 -0.530406 1.789267 -1.03916 1.414214 -1.414214 
C 1.03916 -1.789267 0.530406 -2 0 -2 
C -0.530406 -2 -1.03916 -1.789267 -1.414214 -1.414214 
C -1.789267 -1.03916 -2 -0.530406 -2 0 
C -2 0.530406 -1.789267 1.03916 -1.414214 1.414214 
C -1.03916 1.789267 -0.530406 2 0 2 
z
" style="stroke: #2a78d6"/>
    </defs>
    <g clip-path="url(#p60bb23f7ab)">
     <use xlink:href="#m7c851fb387" x="92.938984" y="218.887629" style="fill: #2a78d6; stroke: #2a78d6"/>
     <use xlink:href="#m7c851fb387" x="134.567861" y="219.294509" style="fill: #2a78d6; stroke: #2a78d6"/>
     <use xlink:href="#m7c851fb387" x="176.196738" y="135.884269" style="fill: #2a78d6; stroke: #2a78d6"/>
     <use xlink:href="#m7c851fb387" x="217.825615" y="149.311283" style="fill: #2a78d6; stroke: #2a78d6"/>
     <use xlink:href="#m7c851fb387" x="259.454492" y="168.841485" style="fill: #2a78d6; stroke: #2a78d6"/>
     <use xlink:href="#m7c851fb387" x="301.083369" y="178.199707" style="fill: #2a78d6; stroke: #2a78d6"/>
     <use xlink:href="#m7c851fb387" x="342.712246" y="149.311283" style="fill: #2a78d6; stroke: #2a78d6"/>
     <use xlink:href="#m7c851fb387" x="384.341123" y="159.890143" style="fill: #2a78d6; stroke: #2a78d6"/>
     <use xlink:href="#m7c851fb387" x="425.97" y="149.311283" style="fill: #2a78d6; stroke: #2a78d6"/>
     <use xlink:href="#m7c851fb387" x="467.598877" y="160.297022" style="fill: #2a78d6; stroke: #2a78d6"/>
     <use xlink:href="#m7c851fb387" x="509.227754" y="137.511785" style="fill: #2a78d6; stroke: #2a78d6"/>
     <use xlink:href="#m7c851fb387" x="550.856631" y="87.058762" style="fill: #2a78d6; stroke: #2a78d6"/>
     <use xlink:href="#m7c851fb387" x="592.485508" y="153.380075" style="fill: #2a78d6; stroke: #2a78d6"/>
     <use xlink:href="#m7c851fb387" x="634.114385" y="143.614974" style="fill: #2a78d6; stroke: #2a78d6"/>
     <use xlink:href="#m7c851fb387" x="675.743262" y="152.159437" style="fill: #2a78d6; stroke: #2a78d6"/>
     <use xlink:href="#m7c851fb387" x="717.372139" y="177.385949" style="fill: #2a78d6; stroke: #2a78d6"/>
     <use xlink:href="#m7c851fb387" x="759.001016" y="237.604074" style="fill: #2a78d6; stroke: #2a78d6"/>
    </g>
   </g>
   <g id="patch_7">
    <path d="M 36.74 277.885116 
L 36.74 25.62 
" style="fill: none; stroke: #000000; stroke-width: 0.8; stroke-linejoin: miter; stroke-linecap: square"/>
   </g>
   <g id="patch_8">
    <path d="M 36.74 277.885116 
L 815.2 277.885116 
" style="fill: none; stroke: #000000; stroke-width: 0.8; stroke-linejoin: miter; stroke-linecap: square"/>
   </g>
   <g id="text_9">
    <!-- Two whole options A/B -->
    <g style="fill: #333333" transform="translate(236.683993 43.753158) scale(0.078 -0.078)">
     <defs>
      <path id="DejaVuSans-54" d="M -19 4666 
L 3928 4666 
L 3928 4134 
L 2272 4134 
L 2272 0 
L 1638 0 
L 1638 4134 
L -19 4134 
L -19 4666 
z
" transform="scale(0.015625)"/>
      <path id="DejaVuSans-77" d="M 269 3500 
L 844 3500 
L 1563 769 
L 2278 3500 
L 2956 3500 
L 3675 769 
L 4391 3500 
L 4966 3500 
L 4050 0 
L 3372 0 
L 2619 2869 
L 1863 0 
L 1184 0 
L 269 3500 
z
" transform="scale(0.015625)"/>
      <path id="DejaVuSans-68" d="M 3513 2113 
L 3513 0 
L 2938 0 
L 2938 2094 
Q 2938 2591 2744 2837 
Q 2550 3084 2163 3084 
Q 1697 3084 1428 2787 
Q 1159 2491 1159 1978 
L 1159 0 
L 581 0 
L 581 4863 
L 1159 4863 
L 1159 2956 
Q 1366 3272 1645 3428 
Q 1925 3584 2291 3584 
Q 2894 3584 3203 3211 
Q 3513 2838 3513 2113 
z
" transform="scale(0.015625)"/>
      <path id="DejaVuSans-6c" d="M 603 4863 
L 1178 4863 
L 1178 0 
L 603 0 
L 603 4863 
z
" transform="scale(0.015625)"/>
      <path id="DejaVuSans-70" d="M 1159 525 
L 1159 -1331 
L 581 -1331 
L 581 3500 
L 1159 3500 
L 1159 2969 
Q 1341 3281 1617 3432 
Q 1894 3584 2278 3584 
Q 2916 3584 3314 3078 
Q 3713 2572 3713 1747 
Q 3713 922 3314 415 
Q 2916 -91 2278 -91 
Q 1894 -91 1617 61 
Q 1341 213 1159 525 
z
M 3116 1747 
Q 3116 2381 2855 2742 
Q 2594 3103 2138 3103 
Q 1681 3103 1420 2742 
Q 1159 2381 1159 1747 
Q 1159 1113 1420 752 
Q 1681 391 2138 391 
Q 2594 391 2855 752 
Q 3116 1113 3116 1747 
z
" transform="scale(0.015625)"/>
      <path id="DejaVuSans-41" d="M 2188 4044 
L 1331 1722 
L 3047 1722 
L 2188 4044 
z
M 1831 4666 
L 2547 4666 
L 4325 0 
L 3669 0 
L 3244 1197 
L 1141 1197 
L 716 0 
L 50 0 
L 1831 4666 
z
" transform="scale(0.015625)"/>
      <path id="DejaVuSans-2f" d="M 1625 4666 
L 2156 4666 
L 531 -594 
L 0 -594 
L 1625 4666 
z
" transform="scale(0.015625)"/>
      <path id="DejaVuSans-42" d="M 1259 2228 
L 1259 519 
L 2272 519 
Q 2781 519 3026 730 
Q 3272 941 3272 1375 
Q 3272 1813 3026 2020 
Q 2781 2228 2272 2228 
L 1259 2228 
z
M 1259 4147 
L 1259 2741 
L 2194 2741 
Q 2656 2741 2882 2914 
Q 3109 3088 3109 3444 
Q 3109 3797 2882 3972 
Q 2656 4147 2194 4147 
L 1259 4147 
z
M 628 4666 
L 2241 4666 
Q 2963 4666 3353 4366 
Q 3744 4066 3744 3513 
Q 3744 3084 3544 2831 
Q 3344 2578 2956 2516 
Q 3422 2416 3680 2098 
Q 3938 1781 3938 1306 
Q 3938 681 3513 340 
Q 3088 0 2303 0 
L 628 0 
L 628 4666 
z
" transform="scale(0.015625)"/>
     </defs>
     <use xlink:href="#DejaVuSans-54"/>
     <use xlink:href="#DejaVuSans-77" transform="translate(44.583984 0)"/>
     <use xlink:href="#DejaVuSans-6f" transform="translate(126.371094 0)"/>
     <use xlink:href="#DejaVuSans-20" transform="translate(187.552734 0)"/>
     <use xlink:href="#DejaVuSans-77" transform="translate(219.339844 0)"/>
     <use xlink:href="#DejaVuSans-68" transform="translate(301.126953 0)"/>
     <use xlink:href="#DejaVuSans-6f" transform="translate(364.505859 0)"/>
     <use xlink:href="#DejaVuSans-6c" transform="translate(425.6875 0)"/>
     <use xlink:href="#DejaVuSans-65" transform="translate(453.470703 0)"/>
     <use xlink:href="#DejaVuSans-20" transform="translate(514.994141 0)"/>
     <use xlink:href="#DejaVuSans-6f" transform="translate(546.78125 0)"/>
     <use xlink:href="#DejaVuSans-70" transform="translate(607.962891 0)"/>
     <use xlink:href="#DejaVuSans-74" transform="translate(671.439453 0)"/>
     <use xlink:href="#DejaVuSans-69" transform="translate(710.648438 0)"/>
     <use xlink:href="#DejaVuSans-6f" transform="translate(738.431641 0)"/>
     <use xlink:href="#DejaVuSans-6e" transform="translate(799.613281 0)"/>
     <use xlink:href="#DejaVuSans-73" transform="translate(862.992188 0)"/>
     <use xlink:href="#DejaVuSans-20" transform="translate(915.091797 0)"/>
     <use xlink:href="#DejaVuSans-41" transform="translate(946.878906 0)"/>
     <use xlink:href="#DejaVuSans-2f" transform="translate(1015.287109 0)"/>
     <use xlink:href="#DejaVuSans-42" transform="translate(1048.978516 0)"/>
    </g>
    <!-- 2 problems (3) + 2 theory questions (2) -->
    <g style="fill: #333333" transform="translate(202.566305 52.487452) scale(0.078 -0.078)">
     <defs>
      <path id="DejaVuSans-32" d="M 1228 531 
L 3431 531 
L 3431 0 
L 469 0 
L 469 531 
Q 828 903 1448 1529 
Q 2069 2156 2228 2338 
Q 2531 2678 2651 2914 
Q 2772 3150 2772 3378 
Q 2772 3750 2511 3984 
Q 2250 4219 1831 4219 
Q 1534 4219 1204 4116 
Q 875 4013 500 3803 
L 500 4441 
Q 881 4594 1212 4672 
Q 1544 4750 1819 4750 
Q 2544 4750 2975 4387 
Q 3406 4025 3406 3419 
Q 3406 3131 3298 2873 
Q 3191 2616 2906 2266 
Q 2828 2175 2409 1742 
Q 1991 1309 1228 531 
z
" transform="scale(0.015625)"/>
      <path id="DejaVuSans-62" d="M 3116 1747 
Q 3116 2381 2855 2742 
Q 2594 3103 2138 3103 
Q 1681 3103 1420 2742 
Q 1159 2381 1159 1747 
Q 1159 1113 1420 752 
Q 1681 391 2138 391 
Q 2594 391 2855 752 
Q 3116 1113 3116 1747 
z
M 1159 2969 
Q 1341 3281 1617 3432 
Q 1894 3584 2278 3584 
Q 2916 3584 3314 3078 
Q 3713 2572 3713 1747 
Q 3713 922 3314 415 
Q 2916 -91 2278 -91 
Q 1894 -91 1617 61 
Q 1341 213 1159 525 
L 1159 0 
L 581 0 
L 581 4863 
L 1159 4863 
L 1159 2969 
z
" transform="scale(0.015625)"/>
      <path id="DejaVuSans-28" d="M 1984 4856 
Q 1566 4138 1362 3434 
Q 1159 2731 1159 2009 
Q 1159 1288 1364 580 
Q 1569 -128 1984 -844 
L 1484 -844 
Q 1016 -109 783 600 
Q 550 1309 550 2009 
Q 550 2706 781 3412 
Q 1013 4119 1484 4856 
L 1984 4856 
z
" transform="scale(0.015625)"/>
      <path id="DejaVuSans-29" d="M 513 4856 
L 1013 4856 
Q 1481 4119 1714 3412 
Q 1947 2706 1947 2009 
Q 1947 1309 1714 600 
Q 1481 -109 1013 -844 
L 513 -844 
Q 928 -128 1133 580 
Q 1338 1288 1338 2009 
Q 1338 2731 1133 3434 
Q 928 4138 513 4856 
z
" transform="scale(0.015625)"/>
      <path id="DejaVuSans-2b" d="M 2944 4013 
L 2944 2272 
L 4684 2272 
L 4684 1741 
L 2944 1741 
L 2944 0 
L 2419 0 
L 2419 1741 
L 678 1741 
L 678 2272 
L 2419 2272 
L 2419 4013 
L 2944 4013 
z
" transform="scale(0.015625)"/>
      <path id="DejaVuSans-71" d="M 947 1747 
Q 947 1113 1208 752 
Q 1469 391 1925 391 
Q 2381 391 2643 752 
Q 2906 1113 2906 1747 
Q 2906 2381 2643 2742 
Q 2381 3103 1925 3103 
Q 1469 3103 1208 2742 
Q 947 2381 947 1747 
z
M 2906 525 
Q 2725 213 2448 61 
Q 2172 -91 1784 -91 
Q 1150 -91 751 415 
Q 353 922 353 1747 
Q 353 2572 751 3078 
Q 1150 3584 1784 3584 
Q 2172 3584 2448 3432 
Q 2725 3281 2906 2969 
L 2906 3500 
L 3481 3500 
L 3481 -1331 
L 2906 -1331 
L 2906 525 
z
" transform="scale(0.015625)"/>
      <path id="DejaVuSans-75" d="M 544 1381 
L 544 3500 
L 1119 3500 
L 1119 1403 
Q 1119 906 1312 657 
Q 1506 409 1894 409 
Q 2359 409 2629 706 
Q 2900 1003 2900 1516 
L 2900 3500 
L 3475 3500 
L 3475 0 
L 2900 0 
L 2900 538 
Q 2691 219 2414 64 
Q 2138 -91 1772 -91 
Q 1169 -91 856 284 
Q 544 659 544 1381 
z
M 1991 3584 
L 1991 3584 
z
" transform="scale(0.015625)"/>
     </defs>
     <use xlink:href="#DejaVuSans-32"/>
     <use xlink:href="#DejaVuSans-20" transform="translate(63.623047 0)"/>
     <use xlink:href="#DejaVuSans-70" transform="translate(95.410156 0)"/>
     <use xlink:href="#DejaVuSans-72" transform="translate(158.886719 0)"/>
     <use xlink:href="#DejaVuSans-6f" transform="translate(197.75 0)"/>
     <use xlink:href="#DejaVuSans-62" transform="translate(258.931641 0)"/>
     <use xlink:href="#DejaVuSans-6c" transform="translate(322.408203 0)"/>
     <use xlink:href="#DejaVuSans-65" transform="translate(350.191406 0)"/>
     <use xlink:href="#DejaVuSans-6d" transform="translate(411.714844 0)"/>
     <use xlink:href="#DejaVuSans-73" transform="translate(509.126953 0)"/>
     <use xlink:href="#DejaVuSans-20" transform="translate(561.226562 0)"/>
     <use xlink:href="#DejaVuSans-28" transform="translate(593.013672 0)"/>
     <use xlink:href="#DejaVuSans-33" transform="translate(632.027344 0)"/>
     <use xlink:href="#DejaVuSans-29" transform="translate(695.650391 0)"/>
     <use xlink:href="#DejaVuSans-20" transform="translate(734.664062 0)"/>
     <use xlink:href="#DejaVuSans-2b" transform="translate(766.451172 0)"/>
     <use xlink:href="#DejaVuSans-20" transform="translate(850.240234 0)"/>
     <use xlink:href="#DejaVuSans-32" transform="translate(882.027344 0)"/>
     <use xlink:href="#DejaVuSans-20" transform="translate(945.650391 0)"/>
     <use xlink:href="#DejaVuSans-74" transform="translate(977.4375 0)"/>
     <use xlink:href="#DejaVuSans-68" transform="translate(1016.646484 0)"/>
     <use xlink:href="#DejaVuSans-65" transform="translate(1080.025391 0)"/>
     <use xlink:href="#DejaVuSans-6f" transform="translate(1141.548828 0)"/>
     <use xlink:href="#DejaVuSans-72" transform="translate(1202.730469 0)"/>
     <use xlink:href="#DejaVuSans-79" transform="translate(1243.84375 0)"/>
     <use xlink:href="#DejaVuSans-20" transform="translate(1303.023438 0)"/>
     <use xlink:href="#DejaVuSans-71" transform="translate(1334.810547 0)"/>
     <use xlink:href="#DejaVuSans-75" transform="translate(1398.287109 0)"/>
     <use xlink:href="#DejaVuSans-65" transform="translate(1461.666016 0)"/>
     <use xlink:href="#DejaVuSans-73" transform="translate(1523.189453 0)"/>
     <use xlink:href="#DejaVuSans-74" transform="translate(1575.289062 0)"/>
     <use xlink:href="#DejaVuSans-69" transform="translate(1614.498047 0)"/>
     <use xlink:href="#DejaVuSans-6f" transform="translate(1642.28125 0)"/>
     <use xlink:href="#DejaVuSans-6e" transform="translate(1703.462891 0)"/>
     <use xlink:href="#DejaVuSans-73" transform="translate(1766.841797 0)"/>
     <use xlink:href="#DejaVuSans-20" transform="translate(1818.941406 0)"/>
     <use xlink:href="#DejaVuSans-28" transform="translate(1850.728516 0)"/>
     <use xlink:href="#DejaVuSans-32" transform="translate(1889.742188 0)"/>
     <use xlink:href="#DejaVuSans-29" transform="translate(1953.365234 0)"/>
    </g>
   </g>
   <g id="text_10">
    <!-- Four-of-eight -->
    <g style="fill: #333333" transform="translate(567.779617 43.753158) scale(0.078 -0.078)">
     <defs>
      <path id="DejaVuSans-2d" d="M 313 2009 
L 1997 2009 
L 1997 1497 
L 313 1497 
L 313 2009 
z
" transform="scale(0.015625)"/>
      <path id="DejaVuSans-66" d="M 2375 4863 
L 2375 4384 
L 1825 4384 
Q 1516 4384 1395 4259 
Q 1275 4134 1275 3809 
L 1275 3500 
L 2222 3500 
L 2222 3053 
L 1275 3053 
L 1275 0 
L 697 0 
L 697 3053 
L 147 3053 
L 147 3500 
L 697 3500 
L 697 3744 
Q 697 4328 969 4595 
Q 1241 4863 1831 4863 
L 2375 4863 
z
" transform="scale(0.015625)"/>
     </defs>
     <use xlink:href="#DejaVuSans-46"/>
     <use xlink:href="#DejaVuSans-6f" transform="translate(53.894531 0)"/>
     <use xlink:href="#DejaVuSans-75" transform="translate(115.076172 0)"/>
     <use xlink:href="#DejaVuSans-72" transform="translate(178.455078 0)"/>
     <use xlink:href="#DejaVuSans-2d" transform="translate(213.193359 0)"/>
     <use xlink:href="#DejaVuSans-6f" transform="translate(251.152344 0)"/>
     <use xlink:href="#DejaVuSans-66" transform="translate(312.333984 0)"/>
     <use xlink:href="#DejaVuSans-2d" transform="translate(342.039062 0)"/>
     <use xlink:href="#DejaVuSans-65" transform="translate(378.123047 0)"/>
     <use xlink:href="#DejaVuSans-69" transform="translate(439.646484 0)"/>
     <use xlink:href="#DejaVuSans-67" transform="translate(467.429688 0)"/>
     <use xlink:href="#DejaVuSans-68" transform="translate(530.90625 0)"/>
     <use xlink:href="#DejaVuSans-74" transform="translate(594.285156 0)"/>
    </g>
    <!-- any 2 of 4 problems, any 2 of 4 questions -->
    <g style="fill: #333333" transform="translate(511.258867 52.487452) scale(0.078 -0.078)">
     <use xlink:href="#DejaVuSans-61"/>
     <use xlink:href="#DejaVuSans-6e" transform="translate(61.279297 0)"/>
     <use xlink:href="#DejaVuSans-79" transform="translate(124.658203 0)"/>
     <use xlink:href="#DejaVuSans-20" transform="translate(183.837891 0)"/>
     <use xlink:href="#DejaVuSans-32" transform="translate(215.625 0)"/>
     <use xlink:href="#DejaVuSans-20" transform="translate(279.248047 0)"/>
     <use xlink:href="#DejaVuSans-6f" transform="translate(311.035156 0)"/>
     <use xlink:href="#DejaVuSans-66" transform="translate(372.216797 0)"/>
     <use xlink:href="#DejaVuSans-20" transform="translate(407.421875 0)"/>
     <use xlink:href="#DejaVuSans-34" transform="translate(439.208984 0)"/>
     <use xlink:href="#DejaVuSans-20" transform="translate(502.832031 0)"/>
     <use xlink:href="#DejaVuSans-70" transform="translate(534.619141 0)"/>
     <use xlink:href="#DejaVuSans-72" transform="translate(598.095703 0)"/>
     <use xlink:href="#DejaVuSans-6f" transform="translate(636.958984 0)"/>
     <use xlink:href="#DejaVuSans-62" transform="translate(698.140625 0)"/>
     <use xlink:href="#DejaVuSans-6c" transform="translate(761.617188 0)"/>
     <use xlink:href="#DejaVuSans-65" transform="translate(789.400391 0)"/>
     <use xlink:href="#DejaVuSans-6d" transform="translate(850.923828 0)"/>
     <use xlink:href="#DejaVuSans-73" transform="translate(948.335938 0)"/>
     <use xlink:href="#DejaVuSans-2c" transform="translate(1000.435547 0)"/>
     <use xlink:href="#DejaVuSans-20" transform="translate(1032.222656 0)"/>
     <use xlink:href="#DejaVuSans-61" transform="translate(1064.009766 0)"/>
     <use xlink:href="#DejaVuSans-6e" transform="translate(1125.289062 0)"/>
     <use xlink:href="#DejaVuSans-79" transform="translate(1188.667969 0)"/>
     <use xlink:href="#DejaVuSans-20" transform="translate(1247.847656 0)"/>
     <use xlink:href="#DejaVuSans-32" transform="translate(1279.634766 0)"/>
     <use xlink:href="#DejaVuSans-20" transform="translate(1343.257812 0)"/>
     <use xlink:href="#DejaVuSans-6f" transform="translate(1375.044922 0)"/>
     <use xlink:href="#DejaVuSans-66" transform="translate(1436.226562 0)"/>
     <use xlink:href="#DejaVuSans-20" transform="translate(1471.431641 0)"/>
     <use xlink:href="#DejaVuSans-34" transform="translate(1503.21875 0)"/>
     <use xlink:href="#DejaVuSans-20" transform="translate(1566.841797 0)"/>
     <use xlink:href="#DejaVuSans-71" transform="translate(1598.628906 0)"/>
     <use xlink:href="#DejaVuSans-75" transform="translate(1662.105469 0)"/>
     <use xlink:href="#DejaVuSans-65" transform="translate(1725.484375 0)"/>
     <use xlink:href="#DejaVuSans-73" transform="translate(1787.007812 0)"/>
     <use xlink:href="#DejaVuSans-74" transform="translate(1839.107422 0)"/>
     <use xlink:href="#DejaVuSans-69" transform="translate(1878.316406 0)"/>
     <use xlink:href="#DejaVuSans-6f" transform="translate(1906.099609 0)"/>
     <use xlink:href="#DejaVuSans-6e" transform="translate(1967.28125 0)"/>
     <use xlink:href="#DejaVuSans-73" transform="translate(2030.660156 0)"/>
    </g>
   </g>
   <g id="text_11">
    <!-- LOMLOE -->
    <g style="fill: #7a1f1f" transform="translate(723.387203 43.297252) scale(0.072 -0.072)">
     <defs>
      <path id="DejaVuSans-4c" d="M 628 4666 
L 1259 4666 
L 1259 531 
L 3531 531 
L 3531 0 
L 628 0 
L 628 4666 
z
" transform="scale(0.015625)"/>
      <path id="DejaVuSans-4f" d="M 2522 4238 
Q 1834 4238 1429 3725 
Q 1025 3213 1025 2328 
Q 1025 1447 1429 934 
Q 1834 422 2522 422 
Q 3209 422 3611 934 
Q 4013 1447 4013 2328 
Q 4013 3213 3611 3725 
Q 3209 4238 2522 4238 
z
M 2522 4750 
Q 3503 4750 4090 4092 
Q 4678 3434 4678 2328 
Q 4678 1225 4090 567 
Q 3503 -91 2522 -91 
Q 1538 -91 948 565 
Q 359 1222 359 2328 
Q 359 3434 948 4092 
Q 1538 4750 2522 4750 
z
" transform="scale(0.015625)"/>
      <path id="DejaVuSans-4d" d="M 628 4666 
L 1569 4666 
L 2759 1491 
L 3956 4666 
L 4897 4666 
L 4897 0 
L 4281 0 
L 4281 4097 
L 3078 897 
L 2444 897 
L 1241 4097 
L 1241 0 
L 628 0 
L 628 4666 
z
" transform="scale(0.015625)"/>
      <path id="DejaVuSans-45" d="M 628 4666 
L 3578 4666 
L 3578 4134 
L 1259 4134 
L 1259 2753 
L 3481 2753 
L 3481 2222 
L 1259 2222 
L 1259 531 
L 3634 531 
L 3634 0 
L 628 0 
L 628 4666 
z
" transform="scale(0.015625)"/>
     </defs>
     <use xlink:href="#DejaVuSans-4c"/>
     <use xlink:href="#DejaVuSans-4f" transform="translate(52.087891 0)"/>
     <use xlink:href="#DejaVuSans-4d" transform="translate(130.798828 0)"/>
     <use xlink:href="#DejaVuSans-4c" transform="translate(217.078125 0)"/>
     <use xlink:href="#DejaVuSans-4f" transform="translate(269.166016 0)"/>
     <use xlink:href="#DejaVuSans-45" transform="translate(347.876953 0)"/>
    </g>
    <!-- 2025: 1 competencial -->
    <g style="fill: #7a1f1f" transform="translate(698.949953 51.359677) scale(0.072 -0.072)">
     <defs>
      <path id="DejaVuSans-30" d="M 2034 4250 
Q 1547 4250 1301 3770 
Q 1056 3291 1056 2328 
Q 1056 1369 1301 889 
Q 1547 409 2034 409 
Q 2525 409 2770 889 
Q 3016 1369 3016 2328 
Q 3016 3291 2770 3770 
Q 2525 4250 2034 4250 
z
M 2034 4750 
Q 2819 4750 3233 4129 
Q 3647 3509 3647 2328 
Q 3647 1150 3233 529 
Q 2819 -91 2034 -91 
Q 1250 -91 836 529 
Q 422 1150 422 2328 
Q 422 3509 836 4129 
Q 1250 4750 2034 4750 
z
" transform="scale(0.015625)"/>
      <path id="DejaVuSans-3a" d="M 750 794 
L 1409 794 
L 1409 0 
L 750 0 
L 750 794 
z
M 750 3309 
L 1409 3309 
L 1409 2516 
L 750 2516 
L 750 3309 
z
" transform="scale(0.015625)"/>
      <path id="DejaVuSans-31" d="M 794 531 
L 1825 531 
L 1825 4091 
L 703 3866 
L 703 4441 
L 1819 4666 
L 2450 4666 
L 2450 531 
L 3481 531 
L 3481 0 
L 794 0 
L 794 531 
z
" transform="scale(0.015625)"/>
     </defs>
     <use xlink:href="#DejaVuSans-32"/>
     <use xlink:href="#DejaVuSans-30" transform="translate(63.623047 0)"/>
     <use xlink:href="#DejaVuSans-32" transform="translate(127.246094 0)"/>
     <use xlink:href="#DejaVuSans-35" transform="translate(190.869141 0)"/>
     <use xlink:href="#DejaVuSans-3a" transform="translate(254.492188 0)"/>
     <use xlink:href="#DejaVuSans-20" transform="translate(288.183594 0)"/>
     <use xlink:href="#DejaVuSans-31" transform="translate(319.970703 0)"/>
     <use xlink:href="#DejaVuSans-20" transform="translate(383.59375 0)"/>
     <use xlink:href="#DejaVuSans-63" transform="translate(415.380859 0)"/>
     <use xlink:href="#DejaVuSans-6f" transform="translate(470.361328 0)"/>
     <use xlink:href="#DejaVuSans-6d" transform="translate(531.542969 0)"/>
     <use xlink:href="#DejaVuSans-70" transform="translate(628.955078 0)"/>
     <use xlink:href="#DejaVuSans-65" transform="translate(692.431641 0)"/>
     <use xlink:href="#DejaVuSans-74" transform="translate(753.955078 0)"/>
     <use xlink:href="#DejaVuSans-65" transform="translate(793.164062 0)"/>
     <use xlink:href="#DejaVuSans-6e" transform="translate(854.6875 0)"/>
     <use xlink:href="#DejaVuSans-63" transform="translate(918.066406 0)"/>
     <use xlink:href="#DejaVuSans-69" transform="translate(973.046875 0)"/>
     <use xlink:href="#DejaVuSans-61" transform="translate(1000.830078 0)"/>
     <use xlink:href="#DejaVuSans-6c" transform="translate(1062.109375 0)"/>
    </g>
    <!-- + 3 × (1 of 2); no theory -->
    <g style="fill: #7a1f1f" transform="translate(693.575265 59.422102) scale(0.072 -0.072)">
     <defs>
      <path id="DejaVuSans-d7" d="M 4488 3438 
L 3059 2003 
L 4488 575 
L 4116 197 
L 2681 1631 
L 1247 197 
L 878 575 
L 2303 2003 
L 878 3438 
L 1247 3816 
L 2681 2381 
L 4116 3816 
L 4488 3438 
z
" transform="scale(0.015625)"/>
      <path id="DejaVuSans-3b" d="M 750 3309 
L 1409 3309 
L 1409 2516 
L 750 2516 
L 750 3309 
z
M 750 794 
L 1409 794 
L 1409 256 
L 897 -744 
L 494 -744 
L 750 256 
L 750 794 
z
" transform="scale(0.015625)"/>
     </defs>
     <use xlink:href="#DejaVuSans-2b"/>
     <use xlink:href="#DejaVuSans-20" transform="translate(83.789062 0)"/>
     <use xlink:href="#DejaVuSans-33" transform="translate(115.576172 0)"/>
     <use xlink:href="#DejaVuSans-20" transform="translate(179.199219 0)"/>
     <use xlink:href="#DejaVuSans-d7" transform="translate(210.986328 0)"/>
     <use xlink:href="#DejaVuSans-20" transform="translate(294.775391 0)"/>
     <use xlink:href="#DejaVuSans-28" transform="translate(326.5625 0)"/>
     <use xlink:href="#DejaVuSans-31" transform="translate(365.576172 0)"/>
     <use xlink:href="#DejaVuSans-20" transform="translate(429.199219 0)"/>
     <use xlink:href="#DejaVuSans-6f" transform="translate(460.986328 0)"/>
     <use xlink:href="#DejaVuSans-66" transform="translate(522.167969 0)"/>
     <use xlink:href="#DejaVuSans-20" transform="translate(557.373047 0)"/>
     <use xlink:href="#DejaVuSans-32" transform="translate(589.160156 0)"/>
     <use xlink:href="#DejaVuSans-29" transform="translate(652.783203 0)"/>
     <use xlink:href="#DejaVuSans-3b" transform="translate(691.796875 0)"/>
     <use xlink:href="#DejaVuSans-20" transform="translate(725.488281 0)"/>
     <use xlink:href="#DejaVuSans-6e" transform="translate(757.275391 0)"/>
     <use xlink:href="#DejaVuSans-6f" transform="translate(820.654297 0)"/>
     <use xlink:href="#DejaVuSans-20" transform="translate(881.835938 0)"/>
     <use xlink:href="#DejaVuSans-74" transform="translate(913.623047 0)"/>
     <use xlink:href="#DejaVuSans-68" transform="translate(952.832031 0)"/>
     <use xlink:href="#DejaVuSans-65" transform="translate(1016.210938 0)"/>
     <use xlink:href="#DejaVuSans-6f" transform="translate(1077.734375 0)"/>
     <use xlink:href="#DejaVuSans-72" transform="translate(1138.916016 0)"/>
     <use xlink:href="#DejaVuSans-79" transform="translate(1180.029297 0)"/>
    </g>
    <!-- 2026: 2 competencial -->
    <g style="fill: #7a1f1f" transform="translate(698.949953 67.484527) scale(0.072 -0.072)">
     <use xlink:href="#DejaVuSans-32"/>
     <use xlink:href="#DejaVuSans-30" transform="translate(63.623047 0)"/>
     <use xlink:href="#DejaVuSans-32" transform="translate(127.246094 0)"/>
     <use xlink:href="#DejaVuSans-36" transform="translate(190.869141 0)"/>
     <use xlink:href="#DejaVuSans-3a" transform="translate(254.492188 0)"/>
     <use xlink:href="#DejaVuSans-20" transform="translate(288.183594 0)"/>
     <use xlink:href="#DejaVuSans-32" transform="translate(319.970703 0)"/>
     <use xlink:href="#DejaVuSans-20" transform="translate(383.59375 0)"/>
     <use xlink:href="#DejaVuSans-63" transform="translate(415.380859 0)"/>
     <use xlink:href="#DejaVuSans-6f" transform="translate(470.361328 0)"/>
     <use xlink:href="#DejaVuSans-6d" transform="translate(531.542969 0)"/>
     <use xlink:href="#DejaVuSans-70" transform="translate(628.955078 0)"/>
     <use xlink:href="#DejaVuSans-65" transform="translate(692.431641 0)"/>
     <use xlink:href="#DejaVuSans-74" transform="translate(753.955078 0)"/>
     <use xlink:href="#DejaVuSans-65" transform="translate(793.164062 0)"/>
     <use xlink:href="#DejaVuSans-6e" transform="translate(854.6875 0)"/>
     <use xlink:href="#DejaVuSans-63" transform="translate(918.066406 0)"/>
     <use xlink:href="#DejaVuSans-69" transform="translate(973.046875 0)"/>
     <use xlink:href="#DejaVuSans-61" transform="translate(1000.830078 0)"/>
     <use xlink:href="#DejaVuSans-6c" transform="translate(1062.109375 0)"/>
    </g>
    <!-- + 2 × (a/b) -->
    <g style="fill: #7a1f1f" transform="translate(717.91689 75.546952) scale(0.072 -0.072)">
     <use xlink:href="#DejaVuSans-2b"/>
     <use xlink:href="#DejaVuSans-20" transform="translate(83.789062 0)"/>
     <use xlink:href="#DejaVuSans-32" transform="translate(115.576172 0)"/>
     <use xlink:href="#DejaVuSans-20" transform="translate(179.199219 0)"/>
     <use xlink:href="#DejaVuSans-d7" transform="translate(210.986328 0)"/>
     <use xlink:href="#DejaVuSans-20" transform="translate(294.775391 0)"/>
     <use xlink:href="#DejaVuSans-28" transform="translate(326.5625 0)"/>
     <use xlink:href="#DejaVuSans-61" transform="translate(365.576172 0)"/>
     <use xlink:href="#DejaVuSans-2f" transform="translate(426.855469 0)"/>
     <use xlink:href="#DejaVuSans-62" transform="translate(460.546875 0)"/>
     <use xlink:href="#DejaVuSans-29" transform="translate(524.023438 0)"/>
    </g>
   </g>
   <g id="text_12">
    <!-- 4.45 -->
    <g style="fill: #222222" transform="translate(84.923359 211.563803) scale(0.072 -0.072)">
     <defs>
      <path id="DejaVuSans-2e" d="M 684 794 
L 1344 794 
L 1344 0 
L 684 0 
L 684 794 
z
" transform="scale(0.015625)"/>
     </defs>
     <use xlink:href="#DejaVuSans-34"/>
     <use xlink:href="#DejaVuSans-2e" transform="translate(63.623047 0)"/>
     <use xlink:href="#DejaVuSans-34" transform="translate(95.410156 0)"/>
     <use xlink:href="#DejaVuSans-35" transform="translate(159.033203 0)"/>
    </g>
   </g>
   <g id="text_13">
    <!-- 4.44 -->
    <g style="fill: #222222" transform="translate(126.552236 211.970683) scale(0.072 -0.072)">
     <use xlink:href="#DejaVuSans-34"/>
     <use xlink:href="#DejaVuSans-2e" transform="translate(63.623047 0)"/>
     <use xlink:href="#DejaVuSans-34" transform="translate(95.410156 0)"/>
     <use xlink:href="#DejaVuSans-34" transform="translate(159.033203 0)"/>
    </g>
   </g>
   <g id="text_14">
    <!-- 6.49 -->
    <g style="fill: #222222" transform="translate(168.181113 128.560443) scale(0.072 -0.072)">
     <use xlink:href="#DejaVuSans-36"/>
     <use xlink:href="#DejaVuSans-2e" transform="translate(63.623047 0)"/>
     <use xlink:href="#DejaVuSans-34" transform="translate(95.410156 0)"/>
     <use xlink:href="#DejaVuSans-39" transform="translate(159.033203 0)"/>
    </g>
   </g>
   <g id="text_15">
    <!-- 6.16 -->
    <g style="fill: #222222" transform="translate(209.80999 141.987457) scale(0.072 -0.072)">
     <use xlink:href="#DejaVuSans-36"/>
     <use xlink:href="#DejaVuSans-2e" transform="translate(63.623047 0)"/>
     <use xlink:href="#DejaVuSans-31" transform="translate(95.410156 0)"/>
     <use xlink:href="#DejaVuSans-36" transform="translate(159.033203 0)"/>
    </g>
   </g>
   <g id="text_16">
    <!-- 5.68 -->
    <g style="fill: #222222" transform="translate(251.438867 161.517659) scale(0.072 -0.072)">
     <use xlink:href="#DejaVuSans-35"/>
     <use xlink:href="#DejaVuSans-2e" transform="translate(63.623047 0)"/>
     <use xlink:href="#DejaVuSans-36" transform="translate(95.410156 0)"/>
     <use xlink:href="#DejaVuSans-38" transform="translate(159.033203 0)"/>
    </g>
   </g>
   <g id="text_17">
    <!-- 5.45 -->
    <g style="fill: #222222" transform="translate(293.067744 170.875881) scale(0.072 -0.072)">
     <use xlink:href="#DejaVuSans-35"/>
     <use xlink:href="#DejaVuSans-2e" transform="translate(63.623047 0)"/>
     <use xlink:href="#DejaVuSans-34" transform="translate(95.410156 0)"/>
     <use xlink:href="#DejaVuSans-35" transform="translate(159.033203 0)"/>
    </g>
   </g>
   <g id="text_18">
    <!-- 6.16 -->
    <g style="fill: #222222" transform="translate(334.696621 141.987457) scale(0.072 -0.072)">
     <use xlink:href="#DejaVuSans-36"/>
     <use xlink:href="#DejaVuSans-2e" transform="translate(63.623047 0)"/>
     <use xlink:href="#DejaVuSans-31" transform="translate(95.410156 0)"/>
     <use xlink:href="#DejaVuSans-36" transform="translate(159.033203 0)"/>
    </g>
   </g>
   <g id="text_19">
    <!-- 5.90 -->
    <g style="fill: #222222" transform="translate(376.325498 152.566317) scale(0.072 -0.072)">
     <use xlink:href="#DejaVuSans-35"/>
     <use xlink:href="#DejaVuSans-2e" transform="translate(63.623047 0)"/>
     <use xlink:href="#DejaVuSans-39" transform="translate(95.410156 0)"/>
     <use xlink:href="#DejaVuSans-30" transform="translate(159.033203 0)"/>
    </g>
   </g>
   <g id="text_20">
    <!-- 6.16 -->
    <g style="fill: #222222" transform="translate(417.954375 141.987457) scale(0.072 -0.072)">
     <use xlink:href="#DejaVuSans-36"/>
     <use xlink:href="#DejaVuSans-2e" transform="translate(63.623047 0)"/>
     <use xlink:href="#DejaVuSans-31" transform="translate(95.410156 0)"/>
     <use xlink:href="#DejaVuSans-36" transform="translate(159.033203 0)"/>
    </g>
   </g>
   <g id="text_21">
    <!-- 5.89 -->
    <g style="fill: #222222" transform="translate(459.583252 152.973196) scale(0.072 -0.072)">
     <use xlink:href="#DejaVuSans-35"/>
     <use xlink:href="#DejaVuSans-2e" transform="translate(63.623047 0)"/>
     <use xlink:href="#DejaVuSans-38" transform="translate(95.410156 0)"/>
     <use xlink:href="#DejaVuSans-39" transform="translate(159.033203 0)"/>
    </g>
   </g>
   <g id="text_22">
    <!-- 6.45 -->
    <g style="fill: #222222" transform="translate(501.212129 130.187959) scale(0.072 -0.072)">
     <use xlink:href="#DejaVuSans-36"/>
     <use xlink:href="#DejaVuSans-2e" transform="translate(63.623047 0)"/>
     <use xlink:href="#DejaVuSans-34" transform="translate(95.410156 0)"/>
     <use xlink:href="#DejaVuSans-35" transform="translate(159.033203 0)"/>
    </g>
   </g>
   <g id="text_23">
    <!-- 7.69 -->
    <g style="fill: #222222" transform="translate(542.841006 79.734936) scale(0.072 -0.072)">
     <use xlink:href="#DejaVuSans-37"/>
     <use xlink:href="#DejaVuSans-2e" transform="translate(63.623047 0)"/>
     <use xlink:href="#DejaVuSans-36" transform="translate(95.410156 0)"/>
     <use xlink:href="#DejaVuSans-39" transform="translate(159.033203 0)"/>
    </g>
   </g>
   <g id="text_24">
    <!-- 6.06 -->
    <g style="fill: #222222" transform="translate(584.469883 146.056249) scale(0.072 -0.072)">
     <use xlink:href="#DejaVuSans-36"/>
     <use xlink:href="#DejaVuSans-2e" transform="translate(63.623047 0)"/>
     <use xlink:href="#DejaVuSans-30" transform="translate(95.410156 0)"/>
     <use xlink:href="#DejaVuSans-36" transform="translate(159.033203 0)"/>
    </g>
   </g>
   <g id="text_25">
    <!-- 6.30 -->
    <g style="fill: #222222" transform="translate(626.09876 136.291148) scale(0.072 -0.072)">
     <use xlink:href="#DejaVuSans-36"/>
     <use xlink:href="#DejaVuSans-2e" transform="translate(63.623047 0)"/>
     <use xlink:href="#DejaVuSans-33" transform="translate(95.410156 0)"/>
     <use xlink:href="#DejaVuSans-30" transform="translate(159.033203 0)"/>
    </g>
   </g>
   <g id="text_26">
    <!-- 6.09 -->
    <g style="fill: #222222" transform="translate(667.727637 144.835611) scale(0.072 -0.072)">
     <use xlink:href="#DejaVuSans-36"/>
     <use xlink:href="#DejaVuSans-2e" transform="translate(63.623047 0)"/>
     <use xlink:href="#DejaVuSans-30" transform="translate(95.410156 0)"/>
     <use xlink:href="#DejaVuSans-39" transform="translate(159.033203 0)"/>
    </g>
   </g>
   <g id="text_27">
    <!-- 5.47 -->
    <g style="fill: #222222" transform="translate(709.356514 170.062123) scale(0.072 -0.072)">
     <use xlink:href="#DejaVuSans-35"/>
     <use xlink:href="#DejaVuSans-2e" transform="translate(63.623047 0)"/>
     <use xlink:href="#DejaVuSans-34" transform="translate(95.410156 0)"/>
     <use xlink:href="#DejaVuSans-37" transform="translate(159.033203 0)"/>
    </g>
   </g>
   <g id="text_28">
    <!-- 3.99 -->
    <g style="fill: #222222" transform="translate(750.985391 230.280248) scale(0.072 -0.072)">
     <use xlink:href="#DejaVuSans-33"/>
     <use xlink:href="#DejaVuSans-2e" transform="translate(63.623047 0)"/>
     <use xlink:href="#DejaVuSans-39" transform="translate(95.410156 0)"/>
     <use xlink:href="#DejaVuSans-39" transform="translate(159.033203 0)"/>
    </g>
   </g>
   <g id="text_29">
    <!-- The Basque Física mean 2010–2026 against the paper's format -->
    <g transform="translate(36.74 19.62) scale(0.105 -0.105)">
     <defs>
      <path id="DejaVuSans-2013" d="M 313 1978 
L 2888 1978 
L 2888 1528 
L 313 1528 
L 313 1978 
z
" transform="scale(0.015625)"/>
      <path id="DejaVuSans-27" d="M 1147 4666 
L 1147 2931 
L 616 2931 
L 616 4666 
L 1147 4666 
z
" transform="scale(0.015625)"/>
     </defs>
     <use xlink:href="#DejaVuSans-54"/>
     <use xlink:href="#DejaVuSans-68" transform="translate(61.083984 0)"/>
     <use xlink:href="#DejaVuSans-65" transform="translate(124.462891 0)"/>
     <use xlink:href="#DejaVuSans-20" transform="translate(185.986328 0)"/>
     <use xlink:href="#DejaVuSans-42" transform="translate(217.773438 0)"/>
     <use xlink:href="#DejaVuSans-61" transform="translate(286.376953 0)"/>
     <use xlink:href="#DejaVuSans-73" transform="translate(347.65625 0)"/>
     <use xlink:href="#DejaVuSans-71" transform="translate(399.755859 0)"/>
     <use xlink:href="#DejaVuSans-75" transform="translate(463.232422 0)"/>
     <use xlink:href="#DejaVuSans-65" transform="translate(526.611328 0)"/>
     <use xlink:href="#DejaVuSans-20" transform="translate(588.134766 0)"/>
     <use xlink:href="#DejaVuSans-46" transform="translate(619.921875 0)"/>
     <use xlink:href="#DejaVuSans-ed" transform="translate(677.441406 0)"/>
     <use xlink:href="#DejaVuSans-73" transform="translate(705.224609 0)"/>
     <use xlink:href="#DejaVuSans-69" transform="translate(757.324219 0)"/>
     <use xlink:href="#DejaVuSans-63" transform="translate(785.107422 0)"/>
     <use xlink:href="#DejaVuSans-61" transform="translate(840.087891 0)"/>
     <use xlink:href="#DejaVuSans-20" transform="translate(901.367188 0)"/>
     <use xlink:href="#DejaVuSans-6d" transform="translate(933.154297 0)"/>
     <use xlink:href="#DejaVuSans-65" transform="translate(1030.566406 0)"/>
     <use xlink:href="#DejaVuSans-61" transform="translate(1092.089844 0)"/>
     <use xlink:href="#DejaVuSans-6e" transform="translate(1153.369141 0)"/>
     <use xlink:href="#DejaVuSans-20" transform="translate(1216.748047 0)"/>
     <use xlink:href="#DejaVuSans-32" transform="translate(1248.535156 0)"/>
     <use xlink:href="#DejaVuSans-30" transform="translate(1312.158203 0)"/>
     <use xlink:href="#DejaVuSans-31" transform="translate(1375.78125 0)"/>
     <use xlink:href="#DejaVuSans-30" transform="translate(1439.404297 0)"/>
     <use xlink:href="#DejaVuSans-2013" transform="translate(1503.027344 0)"/>
     <use xlink:href="#DejaVuSans-32" transform="translate(1553.027344 0)"/>
     <use xlink:href="#DejaVuSans-30" transform="translate(1616.650391 0)"/>
     <use xlink:href="#DejaVuSans-32" transform="translate(1680.273438 0)"/>
     <use xlink:href="#DejaVuSans-36" transform="translate(1743.896484 0)"/>
     <use xlink:href="#DejaVuSans-20" transform="translate(1807.519531 0)"/>
     <use xlink:href="#DejaVuSans-61" transform="translate(1839.306641 0)"/>
     <use xlink:href="#DejaVuSans-67" transform="translate(1900.585938 0)"/>
     <use xlink:href="#DejaVuSans-61" transform="translate(1964.0625 0)"/>
     <use xlink:href="#DejaVuSans-69" transform="translate(2025.341797 0)"/>
     <use xlink:href="#DejaVuSans-6e" transform="translate(2053.125 0)"/>
     <use xlink:href="#DejaVuSans-73" transform="translate(2116.503906 0)"/>
     <use xlink:href="#DejaVuSans-74" transform="translate(2168.603516 0)"/>
     <use xlink:href="#DejaVuSans-20" transform="translate(2207.8125 0)"/>
     <use xlink:href="#DejaVuSans-74" transform="translate(2239.599609 0)"/>
     <use xlink:href="#DejaVuSans-68" transform="translate(2278.808594 0)"/>
     <use xlink:href="#DejaVuSans-65" transform="translate(2342.1875 0)"/>
     <use xlink:href="#DejaVuSans-20" transform="translate(2403.710938 0)"/>
     <use xlink:href="#DejaVuSans-70" transform="translate(2435.498047 0)"/>
     <use xlink:href="#DejaVuSans-61" transform="translate(2498.974609 0)"/>
     <use xlink:href="#DejaVuSans-70" transform="translate(2560.253906 0)"/>
     <use xlink:href="#DejaVuSans-65" transform="translate(2623.730469 0)"/>
     <use xlink:href="#DejaVuSans-72" transform="translate(2685.253906 0)"/>
     <use xlink:href="#DejaVuSans-27" transform="translate(2726.367188 0)"/>
     <use xlink:href="#DejaVuSans-73" transform="translate(2753.857422 0)"/>
     <use xlink:href="#DejaVuSans-20" transform="translate(2805.957031 0)"/>
     <use xlink:href="#DejaVuSans-66" transform="translate(2837.744141 0)"/>
     <use xlink:href="#DejaVuSans-6f" transform="translate(2872.949219 0)"/>
     <use xlink:href="#DejaVuSans-72" transform="translate(2934.130859 0)"/>
     <use xlink:href="#DejaVuSans-6d" transform="translate(2973.494141 0)"/>
     <use xlink:href="#DejaVuSans-61" transform="translate(3070.90625 0)"/>
     <use xlink:href="#DejaVuSans-74" transform="translate(3132.185547 0)"/>
    </g>
   </g>
  </g>
  <g id="axes_2">
   <g id="patch_9">
    <path d="M 36.74 420.82 
L 815.2 420.82 
L 815.2 311.505116 
L 36.74 311.505116 
z
" style="fill: #ffffff"/>
   </g>
   <g id="patch_10">
    <path d="M 76.287433 420.82 
L 92.938984 420.82 
L 92.938984 333.368093 
L 76.287433 333.368093 
z
" clip-path="url(#pf9416b1142)" style="fill: #1baf7a"/>
   </g>
   <g id="patch_11">
    <path d="M 117.91631 420.82 
L 134.567861 420.82 
L 134.567861 333.368093 
L 117.91631 333.368093 
z
" clip-path="url(#pf9416b1142)" style="fill: #1baf7a"/>
   </g>
   <g id="patch_12">
    <path d="M 159.545187 420.82 
L 176.196738 420.82 
L 176.196738 333.368093 
L 159.545187 333.368093 
z
" clip-path="url(#pf9416b1142)" style="fill: #1baf7a"/>
   </g>
   <g id="patch_13">
    <path d="M 201.174064 420.82 
L 217.825615 420.82 
L 217.825615 333.368093 
L 201.174064 333.368093 
z
" clip-path="url(#pf9416b1142)" style="fill: #1baf7a"/>
   </g>
   <g id="patch_14">
    <path d="M 242.802941 420.82 
L 259.454492 420.82 
L 259.454492 333.368093 
L 242.802941 333.368093 
z
" clip-path="url(#pf9416b1142)" style="fill: #1baf7a"/>
   </g>
   <g id="patch_15">
    <path d="M 284.431818 420.82 
L 301.083369 420.82 
L 301.083369 333.368093 
L 284.431818 333.368093 
z
" clip-path="url(#pf9416b1142)" style="fill: #1baf7a"/>
   </g>
   <g id="patch_16">
    <path d="M 326.060695 420.82 
L 342.712246 420.82 
L 342.712246 333.368093 
L 326.060695 333.368093 
z
" clip-path="url(#pf9416b1142)" style="fill: #1baf7a"/>
   </g>
   <g id="patch_17">
    <path d="M 367.689572 420.82 
L 384.341123 420.82 
L 384.341123 333.368093 
L 367.689572 333.368093 
z
" clip-path="url(#pf9416b1142)" style="fill: #1baf7a"/>
   </g>
   <g id="patch_18">
    <path d="M 409.318449 420.82 
L 425.97 420.82 
L 425.97 333.368093 
L 409.318449 333.368093 
z
" clip-path="url(#pf9416b1142)" style="fill: #1baf7a"/>
   </g>
   <g id="patch_19">
    <path d="M 450.947326 420.82 
L 467.598877 420.82 
L 467.598877 333.368093 
L 450.947326 333.368093 
z
" clip-path="url(#pf9416b1142)" style="fill: #1baf7a"/>
   </g>
   <g id="patch_20">
    <path d="M 492.576203 420.82 
L 509.227754 420.82 
L 509.227754 333.368093 
L 492.576203 333.368093 
z
" clip-path="url(#pf9416b1142)" style="fill: #1baf7a"/>
   </g>
   <g id="patch_21">
    <path d="M 534.20508 420.82 
L 550.856631 420.82 
L 550.856631 333.368093 
L 534.20508 333.368093 
z
" clip-path="url(#pf9416b1142)" style="fill: #1baf7a"/>
   </g>
   <g id="patch_22">
    <path d="M 575.833957 420.82 
L 592.485508 420.82 
L 592.485508 333.368093 
L 575.833957 333.368093 
z
" clip-path="url(#pf9416b1142)" style="fill: #1baf7a"/>
   </g>
   <g id="patch_23">
    <path d="M 617.462834 420.82 
L 634.114385 420.82 
L 634.114385 333.368093 
L 617.462834 333.368093 
z
" clip-path="url(#pf9416b1142)" style="fill: #1baf7a"/>
   </g>
   <g id="patch_24">
    <path d="M 659.091711 420.82 
L 675.743262 420.82 
L 675.743262 333.368093 
L 659.091711 333.368093 
z
" clip-path="url(#pf9416b1142)" style="fill: #1baf7a"/>
   </g>
   <g id="patch_25">
    <path d="M 700.720588 420.82 
L 717.372139 420.82 
L 717.372139 420.82 
L 700.720588 420.82 
z
" clip-path="url(#pf9416b1142)" style="fill: #1baf7a"/>
   </g>
   <g id="patch_26">
    <path d="M 742.349465 420.82 
L 759.001016 420.82 
L 759.001016 420.82 
L 742.349465 420.82 
z
" clip-path="url(#pf9416b1142)" style="fill: #1baf7a"/>
   </g>
   <g id="matplotlib.axis_3">
    <g id="xtick_18">
     <g id="line2d_26">
      <g>
       <use xlink:href="#m3ededddb2b" x="92.938984" y="420.82" style="stroke: #000000; stroke-width: 0.8"/>
      </g>
     </g>
     <g id="text_30">
      <!-- 2010 -->
      <g transform="translate(80.850234 435.038516) scale(0.095 -0.095)">
       <use xlink:href="#DejaVuSans-32"/>
       <use xlink:href="#DejaVuSans-30" transform="translate(63.623047 0)"/>
       <use xlink:href="#DejaVuSans-31" transform="translate(127.246094 0)"/>
       <use xlink:href="#DejaVuSans-30" transform="translate(190.869141 0)"/>
      </g>
     </g>
    </g>
    <g id="xtick_19">
     <g id="line2d_27">
      <g>
       <use xlink:href="#m3ededddb2b" x="134.567861" y="420.82" style="stroke: #000000; stroke-width: 0.8"/>
      </g>
     </g>
     <g id="text_31">
      <!-- 2011 -->
      <g transform="translate(122.479111 435.038516) scale(0.095 -0.095)">
       <use xlink:href="#DejaVuSans-32"/>
       <use xlink:href="#DejaVuSans-30" transform="translate(63.623047 0)"/>
       <use xlink:href="#DejaVuSans-31" transform="translate(127.246094 0)"/>
       <use xlink:href="#DejaVuSans-31" transform="translate(190.869141 0)"/>
      </g>
     </g>
    </g>
    <g id="xtick_20">
     <g id="line2d_28">
      <g>
       <use xlink:href="#m3ededddb2b" x="176.196738" y="420.82" style="stroke: #000000; stroke-width: 0.8"/>
      </g>
     </g>
     <g id="text_32">
      <!-- 2012 -->
      <g transform="translate(164.107988 435.038516) scale(0.095 -0.095)">
       <use xlink:href="#DejaVuSans-32"/>
       <use xlink:href="#DejaVuSans-30" transform="translate(63.623047 0)"/>
       <use xlink:href="#DejaVuSans-31" transform="translate(127.246094 0)"/>
       <use xlink:href="#DejaVuSans-32" transform="translate(190.869141 0)"/>
      </g>
     </g>
    </g>
    <g id="xtick_21">
     <g id="line2d_29">
      <g>
       <use xlink:href="#m3ededddb2b" x="217.825615" y="420.82" style="stroke: #000000; stroke-width: 0.8"/>
      </g>
     </g>
     <g id="text_33">
      <!-- 2013 -->
      <g transform="translate(205.736865 435.038516) scale(0.095 -0.095)">
       <use xlink:href="#DejaVuSans-32"/>
       <use xlink:href="#DejaVuSans-30" transform="translate(63.623047 0)"/>
       <use xlink:href="#DejaVuSans-31" transform="translate(127.246094 0)"/>
       <use xlink:href="#DejaVuSans-33" transform="translate(190.869141 0)"/>
      </g>
     </g>
    </g>
    <g id="xtick_22">
     <g id="line2d_30">
      <g>
       <use xlink:href="#m3ededddb2b" x="259.454492" y="420.82" style="stroke: #000000; stroke-width: 0.8"/>
      </g>
     </g>
     <g id="text_34">
      <!-- 2014 -->
      <g transform="translate(247.365742 435.038516) scale(0.095 -0.095)">
       <use xlink:href="#DejaVuSans-32"/>
       <use xlink:href="#DejaVuSans-30" transform="translate(63.623047 0)"/>
       <use xlink:href="#DejaVuSans-31" transform="translate(127.246094 0)"/>
       <use xlink:href="#DejaVuSans-34" transform="translate(190.869141 0)"/>
      </g>
     </g>
    </g>
    <g id="xtick_23">
     <g id="line2d_31">
      <g>
       <use xlink:href="#m3ededddb2b" x="301.083369" y="420.82" style="stroke: #000000; stroke-width: 0.8"/>
      </g>
     </g>
     <g id="text_35">
      <!-- 2015 -->
      <g transform="translate(288.994619 435.038516) scale(0.095 -0.095)">
       <use xlink:href="#DejaVuSans-32"/>
       <use xlink:href="#DejaVuSans-30" transform="translate(63.623047 0)"/>
       <use xlink:href="#DejaVuSans-31" transform="translate(127.246094 0)"/>
       <use xlink:href="#DejaVuSans-35" transform="translate(190.869141 0)"/>
      </g>
     </g>
    </g>
    <g id="xtick_24">
     <g id="line2d_32">
      <g>
       <use xlink:href="#m3ededddb2b" x="342.712246" y="420.82" style="stroke: #000000; stroke-width: 0.8"/>
      </g>
     </g>
     <g id="text_36">
      <!-- 2016 -->
      <g transform="translate(330.623496 435.038516) scale(0.095 -0.095)">
       <use xlink:href="#DejaVuSans-32"/>
       <use xlink:href="#DejaVuSans-30" transform="translate(63.623047 0)"/>
       <use xlink:href="#DejaVuSans-31" transform="translate(127.246094 0)"/>
       <use xlink:href="#DejaVuSans-36" transform="translate(190.869141 0)"/>
      </g>
     </g>
    </g>
    <g id="xtick_25">
     <g id="line2d_33">
      <g>
       <use xlink:href="#m3ededddb2b" x="384.341123" y="420.82" style="stroke: #000000; stroke-width: 0.8"/>
      </g>
     </g>
     <g id="text_37">
      <!-- 2017 -->
      <g transform="translate(372.252373 435.038516) scale(0.095 -0.095)">
       <use xlink:href="#DejaVuSans-32"/>
       <use xlink:href="#DejaVuSans-30" transform="translate(63.623047 0)"/>
       <use xlink:href="#DejaVuSans-31" transform="translate(127.246094 0)"/>
       <use xlink:href="#DejaVuSans-37" transform="translate(190.869141 0)"/>
      </g>
     </g>
    </g>
    <g id="xtick_26">
     <g id="line2d_34">
      <g>
       <use xlink:href="#m3ededddb2b" x="425.97" y="420.82" style="stroke: #000000; stroke-width: 0.8"/>
      </g>
     </g>
     <g id="text_38">
      <!-- 2018 -->
      <g transform="translate(413.88125 435.038516) scale(0.095 -0.095)">
       <use xlink:href="#DejaVuSans-32"/>
       <use xlink:href="#DejaVuSans-30" transform="translate(63.623047 0)"/>
       <use xlink:href="#DejaVuSans-31" transform="translate(127.246094 0)"/>
       <use xlink:href="#DejaVuSans-38" transform="translate(190.869141 0)"/>
      </g>
     </g>
    </g>
    <g id="xtick_27">
     <g id="line2d_35">
      <g>
       <use xlink:href="#m3ededddb2b" x="467.598877" y="420.82" style="stroke: #000000; stroke-width: 0.8"/>
      </g>
     </g>
     <g id="text_39">
      <!-- 2019 -->
      <g transform="translate(455.510127 435.038516) scale(0.095 -0.095)">
       <use xlink:href="#DejaVuSans-32"/>
       <use xlink:href="#DejaVuSans-30" transform="translate(63.623047 0)"/>
       <use xlink:href="#DejaVuSans-31" transform="translate(127.246094 0)"/>
       <use xlink:href="#DejaVuSans-39" transform="translate(190.869141 0)"/>
      </g>
     </g>
    </g>
    <g id="xtick_28">
     <g id="line2d_36">
      <g>
       <use xlink:href="#m3ededddb2b" x="509.227754" y="420.82" style="stroke: #000000; stroke-width: 0.8"/>
      </g>
     </g>
     <g id="text_40">
      <!-- 2020 -->
      <g transform="translate(497.139004 435.038516) scale(0.095 -0.095)">
       <use xlink:href="#DejaVuSans-32"/>
       <use xlink:href="#DejaVuSans-30" transform="translate(63.623047 0)"/>
       <use xlink:href="#DejaVuSans-32" transform="translate(127.246094 0)"/>
       <use xlink:href="#DejaVuSans-30" transform="translate(190.869141 0)"/>
      </g>
     </g>
    </g>
    <g id="xtick_29">
     <g id="line2d_37">
      <g>
       <use xlink:href="#m3ededddb2b" x="550.856631" y="420.82" style="stroke: #000000; stroke-width: 0.8"/>
      </g>
     </g>
     <g id="text_41">
      <!-- 2021 -->
      <g transform="translate(538.767881 435.038516) scale(0.095 -0.095)">
       <use xlink:href="#DejaVuSans-32"/>
       <use xlink:href="#DejaVuSans-30" transform="translate(63.623047 0)"/>
       <use xlink:href="#DejaVuSans-32" transform="translate(127.246094 0)"/>
       <use xlink:href="#DejaVuSans-31" transform="translate(190.869141 0)"/>
      </g>
     </g>
    </g>
    <g id="xtick_30">
     <g id="line2d_38">
      <g>
       <use xlink:href="#m3ededddb2b" x="592.485508" y="420.82" style="stroke: #000000; stroke-width: 0.8"/>
      </g>
     </g>
     <g id="text_42">
      <!-- 2022 -->
      <g transform="translate(580.396758 435.038516) scale(0.095 -0.095)">
       <use xlink:href="#DejaVuSans-32"/>
       <use xlink:href="#DejaVuSans-30" transform="translate(63.623047 0)"/>
       <use xlink:href="#DejaVuSans-32" transform="translate(127.246094 0)"/>
       <use xlink:href="#DejaVuSans-32" transform="translate(190.869141 0)"/>
      </g>
     </g>
    </g>
    <g id="xtick_31">
     <g id="line2d_39">
      <g>
       <use xlink:href="#m3ededddb2b" x="634.114385" y="420.82" style="stroke: #000000; stroke-width: 0.8"/>
      </g>
     </g>
     <g id="text_43">
      <!-- 2023 -->
      <g transform="translate(622.025635 435.038516) scale(0.095 -0.095)">
       <use xlink:href="#DejaVuSans-32"/>
       <use xlink:href="#DejaVuSans-30" transform="translate(63.623047 0)"/>
       <use xlink:href="#DejaVuSans-32" transform="translate(127.246094 0)"/>
       <use xlink:href="#DejaVuSans-33" transform="translate(190.869141 0)"/>
      </g>
     </g>
    </g>
    <g id="xtick_32">
     <g id="line2d_40">
      <g>
       <use xlink:href="#m3ededddb2b" x="675.743262" y="420.82" style="stroke: #000000; stroke-width: 0.8"/>
      </g>
     </g>
     <g id="text_44">
      <!-- 2024 -->
      <g transform="translate(663.654512 435.038516) scale(0.095 -0.095)">
       <use xlink:href="#DejaVuSans-32"/>
       <use xlink:href="#DejaVuSans-30" transform="translate(63.623047 0)"/>
       <use xlink:href="#DejaVuSans-32" transform="translate(127.246094 0)"/>
       <use xlink:href="#DejaVuSans-34" transform="translate(190.869141 0)"/>
      </g>
     </g>
    </g>
    <g id="xtick_33">
     <g id="line2d_41">
      <g>
       <use xlink:href="#m3ededddb2b" x="717.372139" y="420.82" style="stroke: #000000; stroke-width: 0.8"/>
      </g>
     </g>
     <g id="text_45">
      <!-- 2025 -->
      <g transform="translate(705.283389 435.038516) scale(0.095 -0.095)">
       <use xlink:href="#DejaVuSans-32"/>
       <use xlink:href="#DejaVuSans-30" transform="translate(63.623047 0)"/>
       <use xlink:href="#DejaVuSans-32" transform="translate(127.246094 0)"/>
       <use xlink:href="#DejaVuSans-35" transform="translate(190.869141 0)"/>
      </g>
     </g>
    </g>
    <g id="xtick_34">
     <g id="line2d_42">
      <g>
       <use xlink:href="#m3ededddb2b" x="759.001016" y="420.82" style="stroke: #000000; stroke-width: 0.8"/>
      </g>
     </g>
     <g id="text_46">
      <!-- 2026 -->
      <g transform="translate(746.912266 435.038516) scale(0.095 -0.095)">
       <use xlink:href="#DejaVuSans-32"/>
       <use xlink:href="#DejaVuSans-30" transform="translate(63.623047 0)"/>
       <use xlink:href="#DejaVuSans-32" transform="translate(127.246094 0)"/>
       <use xlink:href="#DejaVuSans-36" transform="translate(190.869141 0)"/>
      </g>
     </g>
    </g>
    <g id="text_47">
     <!-- year (ordinary sitting) -->
     <g transform="translate(373.986445 448.232734) scale(0.095 -0.095)">
      <use xlink:href="#DejaVuSans-79"/>
      <use xlink:href="#DejaVuSans-65" transform="translate(59.179688 0)"/>
      <use xlink:href="#DejaVuSans-61" transform="translate(120.703125 0)"/>
      <use xlink:href="#DejaVuSans-72" transform="translate(181.982422 0)"/>
      <use xlink:href="#DejaVuSans-20" transform="translate(223.095703 0)"/>
      <use xlink:href="#DejaVuSans-28" transform="translate(254.882812 0)"/>
      <use xlink:href="#DejaVuSans-6f" transform="translate(293.896484 0)"/>
      <use xlink:href="#DejaVuSans-72" transform="translate(355.078125 0)"/>
      <use xlink:href="#DejaVuSans-64" transform="translate(394.441406 0)"/>
      <use xlink:href="#DejaVuSans-69" transform="translate(457.917969 0)"/>
      <use xlink:href="#DejaVuSans-6e" transform="translate(485.701172 0)"/>
      <use xlink:href="#DejaVuSans-61" transform="translate(549.080078 0)"/>
      <use xlink:href="#DejaVuSans-72" transform="translate(610.359375 0)"/>
      <use xlink:href="#DejaVuSans-79" transform="translate(651.472656 0)"/>
      <use xlink:href="#DejaVuSans-20" transform="translate(710.652344 0)"/>
      <use xlink:href="#DejaVuSans-73" transform="translate(742.439453 0)"/>
      <use xlink:href="#DejaVuSans-69" transform="translate(794.539062 0)"/>
      <use xlink:href="#DejaVuSans-74" transform="translate(822.322266 0)"/>
      <use xlink:href="#DejaVuSans-74" transform="translate(861.53125 0)"/>
      <use xlink:href="#DejaVuSans-69" transform="translate(900.740234 0)"/>
      <use xlink:href="#DejaVuSans-6e" transform="translate(928.523438 0)"/>
      <use xlink:href="#DejaVuSans-67" transform="translate(991.902344 0)"/>
      <use xlink:href="#DejaVuSans-29" transform="translate(1055.378906 0)"/>
     </g>
    </g>
   </g>
   <g id="matplotlib.axis_4">
    <g id="ytick_8">
     <g id="line2d_43">
      <g>
       <use xlink:href="#m641888c54d" x="36.74" y="420.82" style="stroke: #000000; stroke-width: 0.8"/>
      </g>
     </g>
     <g id="text_48">
      <!-- 0 -->
      <g transform="translate(23.695625 424.429258) scale(0.095 -0.095)">
       <use xlink:href="#DejaVuSans-30"/>
      </g>
     </g>
    </g>
    <g id="ytick_9">
     <g id="line2d_44">
      <g>
       <use xlink:href="#m641888c54d" x="36.74" y="398.957023" style="stroke: #000000; stroke-width: 0.8"/>
      </g>
     </g>
     <g id="text_49">
      <!-- 1 -->
      <g transform="translate(23.695625 402.566281) scale(0.095 -0.095)">
       <use xlink:href="#DejaVuSans-31"/>
      </g>
     </g>
    </g>
    <g id="ytick_10">
     <g id="line2d_45">
      <g>
       <use xlink:href="#m641888c54d" x="36.74" y="377.094047" style="stroke: #000000; stroke-width: 0.8"/>
      </g>
     </g>
     <g id="text_50">
      <!-- 2 -->
      <g transform="translate(23.695625 380.703304) scale(0.095 -0.095)">
       <use xlink:href="#DejaVuSans-32"/>
      </g>
     </g>
    </g>
    <g id="ytick_11">
     <g id="line2d_46">
      <g>
       <use xlink:href="#m641888c54d" x="36.74" y="355.23107" style="stroke: #000000; stroke-width: 0.8"/>
      </g>
     </g>
     <g id="text_51">
      <!-- 3 -->
      <g transform="translate(23.695625 358.840328) scale(0.095 -0.095)">
       <use xlink:href="#DejaVuSans-33"/>
      </g>
     </g>
    </g>
    <g id="ytick_12">
     <g id="line2d_47">
      <g>
       <use xlink:href="#m641888c54d" x="36.74" y="333.368093" style="stroke: #000000; stroke-width: 0.8"/>
      </g>
     </g>
     <g id="text_52">
      <!-- 4 -->
      <g transform="translate(23.695625 336.977351) scale(0.095 -0.095)">
       <use xlink:href="#DejaVuSans-34"/>
      </g>
     </g>
    </g>
    <g id="ytick_13">
     <g id="line2d_48">
      <g>
       <use xlink:href="#m641888c54d" x="36.74" y="311.505116" style="stroke: #000000; stroke-width: 0.8"/>
      </g>
     </g>
     <g id="text_53">
      <!-- 5 -->
      <g transform="translate(23.695625 315.114374) scale(0.095 -0.095)">
       <use xlink:href="#DejaVuSans-35"/>
      </g>
     </g>
    </g>
    <g id="text_54">
     <!-- theory pts -->
     <g style="fill: #1baf7a" transform="translate(17.719922 390.48998) rotate(-90) scale(0.095 -0.095)">
      <use xlink:href="#DejaVuSans-74"/>
      <use xlink:href="#DejaVuSans-68" transform="translate(39.208984 0)"/>
      <use xlink:href="#DejaVuSans-65" transform="translate(102.587891 0)"/>
      <use xlink:href="#DejaVuSans-6f" transform="translate(164.111328 0)"/>
      <use xlink:href="#DejaVuSans-72" transform="translate(225.292969 0)"/>
      <use xlink:href="#DejaVuSans-79" transform="translate(266.40625 0)"/>
      <use xlink:href="#DejaVuSans-20" transform="translate(325.585938 0)"/>
      <use xlink:href="#DejaVuSans-70" transform="translate(357.373047 0)"/>
      <use xlink:href="#DejaVuSans-74" transform="translate(420.849609 0)"/>
      <use xlink:href="#DejaVuSans-73" transform="translate(460.058594 0)"/>
     </g>
    </g>
   </g>
   <g id="patch_27">
    <path d="M 36.74 420.82 
L 36.74 311.505116 
" style="fill: none; stroke: #000000; stroke-width: 0.8; stroke-linejoin: miter; stroke-linecap: square"/>
   </g>
   <g id="patch_28">
    <path d="M 36.74 420.82 
L 815.2 420.82 
" style="fill: none; stroke: #000000; stroke-width: 0.8; stroke-linejoin: miter; stroke-linecap: square"/>
   </g>
   <g id="legend_1">
    <g id="patch_29">
     <path d="M 253.714375 302.641366 
L 269.714375 302.641366 
L 269.714375 297.041366 
L 253.714375 297.041366 
z
" style="fill: #1baf7a"/>
    </g>
    <g id="text_55">
     <!-- points from closed-list theory questions -->
     <g transform="translate(276.114375 302.641366) scale(0.08 -0.08)">
      <use xlink:href="#DejaVuSans-70"/>
      <use xlink:href="#DejaVuSans-6f" transform="translate(63.476562 0)"/>
      <use xlink:href="#DejaVuSans-69" transform="translate(124.658203 0)"/>
      <use xlink:href="#DejaVuSans-6e" transform="translate(152.441406 0)"/>
      <use xlink:href="#DejaVuSans-74" transform="translate(215.820312 0)"/>
      <use xlink:href="#DejaVuSans-73" transform="translate(255.029297 0)"/>
      <use xlink:href="#DejaVuSans-20" transform="translate(307.128906 0)"/>
      <use xlink:href="#DejaVuSans-66" transform="translate(338.916016 0)"/>
      <use xlink:href="#DejaVuSans-72" transform="translate(374.121094 0)"/>
      <use xlink:href="#DejaVuSans-6f" transform="translate(412.984375 0)"/>
      <use xlink:href="#DejaVuSans-6d" transform="translate(474.166016 0)"/>
      <use xlink:href="#DejaVuSans-20" transform="translate(571.578125 0)"/>
      <use xlink:href="#DejaVuSans-63" transform="translate(603.365234 0)"/>
      <use xlink:href="#DejaVuSans-6c" transform="translate(658.345703 0)"/>
      <use xlink:href="#DejaVuSans-6f" transform="translate(686.128906 0)"/>
      <use xlink:href="#DejaVuSans-73" transform="translate(747.310547 0)"/>
      <use xlink:href="#DejaVuSans-65" transform="translate(799.410156 0)"/>
      <use xlink:href="#DejaVuSans-64" transform="translate(860.933594 0)"/>
      <use xlink:href="#DejaVuSans-2d" transform="translate(924.410156 0)"/>
      <use xlink:href="#DejaVuSans-6c" transform="translate(960.494141 0)"/>
      <use xlink:href="#DejaVuSans-69" transform="translate(988.277344 0)"/>
      <use xlink:href="#DejaVuSans-73" transform="translate(1016.060547 0)"/>
      <use xlink:href="#DejaVuSans-74" transform="translate(1068.160156 0)"/>
      <use xlink:href="#DejaVuSans-20" transform="translate(1107.369141 0)"/>
      <use xlink:href="#DejaVuSans-74" transform="translate(1139.15625 0)"/>
      <use xlink:href="#DejaVuSans-68" transform="translate(1178.365234 0)"/>
      <use xlink:href="#DejaVuSans-65" transform="translate(1241.744141 0)"/>
      <use xlink:href="#DejaVuSans-6f" transform="translate(1303.267578 0)"/>
      <use xlink:href="#DejaVuSans-72" transform="translate(1364.449219 0)"/>
      <use xlink:href="#DejaVuSans-79" transform="translate(1405.5625 0)"/>
      <use xlink:href="#DejaVuSans-20" transform="translate(1464.742188 0)"/>
      <use xlink:href="#DejaVuSans-71" transform="translate(1496.529297 0)"/>
      <use xlink:href="#DejaVuSans-75" transform="translate(1560.005859 0)"/>
      <use xlink:href="#DejaVuSans-65" transform="translate(1623.384766 0)"/>
      <use xlink:href="#DejaVuSans-73" transform="translate(1684.908203 0)"/>
      <use xlink:href="#DejaVuSans-74" transform="translate(1737.007812 0)"/>
      <use xlink:href="#DejaVuSans-69" transform="translate(1776.216797 0)"/>
      <use xlink:href="#DejaVuSans-6f" transform="translate(1804 0)"/>
      <use xlink:href="#DejaVuSans-6e" transform="translate(1865.181641 0)"/>
      <use xlink:href="#DejaVuSans-73" transform="translate(1928.560547 0)"/>
     </g>
    </g>
    <g id="patch_30">
     <path d="M 450.564375 302.641366 
L 466.564375 302.641366 
L 466.564375 297.041366 
L 450.564375 297.041366 
z
" style="fill: #eda100"/>
    </g>
    <g id="text_56">
     <!-- optional share of the paper (%) -->
     <g transform="translate(472.964375 302.641366) scale(0.08 -0.08)">
      <defs>
       <path id="DejaVuSans-25" d="M 4653 2053 
Q 4381 2053 4226 1822 
Q 4072 1591 4072 1178 
Q 4072 772 4226 539 
Q 4381 306 4653 306 
Q 4919 306 5073 539 
Q 5228 772 5228 1178 
Q 5228 1588 5073 1820 
Q 4919 2053 4653 2053 
z
M 4653 2450 
Q 5147 2450 5437 2106 
Q 5728 1763 5728 1178 
Q 5728 594 5436 251 
Q 5144 -91 4653 -91 
Q 4153 -91 3862 251 
Q 3572 594 3572 1178 
Q 3572 1766 3864 2108 
Q 4156 2450 4653 2450 
z
M 1428 4353 
Q 1159 4353 1004 4120 
Q 850 3888 850 3481 
Q 850 3069 1003 2837 
Q 1156 2606 1428 2606 
Q 1700 2606 1854 2837 
Q 2009 3069 2009 3481 
Q 2009 3884 1853 4118 
Q 1697 4353 1428 4353 
z
M 4250 4750 
L 4750 4750 
L 1831 -91 
L 1331 -91 
L 4250 4750 
z
M 1428 4750 
Q 1922 4750 2215 4408 
Q 2509 4066 2509 3481 
Q 2509 2891 2217 2550 
Q 1925 2209 1428 2209 
Q 931 2209 642 2551 
Q 353 2894 353 3481 
Q 353 4063 643 4406 
Q 934 4750 1428 4750 
z
" transform="scale(0.015625)"/>
      </defs>
      <use xlink:href="#DejaVuSans-6f"/>
      <use xlink:href="#DejaVuSans-70" transform="translate(61.181641 0)"/>
      <use xlink:href="#DejaVuSans-74" transform="translate(124.658203 0)"/>
      <use xlink:href="#DejaVuSans-69" transform="translate(163.867188 0)"/>
      <use xlink:href="#DejaVuSans-6f" transform="translate(191.650391 0)"/>
      <use xlink:href="#DejaVuSans-6e" transform="translate(252.832031 0)"/>
      <use xlink:href="#DejaVuSans-61" transform="translate(316.210938 0)"/>
      <use xlink:href="#DejaVuSans-6c" transform="translate(377.490234 0)"/>
      <use xlink:href="#DejaVuSans-20" transform="translate(405.273438 0)"/>
      <use xlink:href="#DejaVuSans-73" transform="translate(437.060547 0)"/>
      <use xlink:href="#DejaVuSans-68" transform="translate(489.160156 0)"/>
      <use xlink:href="#DejaVuSans-61" transform="translate(552.539062 0)"/>
      <use xlink:href="#DejaVuSans-72" transform="translate(613.818359 0)"/>
      <use xlink:href="#DejaVuSans-65" transform="translate(652.681641 0)"/>
      <use xlink:href="#DejaVuSans-20" transform="translate(714.205078 0)"/>
      <use xlink:href="#DejaVuSans-6f" transform="translate(745.992188 0)"/>
      <use xlink:href="#DejaVuSans-66" transform="translate(807.173828 0)"/>
      <use xlink:href="#DejaVuSans-20" transform="translate(842.378906 0)"/>
      <use xlink:href="#DejaVuSans-74" transform="translate(874.166016 0)"/>
      <use xlink:href="#DejaVuSans-68" transform="translate(913.375 0)"/>
      <use xlink:href="#DejaVuSans-65" transform="translate(976.753906 0)"/>
      <use xlink:href="#DejaVuSans-20" transform="translate(1038.277344 0)"/>
      <use xlink:href="#DejaVuSans-70" transform="translate(1070.064453 0)"/>
      <use xlink:href="#DejaVuSans-61" transform="translate(1133.541016 0)"/>
      <use xlink:href="#DejaVuSans-70" transform="translate(1194.820312 0)"/>
      <use xlink:href="#DejaVuSans-65" transform="translate(1258.296875 0)"/>
      <use xlink:href="#DejaVuSans-72" transform="translate(1319.820312 0)"/>
      <use xlink:href="#DejaVuSans-20" transform="translate(1360.933594 0)"/>
      <use xlink:href="#DejaVuSans-28" transform="translate(1392.720703 0)"/>
      <use xlink:href="#DejaVuSans-25" transform="translate(1431.734375 0)"/>
      <use xlink:href="#DejaVuSans-29" transform="translate(1526.753906 0)"/>
     </g>
    </g>
   </g>
  </g>
  <g id="axes_3">
   <g id="patch_31">
    <path d="M 92.938984 420.82 
L 109.590535 420.82 
L 109.590535 321.442833 
L 92.938984 321.442833 
z
" clip-path="url(#pf9416b1142)" style="fill: #eda100"/>
   </g>
   <g id="patch_32">
    <path d="M 134.567861 420.82 
L 151.219412 420.82 
L 151.219412 321.442833 
L 134.567861 321.442833 
z
" clip-path="url(#pf9416b1142)" style="fill: #eda100"/>
   </g>
   <g id="patch_33">
    <path d="M 176.196738 420.82 
L 192.848289 420.82 
L 192.848289 321.442833 
L 176.196738 321.442833 
z
" clip-path="url(#pf9416b1142)" style="fill: #eda100"/>
   </g>
   <g id="patch_34">
    <path d="M 217.825615 420.82 
L 234.477166 420.82 
L 234.477166 321.442833 
L 217.825615 321.442833 
z
" clip-path="url(#pf9416b1142)" style="fill: #eda100"/>
   </g>
   <g id="patch_35">
    <path d="M 259.454492 420.82 
L 276.106043 420.82 
L 276.106043 321.442833 
L 259.454492 321.442833 
z
" clip-path="url(#pf9416b1142)" style="fill: #eda100"/>
   </g>
   <g id="patch_36">
    <path d="M 301.083369 420.82 
L 317.73492 420.82 
L 317.73492 321.442833 
L 301.083369 321.442833 
z
" clip-path="url(#pf9416b1142)" style="fill: #eda100"/>
   </g>
   <g id="patch_37">
    <path d="M 342.712246 420.82 
L 359.363797 420.82 
L 359.363797 321.442833 
L 342.712246 321.442833 
z
" clip-path="url(#pf9416b1142)" style="fill: #eda100"/>
   </g>
   <g id="patch_38">
    <path d="M 384.341123 420.82 
L 400.992674 420.82 
L 400.992674 321.442833 
L 384.341123 321.442833 
z
" clip-path="url(#pf9416b1142)" style="fill: #eda100"/>
   </g>
   <g id="patch_39">
    <path d="M 425.97 420.82 
L 442.621551 420.82 
L 442.621551 321.442833 
L 425.97 321.442833 
z
" clip-path="url(#pf9416b1142)" style="fill: #eda100"/>
   </g>
   <g id="patch_40">
    <path d="M 467.598877 420.82 
L 484.250428 420.82 
L 484.250428 321.442833 
L 467.598877 321.442833 
z
" clip-path="url(#pf9416b1142)" style="fill: #eda100"/>
   </g>
   <g id="patch_41">
    <path d="M 509.227754 420.82 
L 525.879305 420.82 
L 525.879305 321.442833 
L 509.227754 321.442833 
z
" clip-path="url(#pf9416b1142)" style="fill: #eda100"/>
   </g>
   <g id="patch_42">
    <path d="M 550.856631 420.82 
L 567.508182 420.82 
L 567.508182 321.442833 
L 550.856631 321.442833 
z
" clip-path="url(#pf9416b1142)" style="fill: #eda100"/>
   </g>
   <g id="patch_43">
    <path d="M 592.485508 420.82 
L 609.137059 420.82 
L 609.137059 321.442833 
L 592.485508 321.442833 
z
" clip-path="url(#pf9416b1142)" style="fill: #eda100"/>
   </g>
   <g id="patch_44">
    <path d="M 634.114385 420.82 
L 650.765936 420.82 
L 650.765936 321.442833 
L 634.114385 321.442833 
z
" clip-path="url(#pf9416b1142)" style="fill: #eda100"/>
   </g>
   <g id="patch_45">
    <path d="M 675.743262 420.82 
L 692.394813 420.82 
L 692.394813 321.442833 
L 675.743262 321.442833 
z
" clip-path="url(#pf9416b1142)" style="fill: #eda100"/>
   </g>
   <g id="patch_46">
    <path d="M 717.372139 420.82 
L 734.02369 420.82 
L 734.02369 346.287125 
L 717.372139 346.287125 
z
" clip-path="url(#pf9416b1142)" style="fill: #eda100"/>
   </g>
   <g id="patch_47">
    <path d="M 759.001016 420.82 
L 775.652567 420.82 
L 775.652567 371.131416 
L 759.001016 371.131416 
z
" clip-path="url(#pf9416b1142)" style="fill: #eda100"/>
   </g>
   <g id="matplotlib.axis_5">
    <g id="ytick_14">
     <g id="line2d_49">
      <defs>
       <path id="m859ae69352" d="M 0 0 
L 3.5 0 
" style="stroke: #000000; stroke-width: 0.8"/>
      </defs>
      <g>
       <use xlink:href="#m859ae69352" x="815.2" y="420.82" style="stroke: #000000; stroke-width: 0.8"/>
      </g>
     </g>
     <g id="text_57">
      <!-- 0 -->
      <g transform="translate(822.2 424.429258) scale(0.095 -0.095)">
       <use xlink:href="#DejaVuSans-30"/>
      </g>
     </g>
    </g>
    <g id="ytick_15">
     <g id="line2d_50">
      <g>
       <use xlink:href="#m859ae69352" x="815.2" y="395.975708" style="stroke: #000000; stroke-width: 0.8"/>
      </g>
     </g>
     <g id="text_58">
      <!-- 25 -->
      <g transform="translate(822.2 399.584966) scale(0.095 -0.095)">
       <use xlink:href="#DejaVuSans-32"/>
       <use xlink:href="#DejaVuSans-35" transform="translate(63.623047 0)"/>
      </g>
     </g>
    </g>
    <g id="ytick_16">
     <g id="line2d_51">
      <g>
       <use xlink:href="#m859ae69352" x="815.2" y="371.131416" style="stroke: #000000; stroke-width: 0.8"/>
      </g>
     </g>
     <g id="text_59">
      <!-- 50 -->
      <g transform="translate(822.2 374.740674) scale(0.095 -0.095)">
       <use xlink:href="#DejaVuSans-35"/>
       <use xlink:href="#DejaVuSans-30" transform="translate(63.623047 0)"/>
      </g>
     </g>
    </g>
    <g id="ytick_17">
     <g id="line2d_52">
      <g>
       <use xlink:href="#m859ae69352" x="815.2" y="346.287125" style="stroke: #000000; stroke-width: 0.8"/>
      </g>
     </g>
     <g id="text_60">
      <!-- 75 -->
      <g transform="translate(822.2 349.896383) scale(0.095 -0.095)">
       <use xlink:href="#DejaVuSans-37"/>
       <use xlink:href="#DejaVuSans-35" transform="translate(63.623047 0)"/>
      </g>
     </g>
    </g>
    <g id="ytick_18">
     <g id="line2d_53">
      <g>
       <use xlink:href="#m859ae69352" x="815.2" y="321.442833" style="stroke: #000000; stroke-width: 0.8"/>
      </g>
     </g>
     <g id="text_61">
      <!-- 100 -->
      <g transform="translate(822.2 325.052091) scale(0.095 -0.095)">
       <use xlink:href="#DejaVuSans-31"/>
       <use xlink:href="#DejaVuSans-30" transform="translate(63.623047 0)"/>
       <use xlink:href="#DejaVuSans-30" transform="translate(127.246094 0)"/>
      </g>
     </g>
    </g>
    <g id="text_62">
     <!-- optional % -->
     <g style="fill: #b07a00" transform="translate(851.551641 391.436269) rotate(-90) scale(0.095 -0.095)">
      <use xlink:href="#DejaVuSans-6f"/>
      <use xlink:href="#DejaVuSans-70" transform="translate(61.181641 0)"/>
      <use xlink:href="#DejaVuSans-74" transform="translate(124.658203 0)"/>
      <use xlink:href="#DejaVuSans-69" transform="translate(163.867188 0)"/>
      <use xlink:href="#DejaVuSans-6f" transform="translate(191.650391 0)"/>
      <use xlink:href="#DejaVuSans-6e" transform="translate(252.832031 0)"/>
      <use xlink:href="#DejaVuSans-61" transform="translate(316.210938 0)"/>
      <use xlink:href="#DejaVuSans-6c" transform="translate(377.490234 0)"/>
      <use xlink:href="#DejaVuSans-20" transform="translate(405.273438 0)"/>
      <use xlink:href="#DejaVuSans-25" transform="translate(437.060547 0)"/>
     </g>
    </g>
   </g>
   <g id="patch_48">
    <path d="M 36.74 420.82 
L 36.74 311.505116 
" style="fill: none; stroke: #000000; stroke-width: 0.8; stroke-linejoin: miter; stroke-linecap: square"/>
   </g>
   <g id="patch_49">
    <path d="M 36.74 420.82 
L 815.2 420.82 
" style="fill: none; stroke: #000000; stroke-width: 0.8; stroke-linejoin: miter; stroke-linecap: square"/>
   </g>
  </g>
 </g>
 <defs>
  <clipPath id="p60bb23f7ab">
   <rect x="36.74" y="25.62" width="778.46" height="252.265116"/>
  </clipPath>
  <clipPath id="pf9416b1142">
   <rect x="36.74" y="311.505116" width="778.46" height="109.314884"/>
  </clipPath>
 </defs>
</svg>
