<?xml version="1.0" encoding="utf-8" standalone="no"?>
<!DOCTYPE svg PUBLIC "-//W3C//DTD SVG 1.1//EN"
  "http://www.w3.org/Graphics/SVG/1.1/DTD/svg11.dtd">
<svg xmlns:xlink="http://www.w3.org/1999/xlink" width="588.852832pt" height="242.683443pt" viewBox="0 0 588.852832 242.683443" xmlns="http://www.w3.org/2000/svg" version="1.1">
 <metadata>
  <rdf:RDF xmlns:dc="http://purl.org/dc/elements/1.1/" xmlns:cc="http://creativecommons.org/ns#" xmlns:rdf="http://www.w3.org/1999/02/22-rdf-syntax-ns#">
   <cc:Work>
    <dc:type rdf:resource="http://purl.org/dc/dcmitype/StillImage"/>
    <dc:date>2026-09-21T10:11:09.442574</dc:date>
    <dc:format>image/svg+xml</dc:format>
    <dc:creator>
     <cc:Agent>
      <dc:title>Matplotlib v3.10.9, https://matplotlib.org/</dc:title>
     </cc:Agent>
    </dc:creator>
   </cc:Work>
  </rdf:RDF>
 </metadata>
 <defs>
  <style type="text/css">*{stroke-linejoin: round; stroke-linecap: butt}</style>
 </defs>
 <g id="figure_1">
  <g id="patch_1">
   <path d="M 0 242.683443 
L 588.852832 242.683443 
L 588.852832 0 
L 0 0 
z
" style="fill: #fcfcfb"/>
  </g>
  <g id="axes_1">
   <g id="patch_2">
    <path d="M 44.89059 221.003178 
L 282.97059 221.003178 
L 282.97059 21.419178 
L 44.89059 21.419178 
z
" style="fill: #fcfcfb"/>
   </g>
   <g id="matplotlib.axis_1">
    <g id="xtick_1">
     <g id="line2d_1">
      <path d="M 61.67719 221.003178 
L 61.67719 21.419178 
" clip-path="url(#p3162593a60)" style="fill: none; stroke: #e6e5e1; stroke-width: 0.6; stroke-linecap: square"/>
     </g>
     <g id="line2d_2">
      <defs>
       <path id="m9318d98aab" d="M 0 0 
L 0 3.5 
" style="stroke: #52514e; stroke-width: 0.8"/>
      </defs>
      <g>
       <use xlink:href="#m9318d98aab" x="61.67719" y="221.003178" style="fill: #52514e; stroke: #52514e; stroke-width: 0.8"/>
      </g>
     </g>
     <g id="text_1">
      <!-- $\mathdefault{2010}$ -->
      <g style="fill: #52514e" transform="translate(52.973714 233.836847) scale(0.085 -0.085)">
       <defs>
        <path id="LMRoman17-Regular-32" d="M 2669 989 
L 2554 989 
C 2490 536 2438 459 2413 420 
C 2381 369 1920 369 1830 369 
L 602 369 
L 1824 1597 
C 2214 1967 2669 2402 2669 3035 
C 2669 3790 2067 4224 1395 4224 
C 691 4224 262 3604 262 3030 
C 262 2780 448 2748 525 2748 
C 589 2748 781 2787 781 3010 
C 781 3207 614 3264 525 3264 
C 486 3264 448 3258 422 3245 
C 544 3790 915 4058 1306 4058 
C 1862 4058 2227 3617 2227 3035 
C 2227 2479 1901 2000 1536 1584 
L 262 146 
L 262 0 
L 2515 0 
L 2669 989 
z
" transform="scale(0.015625)"/>
        <path id="LMRoman17-Regular-30" d="M 2688 2025 
C 2688 2416 2682 3080 2413 3591 
C 2176 4039 1798 4198 1466 4198 
C 1158 4198 768 4058 525 3597 
C 269 3118 243 2524 243 2025 
C 243 1661 250 1106 448 619 
C 723 -39 1216 -128 1466 -128 
C 1760 -128 2208 -7 2470 600 
C 2662 1042 2688 1559 2688 2025 
z
M 2278 2096 
C 2278 1680 2278 1169 2202 792 
C 2067 95 1690 -26 1466 -26 
C 1056 -26 813 325 723 812 
C 653 1188 653 1738 653 2096 
C 653 2588 653 2997 736 3387 
C 858 3929 1216 4096 1466 4096 
C 1728 4096 2067 3923 2189 3400 
C 2272 3036 2278 2607 2278 2096 
z
" transform="scale(0.015625)"/>
        <path id="LMRoman17-Regular-31" d="M 2458 0 
L 2458 160 
L 2266 160 
C 1715 160 1702 230 1702 458 
L 1702 4058 
C 1702 4192 1696 4192 1606 4192 
C 1357 3916 979 3827 621 3827 
C 602 3827 570 3827 563 3808 
C 557 3795 557 3782 557 3648 
C 755 3648 1088 3686 1344 3839 
L 1344 461 
C 1344 236 1331 160 781 160 
L 589 160 
L 589 0 
L 1523 0 
L 2458 0 
z
" transform="scale(0.015625)"/>
       </defs>
       <use xlink:href="#LMRoman17-Regular-32" transform="scale(0.996264)"/>
       <use xlink:href="#LMRoman17-Regular-30" transform="translate(45.690948 0) scale(0.996264)"/>
       <use xlink:href="#LMRoman17-Regular-31" transform="translate(91.381897 0) scale(0.996264)"/>
       <use xlink:href="#LMRoman17-Regular-30" transform="translate(137.072845 0) scale(0.996264)"/>
      </g>
     </g>
    </g>
    <g id="xtick_2">
     <g id="line2d_3">
      <path d="M 95.761657 221.003178 
L 95.761657 21.419178 
" clip-path="url(#p3162593a60)" style="fill: none; stroke: #e6e5e1; stroke-width: 0.6; stroke-linecap: square"/>
     </g>
     <g id="line2d_4">
      <g>
       <use xlink:href="#m9318d98aab" x="95.761657" y="221.003178" style="fill: #52514e; stroke: #52514e; stroke-width: 0.8"/>
      </g>
     </g>
     <g id="text_2">
      <!-- $\mathdefault{2012}$ -->
      <g style="fill: #52514e" transform="translate(87.05818 233.836847) scale(0.085 -0.085)">
       <use xlink:href="#LMRoman17-Regular-32" transform="scale(0.996264)"/>
       <use xlink:href="#LMRoman17-Regular-30" transform="translate(45.690948 0) scale(0.996264)"/>
       <use xlink:href="#LMRoman17-Regular-31" transform="translate(91.381897 0) scale(0.996264)"/>
       <use xlink:href="#LMRoman17-Regular-32" transform="translate(137.072845 0) scale(0.996264)"/>
      </g>
     </g>
    </g>
    <g id="xtick_3">
     <g id="line2d_5">
      <path d="M 129.846124 221.003178 
L 129.846124 21.419178 
" clip-path="url(#p3162593a60)" style="fill: none; stroke: #e6e5e1; stroke-width: 0.6; stroke-linecap: square"/>
     </g>
     <g id="line2d_6">
      <g>
       <use xlink:href="#m9318d98aab" x="129.846124" y="221.003178" style="fill: #52514e; stroke: #52514e; stroke-width: 0.8"/>
      </g>
     </g>
     <g id="text_3">
      <!-- $\mathdefault{2014}$ -->
      <g style="fill: #52514e" transform="translate(121.142647 233.836847) scale(0.085 -0.085)">
       <defs>
        <path id="LMRoman17-Regular-34" d="M 2803 1114 
L 2803 1280 
L 2150 1280 
L 2150 4154 
C 2150 4288 2144 4288 2029 4288 
L 128 1280 
L 128 1114 
L 1779 1114 
L 1779 487 
C 1779 255 1766 192 1318 192 
L 1197 192 
L 1197 32 
C 1402 32 1747 32 1965 32 
C 2182 32 2528 32 2733 32 
L 2733 192 
L 2611 192 
C 2163 192 2150 255 2150 487 
L 2150 1114 
L 2803 1114 
z
M 1798 1280 
L 256 1280 
L 1798 3734 
L 1798 1280 
z
" transform="scale(0.015625)"/>
       </defs>
       <use xlink:href="#LMRoman17-Regular-32" transform="scale(0.996264)"/>
       <use xlink:href="#LMRoman17-Regular-30" transform="translate(45.690948 0) scale(0.996264)"/>
       <use xlink:href="#LMRoman17-Regular-31" transform="translate(91.381897 0) scale(0.996264)"/>
       <use xlink:href="#LMRoman17-Regular-34" transform="translate(137.072845 0) scale(0.996264)"/>
      </g>
     </g>
    </g>
    <g id="xtick_4">
     <g id="line2d_7">
      <path d="M 163.93059 221.003178 
L 163.93059 21.419178 
" clip-path="url(#p3162593a60)" style="fill: none; stroke: #e6e5e1; stroke-width: 0.6; stroke-linecap: square"/>
     </g>
     <g id="line2d_8">
      <g>
       <use xlink:href="#m9318d98aab" x="163.93059" y="221.003178" style="fill: #52514e; stroke: #52514e; stroke-width: 0.8"/>
      </g>
     </g>
     <g id="text_4">
      <!-- $\mathdefault{2016}$ -->
      <g style="fill: #52514e" transform="translate(155.227114 233.836847) scale(0.085 -0.085)">
       <defs>
        <path id="LMRoman17-Regular-36" d="M 2688 1283 
C 2688 2081 2170 2662 1517 2662 
C 1126 2662 838 2407 678 1960 
L 678 2176 
C 678 3690 1395 4032 1811 4032 
C 1946 4032 2272 4009 2400 3776 
C 2298 3776 2106 3776 2106 3553 
C 2106 3381 2246 3323 2336 3323 
C 2394 3323 2566 3348 2566 3560 
C 2566 3954 2246 4179 1805 4179 
C 1043 4179 243 3390 243 1984 
C 243 253 966 -128 1478 -128 
C 2099 -128 2688 427 2688 1283 
z
M 2253 1289 
C 2253 944 2253 690 2118 434 
C 1978 171 1773 25 1478 25 
C 691 25 691 1200 691 1436 
C 691 1896 909 2560 1504 2560 
C 1613 2560 1926 2560 2138 2120 
C 2253 1870 2253 1609 2253 1289 
z
" transform="scale(0.015625)"/>
       </defs>
       <use xlink:href="#LMRoman17-Regular-32" transform="scale(0.996264)"/>
       <use xlink:href="#LMRoman17-Regular-30" transform="translate(45.690948 0) scale(0.996264)"/>
       <use xlink:href="#LMRoman17-Regular-31" transform="translate(91.381897 0) scale(0.996264)"/>
       <use xlink:href="#LMRoman17-Regular-36" transform="translate(137.072845 0) scale(0.996264)"/>
      </g>
     </g>
    </g>
    <g id="xtick_5">
     <g id="line2d_9">
      <path d="M 198.015057 221.003178 
L 198.015057 21.419178 
" clip-path="url(#p3162593a60)" style="fill: none; stroke: #e6e5e1; stroke-width: 0.6; stroke-linecap: square"/>
     </g>
     <g id="line2d_10">
      <g>
       <use xlink:href="#m9318d98aab" x="198.015057" y="221.003178" style="fill: #52514e; stroke: #52514e; stroke-width: 0.8"/>
      </g>
     </g>
     <g id="text_5">
      <!-- $\mathdefault{2018}$ -->
      <g style="fill: #52514e" transform="translate(189.31158 233.836847) scale(0.085 -0.085)">
       <defs>
        <path id="LMRoman17-Regular-38" d="M 2720 1011 
C 2720 1590 2330 1858 2074 2029 
C 1984 2092 1933 2124 1741 2264 
C 2144 2468 2554 2773 2554 3263 
C 2554 3842 1990 4179 1472 4179 
C 890 4179 378 3759 378 3180 
C 378 3021 416 2747 666 2505 
C 730 2442 998 2251 1171 2130 
C 883 1983 211 1634 211 934 
C 211 279 838 -128 1459 -128 
C 2144 -128 2720 362 2720 1011 
z
M 2336 3262 
C 2336 2669 1670 2331 1638 2331 
C 1638 2331 1626 2331 1574 2370 
L 902 2822 
C 851 2854 595 3051 595 3351 
C 595 3739 998 4032 1459 4032 
C 1965 4032 2336 3676 2336 3262 
z
M 2483 851 
C 2483 381 2010 25 1472 25 
C 890 25 448 438 448 940 
C 448 1443 838 1862 1280 2060 
L 2080 1519 
C 2176 1449 2483 1240 2483 851 
z
" transform="scale(0.015625)"/>
       </defs>
       <use xlink:href="#LMRoman17-Regular-32" transform="scale(0.996264)"/>
       <use xlink:href="#LMRoman17-Regular-30" transform="translate(45.690948 0) scale(0.996264)"/>
       <use xlink:href="#LMRoman17-Regular-31" transform="translate(91.381897 0) scale(0.996264)"/>
       <use xlink:href="#LMRoman17-Regular-38" transform="translate(137.072845 0) scale(0.996264)"/>
      </g>
     </g>
    </g>
    <g id="xtick_6">
     <g id="line2d_11">
      <path d="M 232.099524 221.003178 
L 232.099524 21.419178 
" clip-path="url(#p3162593a60)" style="fill: none; stroke: #e6e5e1; stroke-width: 0.6; stroke-linecap: square"/>
     </g>
     <g id="line2d_12">
      <g>
       <use xlink:href="#m9318d98aab" x="232.099524" y="221.003178" style="fill: #52514e; stroke: #52514e; stroke-width: 0.8"/>
      </g>
     </g>
     <g id="text_6">
      <!-- $\mathdefault{2020}$ -->
      <g style="fill: #52514e" transform="translate(223.396047 233.836847) scale(0.085 -0.085)">
       <use xlink:href="#LMRoman17-Regular-32" transform="scale(0.996264)"/>
       <use xlink:href="#LMRoman17-Regular-30" transform="translate(45.690948 0) scale(0.996264)"/>
       <use xlink:href="#LMRoman17-Regular-32" transform="translate(91.381897 0) scale(0.996264)"/>
       <use xlink:href="#LMRoman17-Regular-30" transform="translate(137.072845 0) scale(0.996264)"/>
      </g>
     </g>
    </g>
    <g id="xtick_7">
     <g id="line2d_13">
      <path d="M 266.18399 221.003178 
L 266.18399 21.419178 
" clip-path="url(#p3162593a60)" style="fill: none; stroke: #e6e5e1; stroke-width: 0.6; stroke-linecap: square"/>
     </g>
     <g id="line2d_14">
      <g>
       <use xlink:href="#m9318d98aab" x="266.18399" y="221.003178" style="fill: #52514e; stroke: #52514e; stroke-width: 0.8"/>
      </g>
     </g>
     <g id="text_7">
      <!-- $\mathdefault{2022}$ -->
      <g style="fill: #52514e" transform="translate(257.480514 233.836847) scale(0.085 -0.085)">
       <use xlink:href="#LMRoman17-Regular-32" transform="scale(0.996264)"/>
       <use xlink:href="#LMRoman17-Regular-30" transform="translate(45.690948 0) scale(0.996264)"/>
       <use xlink:href="#LMRoman17-Regular-32" transform="translate(91.381897 0) scale(0.996264)"/>
       <use xlink:href="#LMRoman17-Regular-32" transform="translate(137.072845 0) scale(0.996264)"/>
      </g>
     </g>
    </g>
   </g>
   <g id="matplotlib.axis_2">
    <g id="ytick_1">
     <g id="line2d_15">
      <path d="M 44.89059 204.894197 
L 282.97059 204.894197 
" clip-path="url(#p3162593a60)" style="fill: none; stroke: #e6e5e1; stroke-width: 0.6; stroke-linecap: square"/>
     </g>
     <g id="line2d_16">
      <defs>
       <path id="m1b41fdded4" d="M 0 0 
L -3.5 0 
" style="stroke: #52514e; stroke-width: 0.8"/>
      </defs>
      <g>
       <use xlink:href="#m1b41fdded4" x="44.89059" y="204.894197" style="fill: #52514e; stroke: #52514e; stroke-width: 0.8"/>
      </g>
     </g>
     <g id="text_8">
      <!-- $\mathdefault{−0.6}$ -->
      <g style="fill: #52514e" transform="translate(20.000175 207.811031) scale(0.085 -0.085)">
       <defs>
        <path id="LMMathSymbols10-Regular-0" d="M 4442 1600 
C 4442 1728 4320 1728 4230 1728 
L 742 1728 
C 653 1728 531 1728 531 1600 
C 531 1472 653 1472 742 1472 
L 4230 1472 
C 4320 1472 4442 1472 4442 1600 
z
" transform="scale(0.015625)"/>
        <path id="LMMathItalic12-Regular-3a" d="M 1178 307 
C 1178 492 1024 619 870 619 
C 685 619 557 466 557 313 
C 557 128 710 0 864 0 
C 1050 0 1178 153 1178 307 
z
" transform="scale(0.015625)"/>
       </defs>
       <use xlink:href="#LMMathSymbols10-Regular-0" transform="scale(0.996264)"/>
       <use xlink:href="#LMRoman17-Regular-30" transform="translate(77.487468 0) scale(0.996264)"/>
       <use xlink:href="#LMMathItalic12-Regular-3a" transform="translate(123.178416 0) scale(0.996264)"/>
       <use xlink:href="#LMRoman17-Regular-36" transform="translate(150.275593 0) scale(0.996264)"/>
      </g>
     </g>
    </g>
    <g id="ytick_2">
     <g id="line2d_17">
      <path d="M 44.89059 176.999857 
L 282.97059 176.999857 
" clip-path="url(#p3162593a60)" style="fill: none; stroke: #e6e5e1; stroke-width: 0.6; stroke-linecap: square"/>
     </g>
     <g id="line2d_18">
      <g>
       <use xlink:href="#m1b41fdded4" x="44.89059" y="176.999857" style="fill: #52514e; stroke: #52514e; stroke-width: 0.8"/>
      </g>
     </g>
     <g id="text_9">
      <!-- $\mathdefault{−0.4}$ -->
      <g style="fill: #52514e" transform="translate(20.000175 179.916692) scale(0.085 -0.085)">
       <use xlink:href="#LMMathSymbols10-Regular-0" transform="scale(0.996264)"/>
       <use xlink:href="#LMRoman17-Regular-30" transform="translate(77.487468 0) scale(0.996264)"/>
       <use xlink:href="#LMMathItalic12-Regular-3a" transform="translate(123.178416 0) scale(0.996264)"/>
       <use xlink:href="#LMRoman17-Regular-34" transform="translate(150.275593 0) scale(0.996264)"/>
      </g>
     </g>
    </g>
    <g id="ytick_3">
     <g id="line2d_19">
      <path d="M 44.89059 149.105518 
L 282.97059 149.105518 
" clip-path="url(#p3162593a60)" style="fill: none; stroke: #e6e5e1; stroke-width: 0.6; stroke-linecap: square"/>
     </g>
     <g id="line2d_20">
      <g>
       <use xlink:href="#m1b41fdded4" x="44.89059" y="149.105518" style="fill: #52514e; stroke: #52514e; stroke-width: 0.8"/>
      </g>
     </g>
     <g id="text_10">
      <!-- $\mathdefault{−0.2}$ -->
      <g style="fill: #52514e" transform="translate(20.000175 152.022352) scale(0.085 -0.085)">
       <use xlink:href="#LMMathSymbols10-Regular-0" transform="scale(0.996264)"/>
       <use xlink:href="#LMRoman17-Regular-30" transform="translate(77.487468 0) scale(0.996264)"/>
       <use xlink:href="#LMMathItalic12-Regular-3a" transform="translate(123.178416 0) scale(0.996264)"/>
       <use xlink:href="#LMRoman17-Regular-32" transform="translate(150.275593 0) scale(0.996264)"/>
      </g>
     </g>
    </g>
    <g id="ytick_4">
     <g id="line2d_21">
      <path d="M 44.89059 121.211178 
L 282.97059 121.211178 
" clip-path="url(#p3162593a60)" style="fill: none; stroke: #e6e5e1; stroke-width: 0.6; stroke-linecap: square"/>
     </g>
     <g id="line2d_22">
      <g>
       <use xlink:href="#m1b41fdded4" x="44.89059" y="121.211178" style="fill: #52514e; stroke: #52514e; stroke-width: 0.8"/>
      </g>
     </g>
     <g id="text_11">
      <!-- $\mathdefault{0.0}$ -->
      <g style="fill: #52514e" transform="translate(26.769498 124.128012) scale(0.085 -0.085)">
       <use xlink:href="#LMRoman17-Regular-30" transform="scale(0.996264)"/>
       <use xlink:href="#LMMathItalic12-Regular-3a" transform="translate(45.690948 0) scale(0.996264)"/>
       <use xlink:href="#LMRoman17-Regular-30" transform="translate(72.788125 0) scale(0.996264)"/>
      </g>
     </g>
    </g>
    <g id="ytick_5">
     <g id="line2d_23">
      <path d="M 44.89059 93.316838 
L 282.97059 93.316838 
" clip-path="url(#p3162593a60)" style="fill: none; stroke: #e6e5e1; stroke-width: 0.6; stroke-linecap: square"/>
     </g>
     <g id="line2d_24">
      <g>
       <use xlink:href="#m1b41fdded4" x="44.89059" y="93.316838" style="fill: #52514e; stroke: #52514e; stroke-width: 0.8"/>
      </g>
     </g>
     <g id="text_12">
      <!-- $\mathdefault{0.2}$ -->
      <g style="fill: #52514e" transform="translate(26.769498 96.233673) scale(0.085 -0.085)">
       <use xlink:href="#LMRoman17-Regular-30" transform="scale(0.996264)"/>
       <use xlink:href="#LMMathItalic12-Regular-3a" transform="translate(45.690948 0) scale(0.996264)"/>
       <use xlink:href="#LMRoman17-Regular-32" transform="translate(72.788125 0) scale(0.996264)"/>
      </g>
     </g>
    </g>
    <g id="ytick_6">
     <g id="line2d_25">
      <path d="M 44.89059 65.422499 
L 282.97059 65.422499 
" clip-path="url(#p3162593a60)" style="fill: none; stroke: #e6e5e1; stroke-width: 0.6; stroke-linecap: square"/>
     </g>
     <g id="line2d_26">
      <g>
       <use xlink:href="#m1b41fdded4" x="44.89059" y="65.422499" style="fill: #52514e; stroke: #52514e; stroke-width: 0.8"/>
      </g>
     </g>
     <g id="text_13">
      <!-- $\mathdefault{0.4}$ -->
      <g style="fill: #52514e" transform="translate(26.769498 68.339333) scale(0.085 -0.085)">
       <use xlink:href="#LMRoman17-Regular-30" transform="scale(0.996264)"/>
       <use xlink:href="#LMMathItalic12-Regular-3a" transform="translate(45.690948 0) scale(0.996264)"/>
       <use xlink:href="#LMRoman17-Regular-34" transform="translate(72.788125 0) scale(0.996264)"/>
      </g>
     </g>
    </g>
    <g id="ytick_7">
     <g id="line2d_27">
      <path d="M 44.89059 37.528159 
L 282.97059 37.528159 
" clip-path="url(#p3162593a60)" style="fill: none; stroke: #e6e5e1; stroke-width: 0.6; stroke-linecap: square"/>
     </g>
     <g id="line2d_28">
      <g>
       <use xlink:href="#m1b41fdded4" x="44.89059" y="37.528159" style="fill: #52514e; stroke: #52514e; stroke-width: 0.8"/>
      </g>
     </g>
     <g id="text_14">
      <!-- $\mathdefault{0.6}$ -->
      <g style="fill: #52514e" transform="translate(26.769498 40.444994) scale(0.085 -0.085)">
       <use xlink:href="#LMRoman17-Regular-30" transform="scale(0.996264)"/>
       <use xlink:href="#LMMathItalic12-Regular-3a" transform="translate(45.690948 0) scale(0.996264)"/>
       <use xlink:href="#LMRoman17-Regular-36" transform="translate(72.788125 0) scale(0.996264)"/>
      </g>
     </g>
    </g>
    <g id="text_15">
     <!-- Points -->
     <g style="fill: #52514e" transform="translate(14.063012 134.8683) rotate(-90) scale(0.1 -0.1)">
      <defs>
       <path id="LMRoman17-Regular-50" d="M 3718 3184 
C 3718 3791 3130 4352 2291 4352 
L 333 4352 
L 333 4186 
C 774 4186 845 4186 845 3899 
L 845 446 
C 845 160 774 160 333 160 
L 333 0 
C 518 0 858 0 1056 0 
C 1254 0 1594 0 1779 0 
L 1779 160 
C 1338 160 1267 160 1267 446 
L 1267 2042 
L 2291 2042 
C 3117 2042 3718 2578 3718 3184 
z
M 3232 3184 
C 3232 2604 2950 2176 2170 2176 
L 1254 2176 
L 1254 3938 
C 1254 4155 1267 4186 1523 4186 
L 2170 4186 
C 2995 4186 3232 3714 3232 3184 
z
" transform="scale(0.015625)"/>
       <path id="LMRoman17-Regular-6f" d="M 2758 1356 
C 2758 2176 2163 2816 1466 2816 
C 768 2816 173 2176 173 1356 
C 173 551 768 -64 1466 -64 
C 2163 -64 2758 551 2758 1356 
z
M 2349 1408 
C 2349 1158 2336 775 2163 467 
C 1984 173 1709 51 1466 51 
C 1165 51 909 230 762 480 
C 602 767 582 1126 582 1408 
C 582 1677 595 2010 762 2298 
C 890 2509 1139 2714 1466 2714 
C 1754 2714 1997 2554 2150 2330 
C 2349 2029 2349 1607 2349 1408 
z
" transform="scale(0.015625)"/>
       <path id="LMRoman17-Regular-69" d="M 1370 -13 
L 1370 153 
C 992 153 979 191 979 420 
L 979 2778 
L 243 2708 
L 243 2542 
C 602 2542 653 2503 653 2198 
L 653 427 
C 653 184 627 153 218 153 
L 218 -13 
C 371 0 646 0 806 0 
C 960 0 1222 0 1370 -13 
z
M 1056 3835 
C 1056 3988 934 4096 800 4096 
C 646 4096 538 3975 538 3835 
C 538 3682 659 3574 794 3574 
C 947 3574 1056 3695 1056 3835 
z
" transform="scale(0.015625)"/>
       <path id="LMRoman17-Regular-6e" d="M 3091 -13 
L 3091 153 
C 2682 153 2656 178 2656 428 
L 2656 1933 
C 2656 2259 2592 2790 1837 2790 
C 1331 2790 1069 2400 973 2144 
L 966 2144 
L 966 2790 
L 211 2720 
L 211 2554 
C 589 2554 646 2515 646 2208 
L 646 428 
C 646 184 621 153 211 153 
L 211 -13 
C 365 0 646 0 813 0 
C 979 0 1267 0 1421 -13 
L 1421 153 
C 1011 153 986 178 986 428 
L 986 1658 
C 986 2247 1344 2688 1792 2688 
C 2266 2688 2317 2266 2317 1958 
L 2317 428 
C 2317 184 2291 153 1882 153 
L 1882 -13 
C 2035 0 2317 0 2483 0 
C 2650 0 2938 0 3091 -13 
z
" transform="scale(0.015625)"/>
       <path id="LMRoman17-Regular-74" d="M 1965 777 
L 1965 1140 
L 1850 1140 
L 1850 783 
C 1850 344 1677 51 1408 51 
C 1222 51 966 178 966 758 
L 966 2560 
L 1862 2560 
L 1862 2725 
L 966 2725 
L 966 3904 
L 851 3904 
C 838 3245 614 2668 70 2668 
L 70 2560 
L 627 2560 
L 627 771 
C 627 650 627 -64 1370 -64 
C 1747 -64 1965 306 1965 777 
z
" transform="scale(0.015625)"/>
       <path id="LMRoman17-Regular-73" d="M 2131 784 
C 2131 1112 1958 1285 1875 1362 
C 1683 1561 1459 1606 1190 1657 
C 838 1735 390 1825 390 2217 
C 390 2383 480 2737 1126 2737 
C 1811 2737 1850 2094 1862 1888 
C 1869 1856 1901 1849 1920 1849 
C 1978 1849 1978 1869 1978 1978 
L 1978 2697 
C 1978 2813 1971 2819 1933 2819 
C 1907 2819 1901 2813 1824 2717 
C 1805 2691 1747 2626 1728 2601 
C 1523 2819 1235 2819 1126 2819 
C 416 2819 160 2447 160 2076 
C 160 1498 813 1365 998 1325 
C 1402 1243 1542 1217 1677 1101 
C 1760 1025 1901 884 1901 654 
C 1901 384 1747 38 1158 38 
C 602 38 403 460 288 1021 
C 269 1110 269 1117 218 1117 
C 166 1117 160 1110 160 983 
L 160 63 
C 160 -51 166 -58 205 -58 
C 237 -58 243 -51 275 0 
L 448 276 
C 576 103 800 -64 1158 -64 
C 1792 -64 2131 283 2131 784 
z
" transform="scale(0.015625)"/>
      </defs>
      <use xlink:href="#LMRoman17-Regular-50" transform="scale(0.996264)"/>
      <use xlink:href="#LMRoman17-Regular-6f" transform="translate(59.981095 0) scale(0.996264)"/>
      <use xlink:href="#LMRoman17-Regular-69" transform="translate(105.672043 0) scale(0.996264)"/>
      <use xlink:href="#LMRoman17-Regular-6e" transform="translate(130.54406 0) scale(0.996264)"/>
      <use xlink:href="#LMRoman17-Regular-74" transform="translate(178.838693 0) scale(0.996264)"/>
      <use xlink:href="#LMRoman17-Regular-73" transform="translate(214.120221 0) scale(0.996264)"/>
     </g>
    </g>
   </g>
   <g id="patch_3">
    <path d="M 55.712408 121.211178 
L 67.641972 121.211178 
L 67.641972 142.131933 
L 55.712408 142.131933 
z
" clip-path="url(#p3162593a60)" style="fill: #2a78d6"/>
   </g>
   <g id="patch_4">
    <path d="M 72.754642 121.211178 
L 84.684205 121.211178 
L 84.684205 107.264008 
L 72.754642 107.264008 
z
" clip-path="url(#p3162593a60)" style="fill: #e87ba4"/>
   </g>
   <g id="patch_5">
    <path d="M 89.796875 121.211178 
L 101.726438 121.211178 
L 101.726438 97.500989 
L 89.796875 97.500989 
z
" clip-path="url(#p3162593a60)" style="fill: #e87ba4"/>
   </g>
   <g id="patch_6">
    <path d="M 106.839108 121.211178 
L 118.768672 121.211178 
L 118.768672 118.421744 
L 106.839108 118.421744 
z
" clip-path="url(#p3162593a60)" style="fill: #e87ba4"/>
   </g>
   <g id="patch_7">
    <path d="M 123.881342 121.211178 
L 135.810905 121.211178 
L 135.810905 122.605895 
L 123.881342 122.605895 
z
" clip-path="url(#p3162593a60)" style="fill: #2a78d6"/>
   </g>
   <g id="patch_8">
    <path d="M 140.923575 121.211178 
L 152.853139 121.211178 
L 152.853139 86.343254 
L 140.923575 86.343254 
z
" clip-path="url(#p3162593a60)" style="fill: #e87ba4"/>
   </g>
   <g id="patch_9">
    <path d="M 157.965809 121.211178 
L 169.895372 121.211178 
L 169.895372 104.474574 
L 157.965809 104.474574 
z
" clip-path="url(#p3162593a60)" style="fill: #e87ba4"/>
   </g>
   <g id="patch_10">
    <path d="M 175.008042 121.211178 
L 186.937605 121.211178 
L 186.937605 73.790801 
L 175.008042 73.790801 
z
" clip-path="url(#p3162593a60)" style="fill: #e87ba4"/>
   </g>
   <g id="patch_11">
    <path d="M 192.050275 121.211178 
L 203.979839 121.211178 
L 203.979839 94.711555 
L 192.050275 94.711555 
z
" clip-path="url(#p3162593a60)" style="fill: #e87ba4"/>
   </g>
   <g id="patch_12">
    <path d="M 209.092509 121.211178 
L 221.022072 121.211178 
L 221.022072 101.68514 
L 209.092509 101.68514 
z
" clip-path="url(#p3162593a60)" style="fill: #e87ba4"/>
   </g>
   <g id="patch_13">
    <path d="M 226.134742 121.211178 
L 238.064305 121.211178 
L 238.064305 80.764386 
L 226.134742 80.764386 
z
" clip-path="url(#p3162593a60)" style="fill: #e87ba4"/>
   </g>
   <g id="patch_14">
    <path d="M 243.176975 121.211178 
L 255.106539 121.211178 
L 255.106539 50.080612 
L 243.176975 50.080612 
z
" clip-path="url(#p3162593a60)" style="fill: #e87ba4"/>
   </g>
   <g id="patch_15">
    <path d="M 260.219209 121.211178 
L 272.148772 121.211178 
L 272.148772 68.211933 
L 260.219209 68.211933 
z
" clip-path="url(#p3162593a60)" style="fill: #e87ba4"/>
   </g>
   <g id="line2d_29">
    <path d="M 44.89059 121.211178 
L 282.97059 121.211178 
" clip-path="url(#p3162593a60)" style="fill: none; stroke: #52514e; stroke-linecap: square"/>
   </g>
   <g id="patch_16">
    <path d="M 44.89059 221.003178 
L 44.89059 21.419178 
" style="fill: none; stroke: #e6e5e1; stroke-width: 0.8; stroke-linejoin: miter; stroke-linecap: square"/>
   </g>
   <g id="patch_17">
    <path d="M 44.89059 221.003178 
L 282.97059 221.003178 
" style="fill: none; stroke: #e6e5e1; stroke-width: 0.8; stroke-linejoin: miter; stroke-linecap: square"/>
   </g>
   <g id="text_16">
    <!-- women are 30.6- -36.0 \% of Physics enrolment -->
    <g style="fill: #52514e" transform="translate(61.67719 35.390058) scale(0.08 -0.08)">
     <defs>
      <path id="LMRoman17-Regular-77" d="M 4205 2560 
L 4205 2726 
C 4077 2726 3949 2726 3821 2726 
C 3699 2726 3424 2726 3315 2732 
L 3315 2560 
C 3514 2560 3622 2442 3622 2280 
C 3622 2235 3610 2178 3597 2134 
L 2995 401 
L 2342 2274 
C 2330 2319 2310 2370 2310 2395 
C 2310 2560 2528 2560 2630 2560 
L 2630 2732 
C 2483 2726 2214 2726 2061 2726 
C 1901 2726 1734 2726 1587 2732 
L 1587 2560 
C 1939 2560 1939 2547 2074 2147 
L 1485 445 
L 851 2280 
C 819 2363 819 2376 819 2395 
C 819 2560 1037 2560 1139 2560 
L 1139 2732 
C 986 2726 717 2726 557 2726 
C 416 2726 198 2726 64 2732 
L 64 2560 
C 346 2560 416 2541 486 2331 
L 1274 44 
C 1299 -39 1318 -58 1370 -58 
C 1414 -58 1440 -45 1472 50 
L 2131 1974 
L 2797 50 
C 2829 -45 2854 -58 2899 -58 
C 2950 -58 2970 -39 2995 44 
L 3725 2182 
C 3853 2560 4109 2560 4205 2560 
z
" transform="scale(0.015625)"/>
      <path id="LMRoman17-Regular-6d" d="M 4762 -13 
L 4762 153 
C 4352 153 4326 178 4326 428 
L 4326 1933 
C 4326 2252 4269 2790 3507 2790 
C 3072 2790 2771 2496 2656 2151 
L 2650 2151 
C 2573 2676 2195 2790 1837 2790 
C 1331 2790 1069 2400 973 2144 
L 966 2144 
L 966 2790 
L 211 2720 
L 211 2554 
C 589 2554 646 2515 646 2208 
L 646 428 
C 646 184 621 153 211 153 
L 211 -13 
C 365 0 646 0 813 0 
C 979 0 1267 0 1421 -13 
L 1421 153 
C 1011 153 986 178 986 428 
L 986 1658 
C 986 2247 1344 2688 1792 2688 
C 2266 2688 2317 2266 2317 1958 
L 2317 428 
C 2317 184 2291 153 1882 153 
L 1882 -13 
C 2035 0 2317 0 2483 0 
C 2650 0 2938 0 3091 -13 
L 3091 153 
C 2682 153 2656 178 2656 428 
L 2656 1658 
C 2656 2247 3014 2688 3462 2688 
C 3936 2688 3987 2266 3987 1958 
L 3987 428 
C 3987 184 3962 153 3552 153 
L 3552 -13 
C 3706 0 3987 0 4154 0 
C 4320 0 4608 0 4762 -13 
z
" transform="scale(0.015625)"/>
      <path id="LMRoman17-Regular-65" d="M 2464 1576 
C 2464 2238 2118 2816 1389 2816 
C 710 2816 173 2169 173 1383 
C 173 551 781 -64 1459 -64 
C 2176 -64 2458 606 2458 739 
C 2458 784 2406 784 2406 784 
C 2362 784 2355 771 2330 695 
C 2189 265 1837 51 1504 51 
C 1229 51 954 203 781 480 
C 582 803 582 1176 582 1472 
L 2438 1472 
C 2464 1498 2464 1511 2464 1576 
z
M 2118 1568 
L 589 1568 
C 634 2505 1126 2714 1382 2714 
C 1818 2714 2112 2297 2118 1568 
z
" transform="scale(0.015625)"/>
      <path id="LMRoman17-Regular-61" d="M 2874 567 
L 2874 920 
L 2758 920 
L 2758 562 
C 2758 178 2586 128 2502 128 
C 2240 128 2240 458 2240 738 
L 2240 1653 
C 2240 2072 2240 2294 1971 2543 
C 1734 2752 1459 2816 1242 2816 
C 736 2816 371 2407 371 1971 
C 371 1728 563 1728 602 1728 
C 685 1728 832 1778 832 1954 
C 832 2112 710 2181 602 2181 
C 576 2181 544 2174 525 2168 
C 659 2592 1005 2714 1229 2714 
C 1549 2714 1901 2429 1901 1885 
L 1901 1600 
C 1523 1600 1069 1549 710 1357 
C 307 1133 192 813 192 570 
C 192 77 768 -64 1107 -64 
C 1459 -64 1786 139 1926 511 
C 1939 233 2118 -18 2400 -18 
C 2534 -18 2874 70 2874 567 
z
M 1901 870 
C 1901 317 1504 38 1152 38 
C 832 38 582 275 582 570 
C 582 761 666 1100 1037 1305 
C 1344 1478 1696 1504 1901 1504 
L 1901 870 
z
" transform="scale(0.015625)"/>
      <path id="LMRoman17-Regular-72" d="M 2131 2458 
C 2131 2663 1926 2790 1709 2790 
C 1222 2790 1011 2317 947 2093 
L 941 2093 
L 941 2790 
L 198 2720 
L 198 2554 
C 576 2554 634 2515 634 2208 
L 634 428 
C 634 184 608 153 198 153 
L 198 -13 
C 352 0 646 0 813 0 
C 998 0 1325 0 1498 -13 
L 1498 153 
C 1037 153 960 153 960 440 
L 960 1497 
C 960 2112 1222 2688 1702 2688 
C 1747 2688 1792 2682 1837 2662 
C 1837 2662 1696 2617 1696 2452 
C 1696 2298 1818 2234 1914 2234 
C 1990 2234 2131 2279 2131 2458 
z
" transform="scale(0.015625)"/>
      <path id="LMRoman17-Regular-33" d="M 2720 1085 
C 2720 1707 2208 2157 1600 2227 
C 2086 2328 2554 2756 2554 3329 
C 2554 3820 2048 4179 1472 4179 
C 890 4179 378 3829 378 3329 
C 378 3110 544 3072 627 3072 
C 762 3072 877 3155 877 3321 
C 877 3486 762 3569 627 3569 
C 602 3569 570 3569 544 3557 
C 730 3959 1235 4032 1459 4032 
C 1683 4032 2106 3925 2106 3320 
C 2106 3143 2080 2828 1862 2550 
C 1670 2304 1453 2304 1242 2284 
C 1210 2284 1062 2269 1037 2269 
C 992 2263 966 2257 966 2208 
C 966 2163 973 2157 1101 2157 
L 1414 2157 
C 1984 2157 2234 1662 2234 1090 
C 2234 320 1824 25 1453 25 
C 1114 25 563 194 390 693 
C 422 680 454 680 486 680 
C 640 680 755 782 755 948 
C 755 1133 614 1216 486 1216 
C 378 1216 211 1165 211 926 
C 211 335 787 -128 1466 -128 
C 2176 -128 2720 430 2720 1085 
z
" transform="scale(0.015625)"/>
      <path id="LMRoman17-Regular-2e" d="M 1062 261 
C 1062 420 934 522 800 522 
C 672 522 538 420 538 261 
C 538 102 666 0 800 0 
C 928 0 1062 102 1062 261 
z
" transform="scale(0.015625)"/>
      <path id="LMRoman17-Regular-15" d="M 2970 1664 
L 2970 1766 
L -38 1766 
L -38 1664 
L 2970 1664 
z
" transform="scale(0.015625)"/>
      <path id="LMRoman17-Regular-25" d="M 4134 4685 
C 4134 4761 4077 4800 4026 4800 
C 3962 4800 3936 4756 3891 4706 
C 3520 4190 3008 4134 2746 4134 
C 2106 4134 1715 4494 1594 4607 
C 1510 4682 1389 4800 1171 4800 
C 736 4800 294 4296 294 3519 
C 294 2743 730 2240 1171 2240 
C 1600 2240 1965 2778 1965 3527 
C 1965 3969 1830 4270 1811 4308 
C 2202 4064 2586 4032 2752 4032 
C 3162 4032 3456 4183 3616 4289 
L 3622 4283 
L 858 -84 
C 800 -174 800 -187 800 -206 
C 800 -276 858 -320 915 -320 
C 973 -320 992 -289 1037 -218 
L 4083 4577 
C 4128 4647 4134 4653 4134 4685 
z
M 4640 959 
C 4640 1698 4275 2240 3846 2240 
C 3411 2240 2970 1736 2970 959 
C 2970 183 3405 -320 3846 -320 
C 4275 -320 4640 215 4640 959 
z
M 1850 3519 
C 1850 2845 1530 2342 1178 2342 
C 1011 2342 595 2494 595 3519 
C 595 4551 1011 4698 1178 4698 
C 1530 4698 1850 4194 1850 3519 
z
M 4525 959 
C 4525 285 4205 -218 3853 -218 
C 3686 -218 3270 -66 3270 959 
C 3270 1991 3686 2138 3853 2138 
C 4205 2138 4525 1634 4525 959 
z
" transform="scale(0.015625)"/>
      <path id="LMRoman17-Regular-66" d="M 2003 4067 
C 2003 4308 1773 4454 1517 4454 
C 1152 4454 653 4156 653 3481 
L 653 2725 
L 141 2725 
L 141 2560 
L 653 2560 
L 653 427 
C 653 184 627 153 218 153 
L 218 -13 
C 371 0 666 0 832 0 
C 1018 0 1344 0 1517 -13 
L 1517 153 
C 1056 153 979 153 979 439 
L 979 2560 
L 1709 2560 
L 1709 2725 
L 966 2725 
L 966 3494 
C 966 4022 1235 4352 1510 4352 
C 1594 4352 1690 4327 1754 4282 
C 1702 4269 1568 4225 1568 4067 
C 1568 3901 1696 3850 1786 3850 
C 1875 3850 2003 3901 2003 4067 
z
" transform="scale(0.015625)"/>
      <path id="LMRoman17-Regular-68" d="M 3091 -13 
L 3091 153 
C 2682 153 2656 178 2656 428 
L 2656 1933 
C 2656 2259 2592 2790 1837 2790 
C 1312 2790 1056 2368 979 2157 
L 973 2157 
L 973 4396 
L 211 4326 
L 211 4160 
C 589 4160 646 4122 646 3817 
L 646 426 
C 646 184 621 153 211 153 
L 211 -13 
C 365 0 646 0 813 0 
C 979 0 1267 0 1421 -13 
L 1421 153 
C 1011 153 986 178 986 428 
L 986 1658 
C 986 2247 1344 2688 1792 2688 
C 2266 2688 2317 2266 2317 1958 
L 2317 428 
C 2317 184 2291 153 1882 153 
L 1882 -13 
C 2035 0 2317 0 2483 0 
C 2650 0 2938 0 3091 -13 
z
" transform="scale(0.015625)"/>
      <path id="LMRoman17-Regular-79" d="M 3034 2593 
L 3034 2752 
L 2630 2752 
C 2496 2752 2285 2752 2157 2758 
L 2157 2593 
C 2400 2574 2406 2395 2406 2344 
C 2406 2281 2394 2249 2362 2171 
L 1664 449 
L 902 2312 
C 870 2389 870 2440 870 2440 
C 870 2580 1018 2593 1171 2593 
L 1171 2758 
C 1018 2752 742 2752 582 2752 
C 410 2752 205 2752 64 2758 
L 64 2593 
C 410 2593 448 2561 531 2357 
L 1485 15 
C 1197 -738 1030 -1178 627 -1178 
C 557 -1178 397 -1159 282 -1044 
C 429 -1031 493 -942 493 -833 
C 493 -725 416 -629 288 -629 
C 147 -629 77 -725 77 -840 
C 77 -1095 339 -1280 627 -1280 
C 998 -1280 1229 -922 1357 -603 
L 2496 2204 
C 2656 2593 2944 2593 3034 2593 
z
" transform="scale(0.015625)"/>
      <path id="LMRoman17-Regular-63" d="M 2458 748 
C 2458 774 2451 793 2406 793 
C 2362 793 2355 787 2330 703 
C 2163 180 1798 51 1523 51 
C 1114 51 621 427 621 1369 
C 621 2338 1094 2688 1472 2688 
C 1722 2688 2093 2573 2234 2240 
C 2112 2240 1933 2240 1933 2017 
C 1933 1838 2080 1787 2163 1787 
C 2208 1787 2394 1807 2394 2024 
C 2394 2467 1958 2803 1466 2803 
C 787 2803 211 2178 211 1363 
C 211 516 813 -64 1466 -64 
C 2259 -64 2458 677 2458 748 
z
" transform="scale(0.015625)"/>
      <path id="LMRoman17-Regular-6c" d="M 1414 -13 
L 1414 153 
C 1005 153 979 178 979 426 
L 979 4396 
L 218 4326 
L 218 4160 
C 595 4160 653 4122 653 3817 
L 653 426 
C 653 184 627 153 218 153 
L 218 -13 
C 371 0 653 0 813 0 
C 979 0 1261 0 1414 -13 
z
" transform="scale(0.015625)"/>
     </defs>
     <use xlink:href="#LMRoman17-Regular-77" transform="scale(0.996264)"/>
     <use xlink:href="#LMRoman17-Regular-6f" transform="translate(63.907335 0) scale(0.996264)"/>
     <use xlink:href="#LMRoman17-Regular-6d" transform="translate(109.598284 0) scale(0.996264)"/>
     <use xlink:href="#LMRoman17-Regular-65" transform="translate(186.520443 0) scale(0.996264)"/>
     <use xlink:href="#LMRoman17-Regular-6e" transform="translate(227.005252 0) scale(0.996264)"/>
     <use xlink:href="#LMRoman17-Regular-61" transform="translate(307.978488 0) scale(0.996264)"/>
     <use xlink:href="#LMRoman17-Regular-72" transform="translate(353.669437 0) scale(0.996264)"/>
     <use xlink:href="#LMRoman17-Regular-65" transform="translate(388.950965 0) scale(0.996264)"/>
     <use xlink:href="#LMRoman17-Regular-33" transform="translate(459.511922 0) scale(0.996264)"/>
     <use xlink:href="#LMRoman17-Regular-30" transform="translate(505.202871 0) scale(0.996264)"/>
     <use xlink:href="#LMRoman17-Regular-2e" transform="translate(550.893819 0) scale(0.996264)"/>
     <use xlink:href="#LMRoman17-Regular-36" transform="translate(575.765835 0) scale(0.996264)"/>
     <use xlink:href="#LMRoman17-Regular-15" transform="translate(621.456784 0) scale(0.996264)"/>
     <use xlink:href="#LMRoman17-Regular-33" transform="translate(667.147732 0) scale(0.996264)"/>
     <use xlink:href="#LMRoman17-Regular-36" transform="translate(712.838681 0) scale(0.996264)"/>
     <use xlink:href="#LMRoman17-Regular-2e" transform="translate(758.529629 0) scale(0.996264)"/>
     <use xlink:href="#LMRoman17-Regular-30" transform="translate(783.401645 0) scale(0.996264)"/>
     <use xlink:href="#LMRoman17-Regular-25" transform="translate(859.168742 0) scale(0.996264)"/>
     <use xlink:href="#LMRoman17-Regular-6f" transform="translate(966.16705 0) scale(0.996264)"/>
     <use xlink:href="#LMRoman17-Regular-66" transform="translate(1011.857998 0) scale(0.996264)"/>
     <use xlink:href="#LMRoman17-Regular-50" transform="translate(1069.406322 0) scale(0.996264)"/>
     <use xlink:href="#LMRoman17-Regular-68" transform="translate(1131.989871 0) scale(0.996264)"/>
     <use xlink:href="#LMRoman17-Regular-79" transform="translate(1180.284504 0) scale(0.996264)"/>
     <use xlink:href="#LMRoman17-Regular-73" transform="translate(1228.575718 0) scale(0.996264)"/>
     <use xlink:href="#LMRoman17-Regular-69" transform="translate(1264.378956 0) scale(0.996264)"/>
     <use xlink:href="#LMRoman17-Regular-63" transform="translate(1289.250972 0) scale(0.996264)"/>
     <use xlink:href="#LMRoman17-Regular-73" transform="translate(1329.735781 0) scale(0.996264)"/>
     <use xlink:href="#LMRoman17-Regular-65" transform="translate(1395.615167 0) scale(0.996264)"/>
     <use xlink:href="#LMRoman17-Regular-6e" transform="translate(1436.099977 0) scale(0.996264)"/>
     <use xlink:href="#LMRoman17-Regular-72" transform="translate(1486.997064 0) scale(0.996264)"/>
     <use xlink:href="#LMRoman17-Regular-6f" transform="translate(1522.278592 0) scale(0.996264)"/>
     <use xlink:href="#LMRoman17-Regular-6c" transform="translate(1567.96954 0) scale(0.996264)"/>
     <use xlink:href="#LMRoman17-Regular-6d" transform="translate(1592.841557 0) scale(0.996264)"/>
     <use xlink:href="#LMRoman17-Regular-65" transform="translate(1669.763716 0) scale(0.996264)"/>
     <use xlink:href="#LMRoman17-Regular-6e" transform="translate(1710.248525 0) scale(0.996264)"/>
     <use xlink:href="#LMRoman17-Regular-74" transform="translate(1758.543158 0) scale(0.996264)"/>
    </g>
   </g>
   <g id="text_17">
    <!-- \textbf{Women $-$ men, mean grade (Euskadi Physics)} -->
    <g style="fill: #0b0b0b" transform="translate(38.621599 15.419178) scale(0.11 -0.11)">
     <defs>
      <path id="LMRoman12-Bold-57" d="M 7290 4066 
L 7290 4352 
L 6592 4352 
C 6406 4352 5939 4352 5786 4359 
L 5786 4085 
C 5862 4085 6426 4085 6426 3997 
C 6426 3997 6426 3978 6400 3922 
L 5325 1105 
L 4179 4085 
L 4787 4085 
L 4787 4352 
C 4582 4352 3987 4352 3744 4352 
C 3546 4352 2925 4352 2771 4359 
L 2771 4085 
L 3309 4085 
L 3571 3404 
L 2694 1105 
L 1555 4085 
L 2157 4085 
L 2157 4352 
C 1971 4352 1344 4352 1114 4352 
C 909 4352 301 4352 141 4359 
L 141 4085 
L 678 4085 
L 2202 119 
C 2240 12 2259 -32 2400 -32 
C 2541 -32 2560 12 2598 113 
L 3712 3024 
L 4832 113 
C 4870 12 4890 -32 5030 -32 
C 5152 -32 5184 -7 5229 114 
L 6694 3952 
C 6739 4066 6752 4066 7290 4066 
z
" transform="scale(0.015625)"/>
      <path id="LMRoman12-Bold-6f" d="M 3392 1395 
C 3392 2252 2803 2880 1798 2880 
C 755 2880 198 2220 198 1395 
C 198 565 787 -32 1792 -32 
C 2835 -32 3392 596 3392 1395 
z
M 2624 1459 
C 2624 932 2624 197 1798 197 
C 966 197 966 939 966 1459 
C 966 1757 966 2074 1088 2303 
C 1229 2556 1517 2670 1792 2670 
C 2157 2670 2387 2499 2496 2322 
C 2624 2093 2624 1763 2624 1459 
z
" transform="scale(0.015625)"/>
      <path id="LMRoman12-Bold-6d" d="M 5843 -13 
L 5843 260 
L 5402 260 
L 5402 1924 
C 5402 2506 5152 2834 4435 2834 
C 3789 2834 3488 2407 3386 2206 
C 3283 2740 2848 2834 2438 2834 
C 1824 2834 1491 2445 1357 2143 
L 1350 2143 
L 1350 2816 
L 269 2816 
L 269 2517 
C 666 2517 710 2517 710 2270 
L 710 260 
L 269 260 
L 269 -13 
C 416 0 877 0 1056 0 
C 1235 0 1702 0 1850 -13 
L 1850 260 
L 1408 260 
L 1408 1607 
C 1408 2296 1926 2624 2330 2624 
C 2566 2624 2707 2485 2707 1993 
L 2707 260 
L 2266 260 
L 2266 -13 
C 2413 0 2874 0 3053 0 
C 3232 0 3699 0 3846 -13 
L 3846 260 
L 3405 260 
L 3405 1607 
C 3405 2296 3923 2624 4326 2624 
C 4563 2624 4704 2485 4704 1993 
L 4704 260 
L 4262 260 
L 4262 -13 
C 4410 0 4870 0 5050 0 
C 5229 0 5696 0 5843 -13 
z
" transform="scale(0.015625)"/>
      <path id="LMRoman12-Bold-65" d="M 3078 748 
C 3078 843 2982 843 2944 843 
C 2842 843 2835 824 2797 742 
C 2630 330 2208 197 1901 197 
C 973 197 966 1053 966 1408 
L 2893 1408 
C 3040 1408 3078 1408 3078 1567 
C 3078 1758 3034 2233 2739 2532 
C 2470 2798 2112 2880 1741 2880 
C 742 2880 198 2233 198 1434 
C 198 545 858 -32 1824 -32 
C 2790 -32 3078 640 3078 748 
z
M 2490 1593 
L 966 1593 
C 979 1852 986 2100 1120 2328 
C 1242 2531 1466 2670 1741 2670 
C 2426 2670 2483 1909 2490 1593 
z
" transform="scale(0.015625)"/>
      <path id="LMRoman12-Bold-6e" d="M 3840 -13 
L 3840 260 
L 3398 260 
L 3398 1924 
C 3398 2525 3136 2834 2432 2834 
C 1971 2834 1574 2615 1357 2143 
L 1350 2143 
L 1350 2816 
L 269 2816 
L 269 2517 
C 666 2517 710 2517 710 2270 
L 710 260 
L 269 260 
L 269 -13 
C 416 0 877 0 1056 0 
C 1235 0 1702 0 1850 -13 
L 1850 260 
L 1408 260 
L 1408 1607 
C 1408 2289 1920 2624 2330 2624 
C 2566 2624 2701 2473 2701 1993 
L 2701 260 
L 2259 260 
L 2259 -13 
C 2406 0 2867 0 3046 0 
C 3226 0 3693 0 3840 -13 
z
" transform="scale(0.015625)"/>
      <path id="LMRoman12-Bold-2c" d="M 1536 159 
C 1536 563 1344 916 992 916 
C 710 916 538 706 538 458 
C 538 229 698 0 998 0 
C 1184 0 1299 95 1325 121 
C 1318 -56 1286 -577 762 -1015 
C 717 -1053 704 -1065 704 -1097 
C 704 -1154 781 -1216 819 -1216 
C 902 -1216 1536 -686 1536 159 
z
" transform="scale(0.015625)"/>
      <path id="LMRoman12-Bold-61" d="M 3462 145 
C 3462 273 3405 273 3315 273 
C 2912 273 2912 374 2912 522 
L 2912 1898 
C 2912 2484 2445 2879 1542 2879 
C 1184 2879 429 2879 429 2334 
C 429 2061 634 1945 806 1945 
C 998 1945 1184 2079 1184 2323 
C 1184 2445 1139 2559 1030 2630 
C 1242 2688 1395 2688 1517 2688 
C 1952 2688 2214 2445 2214 1919 
L 2214 1663 
C 1203 1663 186 1382 186 676 
C 186 95 928 -32 1370 -32 
C 1862 -32 2176 233 2304 510 
C 2304 274 2304 0 2950 0 
L 3277 0 
C 3411 0 3462 0 3462 145 
z
M 2214 882 
C 2214 291 1677 178 1472 178 
C 1158 178 896 390 896 686 
C 896 1273 1587 1472 2214 1472 
L 2214 882 
z
" transform="scale(0.015625)"/>
      <path id="LMRoman12-Bold-67" d="M 3488 2588 
C 3488 2741 3373 2944 3104 2944 
C 2829 2944 2566 2803 2432 2682 
C 2170 2834 1920 2891 1594 2891 
C 710 2891 358 2403 358 1957 
C 358 1760 422 1501 691 1285 
C 582 1161 467 933 467 699 
C 467 420 614 180 749 76 
C 595 39 198 -105 198 -461 
C 198 -830 614 -1248 1792 -1248 
C 2854 -1248 3392 -910 3392 -439 
C 3392 114 3021 295 2861 370 
C 2554 521 2144 521 1581 521 
C 1421 521 1139 521 1107 527 
C 832 574 755 825 755 951 
C 755 1004 762 1104 832 1189 
C 1139 1024 1498 1024 1594 1024 
C 2477 1024 2829 1514 2829 1960 
C 2829 2285 2643 2515 2566 2578 
C 2752 2676 2906 2700 3014 2713 
C 2995 2682 2976 2658 2976 2578 
C 2976 2450 3066 2334 3232 2334 
C 3398 2334 3488 2455 3488 2588 
z
M 2150 1957 
C 2150 1665 2150 1227 1594 1227 
C 1037 1227 1037 1665 1037 1957 
C 1037 2250 1037 2688 1594 2688 
C 2150 2688 2150 2250 2150 1957 
z
M 2867 -467 
C 2867 -685 2643 -1045 1798 -1045 
C 954 -1045 723 -697 723 -461 
C 723 -64 1126 -64 1222 -64 
L 1952 -64 
C 2419 -64 2867 -145 2867 -467 
z
" transform="scale(0.015625)"/>
      <path id="LMRoman12-Bold-72" d="M 2733 2337 
C 2733 2658 2400 2834 2093 2834 
C 1587 2834 1370 2401 1280 2137 
L 1274 2137 
L 1274 2816 
L 224 2816 
L 224 2517 
C 621 2517 666 2517 666 2270 
L 666 260 
L 224 260 
L 224 -13 
C 371 0 851 0 1030 0 
C 1216 0 1734 0 1888 -13 
L 1888 260 
L 1331 260 
L 1331 1411 
C 1331 1619 1376 2624 2125 2624 
C 2035 2555 1990 2448 1990 2336 
C 1990 2079 2202 1972 2362 1972 
C 2522 1972 2733 2079 2733 2337 
z
" transform="scale(0.015625)"/>
      <path id="LMRoman12-Bold-64" d="M 3770 0 
L 3770 292 
C 3373 292 3328 292 3328 540 
L 3328 4352 
L 2221 4352 
L 2221 4053 
C 2618 4053 2662 4053 2662 3816 
L 2662 2575 
C 2522 2696 2240 2880 1798 2880 
C 890 2880 243 2318 243 1424 
C 243 510 877 -32 1728 -32 
C 2080 -32 2381 94 2630 311 
L 2630 0 
L 3770 0 
z
M 2630 661 
C 2362 262 2035 178 1805 178 
C 1011 178 1011 989 1011 1411 
C 1011 1712 1011 2032 1152 2274 
C 1350 2632 1728 2670 1875 2670 
C 2138 2670 2419 2556 2630 2276 
L 2630 661 
z
" transform="scale(0.015625)"/>
      <path id="LMRoman12-Bold-28" d="M 2394 -1524 
C 2394 -1498 2394 -1485 2272 -1371 
C 1555 -659 1280 461 1280 1580 
C 1280 2834 1594 3865 2310 4583 
C 2387 4659 2394 4666 2394 4691 
C 2394 4768 2317 4768 2285 4768 
C 2227 4768 2214 4768 2048 4634 
C 1126 3903 691 2732 691 1588 
C 691 417 1133 -722 2042 -1460 
C 2208 -1600 2221 -1600 2285 -1600 
C 2317 -1600 2394 -1600 2394 -1524 
z
" transform="scale(0.015625)"/>
      <path id="LMRoman12-Bold-45" d="M 4518 1722 
L 4250 1722 
C 4115 771 3878 273 2765 273 
L 1766 273 
L 1766 2112 
L 2144 2112 
C 2758 2112 2822 1853 2822 1375 
L 3091 1375 
L 3091 3136 
L 2822 3136 
C 2822 2655 2758 2385 2144 2385 
L 1766 2385 
L 1766 4078 
L 2765 4078 
C 3744 4078 3955 3659 4051 2828 
L 4320 2828 
L 4134 4352 
L 243 4352 
L 243 4078 
L 922 4078 
L 922 273 
L 243 273 
L 243 0 
L 4243 0 
L 4518 1722 
z
" transform="scale(0.015625)"/>
      <path id="LMRoman12-Bold-75" d="M 3840 0 
L 3840 292 
C 3443 292 3398 292 3398 540 
L 3398 2859 
L 2259 2859 
L 2259 2560 
C 2656 2560 2701 2560 2701 2312 
L 2701 1056 
C 2701 569 2413 178 1914 178 
C 1434 178 1408 337 1408 684 
L 1408 2859 
L 269 2859 
L 269 2560 
C 666 2560 710 2560 710 2312 
L 710 794 
C 710 153 1139 -32 1824 -32 
C 1978 -32 2451 -32 2726 496 
L 2733 496 
L 2733 0 
L 3840 0 
z
" transform="scale(0.015625)"/>
      <path id="LMRoman12-Bold-73" d="M 2592 888 
C 2592 1192 2426 1402 2298 1516 
C 2035 1731 1818 1770 1472 1833 
C 1062 1903 678 1973 678 2277 
C 678 2689 1248 2689 1382 2689 
C 2093 2689 2131 2245 2144 2087 
C 2150 2005 2202 2005 2278 2005 
C 2413 2005 2413 2024 2413 2170 
L 2413 2715 
C 2413 2836 2413 2880 2317 2880 
C 2278 2880 2266 2880 2170 2823 
C 2144 2804 2074 2759 2042 2740 
C 1862 2842 1626 2880 1395 2880 
C 1203 2880 243 2880 243 2056 
C 243 1389 1037 1250 1235 1218 
C 1408 1187 1619 1148 1645 1148 
C 1901 1091 2157 932 2157 666 
C 2157 178 1574 178 1440 178 
C 1114 178 710 279 531 896 
C 493 1023 486 1023 378 1023 
C 243 1023 243 1004 243 858 
L 243 132 
C 243 12 243 -32 339 -32 
C 384 -32 397 -32 525 70 
L 691 191 
C 979 -32 1325 -32 1440 -32 
C 1792 -32 2592 44 2592 888 
z
" transform="scale(0.015625)"/>
      <path id="LMRoman12-Bold-6b" d="M 3680 0 
L 3680 260 
C 3578 260 3450 260 3379 267 
C 3290 286 3264 305 3194 395 
L 2125 1780 
L 2931 2434 
C 3008 2498 3078 2556 3520 2556 
L 3520 2828 
C 3354 2816 3226 2816 2989 2816 
C 2822 2816 2464 2816 2317 2828 
L 2317 2556 
C 2394 2556 2547 2537 2547 2485 
C 2547 2459 2509 2434 2496 2421 
L 1331 1485 
L 1331 4352 
L 224 4352 
L 224 4053 
C 621 4053 666 4053 666 3813 
L 666 260 
L 224 260 
L 224 -13 
C 371 0 813 0 986 0 
C 1158 0 1600 0 1747 -13 
L 1747 260 
L 1306 260 
L 1306 1119 
C 1408 1197 1504 1279 1645 1395 
L 2419 395 
C 2464 344 2464 325 2464 325 
C 2464 260 2336 260 2246 260 
L 2246 -13 
C 2400 0 2822 0 2995 0 
C 3322 0 3411 0 3680 0 
z
" transform="scale(0.015625)"/>
      <path id="LMRoman12-Bold-69" d="M 1786 -13 
L 1786 260 
L 1389 260 
L 1389 2816 
L 301 2816 
L 301 2517 
C 678 2517 723 2517 723 2270 
L 723 260 
L 282 260 
L 282 -13 
C 429 0 870 0 1043 0 
C 1222 0 1632 0 1786 -13 
z
M 1466 3850 
C 1466 4110 1248 4307 1005 4307 
C 742 4307 538 4098 538 3850 
C 538 3589 755 3392 998 3392 
C 1261 3392 1466 3602 1466 3850 
z
" transform="scale(0.015625)"/>
      <path id="LMRoman12-Bold-50" d="M 4518 3128 
C 4518 3812 3910 4352 2854 4352 
L 243 4352 
L 243 4078 
L 922 4078 
L 922 267 
L 243 267 
L 243 0 
C 429 0 1114 0 1344 0 
C 1574 0 2259 0 2445 0 
L 2445 267 
L 1766 267 
L 1766 1934 
L 2854 1934 
C 3923 1934 4518 2474 4518 3128 
z
M 3616 3127 
C 3616 2709 3616 2176 2624 2176 
L 1734 2176 
L 1734 4078 
L 2624 4078 
C 3616 4078 3616 3558 3616 3127 
z
" transform="scale(0.015625)"/>
      <path id="LMRoman12-Bold-68" d="M 3840 -13 
L 3840 260 
L 3398 260 
L 3398 1924 
C 3398 2525 3136 2834 2432 2834 
C 1786 2834 1472 2384 1382 2194 
L 1376 2194 
L 1376 4352 
L 269 4352 
L 269 4053 
C 666 4053 710 4053 710 3807 
L 710 260 
L 269 260 
L 269 -13 
C 416 0 877 0 1056 0 
C 1235 0 1702 0 1850 -13 
L 1850 260 
L 1408 260 
L 1408 1607 
C 1408 2289 1920 2624 2330 2624 
C 2566 2624 2701 2473 2701 1993 
L 2701 260 
L 2259 260 
L 2259 -13 
C 2406 0 2867 0 3046 0 
C 3226 0 3693 0 3840 -13 
z
" transform="scale(0.015625)"/>
      <path id="LMRoman12-Bold-79" d="M 3642 2560 
L 3642 2827 
C 3424 2827 3398 2827 3136 2827 
L 2586 2827 
L 2586 2560 
C 2586 2560 2893 2560 2893 2478 
C 2893 2459 2874 2421 2867 2402 
L 2118 805 
L 1299 2560 
L 1651 2560 
L 1651 2833 
C 1498 2827 1062 2827 883 2827 
C 698 2827 320 2827 154 2833 
L 154 2560 
L 563 2560 
L 1747 20 
C 1715 -56 1626 -240 1594 -316 
C 1459 -601 1254 -1038 806 -1038 
C 781 -1038 704 -1038 634 -1000 
C 646 -993 838 -917 838 -676 
C 838 -468 685 -335 493 -335 
C 294 -335 141 -469 141 -684 
C 141 -982 422 -1248 806 -1248 
C 1331 -1248 1677 -779 1805 -500 
L 3168 2421 
C 3206 2509 3232 2560 3642 2560 
z
" transform="scale(0.015625)"/>
      <path id="LMRoman12-Bold-63" d="M 2995 753 
C 2995 829 2925 829 2861 829 
C 2758 829 2752 823 2720 747 
C 2675 625 2502 197 1914 197 
C 1011 197 1011 1166 1011 1453 
C 1011 1829 1018 2664 1856 2664 
C 1901 2664 2278 2664 2278 2632 
C 2278 2632 2272 2618 2259 2612 
C 2240 2593 2157 2496 2157 2334 
C 2157 2064 2374 1954 2534 1954 
C 2669 1954 2912 2039 2912 2346 
C 2912 2880 2176 2880 1830 2880 
C 691 2880 243 2145 243 1414 
C 243 552 851 -32 1792 -32 
C 2797 -32 2995 708 2995 753 
z
" transform="scale(0.015625)"/>
      <path id="LMRoman12-Bold-29" d="M 2099 1581 
C 2099 2751 1658 3890 749 4628 
C 582 4768 570 4768 506 4768 
C 474 4768 397 4768 397 4692 
C 397 4667 397 4654 518 4540 
C 1235 3827 1510 2708 1510 1588 
C 1510 334 1197 -696 480 -1415 
C 403 -1492 397 -1498 397 -1524 
C 397 -1600 474 -1600 506 -1600 
C 563 -1600 576 -1600 742 -1466 
C 1664 -735 2099 436 2099 1581 
z
" transform="scale(0.015625)"/>
     </defs>
     <use xlink:href="#LMRoman12-Bold-57" transform="scale(0.996264)"/>
     <use xlink:href="#LMRoman12-Bold-6f" transform="translate(106.425869 0) scale(0.996264)"/>
     <use xlink:href="#LMRoman12-Bold-6d" transform="translate(162.46572 0) scale(0.996264)"/>
     <use xlink:href="#LMRoman12-Bold-65" transform="translate(255.865471 0) scale(0.996264)"/>
     <use xlink:href="#LMRoman12-Bold-6e" transform="translate(307.007018 0) scale(0.996264)"/>
     <use xlink:href="#LMMathSymbols10-Regular-0" transform="translate(406.633419 0) scale(0.996264)"/>
     <use xlink:href="#LMRoman12-Bold-6d" transform="translate(521.480787 0) scale(0.996264)"/>
     <use xlink:href="#LMRoman12-Bold-65" transform="translate(614.880538 0) scale(0.996264)"/>
     <use xlink:href="#LMRoman12-Bold-6e" transform="translate(666.022086 0) scale(0.996264)"/>
     <use xlink:href="#LMRoman12-Bold-2c" transform="translate(728.288586 0) scale(0.996264)"/>
     <use xlink:href="#LMRoman12-Bold-6d" transform="translate(796.781737 0) scale(0.996264)"/>
     <use xlink:href="#LMRoman12-Bold-65" transform="translate(890.181488 0) scale(0.996264)"/>
     <use xlink:href="#LMRoman12-Bold-61" transform="translate(941.323035 0) scale(0.996264)"/>
     <use xlink:href="#LMRoman12-Bold-6e" transform="translate(995.806223 0) scale(0.996264)"/>
     <use xlink:href="#LMRoman12-Bold-67" transform="translate(1095.432624 0) scale(0.996264)"/>
     <use xlink:href="#LMRoman12-Bold-72" transform="translate(1151.472475 0) scale(0.996264)"/>
     <use xlink:href="#LMRoman12-Bold-61" transform="translate(1197.250834 0) scale(0.996264)"/>
     <use xlink:href="#LMRoman12-Bold-64" transform="translate(1251.734022 0) scale(0.996264)"/>
     <use xlink:href="#LMRoman12-Bold-65" transform="translate(1314.000522 0) scale(0.996264)"/>
     <use xlink:href="#LMRoman12-Bold-28" transform="translate(1402.50197 0) scale(0.996264)"/>
     <use xlink:href="#LMRoman12-Bold-45" transform="translate(1446.088521 0) scale(0.996264)"/>
     <use xlink:href="#LMRoman12-Bold-75" transform="translate(1519.654217 0) scale(0.996264)"/>
     <use xlink:href="#LMRoman12-Bold-73" transform="translate(1581.920718 0) scale(0.996264)"/>
     <use xlink:href="#LMRoman12-Bold-6b" transform="translate(1626.129872 0) scale(0.996264)"/>
     <use xlink:href="#LMRoman12-Bold-61" transform="translate(1685.283048 0) scale(0.996264)"/>
     <use xlink:href="#LMRoman12-Bold-64" transform="translate(1739.766236 0) scale(0.996264)"/>
     <use xlink:href="#LMRoman12-Bold-69" transform="translate(1802.032737 0) scale(0.996264)"/>
     <use xlink:href="#LMRoman12-Bold-50" transform="translate(1870.525887 0) scale(0.996264)"/>
     <use xlink:href="#LMRoman12-Bold-68" transform="translate(1947.088798 0) scale(0.996264)"/>
     <use xlink:href="#LMRoman12-Bold-79" transform="translate(2006.241973 0) scale(0.996264)"/>
     <use xlink:href="#LMRoman12-Bold-73" transform="translate(2065.395149 0) scale(0.996264)"/>
     <use xlink:href="#LMRoman12-Bold-69" transform="translate(2109.604304 0) scale(0.996264)"/>
     <use xlink:href="#LMRoman12-Bold-63" transform="translate(2140.737554 0) scale(0.996264)"/>
     <use xlink:href="#LMRoman12-Bold-73" transform="translate(2190.550754 0) scale(0.996264)"/>
     <use xlink:href="#LMRoman12-Bold-29" transform="translate(2234.759909 0) scale(0.996264)"/>
    </g>
   </g>
  </g>
  <g id="axes_2">
   <g id="patch_18">
    <path d="M 342.49059 221.003178 
L 580.57059 221.003178 
L 580.57059 21.419178 
L 342.49059 21.419178 
z
" style="fill: #fcfcfb"/>
   </g>
   <g id="matplotlib.axis_3">
    <g id="xtick_8">
     <g id="line2d_30">
      <path d="M 359.27719 221.003178 
L 359.27719 21.419178 
" clip-path="url(#pebff67b2e6)" style="fill: none; stroke: #e6e5e1; stroke-width: 0.6; stroke-linecap: square"/>
     </g>
     <g id="line2d_31">
      <g>
       <use xlink:href="#m9318d98aab" x="359.27719" y="221.003178" style="fill: #52514e; stroke: #52514e; stroke-width: 0.8"/>
      </g>
     </g>
     <g id="text_18">
      <!-- $\mathdefault{2010}$ -->
      <g style="fill: #52514e" transform="translate(350.573714 233.836847) scale(0.085 -0.085)">
       <use xlink:href="#LMRoman17-Regular-32" transform="scale(0.996264)"/>
       <use xlink:href="#LMRoman17-Regular-30" transform="translate(45.690948 0) scale(0.996264)"/>
       <use xlink:href="#LMRoman17-Regular-31" transform="translate(91.381897 0) scale(0.996264)"/>
       <use xlink:href="#LMRoman17-Regular-30" transform="translate(137.072845 0) scale(0.996264)"/>
      </g>
     </g>
    </g>
    <g id="xtick_9">
     <g id="line2d_32">
      <path d="M 393.361657 221.003178 
L 393.361657 21.419178 
" clip-path="url(#pebff67b2e6)" style="fill: none; stroke: #e6e5e1; stroke-width: 0.6; stroke-linecap: square"/>
     </g>
     <g id="line2d_33">
      <g>
       <use xlink:href="#m9318d98aab" x="393.361657" y="221.003178" style="fill: #52514e; stroke: #52514e; stroke-width: 0.8"/>
      </g>
     </g>
     <g id="text_19">
      <!-- $\mathdefault{2012}$ -->
      <g style="fill: #52514e" transform="translate(384.65818 233.836847) scale(0.085 -0.085)">
       <use xlink:href="#LMRoman17-Regular-32" transform="scale(0.996264)"/>
       <use xlink:href="#LMRoman17-Regular-30" transform="translate(45.690948 0) scale(0.996264)"/>
       <use xlink:href="#LMRoman17-Regular-31" transform="translate(91.381897 0) scale(0.996264)"/>
       <use xlink:href="#LMRoman17-Regular-32" transform="translate(137.072845 0) scale(0.996264)"/>
      </g>
     </g>
    </g>
    <g id="xtick_10">
     <g id="line2d_34">
      <path d="M 427.446124 221.003178 
L 427.446124 21.419178 
" clip-path="url(#pebff67b2e6)" style="fill: none; stroke: #e6e5e1; stroke-width: 0.6; stroke-linecap: square"/>
     </g>
     <g id="line2d_35">
      <g>
       <use xlink:href="#m9318d98aab" x="427.446124" y="221.003178" style="fill: #52514e; stroke: #52514e; stroke-width: 0.8"/>
      </g>
     </g>
     <g id="text_20">
      <!-- $\mathdefault{2014}$ -->
      <g style="fill: #52514e" transform="translate(418.742647 233.836847) scale(0.085 -0.085)">
       <use xlink:href="#LMRoman17-Regular-32" transform="scale(0.996264)"/>
       <use xlink:href="#LMRoman17-Regular-30" transform="translate(45.690948 0) scale(0.996264)"/>
       <use xlink:href="#LMRoman17-Regular-31" transform="translate(91.381897 0) scale(0.996264)"/>
       <use xlink:href="#LMRoman17-Regular-34" transform="translate(137.072845 0) scale(0.996264)"/>
      </g>
     </g>
    </g>
    <g id="xtick_11">
     <g id="line2d_36">
      <path d="M 461.53059 221.003178 
L 461.53059 21.419178 
" clip-path="url(#pebff67b2e6)" style="fill: none; stroke: #e6e5e1; stroke-width: 0.6; stroke-linecap: square"/>
     </g>
     <g id="line2d_37">
      <g>
       <use xlink:href="#m9318d98aab" x="461.53059" y="221.003178" style="fill: #52514e; stroke: #52514e; stroke-width: 0.8"/>
      </g>
     </g>
     <g id="text_21">
      <!-- $\mathdefault{2016}$ -->
      <g style="fill: #52514e" transform="translate(452.827114 233.836847) scale(0.085 -0.085)">
       <use xlink:href="#LMRoman17-Regular-32" transform="scale(0.996264)"/>
       <use xlink:href="#LMRoman17-Regular-30" transform="translate(45.690948 0) scale(0.996264)"/>
       <use xlink:href="#LMRoman17-Regular-31" transform="translate(91.381897 0) scale(0.996264)"/>
       <use xlink:href="#LMRoman17-Regular-36" transform="translate(137.072845 0) scale(0.996264)"/>
      </g>
     </g>
    </g>
    <g id="xtick_12">
     <g id="line2d_38">
      <path d="M 495.615057 221.003178 
L 495.615057 21.419178 
" clip-path="url(#pebff67b2e6)" style="fill: none; stroke: #e6e5e1; stroke-width: 0.6; stroke-linecap: square"/>
     </g>
     <g id="line2d_39">
      <g>
       <use xlink:href="#m9318d98aab" x="495.615057" y="221.003178" style="fill: #52514e; stroke: #52514e; stroke-width: 0.8"/>
      </g>
     </g>
     <g id="text_22">
      <!-- $\mathdefault{2018}$ -->
      <g style="fill: #52514e" transform="translate(486.91158 233.836847) scale(0.085 -0.085)">
       <use xlink:href="#LMRoman17-Regular-32" transform="scale(0.996264)"/>
       <use xlink:href="#LMRoman17-Regular-30" transform="translate(45.690948 0) scale(0.996264)"/>
       <use xlink:href="#LMRoman17-Regular-31" transform="translate(91.381897 0) scale(0.996264)"/>
       <use xlink:href="#LMRoman17-Regular-38" transform="translate(137.072845 0) scale(0.996264)"/>
      </g>
     </g>
    </g>
    <g id="xtick_13">
     <g id="line2d_40">
      <path d="M 529.699524 221.003178 
L 529.699524 21.419178 
" clip-path="url(#pebff67b2e6)" style="fill: none; stroke: #e6e5e1; stroke-width: 0.6; stroke-linecap: square"/>
     </g>
     <g id="line2d_41">
      <g>
       <use xlink:href="#m9318d98aab" x="529.699524" y="221.003178" style="fill: #52514e; stroke: #52514e; stroke-width: 0.8"/>
      </g>
     </g>
     <g id="text_23">
      <!-- $\mathdefault{2020}$ -->
      <g style="fill: #52514e" transform="translate(520.996047 233.836847) scale(0.085 -0.085)">
       <use xlink:href="#LMRoman17-Regular-32" transform="scale(0.996264)"/>
       <use xlink:href="#LMRoman17-Regular-30" transform="translate(45.690948 0) scale(0.996264)"/>
       <use xlink:href="#LMRoman17-Regular-32" transform="translate(91.381897 0) scale(0.996264)"/>
       <use xlink:href="#LMRoman17-Regular-30" transform="translate(137.072845 0) scale(0.996264)"/>
      </g>
     </g>
    </g>
    <g id="xtick_14">
     <g id="line2d_42">
      <path d="M 563.78399 221.003178 
L 563.78399 21.419178 
" clip-path="url(#pebff67b2e6)" style="fill: none; stroke: #e6e5e1; stroke-width: 0.6; stroke-linecap: square"/>
     </g>
     <g id="line2d_43">
      <g>
       <use xlink:href="#m9318d98aab" x="563.78399" y="221.003178" style="fill: #52514e; stroke: #52514e; stroke-width: 0.8"/>
      </g>
     </g>
     <g id="text_24">
      <!-- $\mathdefault{2022}$ -->
      <g style="fill: #52514e" transform="translate(555.080514 233.836847) scale(0.085 -0.085)">
       <use xlink:href="#LMRoman17-Regular-32" transform="scale(0.996264)"/>
       <use xlink:href="#LMRoman17-Regular-30" transform="translate(45.690948 0) scale(0.996264)"/>
       <use xlink:href="#LMRoman17-Regular-32" transform="translate(91.381897 0) scale(0.996264)"/>
       <use xlink:href="#LMRoman17-Regular-32" transform="translate(137.072845 0) scale(0.996264)"/>
      </g>
     </g>
    </g>
   </g>
   <g id="matplotlib.axis_4">
    <g id="ytick_8">
     <g id="line2d_44">
      <path d="M 342.49059 204.894197 
L 580.57059 204.894197 
" clip-path="url(#pebff67b2e6)" style="fill: none; stroke: #e6e5e1; stroke-width: 0.6; stroke-linecap: square"/>
     </g>
     <g id="line2d_45">
      <g>
       <use xlink:href="#m1b41fdded4" x="342.49059" y="204.894197" style="fill: #52514e; stroke: #52514e; stroke-width: 0.8"/>
      </g>
     </g>
     <g id="text_25">
      <!-- $\mathdefault{−0.6}$ -->
      <g style="fill: #52514e" transform="translate(317.600175 207.811031) scale(0.085 -0.085)">
       <use xlink:href="#LMMathSymbols10-Regular-0" transform="scale(0.996264)"/>
       <use xlink:href="#LMRoman17-Regular-30" transform="translate(77.487468 0) scale(0.996264)"/>
       <use xlink:href="#LMMathItalic12-Regular-3a" transform="translate(123.178416 0) scale(0.996264)"/>
       <use xlink:href="#LMRoman17-Regular-36" transform="translate(150.275593 0) scale(0.996264)"/>
      </g>
     </g>
    </g>
    <g id="ytick_9">
     <g id="line2d_46">
      <path d="M 342.49059 176.999857 
L 580.57059 176.999857 
" clip-path="url(#pebff67b2e6)" style="fill: none; stroke: #e6e5e1; stroke-width: 0.6; stroke-linecap: square"/>
     </g>
     <g id="line2d_47">
      <g>
       <use xlink:href="#m1b41fdded4" x="342.49059" y="176.999857" style="fill: #52514e; stroke: #52514e; stroke-width: 0.8"/>
      </g>
     </g>
     <g id="text_26">
      <!-- $\mathdefault{−0.4}$ -->
      <g style="fill: #52514e" transform="translate(317.600175 179.916692) scale(0.085 -0.085)">
       <use xlink:href="#LMMathSymbols10-Regular-0" transform="scale(0.996264)"/>
       <use xlink:href="#LMRoman17-Regular-30" transform="translate(77.487468 0) scale(0.996264)"/>
       <use xlink:href="#LMMathItalic12-Regular-3a" transform="translate(123.178416 0) scale(0.996264)"/>
       <use xlink:href="#LMRoman17-Regular-34" transform="translate(150.275593 0) scale(0.996264)"/>
      </g>
     </g>
    </g>
    <g id="ytick_10">
     <g id="line2d_48">
      <path d="M 342.49059 149.105518 
L 580.57059 149.105518 
" clip-path="url(#pebff67b2e6)" style="fill: none; stroke: #e6e5e1; stroke-width: 0.6; stroke-linecap: square"/>
     </g>
     <g id="line2d_49">
      <g>
       <use xlink:href="#m1b41fdded4" x="342.49059" y="149.105518" style="fill: #52514e; stroke: #52514e; stroke-width: 0.8"/>
      </g>
     </g>
     <g id="text_27">
      <!-- $\mathdefault{−0.2}$ -->
      <g style="fill: #52514e" transform="translate(317.600175 152.022352) scale(0.085 -0.085)">
       <use xlink:href="#LMMathSymbols10-Regular-0" transform="scale(0.996264)"/>
       <use xlink:href="#LMRoman17-Regular-30" transform="translate(77.487468 0) scale(0.996264)"/>
       <use xlink:href="#LMMathItalic12-Regular-3a" transform="translate(123.178416 0) scale(0.996264)"/>
       <use xlink:href="#LMRoman17-Regular-32" transform="translate(150.275593 0) scale(0.996264)"/>
      </g>
     </g>
    </g>
    <g id="ytick_11">
     <g id="line2d_50">
      <path d="M 342.49059 121.211178 
L 580.57059 121.211178 
" clip-path="url(#pebff67b2e6)" style="fill: none; stroke: #e6e5e1; stroke-width: 0.6; stroke-linecap: square"/>
     </g>
     <g id="line2d_51">
      <g>
       <use xlink:href="#m1b41fdded4" x="342.49059" y="121.211178" style="fill: #52514e; stroke: #52514e; stroke-width: 0.8"/>
      </g>
     </g>
     <g id="text_28">
      <!-- $\mathdefault{0.0}$ -->
      <g style="fill: #52514e" transform="translate(324.369498 124.128012) scale(0.085 -0.085)">
       <use xlink:href="#LMRoman17-Regular-30" transform="scale(0.996264)"/>
       <use xlink:href="#LMMathItalic12-Regular-3a" transform="translate(45.690948 0) scale(0.996264)"/>
       <use xlink:href="#LMRoman17-Regular-30" transform="translate(72.788125 0) scale(0.996264)"/>
      </g>
     </g>
    </g>
    <g id="ytick_12">
     <g id="line2d_52">
      <path d="M 342.49059 93.316838 
L 580.57059 93.316838 
" clip-path="url(#pebff67b2e6)" style="fill: none; stroke: #e6e5e1; stroke-width: 0.6; stroke-linecap: square"/>
     </g>
     <g id="line2d_53">
      <g>
       <use xlink:href="#m1b41fdded4" x="342.49059" y="93.316838" style="fill: #52514e; stroke: #52514e; stroke-width: 0.8"/>
      </g>
     </g>
     <g id="text_29">
      <!-- $\mathdefault{0.2}$ -->
      <g style="fill: #52514e" transform="translate(324.369498 96.233673) scale(0.085 -0.085)">
       <use xlink:href="#LMRoman17-Regular-30" transform="scale(0.996264)"/>
       <use xlink:href="#LMMathItalic12-Regular-3a" transform="translate(45.690948 0) scale(0.996264)"/>
       <use xlink:href="#LMRoman17-Regular-32" transform="translate(72.788125 0) scale(0.996264)"/>
      </g>
     </g>
    </g>
    <g id="ytick_13">
     <g id="line2d_54">
      <path d="M 342.49059 65.422499 
L 580.57059 65.422499 
" clip-path="url(#pebff67b2e6)" style="fill: none; stroke: #e6e5e1; stroke-width: 0.6; stroke-linecap: square"/>
     </g>
     <g id="line2d_55">
      <g>
       <use xlink:href="#m1b41fdded4" x="342.49059" y="65.422499" style="fill: #52514e; stroke: #52514e; stroke-width: 0.8"/>
      </g>
     </g>
     <g id="text_30">
      <!-- $\mathdefault{0.4}$ -->
      <g style="fill: #52514e" transform="translate(324.369498 68.339333) scale(0.085 -0.085)">
       <use xlink:href="#LMRoman17-Regular-30" transform="scale(0.996264)"/>
       <use xlink:href="#LMMathItalic12-Regular-3a" transform="translate(45.690948 0) scale(0.996264)"/>
       <use xlink:href="#LMRoman17-Regular-34" transform="translate(72.788125 0) scale(0.996264)"/>
      </g>
     </g>
    </g>
    <g id="ytick_14">
     <g id="line2d_56">
      <path d="M 342.49059 37.528159 
L 580.57059 37.528159 
" clip-path="url(#pebff67b2e6)" style="fill: none; stroke: #e6e5e1; stroke-width: 0.6; stroke-linecap: square"/>
     </g>
     <g id="line2d_57">
      <g>
       <use xlink:href="#m1b41fdded4" x="342.49059" y="37.528159" style="fill: #52514e; stroke: #52514e; stroke-width: 0.8"/>
      </g>
     </g>
     <g id="text_31">
      <!-- $\mathdefault{0.6}$ -->
      <g style="fill: #52514e" transform="translate(324.369498 40.444994) scale(0.085 -0.085)">
       <use xlink:href="#LMRoman17-Regular-30" transform="scale(0.996264)"/>
       <use xlink:href="#LMMathItalic12-Regular-3a" transform="translate(45.690948 0) scale(0.996264)"/>
       <use xlink:href="#LMRoman17-Regular-36" transform="translate(72.788125 0) scale(0.996264)"/>
      </g>
     </g>
    </g>
    <g id="text_32">
     <!-- Points -->
     <g style="fill: #52514e" transform="translate(311.663012 134.8683) rotate(-90) scale(0.1 -0.1)">
      <use xlink:href="#LMRoman17-Regular-50" transform="scale(0.996264)"/>
      <use xlink:href="#LMRoman17-Regular-6f" transform="translate(59.981095 0) scale(0.996264)"/>
      <use xlink:href="#LMRoman17-Regular-69" transform="translate(105.672043 0) scale(0.996264)"/>
      <use xlink:href="#LMRoman17-Regular-6e" transform="translate(130.54406 0) scale(0.996264)"/>
      <use xlink:href="#LMRoman17-Regular-74" transform="translate(178.838693 0) scale(0.996264)"/>
      <use xlink:href="#LMRoman17-Regular-73" transform="translate(214.120221 0) scale(0.996264)"/>
     </g>
    </g>
   </g>
   <g id="patch_19">
    <path d="M 353.312408 121.211178 
L 365.241972 121.211178 
L 365.241972 195.131178 
L 353.312408 195.131178 
z
" clip-path="url(#pebff67b2e6)" style="fill: #eb6834"/>
   </g>
   <g id="patch_20">
    <path d="M 370.354642 121.211178 
L 382.284205 121.211178 
L 382.284205 124.000612 
L 370.354642 124.000612 
z
" clip-path="url(#pebff67b2e6)" style="fill: #eb6834"/>
   </g>
   <g id="patch_21">
    <path d="M 387.396875 121.211178 
L 399.326438 121.211178 
L 399.326438 87.737971 
L 387.396875 87.737971 
z
" clip-path="url(#pebff67b2e6)" style="fill: #1baf7a"/>
   </g>
   <g id="patch_22">
    <path d="M 404.439108 121.211178 
L 416.368672 121.211178 
L 416.368672 164.447404 
L 404.439108 164.447404 
z
" clip-path="url(#pebff67b2e6)" style="fill: #eb6834"/>
   </g>
   <g id="patch_23">
    <path d="M 421.481342 121.211178 
L 433.410905 121.211178 
L 433.410905 147.710801 
L 421.481342 147.710801 
z
" clip-path="url(#pebff67b2e6)" style="fill: #eb6834"/>
   </g>
   <g id="patch_24">
    <path d="M 438.523575 121.211178 
L 450.453139 121.211178 
L 450.453139 140.737216 
L 438.523575 140.737216 
z
" clip-path="url(#pebff67b2e6)" style="fill: #eb6834"/>
   </g>
   <g id="patch_25">
    <path d="M 455.565809 121.211178 
L 467.495372 121.211178 
L 467.495372 158.868537 
L 455.565809 158.868537 
z
" clip-path="url(#pebff67b2e6)" style="fill: #eb6834"/>
   </g>
   <g id="patch_26">
    <path d="M 472.608042 121.211178 
L 484.537605 121.211178 
L 484.537605 142.131933 
L 472.608042 142.131933 
z
" clip-path="url(#pebff67b2e6)" style="fill: #eb6834"/>
   </g>
   <g id="patch_27">
    <path d="M 489.650275 121.211178 
L 501.579839 121.211178 
L 501.579839 142.131933 
L 489.650275 142.131933 
z
" clip-path="url(#pebff67b2e6)" style="fill: #eb6834"/>
   </g>
   <g id="patch_28">
    <path d="M 506.692509 121.211178 
L 518.622072 121.211178 
L 518.622072 126.790046 
L 506.692509 126.790046 
z
" clip-path="url(#pebff67b2e6)" style="fill: #eb6834"/>
   </g>
   <g id="patch_29">
    <path d="M 523.734742 121.211178 
L 535.664305 121.211178 
L 535.664305 86.343254 
L 523.734742 86.343254 
z
" clip-path="url(#pebff67b2e6)" style="fill: #1baf7a"/>
   </g>
   <g id="patch_30">
    <path d="M 540.776975 121.211178 
L 552.706539 121.211178 
L 552.706539 107.264008 
L 540.776975 107.264008 
z
" clip-path="url(#pebff67b2e6)" style="fill: #1baf7a"/>
   </g>
   <g id="patch_31">
    <path d="M 557.819209 121.211178 
L 569.748772 121.211178 
L 569.748772 165.842121 
L 557.819209 165.842121 
z
" clip-path="url(#pebff67b2e6)" style="fill: #eb6834"/>
   </g>
   <g id="line2d_58">
    <path d="M 342.49059 121.211178 
L 580.57059 121.211178 
" clip-path="url(#pebff67b2e6)" style="fill: none; stroke: #52514e; stroke-linecap: square"/>
   </g>
   <g id="patch_32">
    <path d="M 342.49059 221.003178 
L 342.49059 21.419178 
" style="fill: none; stroke: #e6e5e1; stroke-width: 0.8; stroke-linejoin: miter; stroke-linecap: square"/>
   </g>
   <g id="patch_33">
    <path d="M 342.49059 221.003178 
L 580.57059 221.003178 
" style="fill: none; stroke: #e6e5e1; stroke-width: 0.8; stroke-linejoin: miter; stroke-linecap: square"/>
   </g>
   <g id="text_33">
    <!-- euskera track share rose 61 \% $\rightarrow$ 75 \% -->
    <g style="fill: #52514e" transform="translate(359.27719 35.390058) scale(0.08 -0.08)">
     <defs>
      <path id="LMRoman17-Regular-75" d="M 3091 -63 
L 3091 128 
C 2714 128 2656 166 2656 473 
L 2656 2763 
L 1882 2693 
L 1882 2528 
C 2259 2528 2317 2489 2317 2186 
L 2317 1032 
C 2317 500 2029 38 1555 38 
C 1030 38 986 348 986 678 
L 986 2763 
L 211 2693 
L 211 2528 
C 467 2528 640 2528 646 2274 
L 646 1058 
C 646 633 646 361 813 183 
C 896 101 1056 -64 1517 -64 
C 2061 -64 2272 377 2323 506 
L 2330 506 
L 2330 -63 
L 3091 -63 
z
" transform="scale(0.015625)"/>
      <path id="LMRoman17-Regular-6b" d="M 3040 0 
L 3040 153 
C 2739 153 2669 210 2477 491 
L 1670 1673 
C 1664 1686 1632 1724 1632 1743 
L 2144 2222 
C 2509 2528 2739 2560 2906 2560 
L 2906 2733 
C 2867 2733 2848 2720 2848 2720 
L 2534 2720 
C 2355 2720 2080 2720 1907 2733 
L 1907 2566 
C 1997 2559 2061 2508 2061 2419 
C 2061 2291 1926 2170 1926 2170 
L 960 1289 
L 960 4396 
L 198 4326 
L 198 4160 
C 576 4160 634 4122 634 3817 
L 634 426 
C 634 184 608 153 198 153 
L 198 -13 
C 352 0 634 0 794 0 
C 954 0 1235 0 1389 -13 
L 1389 153 
C 979 153 954 178 954 428 
L 954 1130 
L 1395 1532 
L 2042 574 
C 2118 459 2182 369 2182 286 
C 2182 172 2067 153 1990 153 
L 1990 -13 
C 2144 0 2419 0 2579 0 
L 3040 0 
z
" transform="scale(0.015625)"/>
      <path id="LMMathSymbols10-Regular-21" d="M 6035 1600 
C 6035 1632 6010 1658 5984 1664 
C 5299 1907 4794 2496 4672 3213 
C 4666 3245 4634 3270 4602 3270 
L 4486 3270 
C 4448 3270 4416 3238 4416 3187 
C 4518 2598 4851 2074 5331 1728 
L 486 1728 
C 397 1728 352 1664 352 1600 
C 352 1536 397 1472 486 1472 
L 5331 1472 
C 4851 1126 4518 602 4416 13 
C 4416 -38 4448 -70 4486 -70 
L 4602 -70 
C 4634 -70 4666 -45 4672 -13 
C 4794 704 5299 1293 5984 1536 
C 6010 1542 6035 1568 6035 1600 
z
" transform="scale(0.015625)"/>
      <path id="LMRoman17-Regular-37" d="M 2886 3941 
L 2886 4081 
L 1382 4081 
C 634 4081 621 4165 595 4288 
L 480 4288 
L 294 3094 
L 410 3094 
C 429 3215 474 3540 550 3661 
C 589 3712 1062 3712 1171 3712 
L 2579 3712 
L 1869 2661 
C 1395 1954 1069 999 1069 165 
C 1069 89 1069 -128 1299 -128 
C 1530 -128 1530 89 1530 171 
L 1530 465 
C 1530 1508 1709 2196 2003 2636 
L 2886 3941 
z
" transform="scale(0.015625)"/>
      <path id="LMRoman17-Regular-35" d="M 2669 1264 
C 2669 2030 2170 2624 1549 2624 
C 1222 2624 947 2503 730 2274 
L 730 3692 
C 794 3666 1056 3584 1325 3584 
C 1920 3584 2246 3911 2432 4100 
C 2432 4157 2432 4192 2394 4192 
C 2394 4192 2374 4192 2323 4163 
C 2099 4058 1837 3973 1517 3973 
C 1325 3973 1037 3999 723 4139 
C 653 4171 634 4171 634 4171 
C 602 4171 595 4164 595 4037 
L 595 2203 
C 595 2089 595 2057 659 2057 
C 691 2057 704 2070 736 2114 
C 941 2401 1222 2522 1542 2522 
C 1766 2522 2246 2382 2246 1289 
C 2246 1085 2246 715 2054 421 
C 1894 159 1645 25 1370 25 
C 947 25 518 320 403 814 
C 429 807 480 795 506 795 
C 589 795 749 840 749 1038 
C 749 1210 627 1280 506 1280 
C 358 1280 262 1190 262 1011 
C 262 454 704 -128 1382 -128 
C 2042 -128 2669 440 2669 1264 
z
" transform="scale(0.015625)"/>
     </defs>
     <use xlink:href="#LMRoman17-Regular-65" transform="scale(0.996264)"/>
     <use xlink:href="#LMRoman17-Regular-75" transform="translate(40.484809 0) scale(0.996264)"/>
     <use xlink:href="#LMRoman17-Regular-73" transform="translate(91.381897 0) scale(0.996264)"/>
     <use xlink:href="#LMRoman17-Regular-6b" transform="translate(127.185135 0) scale(0.996264)"/>
     <use xlink:href="#LMRoman17-Regular-65" transform="translate(172.873894 0) scale(0.996264)"/>
     <use xlink:href="#LMRoman17-Regular-72" transform="translate(213.358703 0) scale(0.996264)"/>
     <use xlink:href="#LMRoman17-Regular-61" transform="translate(248.640231 0) scale(0.996264)"/>
     <use xlink:href="#LMRoman17-Regular-74" transform="translate(324.407328 0) scale(0.996264)"/>
     <use xlink:href="#LMRoman17-Regular-72" transform="translate(359.688856 0) scale(0.996264)"/>
     <use xlink:href="#LMRoman17-Regular-61" transform="translate(394.970384 0) scale(0.996264)"/>
     <use xlink:href="#LMRoman17-Regular-63" transform="translate(440.661332 0) scale(0.996264)"/>
     <use xlink:href="#LMRoman17-Regular-6b" transform="translate(478.543687 0) scale(0.996264)"/>
     <use xlink:href="#LMRoman17-Regular-73" transform="translate(556.91105 0) scale(0.996264)"/>
     <use xlink:href="#LMRoman17-Regular-68" transform="translate(592.714287 0) scale(0.996264)"/>
     <use xlink:href="#LMRoman17-Regular-61" transform="translate(643.611375 0) scale(0.996264)"/>
     <use xlink:href="#LMRoman17-Regular-72" transform="translate(689.302323 0) scale(0.996264)"/>
     <use xlink:href="#LMRoman17-Regular-65" transform="translate(724.583851 0) scale(0.996264)"/>
     <use xlink:href="#LMRoman17-Regular-72" transform="translate(795.144809 0) scale(0.996264)"/>
     <use xlink:href="#LMRoman17-Regular-6f" transform="translate(830.426337 0) scale(0.996264)"/>
     <use xlink:href="#LMRoman17-Regular-73" transform="translate(876.117285 0) scale(0.996264)"/>
     <use xlink:href="#LMRoman17-Regular-65" transform="translate(911.920523 0) scale(0.996264)"/>
     <use xlink:href="#LMRoman17-Regular-36" transform="translate(982.481481 0) scale(0.996264)"/>
     <use xlink:href="#LMRoman17-Regular-31" transform="translate(1028.17243 0) scale(0.996264)"/>
     <use xlink:href="#LMRoman17-Regular-25" transform="translate(1103.939527 0) scale(0.996264)"/>
     <use xlink:href="#LMMathSymbols10-Regular-21" transform="translate(1210.937834 0) scale(0.996264)"/>
     <use xlink:href="#LMRoman17-Regular-37" transform="translate(1340.640658 0) scale(0.996264)"/>
     <use xlink:href="#LMRoman17-Regular-35" transform="translate(1386.331606 0) scale(0.996264)"/>
     <use xlink:href="#LMRoman17-Regular-25" transform="translate(1462.098703 0) scale(0.996264)"/>
    </g>
   </g>
   <g id="text_34">
    <!-- \textbf{Euskera track $-$ Castilian track, mean grade} -->
    <g style="fill: #0b0b0b" transform="translate(341.408348 15.419178) scale(0.11 -0.11)">
     <defs>
      <path id="LMRoman12-Bold-74" d="M 2394 795 
L 2394 1133 
L 2125 1133 
L 2125 802 
C 2125 381 1933 197 1734 197 
C 1350 197 1350 624 1350 770 
L 1350 2560 
L 2272 2560 
L 2272 2833 
L 1350 2833 
L 1350 4032 
L 1082 4032 
C 1075 3405 768 2776 134 2776 
L 134 2560 
L 653 2560 
L 653 789 
C 653 114 1178 -32 1638 -32 
C 2112 -32 2394 325 2394 795 
z
" transform="scale(0.015625)"/>
      <path id="LMRoman12-Bold-43" d="M 4794 1456 
C 4794 1564 4755 1564 4659 1564 
C 4595 1564 4531 1564 4525 1501 
C 4467 539 3642 209 3066 209 
C 2650 209 2086 324 1728 722 
C 1504 963 1299 1310 1299 2184 
C 1299 2805 1395 3267 1696 3621 
C 2106 4096 2746 4160 3053 4160 
C 3533 4160 4307 3893 4499 2779 
C 4512 2722 4570 2722 4646 2722 
C 4794 2722 4794 2735 4794 2887 
L 4794 4269 
C 4794 4415 4794 4434 4653 4434 
L 4173 3976 
C 3814 4280 3386 4433 2912 4433 
C 1382 4433 397 3514 397 2184 
C 397 879 1350 -64 2918 -64 
C 4058 -64 4794 708 4794 1456 
z
" transform="scale(0.015625)"/>
      <path id="LMRoman12-Bold-6c" d="M 1830 -13 
L 1830 260 
L 1389 260 
L 1389 4352 
L 282 4352 
L 282 4053 
C 678 4053 723 4053 723 3806 
L 723 260 
L 282 260 
L 282 -13 
C 429 0 883 0 1056 0 
C 1229 0 1683 0 1830 -13 
z
" transform="scale(0.015625)"/>
     </defs>
     <use xlink:href="#LMRoman12-Bold-45" transform="scale(0.996264)"/>
     <use xlink:href="#LMRoman12-Bold-75" transform="translate(73.565697 0) scale(0.996264)"/>
     <use xlink:href="#LMRoman12-Bold-73" transform="translate(135.832197 0) scale(0.996264)"/>
     <use xlink:href="#LMRoman12-Bold-6b" transform="translate(180.041352 0) scale(0.996264)"/>
     <use xlink:href="#LMRoman12-Bold-65" transform="translate(236.081202 0) scale(0.996264)"/>
     <use xlink:href="#LMRoman12-Bold-72" transform="translate(287.22275 0) scale(0.996264)"/>
     <use xlink:href="#LMRoman12-Bold-61" transform="translate(333.001109 0) scale(0.996264)"/>
     <use xlink:href="#LMRoman12-Bold-74" transform="translate(424.844197 0) scale(0.996264)"/>
     <use xlink:href="#LMRoman12-Bold-72" transform="translate(468.430747 0) scale(0.996264)"/>
     <use xlink:href="#LMRoman12-Bold-61" transform="translate(514.209106 0) scale(0.996264)"/>
     <use xlink:href="#LMRoman12-Bold-63" transform="translate(568.692294 0) scale(0.996264)"/>
     <use xlink:href="#LMRoman12-Bold-6b" transform="translate(615.39217 0) scale(0.996264)"/>
     <use xlink:href="#LMMathSymbols10-Regular-0" transform="translate(711.905245 0) scale(0.996264)"/>
     <use xlink:href="#LMRoman12-Bold-43" transform="translate(826.752613 0) scale(0.996264)"/>
     <use xlink:href="#LMRoman12-Bold-61" transform="translate(907.699064 0) scale(0.996264)"/>
     <use xlink:href="#LMRoman12-Bold-73" transform="translate(962.182252 0) scale(0.996264)"/>
     <use xlink:href="#LMRoman12-Bold-74" transform="translate(1006.391407 0) scale(0.996264)"/>
     <use xlink:href="#LMRoman12-Bold-69" transform="translate(1049.977957 0) scale(0.996264)"/>
     <use xlink:href="#LMRoman12-Bold-6c" transform="translate(1081.111208 0) scale(0.996264)"/>
     <use xlink:href="#LMRoman12-Bold-69" transform="translate(1112.244458 0) scale(0.996264)"/>
     <use xlink:href="#LMRoman12-Bold-61" transform="translate(1143.377708 0) scale(0.996264)"/>
     <use xlink:href="#LMRoman12-Bold-6e" transform="translate(1197.860896 0) scale(0.996264)"/>
     <use xlink:href="#LMRoman12-Bold-74" transform="translate(1297.487297 0) scale(0.996264)"/>
     <use xlink:href="#LMRoman12-Bold-72" transform="translate(1341.073848 0) scale(0.996264)"/>
     <use xlink:href="#LMRoman12-Bold-61" transform="translate(1386.852206 0) scale(0.996264)"/>
     <use xlink:href="#LMRoman12-Bold-63" transform="translate(1441.335394 0) scale(0.996264)"/>
     <use xlink:href="#LMRoman12-Bold-6b" transform="translate(1488.03527 0) scale(0.996264)"/>
     <use xlink:href="#LMRoman12-Bold-2c" transform="translate(1547.188446 0) scale(0.996264)"/>
     <use xlink:href="#LMRoman12-Bold-6d" transform="translate(1615.681596 0) scale(0.996264)"/>
     <use xlink:href="#LMRoman12-Bold-65" transform="translate(1709.081347 0) scale(0.996264)"/>
     <use xlink:href="#LMRoman12-Bold-61" transform="translate(1760.222895 0) scale(0.996264)"/>
     <use xlink:href="#LMRoman12-Bold-6e" transform="translate(1814.706083 0) scale(0.996264)"/>
     <use xlink:href="#LMRoman12-Bold-67" transform="translate(1914.332484 0) scale(0.996264)"/>
     <use xlink:href="#LMRoman12-Bold-72" transform="translate(1970.372334 0) scale(0.996264)"/>
     <use xlink:href="#LMRoman12-Bold-61" transform="translate(2016.150693 0) scale(0.996264)"/>
     <use xlink:href="#LMRoman12-Bold-64" transform="translate(2070.633881 0) scale(0.996264)"/>
     <use xlink:href="#LMRoman12-Bold-65" transform="translate(2132.900382 0) scale(0.996264)"/>
    </g>
   </g>
  </g>
  <g id="axes_3"/>
 </g>
 <defs>
  <clipPath id="p3162593a60">
   <rect x="44.89059" y="21.419178" width="238.08" height="199.584"/>
  </clipPath>
  <clipPath id="pebff67b2e6">
   <rect x="342.49059" y="21.419178" width="238.08" height="199.584"/>
  </clipPath>
 </defs>
</svg>
