<?xml version="1.0" encoding="utf-8" standalone="no"?>
<!DOCTYPE svg PUBLIC "-//W3C//DTD SVG 1.1//EN"
  "http://www.w3.org/Graphics/SVG/1.1/DTD/svg11.dtd">
<svg xmlns:xlink="http://www.w3.org/1999/xlink" width="401.903142pt" height="243.901319pt" viewBox="0 0 401.903142 243.901319" xmlns="http://www.w3.org/2000/svg" version="1.1">
 <metadata>
  <rdf:RDF xmlns:dc="http://purl.org/dc/elements/1.1/" xmlns:cc="http://creativecommons.org/ns#" xmlns:rdf="http://www.w3.org/1999/02/22-rdf-syntax-ns#">
   <cc:Work>
    <dc:type rdf:resource="http://purl.org/dc/dcmitype/StillImage"/>
    <dc:date>2026-09-23T10:03:33.793575</dc:date>
    <dc:format>image/svg+xml</dc:format>
    <dc:creator>
     <cc:Agent>
      <dc:title>Matplotlib v3.10.9, https://matplotlib.org/</dc:title>
     </cc:Agent>
    </dc:creator>
   </cc:Work>
  </rdf:RDF>
 </metadata>
 <defs>
  <style type="text/css">*{stroke-linejoin: round; stroke-linecap: butt}</style>
 </defs>
 <g id="figure_1">
  <g id="patch_1">
   <path d="M 0 243.901319 
L 401.903142 243.901319 
L 401.903142 0 
L 0 0 
z
" style="fill: #fcfcfb"/>
  </g>
  <g id="axes_1">
   <g id="patch_2">
    <path d="M 32.003142 219.306106 
L 394.703142 219.306106 
L 394.703142 17.504506 
L 32.003142 17.504506 
z
" style="fill: #fcfcfb"/>
   </g>
   <g id="patch_3">
    <path d="M 107.792972 70.303713 
L 141.002913 70.303713 
L 141.002913 57.874613 
L 107.792972 57.874613 
z
" clip-path="url(#p94370af1c7)" style="fill: #1baf7a"/>
   </g>
   <g id="line2d_1">
    <path d="M 107.792972 57.874613 
L 167.096439 57.874613 
" clip-path="url(#p94370af1c7)" style="fill: none; stroke: #8a8983; stroke-width: 0.8; stroke-linecap: square"/>
   </g>
   <g id="patch_4">
    <path d="M 167.096439 72.310977 
L 200.30638 72.310977 
L 200.30638 57.874613 
L 167.096439 57.874613 
z
" clip-path="url(#p94370af1c7)" style="fill: #2a78d6"/>
   </g>
   <g id="line2d_2">
    <path d="M 167.096439 72.310977 
L 226.399905 72.310977 
" clip-path="url(#p94370af1c7)" style="fill: none; stroke: #8a8983; stroke-width: 0.8; stroke-linecap: square"/>
   </g>
   <g id="patch_5">
    <path d="M 226.399905 80.947124 
L 259.609846 80.947124 
L 259.609846 72.310977 
L 226.399905 72.310977 
z
" clip-path="url(#p94370af1c7)" style="fill: #eda100"/>
   </g>
   <g id="line2d_3">
    <path d="M 226.399905 80.947124 
L 285.703371 80.947124 
" clip-path="url(#p94370af1c7)" style="fill: none; stroke: #8a8983; stroke-width: 0.8; stroke-linecap: square"/>
   </g>
   <g id="patch_6">
    <path d="M 285.703371 178.936 
L 318.913312 178.936 
L 318.913312 80.947124 
L 285.703371 80.947124 
z
" clip-path="url(#p94370af1c7)" style="fill: #e34948"/>
   </g>
   <g id="line2d_4">
    <path d="M 285.703371 178.936 
L 345.006838 178.936 
" clip-path="url(#p94370af1c7)" style="fill: none; stroke: #8a8983; stroke-width: 0.8; stroke-linecap: square"/>
   </g>
   <g id="matplotlib.axis_1">
    <g id="xtick_1">
     <g id="line2d_5">
      <path d="M 65.094477 219.306106 
L 65.094477 17.504506 
" clip-path="url(#p94370af1c7)" style="fill: none; stroke: #e6e5e1; stroke-width: 0.6; stroke-linecap: square"/>
     </g>
     <g id="line2d_6">
      <defs>
       <path id="m7f6b41a06c" d="M 0 0 
L 0 3.5 
" style="stroke: #52514e; stroke-width: 0.8"/>
      </defs>
      <g>
       <use xlink:href="#m7f6b41a06c" x="65.094477" y="219.306106" style="fill: #52514e; stroke: #52514e; stroke-width: 0.8"/>
      </g>
     </g>
     <g id="text_1">
      <!-- Euskadi 2025 -->
      <g style="fill: #52514e" transform="translate(44.79334 229.827994) scale(0.051316 -0.051316)">
       <defs>
        <path id="LMRoman17-Regular-45" d="M 3885 1615 
L 3770 1615 
C 3629 676 3546 166 2419 166 
L 1530 166 
C 1274 166 1261 197 1261 414 
L 1261 2176 
L 1862 2176 
C 2464 2176 2522 1960 2522 1430 
L 2637 1430 
L 2637 3081 
L 2522 3081 
C 2522 2557 2464 2342 1862 2342 
L 1261 2342 
L 1261 3913 
C 1261 4128 1274 4160 1530 4160 
L 2406 4160 
C 3398 4160 3514 3769 3603 2929 
L 3718 2929 
L 3565 4325 
L 326 4325 
L 326 4160 
C 768 4160 838 4160 838 3874 
L 838 451 
C 838 166 768 166 326 166 
L 326 0 
L 3654 0 
L 3885 1615 
z
" transform="scale(0.015625)"/>
        <path id="LMRoman17-Regular-75" d="M 3091 -63 
L 3091 128 
C 2714 128 2656 166 2656 473 
L 2656 2763 
L 1882 2693 
L 1882 2528 
C 2259 2528 2317 2489 2317 2186 
L 2317 1032 
C 2317 500 2029 38 1555 38 
C 1030 38 986 348 986 678 
L 986 2763 
L 211 2693 
L 211 2528 
C 467 2528 640 2528 646 2274 
L 646 1058 
C 646 633 646 361 813 183 
C 896 101 1056 -64 1517 -64 
C 2061 -64 2272 377 2323 506 
L 2330 506 
L 2330 -63 
L 3091 -63 
z
" transform="scale(0.015625)"/>
        <path id="LMRoman17-Regular-73" d="M 2131 784 
C 2131 1112 1958 1285 1875 1362 
C 1683 1561 1459 1606 1190 1657 
C 838 1735 390 1825 390 2217 
C 390 2383 480 2737 1126 2737 
C 1811 2737 1850 2094 1862 1888 
C 1869 1856 1901 1849 1920 1849 
C 1978 1849 1978 1869 1978 1978 
L 1978 2697 
C 1978 2813 1971 2819 1933 2819 
C 1907 2819 1901 2813 1824 2717 
C 1805 2691 1747 2626 1728 2601 
C 1523 2819 1235 2819 1126 2819 
C 416 2819 160 2447 160 2076 
C 160 1498 813 1365 998 1325 
C 1402 1243 1542 1217 1677 1101 
C 1760 1025 1901 884 1901 654 
C 1901 384 1747 38 1158 38 
C 602 38 403 460 288 1021 
C 269 1110 269 1117 218 1117 
C 166 1117 160 1110 160 983 
L 160 63 
C 160 -51 166 -58 205 -58 
C 237 -58 243 -51 275 0 
L 448 276 
C 576 103 800 -64 1158 -64 
C 1792 -64 2131 283 2131 784 
z
" transform="scale(0.015625)"/>
        <path id="LMRoman17-Regular-6b" d="M 3040 0 
L 3040 153 
C 2739 153 2669 210 2477 491 
L 1670 1673 
C 1664 1686 1632 1724 1632 1743 
L 2144 2222 
C 2509 2528 2739 2560 2906 2560 
L 2906 2733 
C 2867 2733 2848 2720 2848 2720 
L 2534 2720 
C 2355 2720 2080 2720 1907 2733 
L 1907 2566 
C 1997 2559 2061 2508 2061 2419 
C 2061 2291 1926 2170 1926 2170 
L 960 1289 
L 960 4396 
L 198 4326 
L 198 4160 
C 576 4160 634 4122 634 3817 
L 634 426 
C 634 184 608 153 198 153 
L 198 -13 
C 352 0 634 0 794 0 
C 954 0 1235 0 1389 -13 
L 1389 153 
C 979 153 954 178 954 428 
L 954 1130 
L 1395 1532 
L 2042 574 
C 2118 459 2182 369 2182 286 
C 2182 172 2067 153 1990 153 
L 1990 -13 
C 2144 0 2419 0 2579 0 
L 3040 0 
z
" transform="scale(0.015625)"/>
        <path id="LMRoman17-Regular-61" d="M 2874 567 
L 2874 920 
L 2758 920 
L 2758 562 
C 2758 178 2586 128 2502 128 
C 2240 128 2240 458 2240 738 
L 2240 1653 
C 2240 2072 2240 2294 1971 2543 
C 1734 2752 1459 2816 1242 2816 
C 736 2816 371 2407 371 1971 
C 371 1728 563 1728 602 1728 
C 685 1728 832 1778 832 1954 
C 832 2112 710 2181 602 2181 
C 576 2181 544 2174 525 2168 
C 659 2592 1005 2714 1229 2714 
C 1549 2714 1901 2429 1901 1885 
L 1901 1600 
C 1523 1600 1069 1549 710 1357 
C 307 1133 192 813 192 570 
C 192 77 768 -64 1107 -64 
C 1459 -64 1786 139 1926 511 
C 1939 233 2118 -18 2400 -18 
C 2534 -18 2874 70 2874 567 
z
M 1901 870 
C 1901 317 1504 38 1152 38 
C 832 38 582 275 582 570 
C 582 761 666 1100 1037 1305 
C 1344 1478 1696 1504 1901 1504 
L 1901 870 
z
" transform="scale(0.015625)"/>
        <path id="LMRoman17-Regular-64" d="M 3066 -63 
L 3066 128 
C 2688 128 2630 166 2630 473 
L 2630 4396 
L 1869 4326 
L 1869 4160 
C 2246 4160 2304 4122 2304 3820 
L 2304 2345 
C 2278 2377 2016 2790 1498 2790 
C 845 2790 211 2208 211 1364 
C 211 525 806 -64 1434 -64 
C 1978 -64 2259 337 2291 380 
L 2291 -63 
L 3066 -63 
z
M 2291 755 
C 2291 563 2176 390 2029 262 
C 1811 70 1594 38 1472 38 
C 1286 38 621 134 621 1356 
C 621 2612 1363 2688 1530 2688 
C 1824 2688 2061 2522 2208 2291 
C 2291 2157 2291 2138 2291 2023 
L 2291 755 
z
" transform="scale(0.015625)"/>
        <path id="LMRoman17-Regular-69" d="M 1370 -13 
L 1370 153 
C 992 153 979 191 979 420 
L 979 2778 
L 243 2708 
L 243 2542 
C 602 2542 653 2503 653 2198 
L 653 427 
C 653 184 627 153 218 153 
L 218 -13 
C 371 0 646 0 806 0 
C 960 0 1222 0 1370 -13 
z
M 1056 3835 
C 1056 3988 934 4096 800 4096 
C 646 4096 538 3975 538 3835 
C 538 3682 659 3574 794 3574 
C 947 3574 1056 3695 1056 3835 
z
" transform="scale(0.015625)"/>
        <path id="LMRoman17-Regular-32" d="M 2669 989 
L 2554 989 
C 2490 536 2438 459 2413 420 
C 2381 369 1920 369 1830 369 
L 602 369 
L 1824 1597 
C 2214 1967 2669 2402 2669 3035 
C 2669 3790 2067 4224 1395 4224 
C 691 4224 262 3604 262 3030 
C 262 2780 448 2748 525 2748 
C 589 2748 781 2787 781 3010 
C 781 3207 614 3264 525 3264 
C 486 3264 448 3258 422 3245 
C 544 3790 915 4058 1306 4058 
C 1862 4058 2227 3617 2227 3035 
C 2227 2479 1901 2000 1536 1584 
L 262 146 
L 262 0 
L 2515 0 
L 2669 989 
z
" transform="scale(0.015625)"/>
        <path id="LMRoman17-Regular-30" d="M 2688 2025 
C 2688 2416 2682 3080 2413 3591 
C 2176 4039 1798 4198 1466 4198 
C 1158 4198 768 4058 525 3597 
C 269 3118 243 2524 243 2025 
C 243 1661 250 1106 448 619 
C 723 -39 1216 -128 1466 -128 
C 1760 -128 2208 -7 2470 600 
C 2662 1042 2688 1559 2688 2025 
z
M 2278 2096 
C 2278 1680 2278 1169 2202 792 
C 2067 95 1690 -26 1466 -26 
C 1056 -26 813 325 723 812 
C 653 1188 653 1738 653 2096 
C 653 2588 653 2997 736 3387 
C 858 3929 1216 4096 1466 4096 
C 1728 4096 2067 3923 2189 3400 
C 2272 3036 2278 2607 2278 2096 
z
" transform="scale(0.015625)"/>
        <path id="LMRoman17-Regular-35" d="M 2669 1264 
C 2669 2030 2170 2624 1549 2624 
C 1222 2624 947 2503 730 2274 
L 730 3692 
C 794 3666 1056 3584 1325 3584 
C 1920 3584 2246 3911 2432 4100 
C 2432 4157 2432 4192 2394 4192 
C 2394 4192 2374 4192 2323 4163 
C 2099 4058 1837 3973 1517 3973 
C 1325 3973 1037 3999 723 4139 
C 653 4171 634 4171 634 4171 
C 602 4171 595 4164 595 4037 
L 595 2203 
C 595 2089 595 2057 659 2057 
C 691 2057 704 2070 736 2114 
C 941 2401 1222 2522 1542 2522 
C 1766 2522 2246 2382 2246 1289 
C 2246 1085 2246 715 2054 421 
C 1894 159 1645 25 1370 25 
C 947 25 518 320 403 814 
C 429 807 480 795 506 795 
C 589 795 749 840 749 1038 
C 749 1210 627 1280 506 1280 
C 358 1280 262 1190 262 1011 
C 262 454 704 -128 1382 -128 
C 2042 -128 2669 440 2669 1264 
z
" transform="scale(0.015625)"/>
       </defs>
       <use xlink:href="#LMRoman17-Regular-45" transform="scale(0.996264)"/>
       <use xlink:href="#LMRoman17-Regular-75" transform="translate(62.583549 0) scale(0.996264)"/>
       <use xlink:href="#LMRoman17-Regular-73" transform="translate(113.480637 0) scale(0.996264)"/>
       <use xlink:href="#LMRoman17-Regular-6b" transform="translate(149.283874 0) scale(0.996264)"/>
       <use xlink:href="#LMRoman17-Regular-61" transform="translate(197.575088 0) scale(0.996264)"/>
       <use xlink:href="#LMRoman17-Regular-64" transform="translate(243.266036 0) scale(0.996264)"/>
       <use xlink:href="#LMRoman17-Regular-69" transform="translate(294.163124 0) scale(0.996264)"/>
       <use xlink:href="#LMRoman17-Regular-32" transform="translate(349.111289 0) scale(0.996264)"/>
       <use xlink:href="#LMRoman17-Regular-30" transform="translate(394.802237 0) scale(0.996264)"/>
       <use xlink:href="#LMRoman17-Regular-32" transform="translate(440.493185 0) scale(0.996264)"/>
       <use xlink:href="#LMRoman17-Regular-35" transform="translate(486.184134 0) scale(0.996264)"/>
      </g>
     </g>
    </g>
    <g id="xtick_2">
     <g id="line2d_7">
      <path d="M 124.397943 219.306106 
L 124.397943 17.504506 
" clip-path="url(#p94370af1c7)" style="fill: none; stroke: #e6e5e1; stroke-width: 0.6; stroke-linecap: square"/>
     </g>
     <g id="line2d_8">
      <g>
       <use xlink:href="#m7f6b41a06c" x="124.397943" y="219.306106" style="fill: #52514e; stroke: #52514e; stroke-width: 0.8"/>
      </g>
     </g>
     <g id="text_2">
      <!-- Común a -->
      <g style="fill: #52514e" transform="translate(110.711451 229.827994) scale(0.051316 -0.051316)">
       <defs>
        <path id="LMRoman17-Regular-43" d="M 3974 1461 
C 3974 1524 3974 1550 3917 1550 
C 3866 1550 3866 1531 3859 1474 
C 3808 585 3168 38 2477 38 
C 1824 38 781 495 781 2147 
C 781 3805 1843 4250 2464 4250 
C 3187 4250 3712 3628 3834 2745 
C 3846 2668 3846 2655 3904 2655 
C 3974 2655 3974 2668 3974 2783 
L 3974 4289 
C 3974 4403 3968 4410 3930 4410 
C 3904 4410 3898 4403 3853 4327 
L 3571 3792 
C 3258 4187 2874 4416 2381 4416 
C 1286 4416 294 3456 294 2148 
C 294 826 1286 -128 2387 -128 
C 3366 -128 3974 730 3974 1461 
z
" transform="scale(0.015625)"/>
        <path id="LMRoman17-Regular-6f" d="M 2758 1356 
C 2758 2176 2163 2816 1466 2816 
C 768 2816 173 2176 173 1356 
C 173 551 768 -64 1466 -64 
C 2163 -64 2758 551 2758 1356 
z
M 2349 1408 
C 2349 1158 2336 775 2163 467 
C 1984 173 1709 51 1466 51 
C 1165 51 909 230 762 480 
C 602 767 582 1126 582 1408 
C 582 1677 595 2010 762 2298 
C 890 2509 1139 2714 1466 2714 
C 1754 2714 1997 2554 2150 2330 
C 2349 2029 2349 1607 2349 1408 
z
" transform="scale(0.015625)"/>
        <path id="LMRoman17-Regular-6d" d="M 4762 -13 
L 4762 153 
C 4352 153 4326 178 4326 428 
L 4326 1933 
C 4326 2252 4269 2790 3507 2790 
C 3072 2790 2771 2496 2656 2151 
L 2650 2151 
C 2573 2676 2195 2790 1837 2790 
C 1331 2790 1069 2400 973 2144 
L 966 2144 
L 966 2790 
L 211 2720 
L 211 2554 
C 589 2554 646 2515 646 2208 
L 646 428 
C 646 184 621 153 211 153 
L 211 -13 
C 365 0 646 0 813 0 
C 979 0 1267 0 1421 -13 
L 1421 153 
C 1011 153 986 178 986 428 
L 986 1658 
C 986 2247 1344 2688 1792 2688 
C 2266 2688 2317 2266 2317 1958 
L 2317 428 
C 2317 184 2291 153 1882 153 
L 1882 -13 
C 2035 0 2317 0 2483 0 
C 2650 0 2938 0 3091 -13 
L 3091 153 
C 2682 153 2656 178 2656 428 
L 2656 1658 
C 2656 2247 3014 2688 3462 2688 
C 3936 2688 3987 2266 3987 1958 
L 3987 428 
C 3987 184 3962 153 3552 153 
L 3552 -13 
C 3706 0 3987 0 4154 0 
C 4320 0 4608 0 4762 -13 
z
" transform="scale(0.015625)"/>
        <path id="LMRoman17-Regular-fa" d="M 3091 -63 
L 3091 128 
C 2714 128 2656 166 2656 474 
L 2656 2765 
L 1882 2694 
L 1882 2528 
C 2259 2528 2317 2489 2317 2186 
L 2317 1032 
C 2317 500 2029 38 1555 38 
C 1030 38 986 349 986 678 
L 986 2765 
L 211 2694 
L 211 2528 
C 467 2528 640 2528 646 2274 
L 646 1058 
C 646 633 646 361 813 183 
C 896 101 1056 -64 1517 -64 
C 2061 -64 2272 377 2323 506 
L 2330 506 
L 2330 -63 
L 3091 -63 
z
M 2374 4243 
C 2374 4339 2291 4416 2202 4416 
C 2125 4416 2099 4384 2035 4307 
L 1312 3385 
C 1267 3327 1267 3314 1267 3314 
L 1338 3238 
L 2278 4089 
C 2355 4160 2374 4173 2374 4243 
z
" transform="scale(0.015625)"/>
        <path id="LMRoman17-Regular-6e" d="M 3091 -13 
L 3091 153 
C 2682 153 2656 178 2656 428 
L 2656 1933 
C 2656 2259 2592 2790 1837 2790 
C 1331 2790 1069 2400 973 2144 
L 966 2144 
L 966 2790 
L 211 2720 
L 211 2554 
C 589 2554 646 2515 646 2208 
L 646 428 
C 646 184 621 153 211 153 
L 211 -13 
C 365 0 646 0 813 0 
C 979 0 1267 0 1421 -13 
L 1421 153 
C 1011 153 986 178 986 428 
L 986 1658 
C 986 2247 1344 2688 1792 2688 
C 2266 2688 2317 2266 2317 1958 
L 2317 428 
C 2317 184 2291 153 1882 153 
L 1882 -13 
C 2035 0 2317 0 2483 0 
C 2650 0 2938 0 3091 -13 
z
" transform="scale(0.015625)"/>
       </defs>
       <use xlink:href="#LMRoman17-Regular-43" transform="scale(0.996264)"/>
       <use xlink:href="#LMRoman17-Regular-6f" transform="translate(66.509789 0) scale(0.996264)"/>
       <use xlink:href="#LMRoman17-Regular-6d" transform="translate(112.200738 0) scale(0.996264)"/>
       <use xlink:href="#LMRoman17-Regular-fa" transform="translate(186.520443 0) scale(0.996264)"/>
       <use xlink:href="#LMRoman17-Regular-6e" transform="translate(237.41753 0) scale(0.996264)"/>
       <use xlink:href="#LMRoman17-Regular-61" transform="translate(318.390767 0) scale(0.996264)"/>
      </g>
      <!-- las nueve -->
      <g style="fill: #52514e" transform="translate(110.409605 235.048335) scale(0.051316 -0.051316)">
       <defs>
        <path id="LMRoman17-Regular-6c" d="M 1414 -13 
L 1414 153 
C 1005 153 979 178 979 426 
L 979 4396 
L 218 4326 
L 218 4160 
C 595 4160 653 4122 653 3817 
L 653 426 
C 653 184 627 153 218 153 
L 218 -13 
C 371 0 653 0 813 0 
C 979 0 1261 0 1414 -13 
z
" transform="scale(0.015625)"/>
        <path id="LMRoman17-Regular-65" d="M 2464 1576 
C 2464 2238 2118 2816 1389 2816 
C 710 2816 173 2169 173 1383 
C 173 551 781 -64 1459 -64 
C 2176 -64 2458 606 2458 739 
C 2458 784 2406 784 2406 784 
C 2362 784 2355 771 2330 695 
C 2189 265 1837 51 1504 51 
C 1229 51 954 203 781 480 
C 582 803 582 1176 582 1472 
L 2438 1472 
C 2464 1498 2464 1511 2464 1576 
z
M 2118 1568 
L 589 1568 
C 634 2505 1126 2714 1382 2714 
C 1818 2714 2112 2297 2118 1568 
z
" transform="scale(0.015625)"/>
        <path id="LMRoman17-Regular-76" d="M 3034 2560 
L 3034 2719 
L 2630 2719 
C 2496 2719 2285 2719 2157 2725 
L 2157 2560 
C 2317 2547 2406 2471 2406 2305 
C 2406 2248 2406 2235 2368 2146 
L 1664 375 
L 902 2286 
C 864 2369 864 2381 864 2407 
C 864 2560 1075 2560 1171 2560 
L 1171 2725 
C 1018 2719 736 2719 576 2719 
C 403 2719 205 2719 64 2725 
L 64 2560 
C 307 2560 442 2560 518 2362 
L 1446 44 
C 1485 -51 1491 -64 1549 -64 
C 1606 -64 1613 -51 1651 44 
L 2502 2163 
C 2560 2304 2662 2560 3034 2560 
z
" transform="scale(0.015625)"/>
       </defs>
       <use xlink:href="#LMRoman17-Regular-6c" transform="scale(0.996264)"/>
       <use xlink:href="#LMRoman17-Regular-61" transform="translate(24.872016 0) scale(0.996264)"/>
       <use xlink:href="#LMRoman17-Regular-73" transform="translate(70.562965 0) scale(0.996264)"/>
       <use xlink:href="#LMRoman17-Regular-6e" transform="translate(136.442351 0) scale(0.996264)"/>
       <use xlink:href="#LMRoman17-Regular-75" transform="translate(184.736985 0) scale(0.996264)"/>
       <use xlink:href="#LMRoman17-Regular-65" transform="translate(235.634072 0) scale(0.996264)"/>
       <use xlink:href="#LMRoman17-Regular-76" transform="translate(276.118882 0) scale(0.996264)"/>
       <use xlink:href="#LMRoman17-Regular-65" transform="translate(321.807641 0) scale(0.996264)"/>
      </g>
     </g>
    </g>
    <g id="xtick_3">
     <g id="line2d_9">
      <path d="M 183.701409 219.306106 
L 183.701409 17.504506 
" clip-path="url(#p94370af1c7)" style="fill: none; stroke: #e6e5e1; stroke-width: 0.6; stroke-linecap: square"/>
     </g>
     <g id="line2d_10">
      <g>
       <use xlink:href="#m7f6b41a06c" x="183.701409" y="219.306106" style="fill: #52514e; stroke: #52514e; stroke-width: 0.8"/>
      </g>
     </g>
     <g id="text_3">
      <!-- Elección -->
      <g style="fill: #52514e" transform="translate(170.99823 229.827994) scale(0.051316 -0.051316)">
       <defs>
        <path id="LMRoman17-Regular-63" d="M 2458 748 
C 2458 774 2451 793 2406 793 
C 2362 793 2355 787 2330 703 
C 2163 180 1798 51 1523 51 
C 1114 51 621 427 621 1369 
C 621 2338 1094 2688 1472 2688 
C 1722 2688 2093 2573 2234 2240 
C 2112 2240 1933 2240 1933 2017 
C 1933 1838 2080 1787 2163 1787 
C 2208 1787 2394 1807 2394 2024 
C 2394 2467 1958 2803 1466 2803 
C 787 2803 211 2178 211 1363 
C 211 516 813 -64 1466 -64 
C 2259 -64 2458 677 2458 748 
z
" transform="scale(0.015625)"/>
        <path id="LMRoman17-Regular-f3" d="M 2758 1356 
C 2758 2176 2163 2816 1466 2816 
C 768 2816 173 2176 173 1356 
C 173 551 768 -64 1466 -64 
C 2163 -64 2758 551 2758 1356 
z
M 2349 1408 
C 2349 1158 2336 775 2163 467 
C 1984 173 1709 51 1466 51 
C 1165 51 909 230 762 480 
C 602 767 582 1126 582 1408 
C 582 1677 595 2010 762 2298 
C 890 2509 1139 2714 1466 2714 
C 1754 2714 1997 2554 2150 2330 
C 2349 2029 2349 1607 2349 1408 
z
M 2208 4246 
C 2208 4340 2125 4416 2035 4416 
C 1958 4416 1933 4384 1869 4309 
L 1146 3401 
C 1101 3345 1101 3332 1101 3332 
L 1171 3257 
L 2112 4095 
C 2189 4164 2208 4177 2208 4246 
z
" transform="scale(0.015625)"/>
       </defs>
       <use xlink:href="#LMRoman17-Regular-45" transform="scale(0.996264)"/>
       <use xlink:href="#LMRoman17-Regular-6c" transform="translate(62.583549 0) scale(0.996264)"/>
       <use xlink:href="#LMRoman17-Regular-65" transform="translate(87.455565 0) scale(0.996264)"/>
       <use xlink:href="#LMRoman17-Regular-63" transform="translate(127.940374 0) scale(0.996264)"/>
       <use xlink:href="#LMRoman17-Regular-63" transform="translate(168.425184 0) scale(0.996264)"/>
       <use xlink:href="#LMRoman17-Regular-69" transform="translate(208.909993 0) scale(0.996264)"/>
       <use xlink:href="#LMRoman17-Regular-f3" transform="translate(233.782009 0) scale(0.996264)"/>
       <use xlink:href="#LMRoman17-Regular-6e" transform="translate(279.472957 0) scale(0.996264)"/>
      </g>
      <!-- retirada -->
      <g style="fill: #52514e" transform="translate(171.559183 235.048335) scale(0.051316 -0.051316)">
       <defs>
        <path id="LMRoman17-Regular-72" d="M 2131 2458 
C 2131 2663 1926 2790 1709 2790 
C 1222 2790 1011 2317 947 2093 
L 941 2093 
L 941 2790 
L 198 2720 
L 198 2554 
C 576 2554 634 2515 634 2208 
L 634 428 
C 634 184 608 153 198 153 
L 198 -13 
C 352 0 646 0 813 0 
C 998 0 1325 0 1498 -13 
L 1498 153 
C 1037 153 960 153 960 440 
L 960 1497 
C 960 2112 1222 2688 1702 2688 
C 1747 2688 1792 2682 1837 2662 
C 1837 2662 1696 2617 1696 2452 
C 1696 2298 1818 2234 1914 2234 
C 1990 2234 2131 2279 2131 2458 
z
" transform="scale(0.015625)"/>
        <path id="LMRoman17-Regular-74" d="M 1965 777 
L 1965 1140 
L 1850 1140 
L 1850 783 
C 1850 344 1677 51 1408 51 
C 1222 51 966 178 966 758 
L 966 2560 
L 1862 2560 
L 1862 2725 
L 966 2725 
L 966 3904 
L 851 3904 
C 838 3245 614 2668 70 2668 
L 70 2560 
L 627 2560 
L 627 771 
C 627 650 627 -64 1370 -64 
C 1747 -64 1965 306 1965 777 
z
" transform="scale(0.015625)"/>
       </defs>
       <use xlink:href="#LMRoman17-Regular-72" transform="scale(0.996264)"/>
       <use xlink:href="#LMRoman17-Regular-65" transform="translate(35.281528 0) scale(0.996264)"/>
       <use xlink:href="#LMRoman17-Regular-74" transform="translate(75.766337 0) scale(0.996264)"/>
       <use xlink:href="#LMRoman17-Regular-69" transform="translate(111.047865 0) scale(0.996264)"/>
       <use xlink:href="#LMRoman17-Regular-72" transform="translate(135.919881 0) scale(0.996264)"/>
       <use xlink:href="#LMRoman17-Regular-61" transform="translate(171.201409 0) scale(0.996264)"/>
       <use xlink:href="#LMRoman17-Regular-64" transform="translate(216.892357 0) scale(0.996264)"/>
       <use xlink:href="#LMRoman17-Regular-61" transform="translate(267.789445 0) scale(0.996264)"/>
      </g>
     </g>
    </g>
    <g id="xtick_4">
     <g id="line2d_11">
      <path d="M 243.004876 219.306106 
L 243.004876 17.504506 
" clip-path="url(#p94370af1c7)" style="fill: none; stroke: #e6e5e1; stroke-width: 0.6; stroke-linecap: square"/>
     </g>
     <g id="line2d_12">
      <g>
       <use xlink:href="#m7f6b41a06c" x="243.004876" y="219.306106" style="fill: #52514e; stroke: #52514e; stroke-width: 0.8"/>
      </g>
     </g>
     <g id="text_4">
      <!-- Promoción -->
      <g style="fill: #52514e" transform="translate(226.698114 229.827994) scale(0.051316 -0.051316)">
       <defs>
        <path id="LMRoman17-Regular-50" d="M 3718 3184 
C 3718 3791 3130 4352 2291 4352 
L 333 4352 
L 333 4186 
C 774 4186 845 4186 845 3899 
L 845 446 
C 845 160 774 160 333 160 
L 333 0 
C 518 0 858 0 1056 0 
C 1254 0 1594 0 1779 0 
L 1779 160 
C 1338 160 1267 160 1267 446 
L 1267 2042 
L 2291 2042 
C 3117 2042 3718 2578 3718 3184 
z
M 3232 3184 
C 3232 2604 2950 2176 2170 2176 
L 1254 2176 
L 1254 3938 
C 1254 4155 1267 4186 1523 4186 
L 2170 4186 
C 2995 4186 3232 3714 3232 3184 
z
" transform="scale(0.015625)"/>
       </defs>
       <use xlink:href="#LMRoman17-Regular-50" transform="scale(0.996264)"/>
       <use xlink:href="#LMRoman17-Regular-72" transform="translate(62.583549 0) scale(0.996264)"/>
       <use xlink:href="#LMRoman17-Regular-6f" transform="translate(97.865077 0) scale(0.996264)"/>
       <use xlink:href="#LMRoman17-Regular-6d" transform="translate(143.556025 0) scale(0.996264)"/>
       <use xlink:href="#LMRoman17-Regular-6f" transform="translate(220.478184 0) scale(0.996264)"/>
       <use xlink:href="#LMRoman17-Regular-63" transform="translate(268.771571 0) scale(0.996264)"/>
       <use xlink:href="#LMRoman17-Regular-69" transform="translate(309.25638 0) scale(0.996264)"/>
       <use xlink:href="#LMRoman17-Regular-f3" transform="translate(334.128397 0) scale(0.996264)"/>
       <use xlink:href="#LMRoman17-Regular-6e" transform="translate(379.819345 0) scale(0.996264)"/>
      </g>
      <!-- (PISA) -->
      <g style="fill: #52514e" transform="translate(232.247433 235.423229) scale(0.051316 -0.051316)">
       <defs>
        <path id="LMRoman17-Regular-28" d="M 1958 -1561 
C 1958 -1561 1958 -1542 1939 -1523 
C 1645 -1224 858 -407 858 1581 
C 858 3569 1632 4379 1946 4697 
C 1946 4697 1958 4717 1958 4736 
C 1958 4755 1939 4768 1914 4768 
C 1843 4768 1299 4296 986 3594 
C 666 2887 576 2199 576 1588 
C 576 1128 621 351 1005 -471 
C 1312 -1135 1837 -1600 1914 -1600 
C 1946 -1600 1958 -1587 1958 -1561 
z
" transform="scale(0.015625)"/>
        <path id="LMRoman17-Regular-49" d="M 1798 0 
L 1798 160 
C 1338 160 1261 160 1261 447 
L 1261 3905 
C 1261 4192 1338 4192 1798 4192 
L 1798 4352 
C 1594 4352 1267 4352 1050 4352 
C 832 4352 506 4352 301 4352 
L 301 4192 
C 762 4192 838 4192 838 3905 
L 838 447 
C 838 160 762 160 301 160 
L 301 0 
C 506 0 832 0 1050 0 
C 1267 0 1594 0 1798 0 
z
" transform="scale(0.015625)"/>
        <path id="LMRoman17-Regular-53" d="M 2970 1124 
C 2970 1454 2848 1708 2778 1823 
C 2509 2230 2221 2306 1914 2382 
C 1869 2402 1856 2402 1498 2490 
C 1152 2579 1005 2624 845 2796 
C 666 2992 602 3196 602 3399 
C 602 3812 934 4263 1478 4263 
C 2157 4263 2579 3786 2675 2993 
C 2694 2878 2701 2872 2746 2872 
C 2803 2872 2803 2891 2803 2999 
L 2803 4290 
C 2803 4404 2797 4411 2758 4411 
C 2720 4411 2707 4385 2682 4328 
L 2490 3907 
C 2246 4257 1875 4416 1472 4416 
C 819 4416 294 3901 294 3253 
C 294 3056 339 2776 557 2510 
C 794 2218 1018 2167 1530 2033 
C 1722 1982 2042 1899 2106 1874 
C 2470 1722 2662 1341 2662 985 
C 2662 527 2336 38 1779 38 
C 1094 38 454 419 410 1311 
C 403 1413 397 1419 352 1419 
C 301 1419 294 1413 294 1285 
L 294 -1 
C 294 -115 301 -122 339 -122 
C 384 -122 397 -90 486 108 
C 493 127 493 140 614 381 
C 934 -39 1472 -128 1779 -128 
C 2477 -128 2970 451 2970 1124 
z
" transform="scale(0.015625)"/>
        <path id="LMRoman17-Regular-41" d="M 4282 -13 
L 4282 153 
C 3942 153 3827 153 3744 387 
L 2323 4378 
C 2291 4461 2278 4480 2214 4480 
C 2150 4480 2138 4461 2106 4378 
L 749 566 
C 627 223 371 153 147 153 
L 147 -13 
C 262 0 518 0 640 0 
C 800 0 1056 0 1210 -13 
L 1210 153 
C 909 153 864 361 864 439 
C 864 497 877 530 890 569 
L 1229 1536 
L 2906 1536 
L 3290 442 
C 3322 365 3322 352 3322 327 
C 3322 153 3046 153 2925 153 
L 2925 0 
C 3110 0 3443 0 3642 0 
C 3808 0 4128 0 4282 -13 
z
M 2848 1702 
L 1286 1702 
L 2067 3874 
L 2848 1702 
z
" transform="scale(0.015625)"/>
        <path id="LMRoman17-Regular-29" d="M 1683 1581 
C 1683 2040 1638 2817 1254 3639 
C 947 4303 422 4768 346 4768 
C 326 4768 301 4761 301 4729 
C 301 4729 307 4710 314 4697 
C 621 4378 1402 3568 1402 1584 
C 1402 -407 627 -1217 314 -1537 
C 307 -1549 301 -1568 301 -1568 
C 301 -1600 326 -1600 346 -1600 
C 416 -1600 960 -1128 1274 -426 
C 1594 281 1683 969 1683 1581 
z
" transform="scale(0.015625)"/>
       </defs>
       <use xlink:href="#LMRoman17-Regular-28" transform="scale(0.996264)"/>
       <use xlink:href="#LMRoman17-Regular-50" transform="translate(35.281528 0) scale(0.996264)"/>
       <use xlink:href="#LMRoman17-Regular-49" transform="translate(97.865077 0) scale(0.996264)"/>
       <use xlink:href="#LMRoman17-Regular-53" transform="translate(130.503106 0) scale(0.996264)"/>
       <use xlink:href="#LMRoman17-Regular-41" transform="translate(181.400194 0) scale(0.996264)"/>
       <use xlink:href="#LMRoman17-Regular-29" transform="translate(250.469872 0) scale(0.996264)"/>
      </g>
     </g>
    </g>
    <g id="xtick_5">
     <g id="line2d_13">
      <path d="M 302.308342 219.306106 
L 302.308342 17.504506 
" clip-path="url(#p94370af1c7)" style="fill: none; stroke: #e6e5e1; stroke-width: 0.6; stroke-linecap: square"/>
     </g>
     <g id="line2d_14">
      <g>
       <use xlink:href="#m7f6b41a06c" x="302.308342" y="219.306106" style="fill: #52514e; stroke: #52514e; stroke-width: 0.8"/>
      </g>
     </g>
     <g id="text_5">
      <!-- Sin -->
      <g style="fill: #52514e" transform="translate(297.444402 229.827994) scale(0.051316 -0.051316)">
       <use xlink:href="#LMRoman17-Regular-53" transform="scale(0.996264)"/>
       <use xlink:href="#LMRoman17-Regular-69" transform="translate(50.897088 0) scale(0.996264)"/>
       <use xlink:href="#LMRoman17-Regular-6e" transform="translate(75.769104 0) scale(0.996264)"/>
      </g>
      <!-- identificar -->
      <g style="fill: #52514e" transform="translate(286.723087 235.048335) scale(0.051316 -0.051316)">
       <defs>
        <path id="LMRoman17-Regular-1c" d="M 2989 -13 
L 2989 153 
C 2579 153 2554 178 2554 427 
L 2554 2757 
L 1805 2757 
C 1766 2725 1754 2725 1677 2725 
L 947 2725 
L 947 3469 
C 947 4073 1434 4352 1818 4352 
C 1939 4352 2214 4320 2355 4101 
C 2291 4101 2086 4101 2086 3878 
C 2086 3725 2189 3648 2317 3648 
C 2432 3648 2547 3712 2547 3885 
C 2547 4205 2240 4454 1843 4454 
C 1338 4454 634 4168 634 3469 
L 634 2725 
L 122 2725 
L 122 2560 
L 634 2560 
L 634 427 
C 634 184 608 153 198 153 
L 198 -13 
C 352 0 634 0 794 0 
C 960 0 1242 0 1395 -13 
L 1395 153 
C 986 153 960 178 960 427 
L 960 2560 
L 1901 2560 
C 2176 2560 2227 2502 2227 2222 
L 2227 427 
C 2227 184 2202 153 1792 153 
L 1792 -13 
C 1946 0 2227 0 2387 0 
C 2554 0 2835 0 2989 -13 
z
" transform="scale(0.015625)"/>
       </defs>
       <use xlink:href="#LMRoman17-Regular-69" transform="scale(0.996264)"/>
       <use xlink:href="#LMRoman17-Regular-64" transform="translate(24.872016 0) scale(0.996264)"/>
       <use xlink:href="#LMRoman17-Regular-65" transform="translate(75.769104 0) scale(0.996264)"/>
       <use xlink:href="#LMRoman17-Regular-6e" transform="translate(116.253913 0) scale(0.996264)"/>
       <use xlink:href="#LMRoman17-Regular-74" transform="translate(164.548547 0) scale(0.996264)"/>
       <use xlink:href="#LMRoman17-Regular-69" transform="translate(199.830074 0) scale(0.996264)"/>
       <use xlink:href="#LMRoman17-Regular-1c" transform="translate(224.702091 0) scale(0.996264)"/>
       <use xlink:href="#LMRoman17-Regular-63" transform="translate(274.446123 0) scale(0.996264)"/>
       <use xlink:href="#LMRoman17-Regular-61" transform="translate(314.930932 0) scale(0.996264)"/>
       <use xlink:href="#LMRoman17-Regular-72" transform="translate(360.621881 0) scale(0.996264)"/>
      </g>
     </g>
    </g>
    <g id="xtick_6">
     <g id="line2d_15">
      <path d="M 361.611808 219.306106 
L 361.611808 17.504506 
" clip-path="url(#p94370af1c7)" style="fill: none; stroke: #e6e5e1; stroke-width: 0.6; stroke-linecap: square"/>
     </g>
     <g id="line2d_16">
      <g>
       <use xlink:href="#m7f6b41a06c" x="361.611808" y="219.306106" style="fill: #52514e; stroke: #52514e; stroke-width: 0.8"/>
      </g>
     </g>
     <g id="text_6">
      <!-- Euskadi 2026 -->
      <g style="fill: #52514e" transform="translate(341.310672 229.827994) scale(0.051316 -0.051316)">
       <defs>
        <path id="LMRoman17-Regular-36" d="M 2688 1283 
C 2688 2081 2170 2662 1517 2662 
C 1126 2662 838 2407 678 1960 
L 678 2176 
C 678 3690 1395 4032 1811 4032 
C 1946 4032 2272 4009 2400 3776 
C 2298 3776 2106 3776 2106 3553 
C 2106 3381 2246 3323 2336 3323 
C 2394 3323 2566 3348 2566 3560 
C 2566 3954 2246 4179 1805 4179 
C 1043 4179 243 3390 243 1984 
C 243 253 966 -128 1478 -128 
C 2099 -128 2688 427 2688 1283 
z
M 2253 1289 
C 2253 944 2253 690 2118 434 
C 1978 171 1773 25 1478 25 
C 691 25 691 1200 691 1436 
C 691 1896 909 2560 1504 2560 
C 1613 2560 1926 2560 2138 2120 
C 2253 1870 2253 1609 2253 1289 
z
" transform="scale(0.015625)"/>
       </defs>
       <use xlink:href="#LMRoman17-Regular-45" transform="scale(0.996264)"/>
       <use xlink:href="#LMRoman17-Regular-75" transform="translate(62.583549 0) scale(0.996264)"/>
       <use xlink:href="#LMRoman17-Regular-73" transform="translate(113.480637 0) scale(0.996264)"/>
       <use xlink:href="#LMRoman17-Regular-6b" transform="translate(149.283874 0) scale(0.996264)"/>
       <use xlink:href="#LMRoman17-Regular-61" transform="translate(197.575088 0) scale(0.996264)"/>
       <use xlink:href="#LMRoman17-Regular-64" transform="translate(243.266036 0) scale(0.996264)"/>
       <use xlink:href="#LMRoman17-Regular-69" transform="translate(294.163124 0) scale(0.996264)"/>
       <use xlink:href="#LMRoman17-Regular-32" transform="translate(349.111289 0) scale(0.996264)"/>
       <use xlink:href="#LMRoman17-Regular-30" transform="translate(394.802237 0) scale(0.996264)"/>
       <use xlink:href="#LMRoman17-Regular-32" transform="translate(440.493185 0) scale(0.996264)"/>
       <use xlink:href="#LMRoman17-Regular-36" transform="translate(486.184134 0) scale(0.996264)"/>
      </g>
     </g>
    </g>
   </g>
   <g id="matplotlib.axis_2">
    <g id="ytick_1">
     <g id="line2d_17">
      <path d="M 32.003142 214.902095 
L 394.703142 214.902095 
" clip-path="url(#p94370af1c7)" style="fill: none; stroke: #e6e5e1; stroke-width: 0.6; stroke-linecap: square"/>
     </g>
     <g id="line2d_18">
      <defs>
       <path id="m6921284a93" d="M 0 0 
L -3.5 0 
" style="stroke: #52514e; stroke-width: 0.8"/>
      </defs>
      <g>
       <use xlink:href="#m6921284a93" x="32.003142" y="214.902095" style="fill: #52514e; stroke: #52514e; stroke-width: 0.8"/>
      </g>
     </g>
     <g id="text_7">
      <!-- $\mathdefault{3.5}$ -->
      <g style="fill: #52514e" transform="translate(16.217713 216.565208) scale(0.048465 -0.048465)">
       <defs>
        <path id="LMRoman17-Regular-33" d="M 2720 1085 
C 2720 1707 2208 2157 1600 2227 
C 2086 2328 2554 2756 2554 3329 
C 2554 3820 2048 4179 1472 4179 
C 890 4179 378 3829 378 3329 
C 378 3110 544 3072 627 3072 
C 762 3072 877 3155 877 3321 
C 877 3486 762 3569 627 3569 
C 602 3569 570 3569 544 3557 
C 730 3959 1235 4032 1459 4032 
C 1683 4032 2106 3925 2106 3320 
C 2106 3143 2080 2828 1862 2550 
C 1670 2304 1453 2304 1242 2284 
C 1210 2284 1062 2269 1037 2269 
C 992 2263 966 2257 966 2208 
C 966 2163 973 2157 1101 2157 
L 1414 2157 
C 1984 2157 2234 1662 2234 1090 
C 2234 320 1824 25 1453 25 
C 1114 25 563 194 390 693 
C 422 680 454 680 486 680 
C 640 680 755 782 755 948 
C 755 1133 614 1216 486 1216 
C 378 1216 211 1165 211 926 
C 211 335 787 -128 1466 -128 
C 2176 -128 2720 430 2720 1085 
z
" transform="scale(0.015625)"/>
        <path id="LMMathItalic12-Regular-3a" d="M 1178 307 
C 1178 492 1024 619 870 619 
C 685 619 557 466 557 313 
C 557 128 710 0 864 0 
C 1050 0 1178 153 1178 307 
z
" transform="scale(0.015625)"/>
       </defs>
       <use xlink:href="#LMRoman17-Regular-33" transform="scale(0.996264)"/>
       <use xlink:href="#LMMathItalic12-Regular-3a" transform="translate(45.690948 0) scale(0.996264)"/>
       <use xlink:href="#LMRoman17-Regular-35" transform="translate(72.788125 0) scale(0.996264)"/>
      </g>
     </g>
    </g>
    <g id="ytick_2">
     <g id="line2d_19">
      <path d="M 32.003142 178.201998 
L 394.703142 178.201998 
" clip-path="url(#p94370af1c7)" style="fill: none; stroke: #e6e5e1; stroke-width: 0.6; stroke-linecap: square"/>
     </g>
     <g id="line2d_20">
      <g>
       <use xlink:href="#m6921284a93" x="32.003142" y="178.201998" style="fill: #52514e; stroke: #52514e; stroke-width: 0.8"/>
      </g>
     </g>
     <g id="text_8">
      <!-- $\mathdefault{4.0}$ -->
      <g style="fill: #52514e" transform="translate(16.217713 179.865111) scale(0.048465 -0.048465)">
       <defs>
        <path id="LMRoman17-Regular-34" d="M 2803 1114 
L 2803 1280 
L 2150 1280 
L 2150 4154 
C 2150 4288 2144 4288 2029 4288 
L 128 1280 
L 128 1114 
L 1779 1114 
L 1779 487 
C 1779 255 1766 192 1318 192 
L 1197 192 
L 1197 32 
C 1402 32 1747 32 1965 32 
C 2182 32 2528 32 2733 32 
L 2733 192 
L 2611 192 
C 2163 192 2150 255 2150 487 
L 2150 1114 
L 2803 1114 
z
M 1798 1280 
L 256 1280 
L 1798 3734 
L 1798 1280 
z
" transform="scale(0.015625)"/>
       </defs>
       <use xlink:href="#LMRoman17-Regular-34" transform="scale(0.996264)"/>
       <use xlink:href="#LMMathItalic12-Regular-3a" transform="translate(45.690948 0) scale(0.996264)"/>
       <use xlink:href="#LMRoman17-Regular-30" transform="translate(72.788125 0) scale(0.996264)"/>
      </g>
     </g>
    </g>
    <g id="ytick_3">
     <g id="line2d_21">
      <path d="M 32.003142 141.501901 
L 394.703142 141.501901 
" clip-path="url(#p94370af1c7)" style="fill: none; stroke: #e6e5e1; stroke-width: 0.6; stroke-linecap: square"/>
     </g>
     <g id="line2d_22">
      <g>
       <use xlink:href="#m6921284a93" x="32.003142" y="141.501901" style="fill: #52514e; stroke: #52514e; stroke-width: 0.8"/>
      </g>
     </g>
     <g id="text_9">
      <!-- $\mathdefault{4.5}$ -->
      <g style="fill: #52514e" transform="translate(16.217713 143.165014) scale(0.048465 -0.048465)">
       <use xlink:href="#LMRoman17-Regular-34" transform="scale(0.996264)"/>
       <use xlink:href="#LMMathItalic12-Regular-3a" transform="translate(45.690948 0) scale(0.996264)"/>
       <use xlink:href="#LMRoman17-Regular-35" transform="translate(72.788125 0) scale(0.996264)"/>
      </g>
     </g>
    </g>
    <g id="ytick_4">
     <g id="line2d_23">
      <path d="M 32.003142 104.801804 
L 394.703142 104.801804 
" clip-path="url(#p94370af1c7)" style="fill: none; stroke: #e6e5e1; stroke-width: 0.6; stroke-linecap: square"/>
     </g>
     <g id="line2d_24">
      <g>
       <use xlink:href="#m6921284a93" x="32.003142" y="104.801804" style="fill: #52514e; stroke: #52514e; stroke-width: 0.8"/>
      </g>
     </g>
     <g id="text_10">
      <!-- $\mathdefault{5.0}$ -->
      <g style="fill: #52514e" transform="translate(16.217713 106.464917) scale(0.048465 -0.048465)">
       <use xlink:href="#LMRoman17-Regular-35" transform="scale(0.996264)"/>
       <use xlink:href="#LMMathItalic12-Regular-3a" transform="translate(45.690948 0) scale(0.996264)"/>
       <use xlink:href="#LMRoman17-Regular-30" transform="translate(72.788125 0) scale(0.996264)"/>
      </g>
     </g>
    </g>
    <g id="ytick_5">
     <g id="line2d_25">
      <path d="M 32.003142 68.101707 
L 394.703142 68.101707 
" clip-path="url(#p94370af1c7)" style="fill: none; stroke: #e6e5e1; stroke-width: 0.6; stroke-linecap: square"/>
     </g>
     <g id="line2d_26">
      <g>
       <use xlink:href="#m6921284a93" x="32.003142" y="68.101707" style="fill: #52514e; stroke: #52514e; stroke-width: 0.8"/>
      </g>
     </g>
     <g id="text_11">
      <!-- $\mathdefault{5.5}$ -->
      <g style="fill: #52514e" transform="translate(16.217713 69.76482) scale(0.048465 -0.048465)">
       <use xlink:href="#LMRoman17-Regular-35" transform="scale(0.996264)"/>
       <use xlink:href="#LMMathItalic12-Regular-3a" transform="translate(45.690948 0) scale(0.996264)"/>
       <use xlink:href="#LMRoman17-Regular-35" transform="translate(72.788125 0) scale(0.996264)"/>
      </g>
     </g>
    </g>
    <g id="ytick_6">
     <g id="line2d_27">
      <path d="M 32.003142 31.40161 
L 394.703142 31.40161 
" clip-path="url(#p94370af1c7)" style="fill: none; stroke: #e6e5e1; stroke-width: 0.6; stroke-linecap: square"/>
     </g>
     <g id="line2d_28">
      <g>
       <use xlink:href="#m6921284a93" x="32.003142" y="31.40161" style="fill: #52514e; stroke: #52514e; stroke-width: 0.8"/>
      </g>
     </g>
     <g id="text_12">
      <!-- $\mathdefault{6.0}$ -->
      <g style="fill: #52514e" transform="translate(16.217713 33.064723) scale(0.048465 -0.048465)">
       <use xlink:href="#LMRoman17-Regular-36" transform="scale(0.996264)"/>
       <use xlink:href="#LMMathItalic12-Regular-3a" transform="translate(45.690948 0) scale(0.996264)"/>
       <use xlink:href="#LMRoman17-Regular-30" transform="translate(72.788125 0) scale(0.996264)"/>
      </g>
     </g>
    </g>
    <g id="text_13">
     <!-- Nota media de Física -->
     <g style="fill: #52514e" transform="translate(11.113182 150.762407) rotate(-90) scale(0.057018 -0.057018)">
      <defs>
       <path id="LMRoman17-Regular-4e" d="M 4102 4160 
L 4102 4326 
C 3955 4313 3686 4313 3526 4313 
C 3366 4313 3098 4313 2950 4326 
L 2950 4160 
C 3462 4160 3462 3862 3462 3703 
L 3462 763 
L 1312 4243 
C 1267 4313 1261 4313 1139 4313 
L 326 4313 
L 326 4160 
L 448 4160 
C 704 4160 819 4129 838 4122 
L 838 610 
C 838 451 838 153 326 153 
L 326 -13 
C 474 0 742 0 902 0 
C 1062 0 1331 0 1478 -13 
L 1478 153 
C 966 153 966 451 966 610 
L 966 4033 
C 1011 3995 1011 3982 1056 3919 
L 3430 76 
C 3475 0 3494 0 3526 0 
C 3590 0 3590 19 3590 139 
L 3590 3705 
C 3590 3863 3590 4160 4102 4160 
z
" transform="scale(0.015625)"/>
       <path id="LMRoman17-Regular-46" d="M 3635 2916 
L 3482 4325 
L 326 4325 
L 326 4160 
C 768 4160 838 4160 838 3874 
L 838 446 
C 838 160 768 160 326 160 
L 326 0 
C 512 0 870 0 1069 0 
C 1331 0 1638 0 1901 0 
L 1901 160 
L 1760 160 
C 1274 160 1261 223 1261 452 
L 1261 2075 
L 1837 2075 
C 2432 2075 2490 1865 2490 1332 
L 2605 1332 
L 2605 2987 
L 2490 2987 
C 2490 2450 2432 2240 1837 2240 
L 1261 2240 
L 1261 3911 
C 1261 4128 1274 4160 1530 4160 
L 2355 4160 
C 3322 4160 3430 3765 3520 2916 
L 3635 2916 
z
" transform="scale(0.015625)"/>
       <path id="LMRoman17-Regular-ed" d="M 1370 -13 
L 1370 153 
C 992 153 979 191 979 419 
L 979 2765 
L 243 2694 
L 243 2528 
C 602 2528 653 2489 653 2186 
L 653 425 
C 653 184 627 153 218 153 
L 218 -13 
C 371 0 646 0 806 0 
C 960 0 1222 0 1370 -13 
z
M 1542 4243 
C 1542 4339 1459 4416 1370 4416 
C 1293 4416 1267 4384 1203 4307 
L 480 3385 
C 435 3327 435 3314 435 3314 
L 506 3238 
L 1446 4089 
C 1523 4160 1542 4173 1542 4243 
z
" transform="scale(0.015625)"/>
      </defs>
      <use xlink:href="#LMRoman17-Regular-4e" transform="scale(0.996264)"/>
      <use xlink:href="#LMRoman17-Regular-6f" transform="translate(69.069678 0) scale(0.996264)"/>
      <use xlink:href="#LMRoman17-Regular-74" transform="translate(114.760627 0) scale(0.996264)"/>
      <use xlink:href="#LMRoman17-Regular-61" transform="translate(150.042155 0) scale(0.996264)"/>
      <use xlink:href="#LMRoman17-Regular-6d" transform="translate(225.809252 0) scale(0.996264)"/>
      <use xlink:href="#LMRoman17-Regular-65" transform="translate(302.731411 0) scale(0.996264)"/>
      <use xlink:href="#LMRoman17-Regular-64" transform="translate(343.21622 0) scale(0.996264)"/>
      <use xlink:href="#LMRoman17-Regular-69" transform="translate(394.113307 0) scale(0.996264)"/>
      <use xlink:href="#LMRoman17-Regular-61" transform="translate(418.985324 0) scale(0.996264)"/>
      <use xlink:href="#LMRoman17-Regular-64" transform="translate(494.752421 0) scale(0.996264)"/>
      <use xlink:href="#LMRoman17-Regular-65" transform="translate(545.649508 0) scale(0.996264)"/>
      <use xlink:href="#LMRoman17-Regular-46" transform="translate(616.210466 0) scale(0.996264)"/>
      <use xlink:href="#LMRoman17-Regular-ed" transform="translate(676.193933 0) scale(0.996264)"/>
      <use xlink:href="#LMRoman17-Regular-73" transform="translate(701.065949 0) scale(0.996264)"/>
      <use xlink:href="#LMRoman17-Regular-69" transform="translate(736.869187 0) scale(0.996264)"/>
      <use xlink:href="#LMRoman17-Regular-63" transform="translate(761.741203 0) scale(0.996264)"/>
      <use xlink:href="#LMRoman17-Regular-61" transform="translate(802.226012 0) scale(0.996264)"/>
     </g>
    </g>
   </g>
   <g id="line2d_29">
    <path d="M 32.003142 70.303713 
L 394.703142 70.303713 
" clip-path="url(#p94370af1c7)" style="fill: none; stroke-dasharray: 0.9,1.485; stroke-dashoffset: 0; stroke: #8a8983; stroke-width: 0.9"/>
   </g>
   <g id="line2d_30">
    <path d="M 32.003142 178.936 
L 394.703142 178.936 
" clip-path="url(#p94370af1c7)" style="fill: none; stroke-dasharray: 0.9,1.485; stroke-dashoffset: 0; stroke: #8a8983; stroke-width: 0.9"/>
   </g>
   <g id="patch_7">
    <path d="M 32.003142 219.306106 
L 32.003142 17.504506 
" style="fill: none; stroke: #e6e5e1; stroke-width: 0.8; stroke-linejoin: miter; stroke-linecap: square"/>
   </g>
   <g id="patch_8">
    <path d="M 32.003142 219.306106 
L 394.703142 219.306106 
" style="fill: none; stroke: #e6e5e1; stroke-width: 0.8; stroke-linejoin: miter; stroke-linecap: square"/>
   </g>
   <g id="line2d_31">
    <path d="M 48.489506 70.303713 
L 81.699447 70.303713 
" clip-path="url(#p94370af1c7)" style="fill: none; stroke: #52514e; stroke-width: 5"/>
   </g>
   <g id="text_14">
    <!-- 5.47 -->
    <g style="fill: #0b0b0b" transform="translate(58.888113 62.963693) scale(0.057018 -0.057018)">
     <defs>
      <path id="LMRoman17-Regular-2e" d="M 1062 261 
C 1062 420 934 522 800 522 
C 672 522 538 420 538 261 
C 538 102 666 0 800 0 
C 928 0 1062 102 1062 261 
z
" transform="scale(0.015625)"/>
      <path id="LMRoman17-Regular-37" d="M 2886 3941 
L 2886 4081 
L 1382 4081 
C 634 4081 621 4165 595 4288 
L 480 4288 
L 294 3094 
L 410 3094 
C 429 3215 474 3540 550 3661 
C 589 3712 1062 3712 1171 3712 
L 2579 3712 
L 1869 2661 
C 1395 1954 1069 999 1069 165 
C 1069 89 1069 -128 1299 -128 
C 1530 -128 1530 89 1530 171 
L 1530 465 
C 1530 1508 1709 2196 2003 2636 
L 2886 3941 
z
" transform="scale(0.015625)"/>
     </defs>
     <use xlink:href="#LMRoman17-Regular-35" transform="scale(0.996264)"/>
     <use xlink:href="#LMRoman17-Regular-2e" transform="translate(45.690948 0) scale(0.996264)"/>
     <use xlink:href="#LMRoman17-Regular-34" transform="translate(70.562965 0) scale(0.996264)"/>
     <use xlink:href="#LMRoman17-Regular-37" transform="translate(116.253913 0) scale(0.996264)"/>
    </g>
   </g>
   <g id="text_15">
    <!-- $+$0.17 -->
    <g style="fill: #0b0b0b" transform="translate(115.028651 65.423286) scale(0.054167 -0.054167)">
     <defs>
      <path id="LMRoman17-Regular-2b" d="M 4307 1580 
C 4307 1695 4205 1695 4109 1695 
L 2413 1695 
L 2413 3386 
C 2413 3475 2413 3584 2304 3584 
C 2189 3584 2189 3482 2189 3386 
L 2189 1695 
L 493 1695 
C 403 1695 294 1695 294 1587 
C 294 1472 397 1472 493 1472 
L 2189 1472 
L 2189 -218 
C 2189 -307 2189 -416 2298 -416 
C 2413 -416 2413 -314 2413 -218 
L 2413 1472 
L 4109 1472 
C 4198 1472 4307 1472 4307 1580 
z
" transform="scale(0.015625)"/>
      <path id="LMRoman17-Regular-31" d="M 2458 0 
L 2458 160 
L 2266 160 
C 1715 160 1702 230 1702 458 
L 1702 4058 
C 1702 4192 1696 4192 1606 4192 
C 1357 3916 979 3827 621 3827 
C 602 3827 570 3827 563 3808 
C 557 3795 557 3782 557 3648 
C 755 3648 1088 3686 1344 3839 
L 1344 461 
C 1344 236 1331 160 781 160 
L 589 160 
L 589 0 
L 1523 0 
L 2458 0 
z
" transform="scale(0.015625)"/>
     </defs>
     <use xlink:href="#LMRoman17-Regular-2b" transform="scale(0.996264)"/>
     <use xlink:href="#LMRoman17-Regular-30" transform="translate(71.71602 0) scale(0.996264)"/>
     <use xlink:href="#LMRoman17-Regular-2e" transform="translate(117.406968 0) scale(0.996264)"/>
     <use xlink:href="#LMRoman17-Regular-31" transform="translate(142.278984 0) scale(0.996264)"/>
     <use xlink:href="#LMRoman17-Regular-37" transform="translate(187.969933 0) scale(0.996264)"/>
    </g>
   </g>
   <g id="text_16">
    <!-- $-$0.20 -->
    <g style="fill: #0b0b0b" transform="translate(174.182243 66.426918) scale(0.054167 -0.054167)">
     <defs>
      <path id="LMMathSymbols10-Regular-0" d="M 4442 1600 
C 4442 1728 4320 1728 4230 1728 
L 742 1728 
C 653 1728 531 1728 531 1600 
C 531 1472 653 1472 742 1472 
L 4230 1472 
C 4320 1472 4442 1472 4442 1600 
z
" transform="scale(0.015625)"/>
     </defs>
     <use xlink:href="#LMMathSymbols10-Regular-0" transform="scale(0.996264)"/>
     <use xlink:href="#LMRoman17-Regular-30" transform="translate(77.487468 0) scale(0.996264)"/>
     <use xlink:href="#LMRoman17-Regular-2e" transform="translate(123.178416 0) scale(0.996264)"/>
     <use xlink:href="#LMRoman17-Regular-32" transform="translate(148.050432 0) scale(0.996264)"/>
     <use xlink:href="#LMRoman17-Regular-30" transform="translate(193.741381 0) scale(0.996264)"/>
    </g>
   </g>
   <g id="text_17">
    <!-- $-$0.12 -->
    <g style="fill: #0b0b0b" transform="translate(233.485709 77.963174) scale(0.054167 -0.054167)">
     <use xlink:href="#LMMathSymbols10-Regular-0" transform="scale(0.996264)"/>
     <use xlink:href="#LMRoman17-Regular-30" transform="translate(77.487468 0) scale(0.996264)"/>
     <use xlink:href="#LMRoman17-Regular-2e" transform="translate(123.178416 0) scale(0.996264)"/>
     <use xlink:href="#LMRoman17-Regular-31" transform="translate(148.050432 0) scale(0.996264)"/>
     <use xlink:href="#LMRoman17-Regular-32" transform="translate(193.741381 0) scale(0.996264)"/>
    </g>
   </g>
   <g id="text_18">
    <!-- $-$1.33 -->
    <g style="fill: #ffffff" transform="translate(292.789176 131.275686) scale(0.054167 -0.054167)">
     <use xlink:href="#LMMathSymbols10-Regular-0" transform="scale(0.996264)"/>
     <use xlink:href="#LMRoman17-Regular-31" transform="translate(77.487468 0) scale(0.996264)"/>
     <use xlink:href="#LMRoman17-Regular-2e" transform="translate(123.178416 0) scale(0.996264)"/>
     <use xlink:href="#LMRoman17-Regular-33" transform="translate(148.050432 0) scale(0.996264)"/>
     <use xlink:href="#LMRoman17-Regular-33" transform="translate(193.741381 0) scale(0.996264)"/>
    </g>
   </g>
   <g id="line2d_32">
    <path d="M 345.006838 178.936 
L 378.216779 178.936 
" clip-path="url(#p94370af1c7)" style="fill: none; stroke: #52514e; stroke-width: 5"/>
   </g>
   <g id="text_19">
    <!-- 3.99 -->
    <g style="fill: #0b0b0b" transform="translate(355.405445 171.59598) scale(0.057018 -0.057018)">
     <defs>
      <path id="LMRoman17-Regular-39" d="M 2688 2073 
C 2688 3817 1971 4179 1485 4179 
C 851 4179 243 3628 243 2778 
C 243 1991 762 1408 1414 1408 
C 1952 1408 2189 1903 2253 2112 
L 2253 1864 
C 2253 464 1670 31 1190 31 
C 1043 31 685 31 538 294 
C 704 268 826 357 826 518 
C 826 692 685 749 595 749 
C 538 749 365 723 365 506 
C 365 71 742 -128 1203 -128 
C 1939 -128 2688 674 2688 2073 
z
M 2240 2632 
C 2240 2182 2035 1510 1427 1510 
C 1254 1510 1011 1542 813 1922 
C 678 2169 678 2461 678 2771 
C 678 3146 678 3405 858 3684 
C 947 3817 1114 4032 1485 4032 
C 2240 4032 2240 2885 2240 2632 
z
" transform="scale(0.015625)"/>
     </defs>
     <use xlink:href="#LMRoman17-Regular-33" transform="scale(0.996264)"/>
     <use xlink:href="#LMRoman17-Regular-2e" transform="translate(45.690948 0) scale(0.996264)"/>
     <use xlink:href="#LMRoman17-Regular-39" transform="translate(70.562965 0) scale(0.996264)"/>
     <use xlink:href="#LMRoman17-Regular-39" transform="translate(116.253913 0) scale(0.996264)"/>
    </g>
   </g>
   <g id="text_20">
    <!-- Específicamente vasco: $-$1.65.  Cuantificado: 0.31.  Sin atribuir: 1.33 (81 \%). -->
    <g style="fill: #e34948" transform="translate(94.74621 33.652549) scale(0.051316 -0.051316)">
     <defs>
      <path id="LMRoman17-Regular-70" d="M 3053 1388 
C 3053 2191 2496 2802 1837 2802 
C 1453 2802 1139 2592 960 2338 
L 960 2802 
L 198 2732 
L 198 2567 
C 576 2567 634 2528 634 2223 
L 634 -789 
C 634 -1031 608 -1063 198 -1063 
L 198 -1228 
C 352 -1216 634 -1216 800 -1216 
C 966 -1216 1254 -1216 1408 -1228 
L 1408 -1063 
C 998 -1063 973 -1037 973 -789 
L 973 402 
C 1158 134 1427 -38 1766 -38 
C 2406 -38 3053 523 3053 1388 
z
M 2643 1382 
C 2643 656 2234 64 1728 64 
C 1498 64 1248 172 1056 472 
C 973 612 973 650 973 752 
L 973 2012 
C 973 2102 973 2235 1222 2471 
C 1254 2497 1472 2688 1792 2688 
C 2259 2688 2643 2108 2643 1382 
z
" transform="scale(0.015625)"/>
      <path id="LMRoman17-Regular-3a" d="M 1062 2491 
C 1062 2650 934 2752 800 2752 
C 672 2752 538 2650 538 2491 
C 538 2332 666 2230 800 2230 
C 928 2230 1062 2332 1062 2491 
z
M 1062 261 
C 1062 420 934 522 800 522 
C 672 522 538 420 538 261 
C 538 102 666 0 800 0 
C 928 0 1062 102 1062 261 
z
" transform="scale(0.015625)"/>
      <path id="LMRoman17-Regular-62" d="M 3053 1370 
C 3053 2188 2477 2790 1830 2790 
C 1434 2790 1152 2579 960 2330 
L 960 4396 
L 198 4326 
L 198 4160 
C 576 4160 634 4122 634 3817 
L 634 -13 
L 749 -13 
L 934 441 
C 1120 141 1395 -64 1766 -64 
C 2406 -64 3053 500 3053 1370 
z
M 2643 1376 
C 2643 108 1888 38 1734 38 
C 1536 38 1248 114 1043 486 
C 973 608 973 621 973 735 
L 973 2004 
C 973 2118 973 2138 1062 2272 
C 1312 2657 1670 2688 1792 2688 
C 1984 2688 2643 2585 2643 1376 
z
" transform="scale(0.015625)"/>
      <path id="LMRoman17-Regular-38" d="M 2720 1011 
C 2720 1590 2330 1858 2074 2029 
C 1984 2092 1933 2124 1741 2264 
C 2144 2468 2554 2773 2554 3263 
C 2554 3842 1990 4179 1472 4179 
C 890 4179 378 3759 378 3180 
C 378 3021 416 2747 666 2505 
C 730 2442 998 2251 1171 2130 
C 883 1983 211 1634 211 934 
C 211 279 838 -128 1459 -128 
C 2144 -128 2720 362 2720 1011 
z
M 2336 3262 
C 2336 2669 1670 2331 1638 2331 
C 1638 2331 1626 2331 1574 2370 
L 902 2822 
C 851 2854 595 3051 595 3351 
C 595 3739 998 4032 1459 4032 
C 1965 4032 2336 3676 2336 3262 
z
M 2483 851 
C 2483 381 2010 25 1472 25 
C 890 25 448 438 448 940 
C 448 1443 838 1862 1280 2060 
L 2080 1519 
C 2176 1449 2483 1240 2483 851 
z
" transform="scale(0.015625)"/>
      <path id="LMRoman17-Regular-25" d="M 4134 4685 
C 4134 4761 4077 4800 4026 4800 
C 3962 4800 3936 4756 3891 4706 
C 3520 4190 3008 4134 2746 4134 
C 2106 4134 1715 4494 1594 4607 
C 1510 4682 1389 4800 1171 4800 
C 736 4800 294 4296 294 3519 
C 294 2743 730 2240 1171 2240 
C 1600 2240 1965 2778 1965 3527 
C 1965 3969 1830 4270 1811 4308 
C 2202 4064 2586 4032 2752 4032 
C 3162 4032 3456 4183 3616 4289 
L 3622 4283 
L 858 -84 
C 800 -174 800 -187 800 -206 
C 800 -276 858 -320 915 -320 
C 973 -320 992 -289 1037 -218 
L 4083 4577 
C 4128 4647 4134 4653 4134 4685 
z
M 4640 959 
C 4640 1698 4275 2240 3846 2240 
C 3411 2240 2970 1736 2970 959 
C 2970 183 3405 -320 3846 -320 
C 4275 -320 4640 215 4640 959 
z
M 1850 3519 
C 1850 2845 1530 2342 1178 2342 
C 1011 2342 595 2494 595 3519 
C 595 4551 1011 4698 1178 4698 
C 1530 4698 1850 4194 1850 3519 
z
M 4525 959 
C 4525 285 4205 -218 3853 -218 
C 3686 -218 3270 -66 3270 959 
C 3270 1991 3686 2138 3853 2138 
C 4205 2138 4525 1634 4525 959 
z
" transform="scale(0.015625)"/>
     </defs>
     <use xlink:href="#LMRoman17-Regular-45" transform="scale(0.996264)"/>
     <use xlink:href="#LMRoman17-Regular-73" transform="translate(62.583549 0) scale(0.996264)"/>
     <use xlink:href="#LMRoman17-Regular-70" transform="translate(98.386787 0) scale(0.996264)"/>
     <use xlink:href="#LMRoman17-Regular-65" transform="translate(151.886313 0) scale(0.996264)"/>
     <use xlink:href="#LMRoman17-Regular-63" transform="translate(192.371122 0) scale(0.996264)"/>
     <use xlink:href="#LMRoman17-Regular-ed" transform="translate(232.855931 0) scale(0.996264)"/>
     <use xlink:href="#LMRoman17-Regular-1c" transform="translate(257.727948 0) scale(0.996264)"/>
     <use xlink:href="#LMRoman17-Regular-63" transform="translate(307.47198 0) scale(0.996264)"/>
     <use xlink:href="#LMRoman17-Regular-61" transform="translate(347.956789 0) scale(0.996264)"/>
     <use xlink:href="#LMRoman17-Regular-6d" transform="translate(393.647738 0) scale(0.996264)"/>
     <use xlink:href="#LMRoman17-Regular-65" transform="translate(470.569897 0) scale(0.996264)"/>
     <use xlink:href="#LMRoman17-Regular-6e" transform="translate(511.054706 0) scale(0.996264)"/>
     <use xlink:href="#LMRoman17-Regular-74" transform="translate(559.349339 0) scale(0.996264)"/>
     <use xlink:href="#LMRoman17-Regular-65" transform="translate(594.630867 0) scale(0.996264)"/>
     <use xlink:href="#LMRoman17-Regular-76" transform="translate(665.191825 0) scale(0.996264)"/>
     <use xlink:href="#LMRoman17-Regular-61" transform="translate(708.278222 0) scale(0.996264)"/>
     <use xlink:href="#LMRoman17-Regular-73" transform="translate(753.96917 0) scale(0.996264)"/>
     <use xlink:href="#LMRoman17-Regular-63" transform="translate(789.772408 0) scale(0.996264)"/>
     <use xlink:href="#LMRoman17-Regular-6f" transform="translate(830.257217 0) scale(0.996264)"/>
     <use xlink:href="#LMRoman17-Regular-3a" transform="translate(875.948166 0) scale(0.996264)"/>
     <use xlink:href="#LMMathSymbols10-Regular-0" transform="translate(941.306025 0) scale(0.996264)"/>
     <use xlink:href="#LMRoman17-Regular-31" transform="translate(1018.793492 0) scale(0.996264)"/>
     <use xlink:href="#LMRoman17-Regular-2e" transform="translate(1064.484441 0) scale(0.996264)"/>
     <use xlink:href="#LMRoman17-Regular-36" transform="translate(1089.356457 0) scale(0.996264)"/>
     <use xlink:href="#LMRoman17-Regular-35" transform="translate(1135.047405 0) scale(0.996264)"/>
     <use xlink:href="#LMRoman17-Regular-2e" transform="translate(1180.738354 0) scale(0.996264)"/>
     <use xlink:href="#LMRoman17-Regular-43" transform="translate(1246.096213 0) scale(0.996264)"/>
     <use xlink:href="#LMRoman17-Regular-75" transform="translate(1312.606002 0) scale(0.996264)"/>
     <use xlink:href="#LMRoman17-Regular-61" transform="translate(1363.50309 0) scale(0.996264)"/>
     <use xlink:href="#LMRoman17-Regular-6e" transform="translate(1409.194038 0) scale(0.996264)"/>
     <use xlink:href="#LMRoman17-Regular-74" transform="translate(1457.488672 0) scale(0.996264)"/>
     <use xlink:href="#LMRoman17-Regular-69" transform="translate(1492.7702 0) scale(0.996264)"/>
     <use xlink:href="#LMRoman17-Regular-1c" transform="translate(1517.642216 0) scale(0.996264)"/>
     <use xlink:href="#LMRoman17-Regular-63" transform="translate(1567.386248 0) scale(0.996264)"/>
     <use xlink:href="#LMRoman17-Regular-61" transform="translate(1607.871057 0) scale(0.996264)"/>
     <use xlink:href="#LMRoman17-Regular-64" transform="translate(1653.562006 0) scale(0.996264)"/>
     <use xlink:href="#LMRoman17-Regular-6f" transform="translate(1704.459093 0) scale(0.996264)"/>
     <use xlink:href="#LMRoman17-Regular-3a" transform="translate(1750.150042 0) scale(0.996264)"/>
     <use xlink:href="#LMRoman17-Regular-30" transform="translate(1815.507901 0) scale(0.996264)"/>
     <use xlink:href="#LMRoman17-Regular-2e" transform="translate(1861.198849 0) scale(0.996264)"/>
     <use xlink:href="#LMRoman17-Regular-33" transform="translate(1886.070865 0) scale(0.996264)"/>
     <use xlink:href="#LMRoman17-Regular-31" transform="translate(1931.761814 0) scale(0.996264)"/>
     <use xlink:href="#LMRoman17-Regular-2e" transform="translate(1977.452762 0) scale(0.996264)"/>
     <use xlink:href="#LMRoman17-Regular-53" transform="translate(2042.810621 0) scale(0.996264)"/>
     <use xlink:href="#LMRoman17-Regular-69" transform="translate(2093.707709 0) scale(0.996264)"/>
     <use xlink:href="#LMRoman17-Regular-6e" transform="translate(2118.579725 0) scale(0.996264)"/>
     <use xlink:href="#LMRoman17-Regular-61" transform="translate(2199.552961 0) scale(0.996264)"/>
     <use xlink:href="#LMRoman17-Regular-74" transform="translate(2245.24391 0) scale(0.996264)"/>
     <use xlink:href="#LMRoman17-Regular-72" transform="translate(2280.525437 0) scale(0.996264)"/>
     <use xlink:href="#LMRoman17-Regular-69" transform="translate(2315.806965 0) scale(0.996264)"/>
     <use xlink:href="#LMRoman17-Regular-62" transform="translate(2340.678982 0) scale(0.996264)"/>
     <use xlink:href="#LMRoman17-Regular-75" transform="translate(2391.576069 0) scale(0.996264)"/>
     <use xlink:href="#LMRoman17-Regular-69" transform="translate(2442.473157 0) scale(0.996264)"/>
     <use xlink:href="#LMRoman17-Regular-72" transform="translate(2467.345173 0) scale(0.996264)"/>
     <use xlink:href="#LMRoman17-Regular-3a" transform="translate(2502.626701 0) scale(0.996264)"/>
     <use xlink:href="#LMRoman17-Regular-31" transform="translate(2567.98456 0) scale(0.996264)"/>
     <use xlink:href="#LMRoman17-Regular-2e" transform="translate(2613.675508 0) scale(0.996264)"/>
     <use xlink:href="#LMRoman17-Regular-33" transform="translate(2638.547524 0) scale(0.996264)"/>
     <use xlink:href="#LMRoman17-Regular-33" transform="translate(2684.238473 0) scale(0.996264)"/>
     <use xlink:href="#LMRoman17-Regular-28" transform="translate(2760.00557 0) scale(0.996264)"/>
     <use xlink:href="#LMRoman17-Regular-38" transform="translate(2795.287098 0) scale(0.996264)"/>
     <use xlink:href="#LMRoman17-Regular-31" transform="translate(2840.978046 0) scale(0.996264)"/>
     <use xlink:href="#LMRoman17-Regular-25" transform="translate(2916.745143 0) scale(0.996264)"/>
     <use xlink:href="#LMRoman17-Regular-29" transform="translate(2993.667302 0) scale(0.996264)"/>
     <use xlink:href="#LMRoman17-Regular-2e" transform="translate(3028.94883 0) scale(0.996264)"/>
    </g>
   </g>
   <g id="text_21">
    <!-- \textbf{De qué está hecha la caída de 2026 - - - y cuánto sigue sin atribuir} -->
    <g style="fill: #0b0b0b" transform="translate(32.003142 11.504506) scale(0.062719 -0.062719)">
     <defs>
      <path id="LMRoman12-Bold-44" d="M 5114 2138 
C 5114 3572 4141 4352 2938 4352 
L 243 4352 
L 243 4078 
L 922 4078 
L 922 273 
L 243 273 
L 243 0 
L 2938 0 
C 4166 0 5114 780 5114 2138 
z
M 4243 2144 
C 4243 1402 4147 1073 3923 775 
C 3699 482 3270 273 2694 273 
L 1734 273 
L 1734 4078 
L 2694 4078 
C 3251 4078 3699 3863 3936 3532 
C 4122 3273 4243 2962 4243 2144 
z
" transform="scale(0.015625)"/>
      <path id="LMRoman12-Bold-65" d="M 3078 748 
C 3078 843 2982 843 2944 843 
C 2842 843 2835 824 2797 742 
C 2630 330 2208 197 1901 197 
C 973 197 966 1053 966 1408 
L 2893 1408 
C 3040 1408 3078 1408 3078 1567 
C 3078 1758 3034 2233 2739 2532 
C 2470 2798 2112 2880 1741 2880 
C 742 2880 198 2233 198 1434 
C 198 545 858 -32 1824 -32 
C 2790 -32 3078 640 3078 748 
z
M 2490 1593 
L 966 1593 
C 979 1852 986 2100 1120 2328 
C 1242 2531 1466 2670 1741 2670 
C 2426 2670 2483 1909 2490 1593 
z
" transform="scale(0.015625)"/>
      <path id="LMRoman12-Bold-71" d="M 3770 -1228 
L 3770 -955 
L 3328 -955 
L 3328 2853 
L 3091 2853 
L 2752 2327 
C 2528 2651 2214 2853 1792 2853 
C 909 2853 243 2309 243 1410 
C 243 505 883 -32 1728 -32 
C 1971 -32 2298 19 2630 330 
L 2630 -955 
L 2189 -955 
L 2189 -1228 
C 2336 -1216 2797 -1216 2976 -1216 
C 3155 -1216 3622 -1216 3770 -1228 
z
M 2662 759 
C 2394 259 2016 178 1805 178 
C 1395 178 1011 551 1011 1404 
C 1011 2327 1498 2624 1875 2624 
C 2374 2624 2662 2112 2662 1821 
L 2662 759 
z
" transform="scale(0.015625)"/>
      <path id="LMRoman12-Bold-75" d="M 3840 0 
L 3840 292 
C 3443 292 3398 292 3398 540 
L 3398 2859 
L 2259 2859 
L 2259 2560 
C 2656 2560 2701 2560 2701 2312 
L 2701 1056 
C 2701 569 2413 178 1914 178 
C 1434 178 1408 337 1408 684 
L 1408 2859 
L 269 2859 
L 269 2560 
C 666 2560 710 2560 710 2312 
L 710 794 
C 710 153 1139 -32 1824 -32 
C 1978 -32 2451 -32 2726 496 
L 2733 496 
L 2733 0 
L 3840 0 
z
" transform="scale(0.015625)"/>
      <path id="LMRoman12-Bold-e9" d="M 3078 748 
C 3078 843 2982 843 2944 843 
C 2842 843 2835 824 2797 742 
C 2630 330 2208 197 1901 197 
C 973 197 966 1053 966 1408 
L 2893 1408 
C 3040 1408 3078 1408 3078 1567 
C 3078 1758 3034 2233 2739 2532 
C 2470 2798 2112 2880 1741 2880 
C 742 2880 198 2233 198 1434 
C 198 545 858 -32 1824 -32 
C 2790 -32 3078 640 3078 748 
z
M 2490 1593 
L 966 1593 
C 979 1852 986 2100 1120 2328 
C 1242 2531 1466 2670 1741 2670 
C 2426 2670 2483 1909 2490 1593 
z
M 2554 4098 
C 2554 4289 2374 4480 2182 4480 
C 2035 4480 1946 4372 1907 4327 
L 1184 3460 
L 1357 3250 
L 2323 3785 
C 2406 3830 2554 3913 2554 4098 
z
" transform="scale(0.015625)"/>
      <path id="LMRoman12-Bold-73" d="M 2592 888 
C 2592 1192 2426 1402 2298 1516 
C 2035 1731 1818 1770 1472 1833 
C 1062 1903 678 1973 678 2277 
C 678 2689 1248 2689 1382 2689 
C 2093 2689 2131 2245 2144 2087 
C 2150 2005 2202 2005 2278 2005 
C 2413 2005 2413 2024 2413 2170 
L 2413 2715 
C 2413 2836 2413 2880 2317 2880 
C 2278 2880 2266 2880 2170 2823 
C 2144 2804 2074 2759 2042 2740 
C 1862 2842 1626 2880 1395 2880 
C 1203 2880 243 2880 243 2056 
C 243 1389 1037 1250 1235 1218 
C 1408 1187 1619 1148 1645 1148 
C 1901 1091 2157 932 2157 666 
C 2157 178 1574 178 1440 178 
C 1114 178 710 279 531 896 
C 493 1023 486 1023 378 1023 
C 243 1023 243 1004 243 858 
L 243 132 
C 243 12 243 -32 339 -32 
C 384 -32 397 -32 525 70 
L 691 191 
C 979 -32 1325 -32 1440 -32 
C 1792 -32 2592 44 2592 888 
z
" transform="scale(0.015625)"/>
      <path id="LMRoman12-Bold-74" d="M 2394 795 
L 2394 1133 
L 2125 1133 
L 2125 802 
C 2125 381 1933 197 1734 197 
C 1350 197 1350 624 1350 770 
L 1350 2560 
L 2272 2560 
L 2272 2833 
L 1350 2833 
L 1350 4032 
L 1082 4032 
C 1075 3405 768 2776 134 2776 
L 134 2560 
L 653 2560 
L 653 789 
C 653 114 1178 -32 1638 -32 
C 2112 -32 2394 325 2394 795 
z
" transform="scale(0.015625)"/>
      <path id="LMRoman12-Bold-e1" d="M 3462 145 
C 3462 273 3405 273 3315 273 
C 2912 273 2912 374 2912 522 
L 2912 1898 
C 2912 2484 2445 2879 1542 2879 
C 1184 2879 429 2879 429 2334 
C 429 2061 634 1945 806 1945 
C 998 1945 1184 2079 1184 2323 
C 1184 2445 1139 2559 1030 2630 
C 1242 2688 1395 2688 1517 2688 
C 1952 2688 2214 2445 2214 1919 
L 2214 1663 
C 1203 1663 186 1382 186 676 
C 186 95 928 -32 1370 -32 
C 1862 -32 2176 233 2304 510 
C 2304 274 2304 0 2950 0 
L 3277 0 
C 3411 0 3462 0 3462 145 
z
M 2214 882 
C 2214 291 1677 178 1472 178 
C 1158 178 896 390 896 686 
C 896 1273 1587 1472 2214 1472 
L 2214 882 
z
M 2662 4102 
C 2662 4291 2483 4480 2291 4480 
C 2144 4480 2054 4373 2016 4328 
L 1293 3471 
L 1466 3263 
L 2432 3793 
C 2515 3837 2662 3919 2662 4102 
z
" transform="scale(0.015625)"/>
      <path id="LMRoman12-Bold-68" d="M 3840 -13 
L 3840 260 
L 3398 260 
L 3398 1924 
C 3398 2525 3136 2834 2432 2834 
C 1786 2834 1472 2384 1382 2194 
L 1376 2194 
L 1376 4352 
L 269 4352 
L 269 4053 
C 666 4053 710 4053 710 3807 
L 710 260 
L 269 260 
L 269 -13 
C 416 0 877 0 1056 0 
C 1235 0 1702 0 1850 -13 
L 1850 260 
L 1408 260 
L 1408 1607 
C 1408 2289 1920 2624 2330 2624 
C 2566 2624 2701 2473 2701 1993 
L 2701 260 
L 2259 260 
L 2259 -13 
C 2406 0 2867 0 3046 0 
C 3226 0 3693 0 3840 -13 
z
" transform="scale(0.015625)"/>
      <path id="LMRoman12-Bold-63" d="M 2995 753 
C 2995 829 2925 829 2861 829 
C 2758 829 2752 823 2720 747 
C 2675 625 2502 197 1914 197 
C 1011 197 1011 1166 1011 1453 
C 1011 1829 1018 2664 1856 2664 
C 1901 2664 2278 2664 2278 2632 
C 2278 2632 2272 2618 2259 2612 
C 2240 2593 2157 2496 2157 2334 
C 2157 2064 2374 1954 2534 1954 
C 2669 1954 2912 2039 2912 2346 
C 2912 2880 2176 2880 1830 2880 
C 691 2880 243 2145 243 1414 
C 243 552 851 -32 1792 -32 
C 2797 -32 2995 708 2995 753 
z
" transform="scale(0.015625)"/>
      <path id="LMRoman12-Bold-61" d="M 3462 145 
C 3462 273 3405 273 3315 273 
C 2912 273 2912 374 2912 522 
L 2912 1898 
C 2912 2484 2445 2879 1542 2879 
C 1184 2879 429 2879 429 2334 
C 429 2061 634 1945 806 1945 
C 998 1945 1184 2079 1184 2323 
C 1184 2445 1139 2559 1030 2630 
C 1242 2688 1395 2688 1517 2688 
C 1952 2688 2214 2445 2214 1919 
L 2214 1663 
C 1203 1663 186 1382 186 676 
C 186 95 928 -32 1370 -32 
C 1862 -32 2176 233 2304 510 
C 2304 274 2304 0 2950 0 
L 3277 0 
C 3411 0 3462 0 3462 145 
z
M 2214 882 
C 2214 291 1677 178 1472 178 
C 1158 178 896 390 896 686 
C 896 1273 1587 1472 2214 1472 
L 2214 882 
z
" transform="scale(0.015625)"/>
      <path id="LMRoman12-Bold-6c" d="M 1830 -13 
L 1830 260 
L 1389 260 
L 1389 4352 
L 282 4352 
L 282 4053 
C 678 4053 723 4053 723 3806 
L 723 260 
L 282 260 
L 282 -13 
C 429 0 883 0 1056 0 
C 1229 0 1683 0 1830 -13 
z
" transform="scale(0.015625)"/>
      <path id="LMRoman12-Bold-ed" d="M 1786 -13 
L 1786 260 
L 1389 260 
L 1389 2816 
L 301 2816 
L 301 2517 
C 678 2517 723 2517 723 2270 
L 723 260 
L 282 260 
L 282 -13 
C 429 0 870 0 1043 0 
C 1222 0 1632 0 1786 -13 
z
M 1914 4069 
C 1914 4258 1734 4448 1542 4448 
C 1395 4448 1306 4341 1267 4296 
L 544 3436 
L 717 3227 
L 1683 3758 
C 1766 3803 1914 3885 1914 4069 
z
" transform="scale(0.015625)"/>
      <path id="LMRoman12-Bold-64" d="M 3770 0 
L 3770 292 
C 3373 292 3328 292 3328 540 
L 3328 4352 
L 2221 4352 
L 2221 4053 
C 2618 4053 2662 4053 2662 3816 
L 2662 2575 
C 2522 2696 2240 2880 1798 2880 
C 890 2880 243 2318 243 1424 
C 243 510 877 -32 1728 -32 
C 2080 -32 2381 94 2630 311 
L 2630 0 
L 3770 0 
z
M 2630 661 
C 2362 262 2035 178 1805 178 
C 1011 178 1011 989 1011 1411 
C 1011 1712 1011 2032 1152 2274 
C 1350 2632 1728 2670 1875 2670 
C 2138 2670 2419 2556 2630 2276 
L 2630 661 
z
" transform="scale(0.015625)"/>
      <path id="LMRoman12-Bold-32" d="M 3232 1368 
L 2963 1368 
C 2944 1234 2899 858 2803 795 
C 2752 750 2253 750 2157 750 
L 1165 750 
L 2086 1509 
C 2797 2038 3232 2362 3232 2974 
C 3232 3725 2547 4178 1702 4178 
C 979 4178 358 3770 358 3165 
C 358 2827 634 2732 781 2732 
C 979 2732 1210 2865 1210 3159 
C 1210 3427 1011 3560 813 3586 
C 1069 3879 1408 3904 1542 3904 
C 2131 3904 2413 3427 2413 2968 
C 2413 2471 2074 2013 1811 1739 
L 422 293 
C 358 235 358 223 358 108 
L 358 0 
L 3046 0 
L 3232 1368 
z
" transform="scale(0.015625)"/>
      <path id="LMRoman12-Bold-30" d="M 3309 2038 
C 3309 2648 3309 4178 1798 4178 
C 282 4178 282 2654 282 2038 
C 282 1428 282 -64 1792 -64 
C 3302 -64 3309 1409 3309 2038 
z
M 2541 2114 
C 2541 615 2445 527 2253 336 
C 2125 209 1952 146 1798 146 
C 1594 146 1440 228 1312 362 
C 1152 521 1050 621 1050 2114 
C 1050 2559 1050 2964 1101 3295 
C 1190 3924 1651 3968 1792 3968 
C 1997 3968 2394 3873 2483 3340 
C 2541 3015 2541 2501 2541 2114 
z
" transform="scale(0.015625)"/>
      <path id="LMRoman12-Bold-36" d="M 3290 1325 
C 3290 2217 2669 2688 1907 2688 
C 1779 2688 1370 2688 1114 2147 
L 1114 2320 
C 1114 2709 1133 3106 1312 3450 
C 1453 3719 1779 3968 2195 3968 
C 2317 3968 2547 3949 2701 3789 
C 2458 3764 2355 3585 2355 3412 
C 2355 3181 2528 3034 2733 3034 
C 2899 3034 3110 3143 3110 3424 
C 3110 3807 2854 4197 2182 4197 
C 1382 4197 301 3699 301 2035 
C 301 1607 301 -64 1818 -64 
C 2662 -64 3290 433 3290 1325 
z
M 2477 1331 
C 2477 700 2477 190 1811 190 
C 1402 190 1242 534 1216 585 
C 1126 796 1126 1306 1126 1363 
C 1126 2147 1466 2479 1843 2479 
C 2477 2479 2477 1969 2477 1331 
z
" transform="scale(0.015625)"/>
      <path id="LMRoman12-Bold-16" d="M 7194 1664 
L 7194 1874 
L 0 1874 
L 0 1664 
L 7194 1664 
z
" transform="scale(0.015625)"/>
      <path id="LMRoman12-Bold-79" d="M 3642 2560 
L 3642 2827 
C 3424 2827 3398 2827 3136 2827 
L 2586 2827 
L 2586 2560 
C 2586 2560 2893 2560 2893 2478 
C 2893 2459 2874 2421 2867 2402 
L 2118 805 
L 1299 2560 
L 1651 2560 
L 1651 2833 
C 1498 2827 1062 2827 883 2827 
C 698 2827 320 2827 154 2833 
L 154 2560 
L 563 2560 
L 1747 20 
C 1715 -56 1626 -240 1594 -316 
C 1459 -601 1254 -1038 806 -1038 
C 781 -1038 704 -1038 634 -1000 
C 646 -993 838 -917 838 -676 
C 838 -468 685 -335 493 -335 
C 294 -335 141 -469 141 -684 
C 141 -982 422 -1248 806 -1248 
C 1331 -1248 1677 -779 1805 -500 
L 3168 2421 
C 3206 2509 3232 2560 3642 2560 
z
" transform="scale(0.015625)"/>
      <path id="LMRoman12-Bold-6e" d="M 3840 -13 
L 3840 260 
L 3398 260 
L 3398 1924 
C 3398 2525 3136 2834 2432 2834 
C 1971 2834 1574 2615 1357 2143 
L 1350 2143 
L 1350 2816 
L 269 2816 
L 269 2517 
C 666 2517 710 2517 710 2270 
L 710 260 
L 269 260 
L 269 -13 
C 416 0 877 0 1056 0 
C 1235 0 1702 0 1850 -13 
L 1850 260 
L 1408 260 
L 1408 1607 
C 1408 2289 1920 2624 2330 2624 
C 2566 2624 2701 2473 2701 1993 
L 2701 260 
L 2259 260 
L 2259 -13 
C 2406 0 2867 0 3046 0 
C 3226 0 3693 0 3840 -13 
z
" transform="scale(0.015625)"/>
      <path id="LMRoman12-Bold-6f" d="M 3392 1395 
C 3392 2252 2803 2880 1798 2880 
C 755 2880 198 2220 198 1395 
C 198 565 787 -32 1792 -32 
C 2835 -32 3392 596 3392 1395 
z
M 2624 1459 
C 2624 932 2624 197 1798 197 
C 966 197 966 939 966 1459 
C 966 1757 966 2074 1088 2303 
C 1229 2556 1517 2670 1792 2670 
C 2157 2670 2387 2499 2496 2322 
C 2624 2093 2624 1763 2624 1459 
z
" transform="scale(0.015625)"/>
      <path id="LMRoman12-Bold-69" d="M 1786 -13 
L 1786 260 
L 1389 260 
L 1389 2816 
L 301 2816 
L 301 2517 
C 678 2517 723 2517 723 2270 
L 723 260 
L 282 260 
L 282 -13 
C 429 0 870 0 1043 0 
C 1222 0 1632 0 1786 -13 
z
M 1466 3850 
C 1466 4110 1248 4307 1005 4307 
C 742 4307 538 4098 538 3850 
C 538 3589 755 3392 998 3392 
C 1261 3392 1466 3602 1466 3850 
z
" transform="scale(0.015625)"/>
      <path id="LMRoman12-Bold-67" d="M 3488 2588 
C 3488 2741 3373 2944 3104 2944 
C 2829 2944 2566 2803 2432 2682 
C 2170 2834 1920 2891 1594 2891 
C 710 2891 358 2403 358 1957 
C 358 1760 422 1501 691 1285 
C 582 1161 467 933 467 699 
C 467 420 614 180 749 76 
C 595 39 198 -105 198 -461 
C 198 -830 614 -1248 1792 -1248 
C 2854 -1248 3392 -910 3392 -439 
C 3392 114 3021 295 2861 370 
C 2554 521 2144 521 1581 521 
C 1421 521 1139 521 1107 527 
C 832 574 755 825 755 951 
C 755 1004 762 1104 832 1189 
C 1139 1024 1498 1024 1594 1024 
C 2477 1024 2829 1514 2829 1960 
C 2829 2285 2643 2515 2566 2578 
C 2752 2676 2906 2700 3014 2713 
C 2995 2682 2976 2658 2976 2578 
C 2976 2450 3066 2334 3232 2334 
C 3398 2334 3488 2455 3488 2588 
z
M 2150 1957 
C 2150 1665 2150 1227 1594 1227 
C 1037 1227 1037 1665 1037 1957 
C 1037 2250 1037 2688 1594 2688 
C 2150 2688 2150 2250 2150 1957 
z
M 2867 -467 
C 2867 -685 2643 -1045 1798 -1045 
C 954 -1045 723 -697 723 -461 
C 723 -64 1126 -64 1222 -64 
L 1952 -64 
C 2419 -64 2867 -145 2867 -467 
z
" transform="scale(0.015625)"/>
      <path id="LMRoman12-Bold-72" d="M 2733 2337 
C 2733 2658 2400 2834 2093 2834 
C 1587 2834 1370 2401 1280 2137 
L 1274 2137 
L 1274 2816 
L 224 2816 
L 224 2517 
C 621 2517 666 2517 666 2270 
L 666 260 
L 224 260 
L 224 -13 
C 371 0 851 0 1030 0 
C 1216 0 1734 0 1888 -13 
L 1888 260 
L 1331 260 
L 1331 1411 
C 1331 1619 1376 2624 2125 2624 
C 2035 2555 1990 2448 1990 2336 
C 1990 2079 2202 1972 2362 1972 
C 2522 1972 2733 2079 2733 2337 
z
" transform="scale(0.015625)"/>
      <path id="LMRoman12-Bold-62" d="M 3750 1431 
C 3750 2305 3149 2880 2272 2880 
C 1894 2880 1594 2759 1331 2555 
L 1331 4352 
L 224 4352 
L 224 4053 
C 621 4053 666 4053 666 3816 
L 666 0 
L 934 0 
C 1043 123 1152 247 1254 376 
C 1581 38 1933 -32 2189 -32 
C 3072 -32 3750 504 3750 1431 
z
M 2982 1437 
C 2982 1149 2982 785 2829 548 
C 2630 241 2330 178 2125 178 
C 1690 178 1453 484 1363 625 
L 1363 2248 
C 1587 2555 1920 2670 2189 2670 
C 2982 2670 2982 1859 2982 1437 
z
" transform="scale(0.015625)"/>
     </defs>
     <use xlink:href="#LMRoman12-Bold-44" transform="scale(0.996264)"/>
     <use xlink:href="#LMRoman12-Bold-65" transform="translate(85.902886 0) scale(0.996264)"/>
     <use xlink:href="#LMRoman12-Bold-71" transform="translate(174.404333 0) scale(0.996264)"/>
     <use xlink:href="#LMRoman12-Bold-75" transform="translate(233.557509 0) scale(0.996264)"/>
     <use xlink:href="#LMRoman12-Bold-e9" transform="translate(295.82401 0) scale(0.996264)"/>
     <use xlink:href="#LMRoman12-Bold-65" transform="translate(384.325457 0) scale(0.996264)"/>
     <use xlink:href="#LMRoman12-Bold-73" transform="translate(435.467005 0) scale(0.996264)"/>
     <use xlink:href="#LMRoman12-Bold-74" transform="translate(479.676159 0) scale(0.996264)"/>
     <use xlink:href="#LMRoman12-Bold-e1" transform="translate(523.26271 0) scale(0.996264)"/>
     <use xlink:href="#LMRoman12-Bold-68" transform="translate(615.105798 0) scale(0.996264)"/>
     <use xlink:href="#LMRoman12-Bold-65" transform="translate(677.372299 0) scale(0.996264)"/>
     <use xlink:href="#LMRoman12-Bold-63" transform="translate(728.513846 0) scale(0.996264)"/>
     <use xlink:href="#LMRoman12-Bold-68" transform="translate(775.213722 0) scale(0.996264)"/>
     <use xlink:href="#LMRoman12-Bold-61" transform="translate(837.480222 0) scale(0.996264)"/>
     <use xlink:href="#LMRoman12-Bold-6c" transform="translate(929.323311 0) scale(0.996264)"/>
     <use xlink:href="#LMRoman12-Bold-61" transform="translate(960.456561 0) scale(0.996264)"/>
     <use xlink:href="#LMRoman12-Bold-63" transform="translate(1052.29965 0) scale(0.996264)"/>
     <use xlink:href="#LMRoman12-Bold-61" transform="translate(1102.11285 0) scale(0.996264)"/>
     <use xlink:href="#LMRoman12-Bold-ed" transform="translate(1156.596038 0) scale(0.996264)"/>
     <use xlink:href="#LMRoman12-Bold-64" transform="translate(1187.729288 0) scale(0.996264)"/>
     <use xlink:href="#LMRoman12-Bold-61" transform="translate(1249.995789 0) scale(0.996264)"/>
     <use xlink:href="#LMRoman12-Bold-64" transform="translate(1341.838878 0) scale(0.996264)"/>
     <use xlink:href="#LMRoman12-Bold-65" transform="translate(1404.105378 0) scale(0.996264)"/>
     <use xlink:href="#LMRoman12-Bold-32" transform="translate(1492.606826 0) scale(0.996264)"/>
     <use xlink:href="#LMRoman12-Bold-30" transform="translate(1548.646677 0) scale(0.996264)"/>
     <use xlink:href="#LMRoman12-Bold-32" transform="translate(1604.686527 0) scale(0.996264)"/>
     <use xlink:href="#LMRoman12-Bold-36" transform="translate(1660.726378 0) scale(0.996264)"/>
     <use xlink:href="#LMRoman12-Bold-16" transform="translate(1754.126129 0) scale(0.996264)"/>
     <use xlink:href="#LMRoman12-Bold-79" transform="translate(1903.56573 0) scale(0.996264)"/>
     <use xlink:href="#LMRoman12-Bold-63" transform="translate(2000.078806 0) scale(0.996264)"/>
     <use xlink:href="#LMRoman12-Bold-75" transform="translate(2049.892007 0) scale(0.996264)"/>
     <use xlink:href="#LMRoman12-Bold-e1" transform="translate(2112.158507 0) scale(0.996264)"/>
     <use xlink:href="#LMRoman12-Bold-6e" transform="translate(2166.641695 0) scale(0.996264)"/>
     <use xlink:href="#LMRoman12-Bold-74" transform="translate(2225.794871 0) scale(0.996264)"/>
     <use xlink:href="#LMRoman12-Bold-6f" transform="translate(2269.381421 0) scale(0.996264)"/>
     <use xlink:href="#LMRoman12-Bold-73" transform="translate(2362.781172 0) scale(0.996264)"/>
     <use xlink:href="#LMRoman12-Bold-69" transform="translate(2406.990327 0) scale(0.996264)"/>
     <use xlink:href="#LMRoman12-Bold-67" transform="translate(2438.123577 0) scale(0.996264)"/>
     <use xlink:href="#LMRoman12-Bold-75" transform="translate(2494.163428 0) scale(0.996264)"/>
     <use xlink:href="#LMRoman12-Bold-65" transform="translate(2556.429928 0) scale(0.996264)"/>
     <use xlink:href="#LMRoman12-Bold-73" transform="translate(2644.931376 0) scale(0.996264)"/>
     <use xlink:href="#LMRoman12-Bold-69" transform="translate(2689.140531 0) scale(0.996264)"/>
     <use xlink:href="#LMRoman12-Bold-6e" transform="translate(2720.273781 0) scale(0.996264)"/>
     <use xlink:href="#LMRoman12-Bold-61" transform="translate(2819.900182 0) scale(0.996264)"/>
     <use xlink:href="#LMRoman12-Bold-74" transform="translate(2874.38337 0) scale(0.996264)"/>
     <use xlink:href="#LMRoman12-Bold-72" transform="translate(2917.969921 0) scale(0.996264)"/>
     <use xlink:href="#LMRoman12-Bold-69" transform="translate(2963.748279 0) scale(0.996264)"/>
     <use xlink:href="#LMRoman12-Bold-62" transform="translate(2994.881529 0) scale(0.996264)"/>
     <use xlink:href="#LMRoman12-Bold-75" transform="translate(3057.14803 0) scale(0.996264)"/>
     <use xlink:href="#LMRoman12-Bold-69" transform="translate(3119.414531 0) scale(0.996264)"/>
     <use xlink:href="#LMRoman12-Bold-72" transform="translate(3150.547781 0) scale(0.996264)"/>
    </g>
   </g>
  </g>
 </g>
 <defs>
  <clipPath id="p94370af1c7">
   <rect x="32.003142" y="17.504506" width="362.7" height="201.8016"/>
  </clipPath>
 </defs>
</svg>
