<?xml version="1.0" encoding="utf-8" standalone="no"?>
<!DOCTYPE svg PUBLIC "-//W3C//DTD SVG 1.1//EN"
  "http://www.w3.org/Graphics/SVG/1.1/DTD/svg11.dtd">
<svg xmlns:xlink="http://www.w3.org/1999/xlink" width="580.053477pt" height="312.790797pt" viewBox="0 0 580.053477 312.790797" xmlns="http://www.w3.org/2000/svg" version="1.1">
 <metadata>
  <rdf:RDF xmlns:dc="http://purl.org/dc/elements/1.1/" xmlns:cc="http://creativecommons.org/ns#" xmlns:rdf="http://www.w3.org/1999/02/22-rdf-syntax-ns#">
   <cc:Work>
    <dc:type rdf:resource="http://purl.org/dc/dcmitype/StillImage"/>
    <dc:date>2026-09-18T17:37:31.573056</dc:date>
    <dc:format>image/svg+xml</dc:format>
    <dc:creator>
     <cc:Agent>
      <dc:title>Matplotlib v3.10.9, https://matplotlib.org/</dc:title>
     </cc:Agent>
    </dc:creator>
   </cc:Work>
  </rdf:RDF>
 </metadata>
 <defs>
  <style type="text/css">*{stroke-linejoin: round; stroke-linecap: butt}</style>
 </defs>
 <g id="figure_1">
  <g id="patch_1">
   <path d="M 0 312.790797 
L 580.053477 312.790797 
L 580.053477 0 
L 0 0 
z
" style="fill: #fcfcfb"/>
  </g>
  <g id="axes_1">
   <g id="patch_2">
    <path d="M 103.911172 276.202359 
L 572.631172 276.202359 
L 572.631172 21.178359 
L 103.911172 21.178359 
z
" style="fill: #fcfcfb"/>
   </g>
   <g id="matplotlib.axis_1">
    <g id="xtick_1">
     <g id="line2d_1">
      <path d="M 103.911172 276.202359 
L 103.911172 21.178359 
" clip-path="url(#p5e8fd887cd)" style="fill: none; stroke: #e6e5e1; stroke-width: 0.6; stroke-linecap: square"/>
     </g>
     <g id="line2d_2">
      <defs>
       <path id="m7ea53a0d4a" d="M 0 0 
L 0 3.5 
" style="stroke: #52514e; stroke-width: 0.8"/>
      </defs>
      <g>
       <use xlink:href="#m7ea53a0d4a" x="103.911172" y="276.202359" style="fill: #52514e; stroke: #52514e; stroke-width: 0.8"/>
      </g>
     </g>
     <g id="text_1">
      <!-- 3.5 -->
      <g style="fill: #52514e" transform="translate(96.357187 290.420875) scale(0.095 -0.095)">
       <defs>
        <path id="DejaVuSans-33" d="M 2597 2516 
Q 3050 2419 3304 2112 
Q 3559 1806 3559 1356 
Q 3559 666 3084 287 
Q 2609 -91 1734 -91 
Q 1441 -91 1130 -33 
Q 819 25 488 141 
L 488 750 
Q 750 597 1062 519 
Q 1375 441 1716 441 
Q 2309 441 2620 675 
Q 2931 909 2931 1356 
Q 2931 1769 2642 2001 
Q 2353 2234 1838 2234 
L 1294 2234 
L 1294 2753 
L 1863 2753 
Q 2328 2753 2575 2939 
Q 2822 3125 2822 3475 
Q 2822 3834 2567 4026 
Q 2313 4219 1838 4219 
Q 1578 4219 1281 4162 
Q 984 4106 628 3988 
L 628 4550 
Q 988 4650 1302 4700 
Q 1616 4750 1894 4750 
Q 2613 4750 3031 4423 
Q 3450 4097 3450 3541 
Q 3450 3153 3228 2886 
Q 3006 2619 2597 2516 
z
" transform="scale(0.015625)"/>
        <path id="DejaVuSans-2e" d="M 684 794 
L 1344 794 
L 1344 0 
L 684 0 
L 684 794 
z
" transform="scale(0.015625)"/>
        <path id="DejaVuSans-35" d="M 691 4666 
L 3169 4666 
L 3169 4134 
L 1269 4134 
L 1269 2991 
Q 1406 3038 1543 3061 
Q 1681 3084 1819 3084 
Q 2600 3084 3056 2656 
Q 3513 2228 3513 1497 
Q 3513 744 3044 326 
Q 2575 -91 1722 -91 
Q 1428 -91 1123 -41 
Q 819 9 494 109 
L 494 744 
Q 775 591 1075 516 
Q 1375 441 1709 441 
Q 2250 441 2565 725 
Q 2881 1009 2881 1497 
Q 2881 1984 2565 2268 
Q 2250 2553 1709 2553 
Q 1456 2553 1204 2497 
Q 953 2441 691 2322 
L 691 4666 
z
" transform="scale(0.015625)"/>
       </defs>
       <use xlink:href="#DejaVuSans-33"/>
       <use xlink:href="#DejaVuSans-2e" transform="translate(63.623047 0)"/>
       <use xlink:href="#DejaVuSans-35" transform="translate(95.410156 0)"/>
      </g>
     </g>
    </g>
    <g id="xtick_2">
     <g id="line2d_3">
      <path d="M 164.00348 276.202359 
L 164.00348 21.178359 
" clip-path="url(#p5e8fd887cd)" style="fill: none; stroke: #e6e5e1; stroke-width: 0.6; stroke-linecap: square"/>
     </g>
     <g id="line2d_4">
      <g>
       <use xlink:href="#m7ea53a0d4a" x="164.00348" y="276.202359" style="fill: #52514e; stroke: #52514e; stroke-width: 0.8"/>
      </g>
     </g>
     <g id="text_2">
      <!-- 4.0 -->
      <g style="fill: #52514e" transform="translate(156.449495 290.420875) scale(0.095 -0.095)">
       <defs>
        <path id="DejaVuSans-34" d="M 2419 4116 
L 825 1625 
L 2419 1625 
L 2419 4116 
z
M 2253 4666 
L 3047 4666 
L 3047 1625 
L 3713 1625 
L 3713 1100 
L 3047 1100 
L 3047 0 
L 2419 0 
L 2419 1100 
L 313 1100 
L 313 1709 
L 2253 4666 
z
" transform="scale(0.015625)"/>
        <path id="DejaVuSans-30" d="M 2034 4250 
Q 1547 4250 1301 3770 
Q 1056 3291 1056 2328 
Q 1056 1369 1301 889 
Q 1547 409 2034 409 
Q 2525 409 2770 889 
Q 3016 1369 3016 2328 
Q 3016 3291 2770 3770 
Q 2525 4250 2034 4250 
z
M 2034 4750 
Q 2819 4750 3233 4129 
Q 3647 3509 3647 2328 
Q 3647 1150 3233 529 
Q 2819 -91 2034 -91 
Q 1250 -91 836 529 
Q 422 1150 422 2328 
Q 422 3509 836 4129 
Q 1250 4750 2034 4750 
z
" transform="scale(0.015625)"/>
       </defs>
       <use xlink:href="#DejaVuSans-34"/>
       <use xlink:href="#DejaVuSans-2e" transform="translate(63.623047 0)"/>
       <use xlink:href="#DejaVuSans-30" transform="translate(95.410156 0)"/>
      </g>
     </g>
    </g>
    <g id="xtick_3">
     <g id="line2d_5">
      <path d="M 224.095787 276.202359 
L 224.095787 21.178359 
" clip-path="url(#p5e8fd887cd)" style="fill: none; stroke: #e6e5e1; stroke-width: 0.6; stroke-linecap: square"/>
     </g>
     <g id="line2d_6">
      <g>
       <use xlink:href="#m7ea53a0d4a" x="224.095787" y="276.202359" style="fill: #52514e; stroke: #52514e; stroke-width: 0.8"/>
      </g>
     </g>
     <g id="text_3">
      <!-- 4.5 -->
      <g style="fill: #52514e" transform="translate(216.541803 290.420875) scale(0.095 -0.095)">
       <use xlink:href="#DejaVuSans-34"/>
       <use xlink:href="#DejaVuSans-2e" transform="translate(63.623047 0)"/>
       <use xlink:href="#DejaVuSans-35" transform="translate(95.410156 0)"/>
      </g>
     </g>
    </g>
    <g id="xtick_4">
     <g id="line2d_7">
      <path d="M 284.188095 276.202359 
L 284.188095 21.178359 
" clip-path="url(#p5e8fd887cd)" style="fill: none; stroke: #e6e5e1; stroke-width: 0.6; stroke-linecap: square"/>
     </g>
     <g id="line2d_8">
      <g>
       <use xlink:href="#m7ea53a0d4a" x="284.188095" y="276.202359" style="fill: #52514e; stroke: #52514e; stroke-width: 0.8"/>
      </g>
     </g>
     <g id="text_4">
      <!-- 5.0 -->
      <g style="fill: #52514e" transform="translate(276.634111 290.420875) scale(0.095 -0.095)">
       <use xlink:href="#DejaVuSans-35"/>
       <use xlink:href="#DejaVuSans-2e" transform="translate(63.623047 0)"/>
       <use xlink:href="#DejaVuSans-30" transform="translate(95.410156 0)"/>
      </g>
     </g>
    </g>
    <g id="xtick_5">
     <g id="line2d_9">
      <path d="M 344.280403 276.202359 
L 344.280403 21.178359 
" clip-path="url(#p5e8fd887cd)" style="fill: none; stroke: #e6e5e1; stroke-width: 0.6; stroke-linecap: square"/>
     </g>
     <g id="line2d_10">
      <g>
       <use xlink:href="#m7ea53a0d4a" x="344.280403" y="276.202359" style="fill: #52514e; stroke: #52514e; stroke-width: 0.8"/>
      </g>
     </g>
     <g id="text_5">
      <!-- 5.5 -->
      <g style="fill: #52514e" transform="translate(336.726418 290.420875) scale(0.095 -0.095)">
       <use xlink:href="#DejaVuSans-35"/>
       <use xlink:href="#DejaVuSans-2e" transform="translate(63.623047 0)"/>
       <use xlink:href="#DejaVuSans-35" transform="translate(95.410156 0)"/>
      </g>
     </g>
    </g>
    <g id="xtick_6">
     <g id="line2d_11">
      <path d="M 404.37271 276.202359 
L 404.37271 21.178359 
" clip-path="url(#p5e8fd887cd)" style="fill: none; stroke: #e6e5e1; stroke-width: 0.6; stroke-linecap: square"/>
     </g>
     <g id="line2d_12">
      <g>
       <use xlink:href="#m7ea53a0d4a" x="404.37271" y="276.202359" style="fill: #52514e; stroke: #52514e; stroke-width: 0.8"/>
      </g>
     </g>
     <g id="text_6">
      <!-- 6.0 -->
      <g style="fill: #52514e" transform="translate(396.818726 290.420875) scale(0.095 -0.095)">
       <defs>
        <path id="DejaVuSans-36" d="M 2113 2584 
Q 1688 2584 1439 2293 
Q 1191 2003 1191 1497 
Q 1191 994 1439 701 
Q 1688 409 2113 409 
Q 2538 409 2786 701 
Q 3034 994 3034 1497 
Q 3034 2003 2786 2293 
Q 2538 2584 2113 2584 
z
M 3366 4563 
L 3366 3988 
Q 3128 4100 2886 4159 
Q 2644 4219 2406 4219 
Q 1781 4219 1451 3797 
Q 1122 3375 1075 2522 
Q 1259 2794 1537 2939 
Q 1816 3084 2150 3084 
Q 2853 3084 3261 2657 
Q 3669 2231 3669 1497 
Q 3669 778 3244 343 
Q 2819 -91 2113 -91 
Q 1303 -91 875 529 
Q 447 1150 447 2328 
Q 447 3434 972 4092 
Q 1497 4750 2381 4750 
Q 2619 4750 2861 4703 
Q 3103 4656 3366 4563 
z
" transform="scale(0.015625)"/>
       </defs>
       <use xlink:href="#DejaVuSans-36"/>
       <use xlink:href="#DejaVuSans-2e" transform="translate(63.623047 0)"/>
       <use xlink:href="#DejaVuSans-30" transform="translate(95.410156 0)"/>
      </g>
     </g>
    </g>
    <g id="xtick_7">
     <g id="line2d_13">
      <path d="M 464.465018 276.202359 
L 464.465018 21.178359 
" clip-path="url(#p5e8fd887cd)" style="fill: none; stroke: #e6e5e1; stroke-width: 0.6; stroke-linecap: square"/>
     </g>
     <g id="line2d_14">
      <g>
       <use xlink:href="#m7ea53a0d4a" x="464.465018" y="276.202359" style="fill: #52514e; stroke: #52514e; stroke-width: 0.8"/>
      </g>
     </g>
     <g id="text_7">
      <!-- 6.5 -->
      <g style="fill: #52514e" transform="translate(456.911034 290.420875) scale(0.095 -0.095)">
       <use xlink:href="#DejaVuSans-36"/>
       <use xlink:href="#DejaVuSans-2e" transform="translate(63.623047 0)"/>
       <use xlink:href="#DejaVuSans-35" transform="translate(95.410156 0)"/>
      </g>
     </g>
    </g>
    <g id="xtick_8">
     <g id="line2d_15">
      <path d="M 524.557326 276.202359 
L 524.557326 21.178359 
" clip-path="url(#p5e8fd887cd)" style="fill: none; stroke: #e6e5e1; stroke-width: 0.6; stroke-linecap: square"/>
     </g>
     <g id="line2d_16">
      <g>
       <use xlink:href="#m7ea53a0d4a" x="524.557326" y="276.202359" style="fill: #52514e; stroke: #52514e; stroke-width: 0.8"/>
      </g>
     </g>
     <g id="text_8">
      <!-- 7.0 -->
      <g style="fill: #52514e" transform="translate(517.003341 290.420875) scale(0.095 -0.095)">
       <defs>
        <path id="DejaVuSans-37" d="M 525 4666 
L 3525 4666 
L 3525 4397 
L 1831 0 
L 1172 0 
L 2766 4134 
L 525 4134 
L 525 4666 
z
" transform="scale(0.015625)"/>
       </defs>
       <use xlink:href="#DejaVuSans-37"/>
       <use xlink:href="#DejaVuSans-2e" transform="translate(63.623047 0)"/>
       <use xlink:href="#DejaVuSans-30" transform="translate(95.410156 0)"/>
      </g>
     </g>
    </g>
    <g id="text_9">
     <!-- Ordinary-sitting Physics mean (open = 2025, filled = 2026) -->
     <g style="fill: #52514e" transform="translate(197.255547 303.615094) scale(0.095 -0.095)">
      <defs>
       <path id="DejaVuSans-4f" d="M 2522 4238 
Q 1834 4238 1429 3725 
Q 1025 3213 1025 2328 
Q 1025 1447 1429 934 
Q 1834 422 2522 422 
Q 3209 422 3611 934 
Q 4013 1447 4013 2328 
Q 4013 3213 3611 3725 
Q 3209 4238 2522 4238 
z
M 2522 4750 
Q 3503 4750 4090 4092 
Q 4678 3434 4678 2328 
Q 4678 1225 4090 567 
Q 3503 -91 2522 -91 
Q 1538 -91 948 565 
Q 359 1222 359 2328 
Q 359 3434 948 4092 
Q 1538 4750 2522 4750 
z
" transform="scale(0.015625)"/>
       <path id="DejaVuSans-72" d="M 2631 2963 
Q 2534 3019 2420 3045 
Q 2306 3072 2169 3072 
Q 1681 3072 1420 2755 
Q 1159 2438 1159 1844 
L 1159 0 
L 581 0 
L 581 3500 
L 1159 3500 
L 1159 2956 
Q 1341 3275 1631 3429 
Q 1922 3584 2338 3584 
Q 2397 3584 2469 3576 
Q 2541 3569 2628 3553 
L 2631 2963 
z
" transform="scale(0.015625)"/>
       <path id="DejaVuSans-64" d="M 2906 2969 
L 2906 4863 
L 3481 4863 
L 3481 0 
L 2906 0 
L 2906 525 
Q 2725 213 2448 61 
Q 2172 -91 1784 -91 
Q 1150 -91 751 415 
Q 353 922 353 1747 
Q 353 2572 751 3078 
Q 1150 3584 1784 3584 
Q 2172 3584 2448 3432 
Q 2725 3281 2906 2969 
z
M 947 1747 
Q 947 1113 1208 752 
Q 1469 391 1925 391 
Q 2381 391 2643 752 
Q 2906 1113 2906 1747 
Q 2906 2381 2643 2742 
Q 2381 3103 1925 3103 
Q 1469 3103 1208 2742 
Q 947 2381 947 1747 
z
" transform="scale(0.015625)"/>
       <path id="DejaVuSans-69" d="M 603 3500 
L 1178 3500 
L 1178 0 
L 603 0 
L 603 3500 
z
M 603 4863 
L 1178 4863 
L 1178 4134 
L 603 4134 
L 603 4863 
z
" transform="scale(0.015625)"/>
       <path id="DejaVuSans-6e" d="M 3513 2113 
L 3513 0 
L 2938 0 
L 2938 2094 
Q 2938 2591 2744 2837 
Q 2550 3084 2163 3084 
Q 1697 3084 1428 2787 
Q 1159 2491 1159 1978 
L 1159 0 
L 581 0 
L 581 3500 
L 1159 3500 
L 1159 2956 
Q 1366 3272 1645 3428 
Q 1925 3584 2291 3584 
Q 2894 3584 3203 3211 
Q 3513 2838 3513 2113 
z
" transform="scale(0.015625)"/>
       <path id="DejaVuSans-61" d="M 2194 1759 
Q 1497 1759 1228 1600 
Q 959 1441 959 1056 
Q 959 750 1161 570 
Q 1363 391 1709 391 
Q 2188 391 2477 730 
Q 2766 1069 2766 1631 
L 2766 1759 
L 2194 1759 
z
M 3341 1997 
L 3341 0 
L 2766 0 
L 2766 531 
Q 2569 213 2275 61 
Q 1981 -91 1556 -91 
Q 1019 -91 701 211 
Q 384 513 384 1019 
Q 384 1609 779 1909 
Q 1175 2209 1959 2209 
L 2766 2209 
L 2766 2266 
Q 2766 2663 2505 2880 
Q 2244 3097 1772 3097 
Q 1472 3097 1187 3025 
Q 903 2953 641 2809 
L 641 3341 
Q 956 3463 1253 3523 
Q 1550 3584 1831 3584 
Q 2591 3584 2966 3190 
Q 3341 2797 3341 1997 
z
" transform="scale(0.015625)"/>
       <path id="DejaVuSans-79" d="M 2059 -325 
Q 1816 -950 1584 -1140 
Q 1353 -1331 966 -1331 
L 506 -1331 
L 506 -850 
L 844 -850 
Q 1081 -850 1212 -737 
Q 1344 -625 1503 -206 
L 1606 56 
L 191 3500 
L 800 3500 
L 1894 763 
L 2988 3500 
L 3597 3500 
L 2059 -325 
z
" transform="scale(0.015625)"/>
       <path id="DejaVuSans-2d" d="M 313 2009 
L 1997 2009 
L 1997 1497 
L 313 1497 
L 313 2009 
z
" transform="scale(0.015625)"/>
       <path id="DejaVuSans-73" d="M 2834 3397 
L 2834 2853 
Q 2591 2978 2328 3040 
Q 2066 3103 1784 3103 
Q 1356 3103 1142 2972 
Q 928 2841 928 2578 
Q 928 2378 1081 2264 
Q 1234 2150 1697 2047 
L 1894 2003 
Q 2506 1872 2764 1633 
Q 3022 1394 3022 966 
Q 3022 478 2636 193 
Q 2250 -91 1575 -91 
Q 1294 -91 989 -36 
Q 684 19 347 128 
L 347 722 
Q 666 556 975 473 
Q 1284 391 1588 391 
Q 1994 391 2212 530 
Q 2431 669 2431 922 
Q 2431 1156 2273 1281 
Q 2116 1406 1581 1522 
L 1381 1569 
Q 847 1681 609 1914 
Q 372 2147 372 2553 
Q 372 3047 722 3315 
Q 1072 3584 1716 3584 
Q 2034 3584 2315 3537 
Q 2597 3491 2834 3397 
z
" transform="scale(0.015625)"/>
       <path id="DejaVuSans-74" d="M 1172 4494 
L 1172 3500 
L 2356 3500 
L 2356 3053 
L 1172 3053 
L 1172 1153 
Q 1172 725 1289 603 
Q 1406 481 1766 481 
L 2356 481 
L 2356 0 
L 1766 0 
Q 1100 0 847 248 
Q 594 497 594 1153 
L 594 3053 
L 172 3053 
L 172 3500 
L 594 3500 
L 594 4494 
L 1172 4494 
z
" transform="scale(0.015625)"/>
       <path id="DejaVuSans-67" d="M 2906 1791 
Q 2906 2416 2648 2759 
Q 2391 3103 1925 3103 
Q 1463 3103 1205 2759 
Q 947 2416 947 1791 
Q 947 1169 1205 825 
Q 1463 481 1925 481 
Q 2391 481 2648 825 
Q 2906 1169 2906 1791 
z
M 3481 434 
Q 3481 -459 3084 -895 
Q 2688 -1331 1869 -1331 
Q 1566 -1331 1297 -1286 
Q 1028 -1241 775 -1147 
L 775 -588 
Q 1028 -725 1275 -790 
Q 1522 -856 1778 -856 
Q 2344 -856 2625 -561 
Q 2906 -266 2906 331 
L 2906 616 
Q 2728 306 2450 153 
Q 2172 0 1784 0 
Q 1141 0 747 490 
Q 353 981 353 1791 
Q 353 2603 747 3093 
Q 1141 3584 1784 3584 
Q 2172 3584 2450 3431 
Q 2728 3278 2906 2969 
L 2906 3500 
L 3481 3500 
L 3481 434 
z
" transform="scale(0.015625)"/>
       <path id="DejaVuSans-20" transform="scale(0.015625)"/>
       <path id="DejaVuSans-50" d="M 1259 4147 
L 1259 2394 
L 2053 2394 
Q 2494 2394 2734 2622 
Q 2975 2850 2975 3272 
Q 2975 3691 2734 3919 
Q 2494 4147 2053 4147 
L 1259 4147 
z
M 628 4666 
L 2053 4666 
Q 2838 4666 3239 4311 
Q 3641 3956 3641 3272 
Q 3641 2581 3239 2228 
Q 2838 1875 2053 1875 
L 1259 1875 
L 1259 0 
L 628 0 
L 628 4666 
z
" transform="scale(0.015625)"/>
       <path id="DejaVuSans-68" d="M 3513 2113 
L 3513 0 
L 2938 0 
L 2938 2094 
Q 2938 2591 2744 2837 
Q 2550 3084 2163 3084 
Q 1697 3084 1428 2787 
Q 1159 2491 1159 1978 
L 1159 0 
L 581 0 
L 581 4863 
L 1159 4863 
L 1159 2956 
Q 1366 3272 1645 3428 
Q 1925 3584 2291 3584 
Q 2894 3584 3203 3211 
Q 3513 2838 3513 2113 
z
" transform="scale(0.015625)"/>
       <path id="DejaVuSans-63" d="M 3122 3366 
L 3122 2828 
Q 2878 2963 2633 3030 
Q 2388 3097 2138 3097 
Q 1578 3097 1268 2742 
Q 959 2388 959 1747 
Q 959 1106 1268 751 
Q 1578 397 2138 397 
Q 2388 397 2633 464 
Q 2878 531 3122 666 
L 3122 134 
Q 2881 22 2623 -34 
Q 2366 -91 2075 -91 
Q 1284 -91 818 406 
Q 353 903 353 1747 
Q 353 2603 823 3093 
Q 1294 3584 2113 3584 
Q 2378 3584 2631 3529 
Q 2884 3475 3122 3366 
z
" transform="scale(0.015625)"/>
       <path id="DejaVuSans-6d" d="M 3328 2828 
Q 3544 3216 3844 3400 
Q 4144 3584 4550 3584 
Q 5097 3584 5394 3201 
Q 5691 2819 5691 2113 
L 5691 0 
L 5113 0 
L 5113 2094 
Q 5113 2597 4934 2840 
Q 4756 3084 4391 3084 
Q 3944 3084 3684 2787 
Q 3425 2491 3425 1978 
L 3425 0 
L 2847 0 
L 2847 2094 
Q 2847 2600 2669 2842 
Q 2491 3084 2119 3084 
Q 1678 3084 1418 2786 
Q 1159 2488 1159 1978 
L 1159 0 
L 581 0 
L 581 3500 
L 1159 3500 
L 1159 2956 
Q 1356 3278 1631 3431 
Q 1906 3584 2284 3584 
Q 2666 3584 2933 3390 
Q 3200 3197 3328 2828 
z
" transform="scale(0.015625)"/>
       <path id="DejaVuSans-65" d="M 3597 1894 
L 3597 1613 
L 953 1613 
Q 991 1019 1311 708 
Q 1631 397 2203 397 
Q 2534 397 2845 478 
Q 3156 559 3463 722 
L 3463 178 
Q 3153 47 2828 -22 
Q 2503 -91 2169 -91 
Q 1331 -91 842 396 
Q 353 884 353 1716 
Q 353 2575 817 3079 
Q 1281 3584 2069 3584 
Q 2775 3584 3186 3129 
Q 3597 2675 3597 1894 
z
M 3022 2063 
Q 3016 2534 2758 2815 
Q 2500 3097 2075 3097 
Q 1594 3097 1305 2825 
Q 1016 2553 972 2059 
L 3022 2063 
z
" transform="scale(0.015625)"/>
       <path id="DejaVuSans-28" d="M 1984 4856 
Q 1566 4138 1362 3434 
Q 1159 2731 1159 2009 
Q 1159 1288 1364 580 
Q 1569 -128 1984 -844 
L 1484 -844 
Q 1016 -109 783 600 
Q 550 1309 550 2009 
Q 550 2706 781 3412 
Q 1013 4119 1484 4856 
L 1984 4856 
z
" transform="scale(0.015625)"/>
       <path id="DejaVuSans-6f" d="M 1959 3097 
Q 1497 3097 1228 2736 
Q 959 2375 959 1747 
Q 959 1119 1226 758 
Q 1494 397 1959 397 
Q 2419 397 2687 759 
Q 2956 1122 2956 1747 
Q 2956 2369 2687 2733 
Q 2419 3097 1959 3097 
z
M 1959 3584 
Q 2709 3584 3137 3096 
Q 3566 2609 3566 1747 
Q 3566 888 3137 398 
Q 2709 -91 1959 -91 
Q 1206 -91 779 398 
Q 353 888 353 1747 
Q 353 2609 779 3096 
Q 1206 3584 1959 3584 
z
" transform="scale(0.015625)"/>
       <path id="DejaVuSans-70" d="M 1159 525 
L 1159 -1331 
L 581 -1331 
L 581 3500 
L 1159 3500 
L 1159 2969 
Q 1341 3281 1617 3432 
Q 1894 3584 2278 3584 
Q 2916 3584 3314 3078 
Q 3713 2572 3713 1747 
Q 3713 922 3314 415 
Q 2916 -91 2278 -91 
Q 1894 -91 1617 61 
Q 1341 213 1159 525 
z
M 3116 1747 
Q 3116 2381 2855 2742 
Q 2594 3103 2138 3103 
Q 1681 3103 1420 2742 
Q 1159 2381 1159 1747 
Q 1159 1113 1420 752 
Q 1681 391 2138 391 
Q 2594 391 2855 752 
Q 3116 1113 3116 1747 
z
" transform="scale(0.015625)"/>
       <path id="DejaVuSans-3d" d="M 678 2906 
L 4684 2906 
L 4684 2381 
L 678 2381 
L 678 2906 
z
M 678 1631 
L 4684 1631 
L 4684 1100 
L 678 1100 
L 678 1631 
z
" transform="scale(0.015625)"/>
       <path id="DejaVuSans-32" d="M 1228 531 
L 3431 531 
L 3431 0 
L 469 0 
L 469 531 
Q 828 903 1448 1529 
Q 2069 2156 2228 2338 
Q 2531 2678 2651 2914 
Q 2772 3150 2772 3378 
Q 2772 3750 2511 3984 
Q 2250 4219 1831 4219 
Q 1534 4219 1204 4116 
Q 875 4013 500 3803 
L 500 4441 
Q 881 4594 1212 4672 
Q 1544 4750 1819 4750 
Q 2544 4750 2975 4387 
Q 3406 4025 3406 3419 
Q 3406 3131 3298 2873 
Q 3191 2616 2906 2266 
Q 2828 2175 2409 1742 
Q 1991 1309 1228 531 
z
" transform="scale(0.015625)"/>
       <path id="DejaVuSans-2c" d="M 750 794 
L 1409 794 
L 1409 256 
L 897 -744 
L 494 -744 
L 750 256 
L 750 794 
z
" transform="scale(0.015625)"/>
       <path id="DejaVuSans-66" d="M 2375 4863 
L 2375 4384 
L 1825 4384 
Q 1516 4384 1395 4259 
Q 1275 4134 1275 3809 
L 1275 3500 
L 2222 3500 
L 2222 3053 
L 1275 3053 
L 1275 0 
L 697 0 
L 697 3053 
L 147 3053 
L 147 3500 
L 697 3500 
L 697 3744 
Q 697 4328 969 4595 
Q 1241 4863 1831 4863 
L 2375 4863 
z
" transform="scale(0.015625)"/>
       <path id="DejaVuSans-6c" d="M 603 4863 
L 1178 4863 
L 1178 0 
L 603 0 
L 603 4863 
z
" transform="scale(0.015625)"/>
       <path id="DejaVuSans-29" d="M 513 4856 
L 1013 4856 
Q 1481 4119 1714 3412 
Q 1947 2706 1947 2009 
Q 1947 1309 1714 600 
Q 1481 -109 1013 -844 
L 513 -844 
Q 928 -128 1133 580 
Q 1338 1288 1338 2009 
Q 1338 2731 1133 3434 
Q 928 4138 513 4856 
z
" transform="scale(0.015625)"/>
      </defs>
      <use xlink:href="#DejaVuSans-4f"/>
      <use xlink:href="#DejaVuSans-72" transform="translate(78.710938 0)"/>
      <use xlink:href="#DejaVuSans-64" transform="translate(118.074219 0)"/>
      <use xlink:href="#DejaVuSans-69" transform="translate(181.550781 0)"/>
      <use xlink:href="#DejaVuSans-6e" transform="translate(209.333984 0)"/>
      <use xlink:href="#DejaVuSans-61" transform="translate(272.712891 0)"/>
      <use xlink:href="#DejaVuSans-72" transform="translate(333.992188 0)"/>
      <use xlink:href="#DejaVuSans-79" transform="translate(375.105469 0)"/>
      <use xlink:href="#DejaVuSans-2d" transform="translate(432.535156 0)"/>
      <use xlink:href="#DejaVuSans-73" transform="translate(468.619141 0)"/>
      <use xlink:href="#DejaVuSans-69" transform="translate(520.71875 0)"/>
      <use xlink:href="#DejaVuSans-74" transform="translate(548.501953 0)"/>
      <use xlink:href="#DejaVuSans-74" transform="translate(587.710938 0)"/>
      <use xlink:href="#DejaVuSans-69" transform="translate(626.919922 0)"/>
      <use xlink:href="#DejaVuSans-6e" transform="translate(654.703125 0)"/>
      <use xlink:href="#DejaVuSans-67" transform="translate(718.082031 0)"/>
      <use xlink:href="#DejaVuSans-20" transform="translate(781.558594 0)"/>
      <use xlink:href="#DejaVuSans-50" transform="translate(813.345703 0)"/>
      <use xlink:href="#DejaVuSans-68" transform="translate(873.648438 0)"/>
      <use xlink:href="#DejaVuSans-79" transform="translate(937.027344 0)"/>
      <use xlink:href="#DejaVuSans-73" transform="translate(996.207031 0)"/>
      <use xlink:href="#DejaVuSans-69" transform="translate(1048.306641 0)"/>
      <use xlink:href="#DejaVuSans-63" transform="translate(1076.089844 0)"/>
      <use xlink:href="#DejaVuSans-73" transform="translate(1131.070312 0)"/>
      <use xlink:href="#DejaVuSans-20" transform="translate(1183.169922 0)"/>
      <use xlink:href="#DejaVuSans-6d" transform="translate(1214.957031 0)"/>
      <use xlink:href="#DejaVuSans-65" transform="translate(1312.369141 0)"/>
      <use xlink:href="#DejaVuSans-61" transform="translate(1373.892578 0)"/>
      <use xlink:href="#DejaVuSans-6e" transform="translate(1435.171875 0)"/>
      <use xlink:href="#DejaVuSans-20" transform="translate(1498.550781 0)"/>
      <use xlink:href="#DejaVuSans-28" transform="translate(1530.337891 0)"/>
      <use xlink:href="#DejaVuSans-6f" transform="translate(1569.351562 0)"/>
      <use xlink:href="#DejaVuSans-70" transform="translate(1630.533203 0)"/>
      <use xlink:href="#DejaVuSans-65" transform="translate(1694.009766 0)"/>
      <use xlink:href="#DejaVuSans-6e" transform="translate(1755.533203 0)"/>
      <use xlink:href="#DejaVuSans-20" transform="translate(1818.912109 0)"/>
      <use xlink:href="#DejaVuSans-3d" transform="translate(1850.699219 0)"/>
      <use xlink:href="#DejaVuSans-20" transform="translate(1934.488281 0)"/>
      <use xlink:href="#DejaVuSans-32" transform="translate(1966.275391 0)"/>
      <use xlink:href="#DejaVuSans-30" transform="translate(2029.898438 0)"/>
      <use xlink:href="#DejaVuSans-32" transform="translate(2093.521484 0)"/>
      <use xlink:href="#DejaVuSans-35" transform="translate(2157.144531 0)"/>
      <use xlink:href="#DejaVuSans-2c" transform="translate(2220.767578 0)"/>
      <use xlink:href="#DejaVuSans-20" transform="translate(2252.554688 0)"/>
      <use xlink:href="#DejaVuSans-66" transform="translate(2284.341797 0)"/>
      <use xlink:href="#DejaVuSans-69" transform="translate(2319.546875 0)"/>
      <use xlink:href="#DejaVuSans-6c" transform="translate(2347.330078 0)"/>
      <use xlink:href="#DejaVuSans-6c" transform="translate(2375.113281 0)"/>
      <use xlink:href="#DejaVuSans-65" transform="translate(2402.896484 0)"/>
      <use xlink:href="#DejaVuSans-64" transform="translate(2464.419922 0)"/>
      <use xlink:href="#DejaVuSans-20" transform="translate(2527.896484 0)"/>
      <use xlink:href="#DejaVuSans-3d" transform="translate(2559.683594 0)"/>
      <use xlink:href="#DejaVuSans-20" transform="translate(2643.472656 0)"/>
      <use xlink:href="#DejaVuSans-32" transform="translate(2675.259766 0)"/>
      <use xlink:href="#DejaVuSans-30" transform="translate(2738.882812 0)"/>
      <use xlink:href="#DejaVuSans-32" transform="translate(2802.505859 0)"/>
      <use xlink:href="#DejaVuSans-36" transform="translate(2866.128906 0)"/>
      <use xlink:href="#DejaVuSans-29" transform="translate(2929.751953 0)"/>
     </g>
    </g>
   </g>
   <g id="matplotlib.axis_2">
    <g id="ytick_1">
     <g id="line2d_17">
      <path d="M 103.911172 264.610359 
L 572.631172 264.610359 
" clip-path="url(#p5e8fd887cd)" style="fill: none; stroke: #e6e5e1; stroke-width: 0.6; stroke-linecap: square"/>
     </g>
     <g id="line2d_18">
      <defs>
       <path id="m31878a57bb" d="M 0 0 
L -3.5 0 
" style="stroke: #52514e; stroke-width: 0.8"/>
      </defs>
      <g>
       <use xlink:href="#m31878a57bb" x="103.911172" y="264.610359" style="fill: #52514e; stroke: #52514e; stroke-width: 0.8"/>
      </g>
     </g>
     <g id="text_10">
      <!-- Euskadi (UPV/EHU) -->
      <g style="fill: #52514e" transform="translate(7.2 268.219617) scale(0.095 -0.095)">
       <defs>
        <path id="DejaVuSans-45" d="M 628 4666 
L 3578 4666 
L 3578 4134 
L 1259 4134 
L 1259 2753 
L 3481 2753 
L 3481 2222 
L 1259 2222 
L 1259 531 
L 3634 531 
L 3634 0 
L 628 0 
L 628 4666 
z
" transform="scale(0.015625)"/>
        <path id="DejaVuSans-75" d="M 544 1381 
L 544 3500 
L 1119 3500 
L 1119 1403 
Q 1119 906 1312 657 
Q 1506 409 1894 409 
Q 2359 409 2629 706 
Q 2900 1003 2900 1516 
L 2900 3500 
L 3475 3500 
L 3475 0 
L 2900 0 
L 2900 538 
Q 2691 219 2414 64 
Q 2138 -91 1772 -91 
Q 1169 -91 856 284 
Q 544 659 544 1381 
z
M 1991 3584 
L 1991 3584 
z
" transform="scale(0.015625)"/>
        <path id="DejaVuSans-6b" d="M 581 4863 
L 1159 4863 
L 1159 1991 
L 2875 3500 
L 3609 3500 
L 1753 1863 
L 3688 0 
L 2938 0 
L 1159 1709 
L 1159 0 
L 581 0 
L 581 4863 
z
" transform="scale(0.015625)"/>
        <path id="DejaVuSans-55" d="M 556 4666 
L 1191 4666 
L 1191 1831 
Q 1191 1081 1462 751 
Q 1734 422 2344 422 
Q 2950 422 3222 751 
Q 3494 1081 3494 1831 
L 3494 4666 
L 4128 4666 
L 4128 1753 
Q 4128 841 3676 375 
Q 3225 -91 2344 -91 
Q 1459 -91 1007 375 
Q 556 841 556 1753 
L 556 4666 
z
" transform="scale(0.015625)"/>
        <path id="DejaVuSans-56" d="M 1831 0 
L 50 4666 
L 709 4666 
L 2188 738 
L 3669 4666 
L 4325 4666 
L 2547 0 
L 1831 0 
z
" transform="scale(0.015625)"/>
        <path id="DejaVuSans-2f" d="M 1625 4666 
L 2156 4666 
L 531 -594 
L 0 -594 
L 1625 4666 
z
" transform="scale(0.015625)"/>
        <path id="DejaVuSans-48" d="M 628 4666 
L 1259 4666 
L 1259 2753 
L 3553 2753 
L 3553 4666 
L 4184 4666 
L 4184 0 
L 3553 0 
L 3553 2222 
L 1259 2222 
L 1259 0 
L 628 0 
L 628 4666 
z
" transform="scale(0.015625)"/>
       </defs>
       <use xlink:href="#DejaVuSans-45"/>
       <use xlink:href="#DejaVuSans-75" transform="translate(63.183594 0)"/>
       <use xlink:href="#DejaVuSans-73" transform="translate(126.5625 0)"/>
       <use xlink:href="#DejaVuSans-6b" transform="translate(178.662109 0)"/>
       <use xlink:href="#DejaVuSans-61" transform="translate(234.822266 0)"/>
       <use xlink:href="#DejaVuSans-64" transform="translate(296.101562 0)"/>
       <use xlink:href="#DejaVuSans-69" transform="translate(359.578125 0)"/>
       <use xlink:href="#DejaVuSans-20" transform="translate(387.361328 0)"/>
       <use xlink:href="#DejaVuSans-28" transform="translate(419.148438 0)"/>
       <use xlink:href="#DejaVuSans-55" transform="translate(458.162109 0)"/>
       <use xlink:href="#DejaVuSans-50" transform="translate(531.355469 0)"/>
       <use xlink:href="#DejaVuSans-56" transform="translate(591.658203 0)"/>
       <use xlink:href="#DejaVuSans-2f" transform="translate(660.066406 0)"/>
       <use xlink:href="#DejaVuSans-45" transform="translate(693.757812 0)"/>
       <use xlink:href="#DejaVuSans-48" transform="translate(756.941406 0)"/>
       <use xlink:href="#DejaVuSans-55" transform="translate(832.136719 0)"/>
       <use xlink:href="#DejaVuSans-29" transform="translate(905.330078 0)"/>
      </g>
     </g>
    </g>
    <g id="ytick_2">
     <g id="line2d_19">
      <path d="M 103.911172 235.630359 
L 572.631172 235.630359 
" clip-path="url(#p5e8fd887cd)" style="fill: none; stroke: #e6e5e1; stroke-width: 0.6; stroke-linecap: square"/>
     </g>
     <g id="line2d_20">
      <g>
       <use xlink:href="#m31878a57bb" x="103.911172" y="235.630359" style="fill: #52514e; stroke: #52514e; stroke-width: 0.8"/>
      </g>
     </g>
     <g id="text_11">
      <!-- Canarias -->
      <g style="fill: #52514e" transform="translate(55.298203 239.239617) scale(0.095 -0.095)">
       <defs>
        <path id="DejaVuSans-43" d="M 4122 4306 
L 4122 3641 
Q 3803 3938 3442 4084 
Q 3081 4231 2675 4231 
Q 1875 4231 1450 3742 
Q 1025 3253 1025 2328 
Q 1025 1406 1450 917 
Q 1875 428 2675 428 
Q 3081 428 3442 575 
Q 3803 722 4122 1019 
L 4122 359 
Q 3791 134 3420 21 
Q 3050 -91 2638 -91 
Q 1578 -91 968 557 
Q 359 1206 359 2328 
Q 359 3453 968 4101 
Q 1578 4750 2638 4750 
Q 3056 4750 3426 4639 
Q 3797 4528 4122 4306 
z
" transform="scale(0.015625)"/>
       </defs>
       <use xlink:href="#DejaVuSans-43"/>
       <use xlink:href="#DejaVuSans-61" transform="translate(69.824219 0)"/>
       <use xlink:href="#DejaVuSans-6e" transform="translate(131.103516 0)"/>
       <use xlink:href="#DejaVuSans-61" transform="translate(194.482422 0)"/>
       <use xlink:href="#DejaVuSans-72" transform="translate(255.761719 0)"/>
       <use xlink:href="#DejaVuSans-69" transform="translate(296.875 0)"/>
       <use xlink:href="#DejaVuSans-61" transform="translate(324.658203 0)"/>
       <use xlink:href="#DejaVuSans-73" transform="translate(385.9375 0)"/>
      </g>
     </g>
    </g>
    <g id="ytick_3">
     <g id="line2d_21">
      <path d="M 103.911172 206.650359 
L 572.631172 206.650359 
" clip-path="url(#p5e8fd887cd)" style="fill: none; stroke: #e6e5e1; stroke-width: 0.6; stroke-linecap: square"/>
     </g>
     <g id="line2d_22">
      <g>
       <use xlink:href="#m31878a57bb" x="103.911172" y="206.650359" style="fill: #52514e; stroke: #52514e; stroke-width: 0.8"/>
      </g>
     </g>
     <g id="text_12">
      <!-- Extremadura -->
      <g style="fill: #52514e" transform="translate(35.170078 210.259617) scale(0.095 -0.095)">
       <defs>
        <path id="DejaVuSans-78" d="M 3513 3500 
L 2247 1797 
L 3578 0 
L 2900 0 
L 1881 1375 
L 863 0 
L 184 0 
L 1544 1831 
L 300 3500 
L 978 3500 
L 1906 2253 
L 2834 3500 
L 3513 3500 
z
" transform="scale(0.015625)"/>
       </defs>
       <use xlink:href="#DejaVuSans-45"/>
       <use xlink:href="#DejaVuSans-78" transform="translate(63.183594 0)"/>
       <use xlink:href="#DejaVuSans-74" transform="translate(122.363281 0)"/>
       <use xlink:href="#DejaVuSans-72" transform="translate(161.572266 0)"/>
       <use xlink:href="#DejaVuSans-65" transform="translate(200.435547 0)"/>
       <use xlink:href="#DejaVuSans-6d" transform="translate(261.958984 0)"/>
       <use xlink:href="#DejaVuSans-61" transform="translate(359.371094 0)"/>
       <use xlink:href="#DejaVuSans-64" transform="translate(420.650391 0)"/>
       <use xlink:href="#DejaVuSans-75" transform="translate(484.126953 0)"/>
       <use xlink:href="#DejaVuSans-72" transform="translate(547.505859 0)"/>
       <use xlink:href="#DejaVuSans-61" transform="translate(588.619141 0)"/>
      </g>
     </g>
    </g>
    <g id="ytick_4">
     <g id="line2d_23">
      <path d="M 103.911172 177.670359 
L 572.631172 177.670359 
" clip-path="url(#p5e8fd887cd)" style="fill: none; stroke: #e6e5e1; stroke-width: 0.6; stroke-linecap: square"/>
     </g>
     <g id="line2d_24">
      <g>
       <use xlink:href="#m31878a57bb" x="103.911172" y="177.670359" style="fill: #52514e; stroke: #52514e; stroke-width: 0.8"/>
      </g>
     </g>
     <g id="text_13">
      <!-- Andalucía -->
      <g style="fill: #52514e" transform="translate(50.194922 181.279617) scale(0.095 -0.095)">
       <defs>
        <path id="DejaVuSans-41" d="M 2188 4044 
L 1331 1722 
L 3047 1722 
L 2188 4044 
z
M 1831 4666 
L 2547 4666 
L 4325 0 
L 3669 0 
L 3244 1197 
L 1141 1197 
L 716 0 
L 50 0 
L 1831 4666 
z
" transform="scale(0.015625)"/>
        <path id="DejaVuSans-ed" d="M 1322 5119 
L 1944 5119 
L 926 3944 
L 447 3944 
L 1322 5119 
z
M 603 3500 
L 1178 3500 
L 1178 0 
L 603 0 
L 603 3500 
z
M 891 3584 
L 891 3584 
z
" transform="scale(0.015625)"/>
       </defs>
       <use xlink:href="#DejaVuSans-41"/>
       <use xlink:href="#DejaVuSans-6e" transform="translate(68.408203 0)"/>
       <use xlink:href="#DejaVuSans-64" transform="translate(131.787109 0)"/>
       <use xlink:href="#DejaVuSans-61" transform="translate(195.263672 0)"/>
       <use xlink:href="#DejaVuSans-6c" transform="translate(256.542969 0)"/>
       <use xlink:href="#DejaVuSans-75" transform="translate(284.326172 0)"/>
       <use xlink:href="#DejaVuSans-63" transform="translate(347.705078 0)"/>
       <use xlink:href="#DejaVuSans-ed" transform="translate(402.685547 0)"/>
       <use xlink:href="#DejaVuSans-61" transform="translate(430.46875 0)"/>
      </g>
     </g>
    </g>
    <g id="ytick_5">
     <g id="line2d_25">
      <path d="M 103.911172 148.690359 
L 572.631172 148.690359 
" clip-path="url(#p5e8fd887cd)" style="fill: none; stroke: #e6e5e1; stroke-width: 0.6; stroke-linecap: square"/>
     </g>
     <g id="line2d_26">
      <g>
       <use xlink:href="#m31878a57bb" x="103.911172" y="148.690359" style="fill: #52514e; stroke: #52514e; stroke-width: 0.8"/>
      </g>
     </g>
     <g id="text_14">
      <!-- C. Valenciana -->
      <g style="fill: #52514e" transform="translate(32.622891 152.299617) scale(0.095 -0.095)">
       <use xlink:href="#DejaVuSans-43"/>
       <use xlink:href="#DejaVuSans-2e" transform="translate(69.824219 0)"/>
       <use xlink:href="#DejaVuSans-20" transform="translate(101.611328 0)"/>
       <use xlink:href="#DejaVuSans-56" transform="translate(133.398438 0)"/>
       <use xlink:href="#DejaVuSans-61" transform="translate(194.056641 0)"/>
       <use xlink:href="#DejaVuSans-6c" transform="translate(255.335938 0)"/>
       <use xlink:href="#DejaVuSans-65" transform="translate(283.119141 0)"/>
       <use xlink:href="#DejaVuSans-6e" transform="translate(344.642578 0)"/>
       <use xlink:href="#DejaVuSans-63" transform="translate(408.021484 0)"/>
       <use xlink:href="#DejaVuSans-69" transform="translate(463.001953 0)"/>
       <use xlink:href="#DejaVuSans-61" transform="translate(490.785156 0)"/>
       <use xlink:href="#DejaVuSans-6e" transform="translate(552.064453 0)"/>
       <use xlink:href="#DejaVuSans-61" transform="translate(615.443359 0)"/>
      </g>
     </g>
    </g>
    <g id="ytick_6">
     <g id="line2d_27">
      <path d="M 103.911172 119.710359 
L 572.631172 119.710359 
" clip-path="url(#p5e8fd887cd)" style="fill: none; stroke: #e6e5e1; stroke-width: 0.6; stroke-linecap: square"/>
     </g>
     <g id="line2d_28">
      <g>
       <use xlink:href="#m31878a57bb" x="103.911172" y="119.710359" style="fill: #52514e; stroke: #52514e; stroke-width: 0.8"/>
      </g>
     </g>
     <g id="text_15">
      <!-- Cataluña -->
      <g style="fill: #52514e" transform="translate(54.407578 123.319617) scale(0.095 -0.095)">
       <defs>
        <path id="DejaVuSans-f1" d="M 3513 2113 
L 3513 0 
L 2938 0 
L 2938 2094 
Q 2938 2591 2744 2837 
Q 2550 3084 2163 3084 
Q 1697 3084 1428 2787 
Q 1159 2491 1159 1978 
L 1159 0 
L 581 0 
L 581 3500 
L 1159 3500 
L 1159 2956 
Q 1366 3272 1645 3428 
Q 1925 3584 2291 3584 
Q 2894 3584 3203 3211 
Q 3513 2838 3513 2113 
z
M 2060 4281 
L 1881 4453 
Q 1813 4516 1761 4545 
Q 1710 4575 1669 4575 
Q 1550 4575 1494 4461 
Q 1438 4347 1431 4091 
L 1041 4091 
Q 1047 4513 1206 4742 
Q 1366 4972 1650 4972 
Q 1769 4972 1869 4928 
Q 1969 4884 2085 4781 
L 2263 4609 
Q 2331 4547 2383 4517 
Q 2435 4488 2475 4488 
Q 2594 4488 2650 4602 
Q 2706 4716 2713 4972 
L 3103 4972 
Q 3097 4550 2937 4320 
Q 2778 4091 2494 4091 
Q 2375 4091 2275 4134 
Q 2175 4178 2060 4281 
z
" transform="scale(0.015625)"/>
       </defs>
       <use xlink:href="#DejaVuSans-43"/>
       <use xlink:href="#DejaVuSans-61" transform="translate(69.824219 0)"/>
       <use xlink:href="#DejaVuSans-74" transform="translate(131.103516 0)"/>
       <use xlink:href="#DejaVuSans-61" transform="translate(170.3125 0)"/>
       <use xlink:href="#DejaVuSans-6c" transform="translate(231.591797 0)"/>
       <use xlink:href="#DejaVuSans-75" transform="translate(259.375 0)"/>
       <use xlink:href="#DejaVuSans-f1" transform="translate(322.753906 0)"/>
       <use xlink:href="#DejaVuSans-61" transform="translate(386.132812 0)"/>
      </g>
     </g>
    </g>
    <g id="ytick_7">
     <g id="line2d_29">
      <path d="M 103.911172 90.730359 
L 572.631172 90.730359 
" clip-path="url(#p5e8fd887cd)" style="fill: none; stroke: #e6e5e1; stroke-width: 0.6; stroke-linecap: square"/>
     </g>
     <g id="line2d_30">
      <g>
       <use xlink:href="#m31878a57bb" x="103.911172" y="90.730359" style="fill: #52514e; stroke: #52514e; stroke-width: 0.8"/>
      </g>
     </g>
     <g id="text_16">
      <!-- Castilla-La Mancha -->
      <g style="fill: #52514e" transform="translate(7.376641 94.339617) scale(0.095 -0.095)">
       <defs>
        <path id="DejaVuSans-4c" d="M 628 4666 
L 1259 4666 
L 1259 531 
L 3531 531 
L 3531 0 
L 628 0 
L 628 4666 
z
" transform="scale(0.015625)"/>
        <path id="DejaVuSans-4d" d="M 628 4666 
L 1569 4666 
L 2759 1491 
L 3956 4666 
L 4897 4666 
L 4897 0 
L 4281 0 
L 4281 4097 
L 3078 897 
L 2444 897 
L 1241 4097 
L 1241 0 
L 628 0 
L 628 4666 
z
" transform="scale(0.015625)"/>
       </defs>
       <use xlink:href="#DejaVuSans-43"/>
       <use xlink:href="#DejaVuSans-61" transform="translate(69.824219 0)"/>
       <use xlink:href="#DejaVuSans-73" transform="translate(131.103516 0)"/>
       <use xlink:href="#DejaVuSans-74" transform="translate(183.203125 0)"/>
       <use xlink:href="#DejaVuSans-69" transform="translate(222.412109 0)"/>
       <use xlink:href="#DejaVuSans-6c" transform="translate(250.195312 0)"/>
       <use xlink:href="#DejaVuSans-6c" transform="translate(277.978516 0)"/>
       <use xlink:href="#DejaVuSans-61" transform="translate(305.761719 0)"/>
       <use xlink:href="#DejaVuSans-2d" transform="translate(367.041016 0)"/>
       <use xlink:href="#DejaVuSans-4c" transform="translate(403.125 0)"/>
       <use xlink:href="#DejaVuSans-61" transform="translate(458.837891 0)"/>
       <use xlink:href="#DejaVuSans-20" transform="translate(520.117188 0)"/>
       <use xlink:href="#DejaVuSans-4d" transform="translate(551.904297 0)"/>
       <use xlink:href="#DejaVuSans-61" transform="translate(638.183594 0)"/>
       <use xlink:href="#DejaVuSans-6e" transform="translate(699.462891 0)"/>
       <use xlink:href="#DejaVuSans-63" transform="translate(762.841797 0)"/>
       <use xlink:href="#DejaVuSans-68" transform="translate(817.822266 0)"/>
       <use xlink:href="#DejaVuSans-61" transform="translate(881.201172 0)"/>
      </g>
     </g>
    </g>
    <g id="ytick_8">
     <g id="line2d_31">
      <path d="M 103.911172 61.750359 
L 572.631172 61.750359 
" clip-path="url(#p5e8fd887cd)" style="fill: none; stroke: #e6e5e1; stroke-width: 0.6; stroke-linecap: square"/>
     </g>
     <g id="line2d_32">
      <g>
       <use xlink:href="#m31878a57bb" x="103.911172" y="61.750359" style="fill: #52514e; stroke: #52514e; stroke-width: 0.8"/>
      </g>
     </g>
     <g id="text_17">
      <!-- Madrid -->
      <g style="fill: #52514e" transform="translate(64.286094 65.359617) scale(0.095 -0.095)">
       <use xlink:href="#DejaVuSans-4d"/>
       <use xlink:href="#DejaVuSans-61" transform="translate(86.279297 0)"/>
       <use xlink:href="#DejaVuSans-64" transform="translate(147.558594 0)"/>
       <use xlink:href="#DejaVuSans-72" transform="translate(211.035156 0)"/>
       <use xlink:href="#DejaVuSans-69" transform="translate(252.148438 0)"/>
       <use xlink:href="#DejaVuSans-64" transform="translate(279.931641 0)"/>
      </g>
     </g>
    </g>
    <g id="ytick_9">
     <g id="line2d_33">
      <path d="M 103.911172 32.770359 
L 572.631172 32.770359 
" clip-path="url(#p5e8fd887cd)" style="fill: none; stroke: #e6e5e1; stroke-width: 0.6; stroke-linecap: square"/>
     </g>
     <g id="line2d_34">
      <g>
       <use xlink:href="#m31878a57bb" x="103.911172" y="32.770359" style="fill: #52514e; stroke: #52514e; stroke-width: 0.8"/>
      </g>
     </g>
     <g id="text_18">
      <!-- Asturias -->
      <g style="fill: #52514e" transform="translate(58.403516 36.379617) scale(0.095 -0.095)">
       <use xlink:href="#DejaVuSans-41"/>
       <use xlink:href="#DejaVuSans-73" transform="translate(68.408203 0)"/>
       <use xlink:href="#DejaVuSans-74" transform="translate(120.507812 0)"/>
       <use xlink:href="#DejaVuSans-75" transform="translate(159.716797 0)"/>
       <use xlink:href="#DejaVuSans-72" transform="translate(223.095703 0)"/>
       <use xlink:href="#DejaVuSans-69" transform="translate(264.208984 0)"/>
       <use xlink:href="#DejaVuSans-61" transform="translate(291.992188 0)"/>
       <use xlink:href="#DejaVuSans-73" transform="translate(353.271484 0)"/>
      </g>
     </g>
    </g>
   </g>
   <g id="line2d_35">
    <path d="M 340.674864 264.610359 
L 162.801633 264.610359 
" clip-path="url(#p5e8fd887cd)" style="fill: none; stroke: #e34948; stroke-width: 2.2; stroke-linecap: square"/>
   </g>
   <g id="line2d_36">
    <path d="M 293.802864 235.630359 
L 193.809264 235.630359 
" clip-path="url(#p5e8fd887cd)" style="fill: none; stroke: #e34948; stroke-width: 2.2; stroke-linecap: square"/>
   </g>
   <g id="line2d_37">
    <path d="M 415.189326 206.650359 
L 316.637941 206.650359 
" clip-path="url(#p5e8fd887cd)" style="fill: none; stroke: #e34948; stroke-width: 2.2; stroke-linecap: square"/>
   </g>
   <g id="line2d_38">
    <path d="M 367.11548 177.670359 
L 387.546864 177.670359 
" clip-path="url(#p5e8fd887cd)" style="fill: none; stroke: #1baf7a; stroke-width: 2.2; stroke-linecap: square"/>
   </g>
   <g id="line2d_39">
    <path d="M 391.152403 148.690359 
L 451.965818 148.690359 
" clip-path="url(#p5e8fd887cd)" style="fill: none; stroke: #1baf7a; stroke-width: 2.2; stroke-linecap: square"/>
   </g>
   <g id="line2d_40">
    <path d="M 409.180095 119.710359 
L 505.327787 119.710359 
" clip-path="url(#p5e8fd887cd)" style="fill: none; stroke: #1baf7a; stroke-width: 2.2; stroke-linecap: square"/>
   </g>
   <g id="line2d_41">
    <path d="M 387.546864 90.730359 
L 500.520403 90.730359 
" clip-path="url(#p5e8fd887cd)" style="fill: none; stroke: #1baf7a; stroke-width: 2.2; stroke-linecap: square"/>
   </g>
   <g id="line2d_42">
    <path d="M 362.308095 61.750359 
L 488.501941 61.750359 
" clip-path="url(#p5e8fd887cd)" style="fill: none; stroke: #1baf7a; stroke-width: 2.2; stroke-linecap: square"/>
   </g>
   <g id="line2d_43">
    <path d="M 343.078556 32.770359 
L 478.887172 32.770359 
" clip-path="url(#p5e8fd887cd)" style="fill: none; stroke: #1baf7a; stroke-width: 2.2; stroke-linecap: square"/>
   </g>
   <g id="patch_3">
    <path d="M 103.911172 276.202359 
L 103.911172 21.178359 
" style="fill: none; stroke: #e6e5e1; stroke-width: 0.8; stroke-linejoin: miter; stroke-linecap: square"/>
   </g>
   <g id="patch_4">
    <path d="M 103.911172 276.202359 
L 572.631172 276.202359 
" style="fill: none; stroke: #e6e5e1; stroke-width: 0.8; stroke-linejoin: miter; stroke-linecap: square"/>
   </g>
   <g id="PathCollection_1">
    <defs>
     <path id="m620fdef351" d="M 0 3.708099 
C 0.983399 3.708099 1.926654 3.317391 2.622022 2.622022 
C 3.317391 1.926654 3.708099 0.983399 3.708099 0 
C 3.708099 -0.983399 3.317391 -1.926654 2.622022 -2.622022 
C 1.926654 -3.317391 0.983399 -3.708099 0 -3.708099 
C -0.983399 -3.708099 -1.926654 -3.317391 -2.622022 -2.622022 
C -3.317391 -1.926654 -3.708099 -0.983399 -3.708099 0 
C -3.708099 0.983399 -3.317391 1.926654 -2.622022 2.622022 
C -1.926654 3.317391 -0.983399 3.708099 0 3.708099 
z
" style="stroke: #52514e; stroke-width: 1.4"/>
    </defs>
    <g clip-path="url(#p5e8fd887cd)">
     <use xlink:href="#m620fdef351" x="340.674864" y="264.610359" style="fill: #fcfcfb; stroke: #52514e; stroke-width: 1.4"/>
    </g>
   </g>
   <g id="text_19">
    <!-- -1.48 -->
    <g style="fill: #0b0b0b" transform="translate(355.097018 266.955828) scale(0.085 -0.085)">
     <defs>
      <path id="DejaVuSans-31" d="M 794 531 
L 1825 531 
L 1825 4091 
L 703 3866 
L 703 4441 
L 1819 4666 
L 2450 4666 
L 2450 531 
L 3481 531 
L 3481 0 
L 794 0 
L 794 531 
z
" transform="scale(0.015625)"/>
      <path id="DejaVuSans-38" d="M 2034 2216 
Q 1584 2216 1326 1975 
Q 1069 1734 1069 1313 
Q 1069 891 1326 650 
Q 1584 409 2034 409 
Q 2484 409 2743 651 
Q 3003 894 3003 1313 
Q 3003 1734 2745 1975 
Q 2488 2216 2034 2216 
z
M 1403 2484 
Q 997 2584 770 2862 
Q 544 3141 544 3541 
Q 544 4100 942 4425 
Q 1341 4750 2034 4750 
Q 2731 4750 3128 4425 
Q 3525 4100 3525 3541 
Q 3525 3141 3298 2862 
Q 3072 2584 2669 2484 
Q 3125 2378 3379 2068 
Q 3634 1759 3634 1313 
Q 3634 634 3220 271 
Q 2806 -91 2034 -91 
Q 1263 -91 848 271 
Q 434 634 434 1313 
Q 434 1759 690 2068 
Q 947 2378 1403 2484 
z
M 1172 3481 
Q 1172 3119 1398 2916 
Q 1625 2713 2034 2713 
Q 2441 2713 2670 2916 
Q 2900 3119 2900 3481 
Q 2900 3844 2670 4047 
Q 2441 4250 2034 4250 
Q 1625 4250 1398 4047 
Q 1172 3844 1172 3481 
z
" transform="scale(0.015625)"/>
     </defs>
     <use xlink:href="#DejaVuSans-2d"/>
     <use xlink:href="#DejaVuSans-31" transform="translate(36.083984 0)"/>
     <use xlink:href="#DejaVuSans-2e" transform="translate(99.707031 0)"/>
     <use xlink:href="#DejaVuSans-34" transform="translate(131.494141 0)"/>
     <use xlink:href="#DejaVuSans-38" transform="translate(195.117188 0)"/>
    </g>
   </g>
   <g id="PathCollection_2">
    <g clip-path="url(#p5e8fd887cd)">
     <use xlink:href="#m620fdef351" x="293.802864" y="235.630359" style="fill: #fcfcfb; stroke: #52514e; stroke-width: 1.4"/>
    </g>
   </g>
   <g id="text_20">
    <!-- -0.83 -->
    <g style="fill: #0b0b0b" transform="translate(308.225018 237.975828) scale(0.085 -0.085)">
     <use xlink:href="#DejaVuSans-2d"/>
     <use xlink:href="#DejaVuSans-30" transform="translate(36.083984 0)"/>
     <use xlink:href="#DejaVuSans-2e" transform="translate(99.707031 0)"/>
     <use xlink:href="#DejaVuSans-38" transform="translate(131.494141 0)"/>
     <use xlink:href="#DejaVuSans-33" transform="translate(195.117188 0)"/>
    </g>
   </g>
   <g id="PathCollection_3">
    <g clip-path="url(#p5e8fd887cd)">
     <use xlink:href="#m620fdef351" x="415.189326" y="206.650359" style="fill: #fcfcfb; stroke: #52514e; stroke-width: 1.4"/>
    </g>
   </g>
   <g id="text_21">
    <!-- -0.82 -->
    <g style="fill: #0b0b0b" transform="translate(429.61148 208.995828) scale(0.085 -0.085)">
     <use xlink:href="#DejaVuSans-2d"/>
     <use xlink:href="#DejaVuSans-30" transform="translate(36.083984 0)"/>
     <use xlink:href="#DejaVuSans-2e" transform="translate(99.707031 0)"/>
     <use xlink:href="#DejaVuSans-38" transform="translate(131.494141 0)"/>
     <use xlink:href="#DejaVuSans-32" transform="translate(195.117188 0)"/>
    </g>
   </g>
   <g id="text_22">
    <!-- press -->
    <g style="fill: #8a8983" transform="translate(282.1111 208.719891) scale(0.075 -0.075)">
     <use xlink:href="#DejaVuSans-70"/>
     <use xlink:href="#DejaVuSans-72" transform="translate(63.476562 0)"/>
     <use xlink:href="#DejaVuSans-65" transform="translate(102.339844 0)"/>
     <use xlink:href="#DejaVuSans-73" transform="translate(163.863281 0)"/>
     <use xlink:href="#DejaVuSans-73" transform="translate(215.962891 0)"/>
    </g>
   </g>
   <g id="PathCollection_4">
    <g clip-path="url(#p5e8fd887cd)">
     <use xlink:href="#m620fdef351" x="367.11548" y="177.670359" style="fill: #fcfcfb; stroke: #52514e; stroke-width: 1.4"/>
    </g>
   </g>
   <g id="text_23">
    <!-- +0.17 -->
    <g style="fill: #0b0b0b" transform="translate(401.969018 180.015828) scale(0.085 -0.085)">
     <defs>
      <path id="DejaVuSans-2b" d="M 2944 4013 
L 2944 2272 
L 4684 2272 
L 4684 1741 
L 2944 1741 
L 2944 0 
L 2419 0 
L 2419 1741 
L 678 1741 
L 678 2272 
L 2419 2272 
L 2419 4013 
L 2944 4013 
z
" transform="scale(0.015625)"/>
     </defs>
     <use xlink:href="#DejaVuSans-2b"/>
     <use xlink:href="#DejaVuSans-30" transform="translate(83.789062 0)"/>
     <use xlink:href="#DejaVuSans-2e" transform="translate(147.412109 0)"/>
     <use xlink:href="#DejaVuSans-31" transform="translate(179.199219 0)"/>
     <use xlink:href="#DejaVuSans-37" transform="translate(242.822266 0)"/>
    </g>
   </g>
   <g id="PathCollection_5">
    <g clip-path="url(#p5e8fd887cd)">
     <use xlink:href="#m620fdef351" x="391.152403" y="148.690359" style="fill: #fcfcfb; stroke: #52514e; stroke-width: 1.4"/>
    </g>
   </g>
   <g id="text_24">
    <!-- +0.51 -->
    <g style="fill: #0b0b0b" transform="translate(466.387972 151.035828) scale(0.085 -0.085)">
     <use xlink:href="#DejaVuSans-2b"/>
     <use xlink:href="#DejaVuSans-30" transform="translate(83.789062 0)"/>
     <use xlink:href="#DejaVuSans-2e" transform="translate(147.412109 0)"/>
     <use xlink:href="#DejaVuSans-35" transform="translate(179.199219 0)"/>
     <use xlink:href="#DejaVuSans-31" transform="translate(242.822266 0)"/>
    </g>
   </g>
   <g id="PathCollection_6">
    <g clip-path="url(#p5e8fd887cd)">
     <use xlink:href="#m620fdef351" x="409.180095" y="119.710359" style="fill: #fcfcfb; stroke: #52514e; stroke-width: 1.4"/>
    </g>
   </g>
   <g id="text_25">
    <!-- +0.80 -->
    <g style="fill: #0b0b0b" transform="translate(519.749941 122.055828) scale(0.085 -0.085)">
     <use xlink:href="#DejaVuSans-2b"/>
     <use xlink:href="#DejaVuSans-30" transform="translate(83.789062 0)"/>
     <use xlink:href="#DejaVuSans-2e" transform="translate(147.412109 0)"/>
     <use xlink:href="#DejaVuSans-38" transform="translate(179.199219 0)"/>
     <use xlink:href="#DejaVuSans-30" transform="translate(242.822266 0)"/>
    </g>
   </g>
   <g id="PathCollection_7">
    <g clip-path="url(#p5e8fd887cd)">
     <use xlink:href="#m620fdef351" x="387.546864" y="90.730359" style="fill: #fcfcfb; stroke: #52514e; stroke-width: 1.4"/>
    </g>
   </g>
   <g id="text_26">
    <!-- +0.94 -->
    <g style="fill: #0b0b0b" transform="translate(514.942556 93.075828) scale(0.085 -0.085)">
     <defs>
      <path id="DejaVuSans-39" d="M 703 97 
L 703 672 
Q 941 559 1184 500 
Q 1428 441 1663 441 
Q 2288 441 2617 861 
Q 2947 1281 2994 2138 
Q 2813 1869 2534 1725 
Q 2256 1581 1919 1581 
Q 1219 1581 811 2004 
Q 403 2428 403 3163 
Q 403 3881 828 4315 
Q 1253 4750 1959 4750 
Q 2769 4750 3195 4129 
Q 3622 3509 3622 2328 
Q 3622 1225 3098 567 
Q 2575 -91 1691 -91 
Q 1453 -91 1209 -44 
Q 966 3 703 97 
z
M 1959 2075 
Q 2384 2075 2632 2365 
Q 2881 2656 2881 3163 
Q 2881 3666 2632 3958 
Q 2384 4250 1959 4250 
Q 1534 4250 1286 3958 
Q 1038 3666 1038 3163 
Q 1038 2656 1286 2365 
Q 1534 2075 1959 2075 
z
" transform="scale(0.015625)"/>
     </defs>
     <use xlink:href="#DejaVuSans-2b"/>
     <use xlink:href="#DejaVuSans-30" transform="translate(83.789062 0)"/>
     <use xlink:href="#DejaVuSans-2e" transform="translate(147.412109 0)"/>
     <use xlink:href="#DejaVuSans-39" transform="translate(179.199219 0)"/>
     <use xlink:href="#DejaVuSans-34" transform="translate(242.822266 0)"/>
    </g>
   </g>
   <g id="PathCollection_8">
    <g clip-path="url(#p5e8fd887cd)">
     <use xlink:href="#m620fdef351" x="362.308095" y="61.750359" style="fill: #fcfcfb; stroke: #52514e; stroke-width: 1.4"/>
    </g>
   </g>
   <g id="text_27">
    <!-- +1.05 -->
    <g style="fill: #0b0b0b" transform="translate(502.924095 64.095828) scale(0.085 -0.085)">
     <use xlink:href="#DejaVuSans-2b"/>
     <use xlink:href="#DejaVuSans-31" transform="translate(83.789062 0)"/>
     <use xlink:href="#DejaVuSans-2e" transform="translate(147.412109 0)"/>
     <use xlink:href="#DejaVuSans-30" transform="translate(179.199219 0)"/>
     <use xlink:href="#DejaVuSans-35" transform="translate(242.822266 0)"/>
    </g>
   </g>
   <g id="PathCollection_9">
    <g clip-path="url(#p5e8fd887cd)">
     <use xlink:href="#m620fdef351" x="343.078556" y="32.770359" style="fill: #fcfcfb; stroke: #52514e; stroke-width: 1.4"/>
    </g>
   </g>
   <g id="text_28">
    <!-- +1.13 -->
    <g style="fill: #0b0b0b" transform="translate(493.309326 35.115828) scale(0.085 -0.085)">
     <use xlink:href="#DejaVuSans-2b"/>
     <use xlink:href="#DejaVuSans-31" transform="translate(83.789062 0)"/>
     <use xlink:href="#DejaVuSans-2e" transform="translate(147.412109 0)"/>
     <use xlink:href="#DejaVuSans-31" transform="translate(179.199219 0)"/>
     <use xlink:href="#DejaVuSans-33" transform="translate(242.822266 0)"/>
    </g>
   </g>
   <g id="text_29">
    <!-- 2025 → 2026 by region: nine communities have published a 2026 Physics mean -->
    <g style="fill: #0b0b0b" transform="translate(103.688867 15.178359) scale(0.105 -0.105)">
     <defs>
      <path id="DejaVuSans-Bold-32" d="M 1844 884 
L 3897 884 
L 3897 0 
L 506 0 
L 506 884 
L 2209 2388 
Q 2438 2594 2547 2791 
Q 2656 2988 2656 3200 
Q 2656 3528 2436 3728 
Q 2216 3928 1850 3928 
Q 1569 3928 1234 3808 
Q 900 3688 519 3450 
L 519 4475 
Q 925 4609 1322 4679 
Q 1719 4750 2100 4750 
Q 2938 4750 3402 4381 
Q 3866 4013 3866 3353 
Q 3866 2972 3669 2642 
Q 3472 2313 2841 1759 
L 1844 884 
z
" transform="scale(0.015625)"/>
      <path id="DejaVuSans-Bold-30" d="M 2944 2338 
Q 2944 3213 2780 3570 
Q 2616 3928 2228 3928 
Q 1841 3928 1675 3570 
Q 1509 3213 1509 2338 
Q 1509 1453 1675 1090 
Q 1841 728 2228 728 
Q 2613 728 2778 1090 
Q 2944 1453 2944 2338 
z
M 4147 2328 
Q 4147 1169 3647 539 
Q 3147 -91 2228 -91 
Q 1306 -91 806 539 
Q 306 1169 306 2328 
Q 306 3491 806 4120 
Q 1306 4750 2228 4750 
Q 3147 4750 3647 4120 
Q 4147 3491 4147 2328 
z
" transform="scale(0.015625)"/>
      <path id="DejaVuSans-Bold-35" d="M 678 4666 
L 3669 4666 
L 3669 3781 
L 1638 3781 
L 1638 3059 
Q 1775 3097 1914 3117 
Q 2053 3138 2203 3138 
Q 3056 3138 3531 2711 
Q 4006 2284 4006 1522 
Q 4006 766 3489 337 
Q 2972 -91 2053 -91 
Q 1656 -91 1267 -14 
Q 878 63 494 219 
L 494 1166 
Q 875 947 1217 837 
Q 1559 728 1863 728 
Q 2300 728 2551 942 
Q 2803 1156 2803 1522 
Q 2803 1891 2551 2103 
Q 2300 2316 1863 2316 
Q 1603 2316 1309 2248 
Q 1016 2181 678 2041 
L 678 4666 
z
" transform="scale(0.015625)"/>
      <path id="DejaVuSans-Bold-20" transform="scale(0.015625)"/>
      <path id="DejaVuSans-Bold-2192" d="M 5050 2225 
L 5050 1788 
L 3822 559 
L 3369 1013 
L 3988 1631 
L 366 1631 
L 366 2381 
L 3988 2381 
L 3369 3000 
L 3822 3453 
L 5050 2225 
z
" transform="scale(0.015625)"/>
      <path id="DejaVuSans-Bold-36" d="M 2316 2303 
Q 2000 2303 1842 2098 
Q 1684 1894 1684 1484 
Q 1684 1075 1842 870 
Q 2000 666 2316 666 
Q 2634 666 2792 870 
Q 2950 1075 2950 1484 
Q 2950 1894 2792 2098 
Q 2634 2303 2316 2303 
z
M 3803 4544 
L 3803 3681 
Q 3506 3822 3243 3889 
Q 2981 3956 2731 3956 
Q 2194 3956 1894 3657 
Q 1594 3359 1544 2772 
Q 1750 2925 1990 3001 
Q 2231 3078 2516 3078 
Q 3231 3078 3670 2659 
Q 4109 2241 4109 1563 
Q 4109 813 3618 361 
Q 3128 -91 2303 -91 
Q 1394 -91 895 523 
Q 397 1138 397 2266 
Q 397 3422 980 4083 
Q 1563 4744 2578 4744 
Q 2900 4744 3203 4694 
Q 3506 4644 3803 4544 
z
" transform="scale(0.015625)"/>
      <path id="DejaVuSans-Bold-62" d="M 2400 722 
Q 2759 722 2948 984 
Q 3138 1247 3138 1747 
Q 3138 2247 2948 2509 
Q 2759 2772 2400 2772 
Q 2041 2772 1848 2508 
Q 1656 2244 1656 1747 
Q 1656 1250 1848 986 
Q 2041 722 2400 722 
z
M 1656 2988 
Q 1888 3294 2169 3439 
Q 2450 3584 2816 3584 
Q 3463 3584 3878 3070 
Q 4294 2556 4294 1747 
Q 4294 938 3878 423 
Q 3463 -91 2816 -91 
Q 2450 -91 2169 54 
Q 1888 200 1656 506 
L 1656 0 
L 538 0 
L 538 4863 
L 1656 4863 
L 1656 2988 
z
" transform="scale(0.015625)"/>
      <path id="DejaVuSans-Bold-79" d="M 78 3500 
L 1197 3500 
L 2138 1125 
L 2938 3500 
L 4056 3500 
L 2584 -331 
Q 2363 -916 2067 -1148 
Q 1772 -1381 1288 -1381 
L 641 -1381 
L 641 -647 
L 991 -647 
Q 1275 -647 1404 -556 
Q 1534 -466 1606 -231 
L 1638 -134 
L 78 3500 
z
" transform="scale(0.015625)"/>
      <path id="DejaVuSans-Bold-72" d="M 3138 2547 
Q 2991 2616 2845 2648 
Q 2700 2681 2553 2681 
Q 2122 2681 1889 2404 
Q 1656 2128 1656 1613 
L 1656 0 
L 538 0 
L 538 3500 
L 1656 3500 
L 1656 2925 
Q 1872 3269 2151 3426 
Q 2431 3584 2822 3584 
Q 2878 3584 2943 3579 
Q 3009 3575 3134 3559 
L 3138 2547 
z
" transform="scale(0.015625)"/>
      <path id="DejaVuSans-Bold-65" d="M 4031 1759 
L 4031 1441 
L 1416 1441 
Q 1456 1047 1700 850 
Q 1944 653 2381 653 
Q 2734 653 3104 758 
Q 3475 863 3866 1075 
L 3866 213 
Q 3469 63 3072 -14 
Q 2675 -91 2278 -91 
Q 1328 -91 801 392 
Q 275 875 275 1747 
Q 275 2603 792 3093 
Q 1309 3584 2216 3584 
Q 3041 3584 3536 3087 
Q 4031 2591 4031 1759 
z
M 2881 2131 
Q 2881 2450 2695 2645 
Q 2509 2841 2209 2841 
Q 1884 2841 1681 2658 
Q 1478 2475 1428 2131 
L 2881 2131 
z
" transform="scale(0.015625)"/>
      <path id="DejaVuSans-Bold-67" d="M 2919 594 
Q 2688 288 2409 144 
Q 2131 0 1766 0 
Q 1125 0 706 504 
Q 288 1009 288 1791 
Q 288 2575 706 3076 
Q 1125 3578 1766 3578 
Q 2131 3578 2409 3434 
Q 2688 3291 2919 2981 
L 2919 3500 
L 4044 3500 
L 4044 353 
Q 4044 -491 3511 -936 
Q 2978 -1381 1966 -1381 
Q 1638 -1381 1331 -1331 
Q 1025 -1281 716 -1178 
L 716 -306 
Q 1009 -475 1290 -558 
Q 1572 -641 1856 -641 
Q 2406 -641 2662 -400 
Q 2919 -159 2919 353 
L 2919 594 
z
M 2181 2772 
Q 1834 2772 1640 2515 
Q 1447 2259 1447 1791 
Q 1447 1309 1634 1061 
Q 1822 813 2181 813 
Q 2531 813 2725 1069 
Q 2919 1325 2919 1791 
Q 2919 2259 2725 2515 
Q 2531 2772 2181 2772 
z
" transform="scale(0.015625)"/>
      <path id="DejaVuSans-Bold-69" d="M 538 3500 
L 1656 3500 
L 1656 0 
L 538 0 
L 538 3500 
z
M 538 4863 
L 1656 4863 
L 1656 3950 
L 538 3950 
L 538 4863 
z
" transform="scale(0.015625)"/>
      <path id="DejaVuSans-Bold-6f" d="M 2203 2784 
Q 1831 2784 1636 2517 
Q 1441 2250 1441 1747 
Q 1441 1244 1636 976 
Q 1831 709 2203 709 
Q 2569 709 2762 976 
Q 2956 1244 2956 1747 
Q 2956 2250 2762 2517 
Q 2569 2784 2203 2784 
z
M 2203 3584 
Q 3106 3584 3614 3096 
Q 4122 2609 4122 1747 
Q 4122 884 3614 396 
Q 3106 -91 2203 -91 
Q 1297 -91 786 396 
Q 275 884 275 1747 
Q 275 2609 786 3096 
Q 1297 3584 2203 3584 
z
" transform="scale(0.015625)"/>
      <path id="DejaVuSans-Bold-6e" d="M 4056 2131 
L 4056 0 
L 2931 0 
L 2931 347 
L 2931 1631 
Q 2931 2084 2911 2256 
Q 2891 2428 2841 2509 
Q 2775 2619 2662 2680 
Q 2550 2741 2406 2741 
Q 2056 2741 1856 2470 
Q 1656 2200 1656 1722 
L 1656 0 
L 538 0 
L 538 3500 
L 1656 3500 
L 1656 2988 
Q 1909 3294 2193 3439 
Q 2478 3584 2822 3584 
Q 3428 3584 3742 3212 
Q 4056 2841 4056 2131 
z
" transform="scale(0.015625)"/>
      <path id="DejaVuSans-Bold-3a" d="M 716 3500 
L 1844 3500 
L 1844 2291 
L 716 2291 
L 716 3500 
z
M 716 1209 
L 1844 1209 
L 1844 0 
L 716 0 
L 716 1209 
z
" transform="scale(0.015625)"/>
      <path id="DejaVuSans-Bold-63" d="M 3366 3391 
L 3366 2478 
Q 3138 2634 2908 2709 
Q 2678 2784 2431 2784 
Q 1963 2784 1702 2511 
Q 1441 2238 1441 1747 
Q 1441 1256 1702 982 
Q 1963 709 2431 709 
Q 2694 709 2930 787 
Q 3166 866 3366 1019 
L 3366 103 
Q 3103 6 2833 -42 
Q 2563 -91 2291 -91 
Q 1344 -91 809 395 
Q 275 881 275 1747 
Q 275 2613 809 3098 
Q 1344 3584 2291 3584 
Q 2566 3584 2833 3536 
Q 3100 3488 3366 3391 
z
" transform="scale(0.015625)"/>
      <path id="DejaVuSans-Bold-6d" d="M 3781 2919 
Q 3994 3244 4286 3414 
Q 4578 3584 4928 3584 
Q 5531 3584 5847 3212 
Q 6163 2841 6163 2131 
L 6163 0 
L 5038 0 
L 5038 1825 
Q 5041 1866 5042 1909 
Q 5044 1953 5044 2034 
Q 5044 2406 4934 2573 
Q 4825 2741 4581 2741 
Q 4263 2741 4089 2478 
Q 3916 2216 3909 1719 
L 3909 0 
L 2784 0 
L 2784 1825 
Q 2784 2406 2684 2573 
Q 2584 2741 2328 2741 
Q 2006 2741 1831 2477 
Q 1656 2213 1656 1722 
L 1656 0 
L 531 0 
L 531 3500 
L 1656 3500 
L 1656 2988 
Q 1863 3284 2130 3434 
Q 2397 3584 2719 3584 
Q 3081 3584 3359 3409 
Q 3638 3234 3781 2919 
z
" transform="scale(0.015625)"/>
      <path id="DejaVuSans-Bold-75" d="M 500 1363 
L 500 3500 
L 1625 3500 
L 1625 3150 
Q 1625 2866 1622 2436 
Q 1619 2006 1619 1863 
Q 1619 1441 1641 1255 
Q 1663 1069 1716 984 
Q 1784 875 1895 815 
Q 2006 756 2150 756 
Q 2500 756 2700 1025 
Q 2900 1294 2900 1772 
L 2900 3500 
L 4019 3500 
L 4019 0 
L 2900 0 
L 2900 506 
Q 2647 200 2364 54 
Q 2081 -91 1741 -91 
Q 1134 -91 817 281 
Q 500 653 500 1363 
z
" transform="scale(0.015625)"/>
      <path id="DejaVuSans-Bold-74" d="M 1759 4494 
L 1759 3500 
L 2913 3500 
L 2913 2700 
L 1759 2700 
L 1759 1216 
Q 1759 972 1856 886 
Q 1953 800 2241 800 
L 2816 800 
L 2816 0 
L 1856 0 
Q 1194 0 917 276 
Q 641 553 641 1216 
L 641 2700 
L 84 2700 
L 84 3500 
L 641 3500 
L 641 4494 
L 1759 4494 
z
" transform="scale(0.015625)"/>
      <path id="DejaVuSans-Bold-73" d="M 3272 3391 
L 3272 2541 
Q 2913 2691 2578 2766 
Q 2244 2841 1947 2841 
Q 1628 2841 1473 2761 
Q 1319 2681 1319 2516 
Q 1319 2381 1436 2309 
Q 1553 2238 1856 2203 
L 2053 2175 
Q 2913 2066 3209 1816 
Q 3506 1566 3506 1031 
Q 3506 472 3093 190 
Q 2681 -91 1863 -91 
Q 1516 -91 1145 -36 
Q 775 19 384 128 
L 384 978 
Q 719 816 1070 734 
Q 1422 653 1784 653 
Q 2113 653 2278 743 
Q 2444 834 2444 1013 
Q 2444 1163 2330 1236 
Q 2216 1309 1875 1350 
L 1678 1375 
Q 931 1469 631 1722 
Q 331 1975 331 2491 
Q 331 3047 712 3315 
Q 1094 3584 1881 3584 
Q 2191 3584 2531 3537 
Q 2872 3491 3272 3391 
z
" transform="scale(0.015625)"/>
      <path id="DejaVuSans-Bold-68" d="M 4056 2131 
L 4056 0 
L 2931 0 
L 2931 347 
L 2931 1625 
Q 2931 2084 2911 2256 
Q 2891 2428 2841 2509 
Q 2775 2619 2662 2680 
Q 2550 2741 2406 2741 
Q 2056 2741 1856 2470 
Q 1656 2200 1656 1722 
L 1656 0 
L 538 0 
L 538 4863 
L 1656 4863 
L 1656 2988 
Q 1909 3294 2193 3439 
Q 2478 3584 2822 3584 
Q 3428 3584 3742 3212 
Q 4056 2841 4056 2131 
z
" transform="scale(0.015625)"/>
      <path id="DejaVuSans-Bold-61" d="M 2106 1575 
Q 1756 1575 1579 1456 
Q 1403 1338 1403 1106 
Q 1403 894 1545 773 
Q 1688 653 1941 653 
Q 2256 653 2472 879 
Q 2688 1106 2688 1447 
L 2688 1575 
L 2106 1575 
z
M 3816 1997 
L 3816 0 
L 2688 0 
L 2688 519 
Q 2463 200 2181 54 
Q 1900 -91 1497 -91 
Q 953 -91 614 226 
Q 275 544 275 1050 
Q 275 1666 698 1953 
Q 1122 2241 2028 2241 
L 2688 2241 
L 2688 2328 
Q 2688 2594 2478 2717 
Q 2269 2841 1825 2841 
Q 1466 2841 1156 2769 
Q 847 2697 581 2553 
L 581 3406 
Q 941 3494 1303 3539 
Q 1666 3584 2028 3584 
Q 2975 3584 3395 3211 
Q 3816 2838 3816 1997 
z
" transform="scale(0.015625)"/>
      <path id="DejaVuSans-Bold-76" d="M 97 3500 
L 1216 3500 
L 2088 1081 
L 2956 3500 
L 4078 3500 
L 2700 0 
L 1472 0 
L 97 3500 
z
" transform="scale(0.015625)"/>
      <path id="DejaVuSans-Bold-70" d="M 1656 506 
L 1656 -1331 
L 538 -1331 
L 538 3500 
L 1656 3500 
L 1656 2988 
Q 1888 3294 2169 3439 
Q 2450 3584 2816 3584 
Q 3463 3584 3878 3070 
Q 4294 2556 4294 1747 
Q 4294 938 3878 423 
Q 3463 -91 2816 -91 
Q 2450 -91 2169 54 
Q 1888 200 1656 506 
z
M 2400 2772 
Q 2041 2772 1848 2508 
Q 1656 2244 1656 1747 
Q 1656 1250 1848 986 
Q 2041 722 2400 722 
Q 2759 722 2948 984 
Q 3138 1247 3138 1747 
Q 3138 2247 2948 2509 
Q 2759 2772 2400 2772 
z
" transform="scale(0.015625)"/>
      <path id="DejaVuSans-Bold-6c" d="M 538 4863 
L 1656 4863 
L 1656 0 
L 538 0 
L 538 4863 
z
" transform="scale(0.015625)"/>
      <path id="DejaVuSans-Bold-64" d="M 2919 2988 
L 2919 4863 
L 4044 4863 
L 4044 0 
L 2919 0 
L 2919 506 
Q 2688 197 2409 53 
Q 2131 -91 1766 -91 
Q 1119 -91 703 423 
Q 288 938 288 1747 
Q 288 2556 703 3070 
Q 1119 3584 1766 3584 
Q 2128 3584 2408 3439 
Q 2688 3294 2919 2988 
z
M 2181 722 
Q 2541 722 2730 984 
Q 2919 1247 2919 1747 
Q 2919 2247 2730 2509 
Q 2541 2772 2181 2772 
Q 1825 2772 1636 2509 
Q 1447 2247 1447 1747 
Q 1447 1247 1636 984 
Q 1825 722 2181 722 
z
" transform="scale(0.015625)"/>
      <path id="DejaVuSans-Bold-50" d="M 588 4666 
L 2584 4666 
Q 3475 4666 3951 4270 
Q 4428 3875 4428 3144 
Q 4428 2409 3951 2014 
Q 3475 1619 2584 1619 
L 1791 1619 
L 1791 0 
L 588 0 
L 588 4666 
z
M 1791 3794 
L 1791 2491 
L 2456 2491 
Q 2806 2491 2997 2661 
Q 3188 2831 3188 3144 
Q 3188 3456 2997 3625 
Q 2806 3794 2456 3794 
L 1791 3794 
z
" transform="scale(0.015625)"/>
     </defs>
     <use xlink:href="#DejaVuSans-Bold-32"/>
     <use xlink:href="#DejaVuSans-Bold-30" transform="translate(69.580078 0)"/>
     <use xlink:href="#DejaVuSans-Bold-32" transform="translate(139.160156 0)"/>
     <use xlink:href="#DejaVuSans-Bold-35" transform="translate(208.740234 0)"/>
     <use xlink:href="#DejaVuSans-Bold-20" transform="translate(278.320312 0)"/>
     <use xlink:href="#DejaVuSans-Bold-2192" transform="translate(313.134766 0)"/>
     <use xlink:href="#DejaVuSans-Bold-20" transform="translate(396.923828 0)"/>
     <use xlink:href="#DejaVuSans-Bold-32" transform="translate(431.738281 0)"/>
     <use xlink:href="#DejaVuSans-Bold-30" transform="translate(501.318359 0)"/>
     <use xlink:href="#DejaVuSans-Bold-32" transform="translate(570.898438 0)"/>
     <use xlink:href="#DejaVuSans-Bold-36" transform="translate(640.478516 0)"/>
     <use xlink:href="#DejaVuSans-Bold-20" transform="translate(710.058594 0)"/>
     <use xlink:href="#DejaVuSans-Bold-62" transform="translate(744.873047 0)"/>
     <use xlink:href="#DejaVuSans-Bold-79" transform="translate(816.455078 0)"/>
     <use xlink:href="#DejaVuSans-Bold-20" transform="translate(881.640625 0)"/>
     <use xlink:href="#DejaVuSans-Bold-72" transform="translate(916.455078 0)"/>
     <use xlink:href="#DejaVuSans-Bold-65" transform="translate(965.771484 0)"/>
     <use xlink:href="#DejaVuSans-Bold-67" transform="translate(1033.59375 0)"/>
     <use xlink:href="#DejaVuSans-Bold-69" transform="translate(1105.175781 0)"/>
     <use xlink:href="#DejaVuSans-Bold-6f" transform="translate(1139.453125 0)"/>
     <use xlink:href="#DejaVuSans-Bold-6e" transform="translate(1208.154297 0)"/>
     <use xlink:href="#DejaVuSans-Bold-3a" transform="translate(1279.345703 0)"/>
     <use xlink:href="#DejaVuSans-Bold-20" transform="translate(1319.335938 0)"/>
     <use xlink:href="#DejaVuSans-Bold-6e" transform="translate(1354.150391 0)"/>
     <use xlink:href="#DejaVuSans-Bold-69" transform="translate(1425.341797 0)"/>
     <use xlink:href="#DejaVuSans-Bold-6e" transform="translate(1459.619141 0)"/>
     <use xlink:href="#DejaVuSans-Bold-65" transform="translate(1530.810547 0)"/>
     <use xlink:href="#DejaVuSans-Bold-20" transform="translate(1598.632812 0)"/>
     <use xlink:href="#DejaVuSans-Bold-63" transform="translate(1633.447266 0)"/>
     <use xlink:href="#DejaVuSans-Bold-6f" transform="translate(1692.724609 0)"/>
     <use xlink:href="#DejaVuSans-Bold-6d" transform="translate(1761.425781 0)"/>
     <use xlink:href="#DejaVuSans-Bold-6d" transform="translate(1865.625 0)"/>
     <use xlink:href="#DejaVuSans-Bold-75" transform="translate(1969.824219 0)"/>
     <use xlink:href="#DejaVuSans-Bold-6e" transform="translate(2041.015625 0)"/>
     <use xlink:href="#DejaVuSans-Bold-69" transform="translate(2112.207031 0)"/>
     <use xlink:href="#DejaVuSans-Bold-74" transform="translate(2146.484375 0)"/>
     <use xlink:href="#DejaVuSans-Bold-69" transform="translate(2194.287109 0)"/>
     <use xlink:href="#DejaVuSans-Bold-65" transform="translate(2228.564453 0)"/>
     <use xlink:href="#DejaVuSans-Bold-73" transform="translate(2296.386719 0)"/>
     <use xlink:href="#DejaVuSans-Bold-20" transform="translate(2355.908203 0)"/>
     <use xlink:href="#DejaVuSans-Bold-68" transform="translate(2390.722656 0)"/>
     <use xlink:href="#DejaVuSans-Bold-61" transform="translate(2461.914062 0)"/>
     <use xlink:href="#DejaVuSans-Bold-76" transform="translate(2529.394531 0)"/>
     <use xlink:href="#DejaVuSans-Bold-65" transform="translate(2594.580078 0)"/>
     <use xlink:href="#DejaVuSans-Bold-20" transform="translate(2662.402344 0)"/>
     <use xlink:href="#DejaVuSans-Bold-70" transform="translate(2697.216797 0)"/>
     <use xlink:href="#DejaVuSans-Bold-75" transform="translate(2768.798828 0)"/>
     <use xlink:href="#DejaVuSans-Bold-62" transform="translate(2839.990234 0)"/>
     <use xlink:href="#DejaVuSans-Bold-6c" transform="translate(2911.572266 0)"/>
     <use xlink:href="#DejaVuSans-Bold-69" transform="translate(2945.849609 0)"/>
     <use xlink:href="#DejaVuSans-Bold-73" transform="translate(2980.126953 0)"/>
     <use xlink:href="#DejaVuSans-Bold-68" transform="translate(3039.648438 0)"/>
     <use xlink:href="#DejaVuSans-Bold-65" transform="translate(3110.839844 0)"/>
     <use xlink:href="#DejaVuSans-Bold-64" transform="translate(3178.662109 0)"/>
     <use xlink:href="#DejaVuSans-Bold-20" transform="translate(3250.244141 0)"/>
     <use xlink:href="#DejaVuSans-Bold-61" transform="translate(3285.058594 0)"/>
     <use xlink:href="#DejaVuSans-Bold-20" transform="translate(3352.539062 0)"/>
     <use xlink:href="#DejaVuSans-Bold-32" transform="translate(3387.353516 0)"/>
     <use xlink:href="#DejaVuSans-Bold-30" transform="translate(3456.933594 0)"/>
     <use xlink:href="#DejaVuSans-Bold-32" transform="translate(3526.513672 0)"/>
     <use xlink:href="#DejaVuSans-Bold-36" transform="translate(3596.09375 0)"/>
     <use xlink:href="#DejaVuSans-Bold-20" transform="translate(3665.673828 0)"/>
     <use xlink:href="#DejaVuSans-Bold-50" transform="translate(3700.488281 0)"/>
     <use xlink:href="#DejaVuSans-Bold-68" transform="translate(3773.779297 0)"/>
     <use xlink:href="#DejaVuSans-Bold-79" transform="translate(3844.970703 0)"/>
     <use xlink:href="#DejaVuSans-Bold-73" transform="translate(3910.15625 0)"/>
     <use xlink:href="#DejaVuSans-Bold-69" transform="translate(3969.677734 0)"/>
     <use xlink:href="#DejaVuSans-Bold-63" transform="translate(4003.955078 0)"/>
     <use xlink:href="#DejaVuSans-Bold-73" transform="translate(4063.232422 0)"/>
     <use xlink:href="#DejaVuSans-Bold-20" transform="translate(4122.753906 0)"/>
     <use xlink:href="#DejaVuSans-Bold-6d" transform="translate(4157.568359 0)"/>
     <use xlink:href="#DejaVuSans-Bold-65" transform="translate(4261.767578 0)"/>
     <use xlink:href="#DejaVuSans-Bold-61" transform="translate(4329.589844 0)"/>
     <use xlink:href="#DejaVuSans-Bold-6e" transform="translate(4397.070312 0)"/>
    </g>
   </g>
   <g id="PathCollection_10">
    <defs>
     <path id="m2dbd5b494a" d="M 0 4.1833 
C 1.109424 4.1833 2.173559 3.742521 2.95804 2.95804 
C 3.742521 2.173559 4.1833 1.109424 4.1833 0 
C 4.1833 -1.109424 3.742521 -2.173559 2.95804 -2.95804 
C 2.173559 -3.742521 1.109424 -4.1833 0 -4.1833 
C -1.109424 -4.1833 -2.173559 -3.742521 -2.95804 -2.95804 
C -3.742521 -2.173559 -4.1833 -1.109424 -4.1833 0 
C -4.1833 1.109424 -3.742521 2.173559 -2.95804 2.95804 
C -2.173559 3.742521 -1.109424 4.1833 0 4.1833 
z
" style="stroke: #fcfcfb; stroke-width: 1.2"/>
    </defs>
    <g clip-path="url(#p5e8fd887cd)">
     <use xlink:href="#m2dbd5b494a" x="162.801633" y="264.610359" style="fill: #e34948; stroke: #fcfcfb; stroke-width: 1.2"/>
    </g>
   </g>
   <g id="PathCollection_11">
    <g clip-path="url(#p5e8fd887cd)">
     <use xlink:href="#m2dbd5b494a" x="193.809264" y="235.630359" style="fill: #e34948; stroke: #fcfcfb; stroke-width: 1.2"/>
    </g>
   </g>
   <g id="PathCollection_12">
    <g clip-path="url(#p5e8fd887cd)">
     <use xlink:href="#m2dbd5b494a" x="316.637941" y="206.650359" style="fill: #e34948; stroke: #fcfcfb; stroke-width: 1.2"/>
    </g>
   </g>
   <g id="PathCollection_13">
    <defs>
     <path id="m1fa60eb29f" d="M 0 4.1833 
C 1.109424 4.1833 2.173559 3.742521 2.95804 2.95804 
C 3.742521 2.173559 4.1833 1.109424 4.1833 0 
C 4.1833 -1.109424 3.742521 -2.173559 2.95804 -2.95804 
C 2.173559 -3.742521 1.109424 -4.1833 0 -4.1833 
C -1.109424 -4.1833 -2.173559 -3.742521 -2.95804 -2.95804 
C -3.742521 -2.173559 -4.1833 -1.109424 -4.1833 0 
C -4.1833 1.109424 -3.742521 2.173559 -2.95804 2.95804 
C -2.173559 3.742521 -1.109424 4.1833 0 4.1833 
z
" style="stroke: #fcfcfb; stroke-width: 1.2"/>
    </defs>
    <g clip-path="url(#p5e8fd887cd)">
     <use xlink:href="#m1fa60eb29f" x="387.546864" y="177.670359" style="fill: #1baf7a; stroke: #fcfcfb; stroke-width: 1.2"/>
    </g>
   </g>
   <g id="PathCollection_14">
    <g clip-path="url(#p5e8fd887cd)">
     <use xlink:href="#m1fa60eb29f" x="451.965818" y="148.690359" style="fill: #1baf7a; stroke: #fcfcfb; stroke-width: 1.2"/>
    </g>
   </g>
   <g id="PathCollection_15">
    <g clip-path="url(#p5e8fd887cd)">
     <use xlink:href="#m1fa60eb29f" x="505.327787" y="119.710359" style="fill: #1baf7a; stroke: #fcfcfb; stroke-width: 1.2"/>
    </g>
   </g>
   <g id="PathCollection_16">
    <g clip-path="url(#p5e8fd887cd)">
     <use xlink:href="#m1fa60eb29f" x="500.520403" y="90.730359" style="fill: #1baf7a; stroke: #fcfcfb; stroke-width: 1.2"/>
    </g>
   </g>
   <g id="PathCollection_17">
    <g clip-path="url(#p5e8fd887cd)">
     <use xlink:href="#m1fa60eb29f" x="488.501941" y="61.750359" style="fill: #1baf7a; stroke: #fcfcfb; stroke-width: 1.2"/>
    </g>
   </g>
   <g id="PathCollection_18">
    <g clip-path="url(#p5e8fd887cd)">
     <use xlink:href="#m1fa60eb29f" x="478.887172" y="32.770359" style="fill: #1baf7a; stroke: #fcfcfb; stroke-width: 1.2"/>
    </g>
   </g>
  </g>
 </g>
 <defs>
  <clipPath id="p5e8fd887cd">
   <rect x="103.911172" y="21.178359" width="468.72" height="255.024"/>
  </clipPath>
 </defs>
</svg>
